<?xml version="1.0" encoding="UTF-8" standalone="no"?>
<!-- Created with Inkscape (http://www.inkscape.org/) -->

<svg
   xmlns:dc="http://purl.org/dc/elements/1.1/"
   xmlns:cc="http://creativecommons.org/ns#"
   xmlns:rdf="http://www.w3.org/1999/02/22-rdf-syntax-ns#"
   xmlns:svg="http://www.w3.org/2000/svg"
   xmlns="http://www.w3.org/2000/svg"
   xmlns:sodipodi="http://sodipodi.sourceforge.net/DTD/sodipodi-0.dtd"
   xmlns:inkscape="http://www.inkscape.org/namespaces/inkscape"
   width="12.499819mm"
   height="15.852365mm"
   viewBox="0 0 12.499819 15.852365"
   version="1.1"
   id="svg8"
   inkscape:version="0.91+devel r14396 custom"
   sodipodi:docname="FAAS Logo.svg">
  <defs
     id="defs2" />
  <sodipodi:namedview
     id="base"
     pagecolor="#ffffff"
     bordercolor="#666666"
     borderopacity="1.0"
     inkscape:pageopacity="0.0"
     inkscape:pageshadow="2"
     inkscape:zoom="7.9195959"
     inkscape:cx="33.262984"
     inkscape:cy="22.721701"
     inkscape:document-units="mm"
     inkscape:current-layer="layer1"
     showgrid="false"
     showguides="true"
     inkscape:guide-bbox="true"
     fit-margin-top="0"
     fit-margin-left="0"
     fit-margin-right="0"
     fit-margin-bottom="0"
     inkscape:window-width="1920"
     inkscape:window-height="1036"
     inkscape:window-x="1920"
     inkscape:window-y="0"
     inkscape:window-maximized="1">
    <sodipodi:guide
       position="-5.9133624e-08,5.2372996"
       orientation="1,0"
       id="guide4180" />
    <sodipodi:guide
       position="12.496837,6.2058596"
       orientation="1,0"
       id="guide4182" />
  </sodipodi:namedview>
  <metadata
     id="metadata5">
    <rdf:RDF>
      <cc:Work
         rdf:about="">
        <dc:format>image/svg+xml</dc:format>
        <dc:type
           rdf:resource="http://purl.org/dc/dcmitype/StillImage" />
        <dc:title></dc:title>
      </cc:Work>
    </rdf:RDF>
  </metadata>
  <g
     inkscape:label="Layer 1"
     inkscape:groupmode="layer"
     id="layer1"
     transform="translate(-22.53683,-39.188495)">
    <path
       inkscape:connector-curvature="0"
       id="path4167"
       style="font-style:normal;font-variant:normal;font-weight:normal;font-stretch:normal;font-size:medium;line-height:75.99999905%;font-family:Helvetica;-inkscape-font-specification:Helvetica;text-align:center;letter-spacing:0px;word-spacing:0px;text-anchor:middle;fill:#000000;fill-opacity:1;stroke:none;stroke-width:0.26458332px;stroke-linecap:butt;stroke-linejoin:miter;stroke-opacity:1"
       d="m 22.576694,39.188495 h 5.265828 v 0.930175 h -4.237467 v 2.304769 h 3.72587 v 0.904338 h -3.72587 v 3.451985 h -1.028361 z" />
    <path
       inkscape:connector-curvature="0"
       id="path4169"
       style="font-style:normal;font-variant:normal;font-weight:normal;font-stretch:normal;font-size:medium;line-height:75.99999905%;font-family:Helvetica;-inkscape-font-specification:Helvetica;text-align:center;letter-spacing:0px;word-spacing:0px;text-anchor:middle;fill:#000000;fill-opacity:1;stroke:none;stroke-width:0.26458332px;stroke-linecap:butt;stroke-linejoin:miter;stroke-opacity:1"
       d="m 32.926268,43.668841 -1.090373,-3.3538 -1.158824,3.3538 z m -1.598887,-4.480346 h 1.100151 l 2.606135,7.591267 h -1.065923 l -0.728545,-2.273763 h -2.840834 l -0.777439,2.273763 h -0.99747 z m 0.503626,0 z" />
    <path
       inkscape:connector-curvature="0"
       id="path4171"
       style="font-style:normal;font-variant:normal;font-weight:normal;font-stretch:normal;font-size:medium;line-height:75.99999905%;font-family:Helvetica;-inkscape-font-specification:Helvetica;text-align:center;letter-spacing:0px;word-spacing:0px;text-anchor:middle;fill:#000000;fill-opacity:1;stroke:none;stroke-width:0.26458332px;stroke-linecap:butt;stroke-linejoin:miter;stroke-opacity:1"
       d="m 26.604677,51.715481 -1.03083,-3.3538 -1.095544,3.3538 z m -1.511575,-4.480346 h 1.040075 l 2.463821,7.591267 h -1.007717 l -0.68876,-2.273763 h -2.685704 l -0.734986,2.273763 H 22.53683 Z m 0.476123,0 z" />
    <path
       inkscape:connector-curvature="0"
       id="path4173"
       style="font-style:normal;font-variant:normal;font-weight:normal;font-stretch:normal;font-size:medium;line-height:75.99999905%;font-family:Helvetica;-inkscape-font-specification:Helvetica;text-align:center;letter-spacing:0px;word-spacing:0px;text-anchor:middle;fill:#000000;fill-opacity:1;stroke:none;stroke-width:0.26458332px;stroke-linecap:butt;stroke-linejoin:miter;stroke-opacity:1"
       d="m 29.951688,52.369188 q 0.03617,0.645956 0.304891,1.049032 0.511597,0.754476 1.803507,0.754476 0.578776,0 1.0542,-0.165365 0.91984,-0.320394 0.91984,-1.147216 0,-0.620118 -0.387573,-0.883667 -0.392741,-0.258383 -1.229899,-0.449585 l -1.028361,-0.232544 q -1.007691,-0.227377 -1.42627,-0.501262 -0.72347,-0.475423 -0.72347,-1.421102 0,-1.023193 0.707967,-1.679484 0.707968,-0.65629 2.005046,-0.65629 1.193725,0 2.025716,0.578776 0.837158,0.573608 0.837158,1.839681 h -0.966349 q -0.07751,-0.609782 -0.330729,-0.935344 -0.470256,-0.594279 -1.596802,-0.594279 -0.909505,0 -1.307414,0.382406 -0.397908,0.382406 -0.397908,0.888835 0,0.558105 0.465088,0.816487 0.304891,0.165365 1.37976,0.413412 l 1.064535,0.242879 q 0.769979,0.1757 1.188558,0.480591 0.72347,0.532267 0.72347,1.545125 0,1.260905 -0.919841,1.803507 -0.914672,0.542603 -2.129069,0.542603 -1.415934,0 -2.216918,-0.72347 -0.800985,-0.718303 -0.785482,-1.948202 z m 2.077393,-5.34851 z" />
  </g>
</svg>
