<?xml version="1.0" standalone="no"?>
<!DOCTYPE svg PUBLIC "-//W3C//DTD SVG 20010904//EN"
 "http://www.w3.org/TR/2001/REC-SVG-20010904/DTD/svg10.dtd">
<svg version="1.0" xmlns="http://www.w3.org/2000/svg"
 width="896.000000pt" height="896.000000pt" viewBox="0 0 896.000000 896.000000"
 preserveAspectRatio="xMidYMid meet">
<metadata>
Created by potrace 1.11, written by Peter Selinger 2001-2013
</metadata>
<g transform="translate(0.000000,896.000000) scale(0.100000,-0.100000)"
fill="#000000" stroke="none">
<path d="M972 6815 l0 -2145 289 0 c268 0 289 1 290 18 0 9 2 447 2 972 l2
955 718 5 c396 3 723 3 727 0 4 -3 112 -3 240 0 128 3 236 3 240 0 4 -3 46 -3
91 0 l84 5 2 253 1 252 -41 0 c-23 1 -496 2 -1052 3 l-1010 2 -1 648 c0 356 2
647 5 648 3 1 539 2 1191 4 652 1 1188 3 1191 4 3 0 6 118 5 261 l0 260 -1487
0 -1487 0 0 -2145z"/>
<path d="M5901 8923 c-6 -21 -22 -67 -36 -103 -14 -36 -27 -72 -29 -80 -2 -8
-8 -26 -13 -40 -6 -14 -29 -79 -52 -145 -24 -66 -49 -138 -57 -160 -9 -22 -24
-65 -34 -95 -39 -112 -51 -145 -59 -165 -5 -11 -32 -87 -61 -170 -28 -82 -55
-159 -60 -170 -9 -22 -71 -194 -74 -210 -2 -5 -6 -17 -9 -25 -12 -29 -78 -215
-82 -230 -2 -8 -9 -28 -15 -45 -14 -35 -73 -200 -159 -445 -34 -96 -68 -191
-76 -210 -8 -19 -58 -159 -111 -310 -123 -353 -138 -393 -229 -645 -42 -115
-77 -217 -80 -225 -2 -8 -27 -78 -55 -155 -28 -77 -53 -144 -54 -150 -2 -5 -5
-17 -8 -25 -28 -77 -53 -146 -53 -150 0 -3 -5 -18 -12 -35 -21 -56 -93 -258
-93 -263 0 -1 127 -1 282 0 l281 3 57 168 c31 92 60 170 63 174 4 3 7 15 7 25
0 10 4 26 10 36 10 18 60 170 61 187 1 6 5 18 10 27 5 10 57 156 114 325 58
170 108 315 113 323 7 12 118 14 805 15 787 0 796 0 806 -20 8 -16 112 -336
116 -355 0 -3 16 -52 34 -110 19 -58 33 -106 32 -108 -1 -1 6 -16 14 -32 8
-16 15 -33 15 -37 0 -5 14 -53 32 -108 17 -55 32 -102 33 -105 2 -9 27 -85 32
-100 4 -8 7 -17 7 -20 1 -3 21 -69 46 -148 l45 -142 302 0 302 0 -35 103 c-20
56 -38 109 -41 117 -3 8 -7 20 -9 25 -3 15 -55 166 -64 190 -15 38 -23 60 -25
70 -2 6 -21 62 -43 125 -22 63 -52 151 -67 195 -14 44 -28 87 -32 95 -3 8 -7
20 -9 25 -1 6 -19 57 -39 115 -20 58 -38 110 -39 115 -1 6 -4 15 -7 20 -4 6
-21 55 -38 110 -18 55 -36 109 -41 120 -5 11 -37 103 -71 205 -34 102 -66 191
-72 198 -5 6 -7 12 -3 12 5 0 -5 33 -34 105 -4 11 -20 58 -35 105 -16 47 -32
91 -38 98 -5 6 -7 12 -4 12 3 0 -19 71 -50 158 -30 86 -81 236 -114 332 -33
96 -69 200 -80 230 -11 30 -21 62 -23 70 -7 24 -126 373 -136 395 -4 11 -11
29 -13 40 -5 20 -30 92 -192 560 -48 138 -94 271 -102 298 l-15 47 -313 0
-314 0 -10 -37z m375 -823 c31 -96 57 -179 58 -185 1 -5 5 -15 8 -21 4 -6 9
-21 12 -35 3 -13 37 -121 76 -239 39 -118 73 -222 75 -230 5 -20 164 -510 175
-535 15 -39 137 -420 135 -423 -4 -5 -1256 -4 -1261 0 -2 3 23 83 57 179 73
209 229 660 233 674 2 6 6 17 9 25 3 8 16 44 27 80 11 36 24 72 27 80 8 19 8
20 18 55 4 17 13 39 18 50 6 11 12 25 13 30 1 6 21 64 44 130 23 66 43 125 44
130 2 6 8 23 14 38 7 16 12 31 12 33 0 8 109 324 122 354 13 31 9 41 84 -190z"/>
<path d="M6186 4523 c-1 -1 -47 -5 -102 -8 -54 -3 -110 -7 -124 -9 -84 -13
-108 -17 -130 -22 -14 -2 -36 -7 -50 -9 -50 -8 -71 -14 -177 -51 -60 -20 -139
-52 -178 -71 -299 -151 -541 -433 -630 -739 -25 -85 -29 -101 -40 -161 -9 -51
-18 -189 -18 -263 0 -397 189 -697 543 -862 71 -34 198 -82 285 -109 22 -6 47
-14 55 -17 8 -3 20 -6 25 -7 6 -2 73 -19 150 -39 77 -20 183 -46 235 -57 52
-12 113 -25 135 -30 22 -5 54 -12 70 -15 17 -3 41 -9 55 -14 14 -5 41 -11 60
-14 48 -8 63 -12 160 -36 47 -12 93 -23 102 -25 9 -2 61 -16 115 -30 54 -15
103 -28 108 -29 13 -4 44 -15 70 -26 11 -5 38 -14 60 -21 22 -7 44 -17 50 -21
5 -4 17 -8 27 -8 10 0 18 -4 18 -10 0 -5 7 -10 15 -10 8 0 37 -14 65 -30 28
-17 55 -30 61 -30 18 0 146 -135 166 -175 28 -54 54 -132 60 -175 2 -19 8 -47
13 -61 4 -14 4 -32 0 -39 -5 -7 -5 -23 -1 -34 5 -18 7 -79 1 -96 0 -3 -3 -23
-6 -45 -4 -42 -11 -78 -14 -82 -2 -2 -3 -6 -5 -10 -13 -47 -59 -141 -88 -179
-75 -98 -202 -191 -338 -245 -76 -30 -237 -78 -243 -72 -2 3 -11 1 -18 -3 -7
-5 -22 -9 -33 -10 -11 0 -36 -4 -55 -7 -86 -16 -157 -21 -320 -21 -212 0 -323
13 -470 55 -25 7 -47 13 -50 14 -24 5 -90 32 -141 56 -199 97 -351 257 -430
455 -17 43 -33 90 -35 103 -3 13 -10 33 -15 43 -6 11 -8 22 -5 25 2 3 1 15 -3
27 -12 31 -27 137 -30 224 -1 10 -59 12 -273 10 l-273 -3 2 -85 c2 -107 12
-230 19 -242 3 -5 8 -25 10 -46 3 -20 8 -46 11 -57 4 -11 8 -25 9 -32 5 -26
27 -90 45 -130 10 -24 19 -46 19 -51 0 -19 82 -167 132 -237 31 -44 131 -158
167 -190 84 -77 96 -86 141 -117 25 -18 47 -34 50 -37 13 -15 260 -143 260
-135 0 4 6 2 13 -3 27 -21 221 -80 317 -97 19 -3 44 -8 55 -10 136 -25 214
-30 435 -30 203 -1 336 8 450 29 19 4 44 8 55 10 52 7 249 61 339 92 122 42
326 142 423 206 134 89 257 226 327 363 39 77 88 204 79 204 -3 0 0 7 7 15 7
9 10 18 7 21 -3 3 -2 17 4 31 5 13 11 36 13 51 3 15 8 47 13 72 9 53 9 366 0
428 -3 23 -14 73 -23 110 -10 37 -17 73 -17 80 0 6 -5 12 -10 12 -6 0 -8 3 -5
6 10 9 -51 135 -107 219 -108 163 -281 299 -495 388 -103 44 -296 104 -389
123 -12 3 -53 12 -90 20 -36 9 -74 18 -83 20 -10 2 -26 6 -35 8 -10 2 -61 14
-113 26 -52 12 -102 23 -110 25 -8 2 -46 10 -85 19 -38 8 -85 20 -102 25 -18
5 -33 8 -33 6 0 -3 -11 0 -25 5 -14 5 -36 12 -48 14 -42 9 -62 14 -102 25 -22
6 -49 12 -60 14 -11 2 -38 9 -60 15 -22 7 -78 23 -125 37 -231 66 -338 111
-418 178 -51 43 -132 153 -132 180 0 9 -4 18 -9 21 -8 6 -18 46 -27 116 -2 14
-4 50 -5 80 -1 48 2 78 15 162 1 10 5 21 9 24 4 4 7 13 7 20 0 24 59 140 99
193 47 63 159 171 177 171 3 0 17 9 30 19 57 45 227 98 384 119 65 8 413 8
485 0 252 -31 453 -117 593 -255 92 -91 159 -203 187 -313 0 -3 6 -21 13 -41
7 -20 15 -47 17 -60 3 -13 9 -44 15 -69 5 -25 11 -58 13 -74 3 -22 10 -31 28
-36 18 -4 463 -5 515 -1 23 2 -5 283 -42 421 -23 84 -66 203 -79 220 -7 8 -15
23 -18 33 -4 9 -27 49 -52 87 -95 146 -263 287 -460 387 -107 55 -166 80 -277
117 -84 27 -243 64 -305 70 -24 3 -46 7 -51 10 -14 9 -398 27 -406 19z"/>
<path d="M2428 4412 c-32 -3 -39 -8 -44 -30 -4 -15 -10 -31 -15 -37 -4 -5 -8
-13 -8 -17 -1 -5 -1 -9 -2 -10 0 -2 -2 -10 -4 -18 -2 -8 -22 -69 -45 -135 -22
-66 -43 -127 -45 -135 -5 -21 -404 -1202 -412 -1220 -3 -8 -8 -24 -10 -35 -1
-11 -7 -29 -12 -40 -5 -11 -19 -49 -31 -85 -12 -36 -24 -72 -27 -80 -3 -8 -7
-20 -8 -26 -3 -13 -53 -161 -62 -184 -3 -8 -7 -19 -9 -25 -1 -5 -12 -37 -23
-70 -12 -33 -23 -67 -25 -75 -2 -8 -20 -62 -40 -120 -30 -85 -95 -279 -101
-300 -1 -3 -4 -12 -8 -20 -3 -8 -65 -193 -138 -410 -72 -217 -183 -548 -247
-735 -63 -187 -115 -344 -117 -350 -1 -5 -5 -17 -8 -25 -4 -8 -13 -36 -21 -62
l-14 -47 107 1 c58 0 108 -1 111 -2 17 -6 52 -6 55 0 5 8 73 5 81 -3 4 -3 16
-2 28 2 22 8 72 8 81 -1 12 -12 64 6 73 25 9 19 55 160 68 207 5 20 64 201 71
220 4 8 7 17 7 20 1 3 13 41 28 85 29 88 185 574 216 670 l19 60 761 1 c669 0
762 -2 762 -15 0 -12 28 -107 48 -161 3 -8 6 -19 8 -25 1 -5 26 -86 54 -180
28 -93 64 -213 80 -265 28 -93 49 -162 91 -297 11 -38 24 -81 28 -98 14 -55
63 -210 70 -225 5 -8 20 -15 34 -15 14 -1 29 -4 33 -7 3 -4 16 -3 28 1 18 7
70 7 86 1 3 -1 10 -1 15 0 12 2 208 2 215 0 17 -6 52 -6 55 0 2 4 27 5 55 2
27 -2 50 -2 50 1 0 6 -85 271 -125 392 -13 39 -60 185 -105 325 -45 140 -84
262 -87 270 -4 8 -7 17 -8 20 0 3 -6 21 -12 40 -7 19 -66 202 -132 405 -66
204 -134 415 -152 470 -18 55 -34 105 -35 110 -1 6 -16 51 -33 100 -17 50 -33
99 -36 109 -2 11 -12 42 -22 70 -9 28 -18 53 -18 56 -6 26 -40 128 -46 140 -7
12 -57 171 -65 205 -1 6 -9 30 -18 55 -15 43 -36 107 -141 435 -27 83 -52 159
-56 170 -9 23 -73 217 -74 225 -3 17 -77 248 -84 260 -5 9 -12 31 -16 50 -4
19 -10 40 -14 45 -3 6 -6 12 -6 15 -2 17 -99 307 -105 314 -8 8 -472 15 -552
8z m376 -1092 c58 -190 118 -383 132 -430 14 -47 30 -96 34 -110 5 -14 25 -79
45 -145 20 -66 50 -163 67 -215 16 -52 32 -103 33 -113 2 -9 7 -22 10 -27 3
-5 8 -18 10 -28 3 -20 73 -248 82 -272 3 -8 8 -26 10 -39 2 -14 9 -33 14 -43
8 -16 5 -18 -23 -19 -18 -1 -37 -1 -41 0 -5 1 -29 1 -55 1 -26 0 -59 -1 -74 0
-62 0 -89 0 -100 -1 -12 0 -52 0 -140 1 -62 0 -89 0 -100 -1 -12 0 -52 0 -140
1 -62 0 -89 0 -100 -1 -12 0 -52 0 -140 1 -62 0 -89 0 -100 -1 -7 0 -35 0 -63
0 -27 1 -63 0 -80 -2 -27 -2 -30 1 -27 23 2 14 15 60 29 102 14 43 25 80 24
83 0 2 8 25 19 50 11 25 17 45 14 45 -3 0 -2 6 3 13 4 6 8 17 9 22 1 6 21 66
44 135 23 69 43 130 45 135 1 6 5 17 8 25 10 26 50 155 49 155 -1 0 10 32 24
70 14 39 27 77 29 85 2 8 4 15 5 15 1 0 3 7 5 16 1 9 14 49 28 90 24 70 247
756 263 809 9 29 -6 72 148 -430z"/>
</g>
</svg>
