<?xml version="1.0" standalone="no"?>
<!DOCTYPE svg PUBLIC "-//W3C//DTD SVG 20010904//EN"
 "http://www.w3.org/TR/2001/REC-SVG-20010904/DTD/svg10.dtd">
<svg version="1.0" xmlns="http://www.w3.org/2000/svg"
 width="468pt" height="457pt" viewBox="0 0 468 457"
 preserveAspectRatio="xMidYMid meet">
<metadata>
Created by potrace 1.8, written by Peter Selinger 2001-2007
</metadata>
<g transform="translate(0,457) scale(0.063847,-0.063847)"
fill="#000000" stroke="none">
<path fill="#00FF00" d="M1250 5769 c0 -21 79 -104 158 -166 48 -37 62 -41 62 -17 0 10 16 3
53 -26 64 -50 70 -52 72 -20 2 27 -14 70 -26 70 -4 0 -11 9 -14 21 -6 18 -8
19 -19 4 -10 -14 -15 -13 -39 14 -26 29 -72 50 -84 37 -3 -3 -19 6 -35 19 -16
14 -35 25 -42 25 -7 0 -21 9 -32 21 -10 11 -27 25 -36 30 -15 8 -18 6 -18 -12z"/>
<path fill="#00FF00" d="M3370 5555 c0 -13 61 -95 78 -104 9 -5 22 -29 28 -53 6 -24 16 -42
22 -41 6 2 27 -16 46 -38 33 -39 56 -45 56 -13 0 8 5 14 10 14 6 0 10 6 10 14
0 12 -113 96 -129 96 -4 0 -15 15 -26 33 -10 17 -28 42 -39 55 -23 25 -56 47
-56 37z"/>
<path fill="#00FF00" d="M1210 5466 c0 -8 3 -16 8 -18 4 -1 26 -29 50 -60 39 -53 72 -74 72
-47 0 14 -89 118 -112 130 -14 7 -18 6 -18 -5z"/>
<path fill="#00FF00" d="M3300 5446 c0 -9 4 -16 9 -16 5 0 12 -11 15 -25 4 -14 11 -25 16 -25
13 0 13 1 -6 38 -18 37 -34 50 -34 28z"/>
<path fill="#00FF00" d="M1970 5362 c0 -4 11 -18 25 -30 15 -13 25 -17 25 -9 -1 13 -50 53
-50 39z"/>
<path fill="#00FF00" d="M1670 5319 c0 -14 70 -99 81 -99 20 0 7 31 -30 69 -41 43 -51 49 -51
30z"/>
<path fill="#00FF00" d="M3640 5298 c5 -18 13 -49 19 -68 13 -44 93 -125 115 -117 13 5 14 11
4 34 -20 45 -56 100 -75 115 -10 7 -26 25 -36 41 -24 37 -37 34 -27 -5z"/>
<path fill="#00FF00" d="M980 5240 c0 -15 31 -40 50 -40 11 0 34 -9 52 -20 42 -26 56 -26 33
0 -10 11 -24 20 -30 20 -7 0 -15 6 -18 14 -6 14 -87 39 -87 26z"/>
<path fill="#00FF00" d="M864 5164 c1 -9 13 -25 27 -35 l24 -20 -27 7 c-48 11 -30 -9 60 -68
121 -80 129 -61 20 47 -85 84 -108 100 -104 69z"/>
<path fill="#00FF00" d="M3910 5142 c0 -5 9 -19 20 -32 11 -13 20 -29 20 -35 0 -7 7 -18 15
-25 12 -10 15 -10 15 4 0 9 -5 16 -10 16 -6 0 -8 10 -4 24 4 18 0 28 -17 40
-26 18 -39 20 -39 8z"/>
<path fill="#00FF00" d="M1170 5129 c0 -11 73 -89 83 -89 18 0 3 32 -30 64 -38 37 -53 44 -53
25z"/>
<path fill="#00FF00" d="M4087 5120 c3 -10 11 -25 19 -31 8 -6 14 -17 14 -24 0 -19 49 -75 66
-75 29 0 14 48 -32 99 -48 53 -76 66 -67 31z"/>
<path fill="#00FF00" d="M630 5120 c0 -14 71 -80 87 -80 21 0 15 14 -19 47 -35 32 -68 48 -68
33z"/>
<path fill="#00FF00" d="M3691 5039 c6 -12 26 -35 45 -51 19 -17 32 -33 30 -37 -8 -13 9 -29
37 -36 38 -10 35 12 -8 59 -19 21 -35 42 -35 47 0 5 -5 9 -11 9 -6 0 -17 7
-25 15 -9 8 -22 15 -30 15 -12 0 -13 -4 -3 -21z"/>
<path fill="#00FF00" d="M4230 4932 c0 -24 61 -140 85 -162 l28 -25 -6 43 c-3 24 -13 52 -22
62 -9 10 -25 33 -34 52 -17 31 -51 51 -51 30z"/>
<path fill="#00FF00" d="M4110 4901 c0 -14 66 -110 85 -123 23 -17 25 -6 4 32 -26 45 -89 110
-89 91z"/>
<path fill="#00FF00" d="M2670 4765 c0 -17 82 -75 105 -75 17 0 -1 19 -44 48 -50 32 -61 37
-61 27z"/>
<path fill="#00FF00" d="M2997 4709 c28 -47 59 -73 80 -64 15 6 11 13 -30 51 -57 51 -75 56
-50 13z"/>
<path fill="#00FF00" d="M2123 4691 c4 -17 18 -48 32 -69 14 -20 25 -50 25 -67 0 -30 15 -55
32 -55 18 0 -3 104 -33 161 -7 13 -15 31 -19 39 -4 8 -15 17 -25 19 -15 2 -17
-2 -12 -28z"/>
<path fill="#00FF00" d="M2760 4572 c0 -24 122 -123 135 -110 10 10 -7 33 -56 76 -46 39 -79
53 -79 34z"/>
<path fill="#00FF00" d="M2246 4497 c2 -56 4 -67 13 -67 12 0 19 54 9 79 -11 31 -23 25 -22
-12z"/>
<path fill="#00FF00" d="M2921 4427 c14 -12 35 -36 47 -54 12 -17 29 -30 39 -29 9 2 30 -4 45
-12 77 -38 23 29 -66 82 -68 41 -106 49 -65 13z"/>
<path fill="#00FF00" d="M2760 4423 c1 -22 73 -76 96 -71 10 2 -3 17 -35 41 -52 38 -61 43
-61 30z"/>
<path fill="#00FF00" d="M4684 4051 c4 -6 12 -11 18 -11 7 0 22 -10 35 -22 16 -15 26 -19 34
-11 7 7 2 15 -14 26 -33 21 -82 34 -73 18z"/>
<path fill="#00FF00" d="M3276 3912 c-3 -5 20 -24 51 -43 30 -19 67 -46 81 -61 14 -16 31 -28
39 -28 24 0 13 28 -19 51 -18 13 -39 29 -46 36 -7 7 -20 13 -27 13 -8 0 -20 8
-27 18 -15 19 -44 27 -52 14z"/>
<path fill="#00FF00" d="M4870 3793 c1 -17 38 -52 80 -74 25 -13 47 -27 50 -31 10 -12 81 -58
90 -58 16 0 11 18 -12 43 -13 14 -34 36 -47 51 -12 14 -27 23 -33 20 -5 -3
-17 1 -26 10 -16 14 -83 46 -97 46 -3 0 -5 -3 -5 -7z"/>
<path fill="#00FF00" d="M3695 3673 c4 -10 10 -28 12 -40 3 -12 16 -32 29 -44 l24 -22 0 30
c0 19 -10 43 -27 62 -30 34 -49 41 -38 14z"/>
<path fill="#00FF00" d="M3306 3431 c5 -5 23 -12 39 -16 29 -6 29 -6 11 9 -21 17 -67 23 -50
7z"/>
<path fill="#00FF00" d="M3354 3169 c-6 -10 72 -109 86 -109 17 0 20 18 5 30 -9 7 -22 27 -31
45 -15 33 -49 52 -60 34z"/>
<path fill="#00FF00" d="M3723 3054 c-6 -13 -7 -24 -2 -24 5 0 9 -12 9 -26 0 -16 5 -24 13
-21 12 4 11 43 -1 78 -6 16 -8 15 -19 -7z"/>
<path fill="#00FF00" d="M4730 3003 c1 -10 6 -30 13 -45 16 -36 127 -158 144 -158 18 0 16 7
-8 38 -65 86 -79 106 -79 122 0 19 -40 60 -58 60 -7 0 -12 -8 -12 -17z"/>
<path fill="#00FF00" d="M4744 2726 c-10 -25 76 -140 92 -123 7 7 -50 110 -71 127 -12 10 -16
9 -21 -4z"/>
<path fill="#00FF00" d="M4730 2641 c0 -9 44 -102 61 -131 5 -8 21 -40 34 -70 14 -30 30 -62
35 -70 6 -8 14 -25 19 -37 14 -30 31 -38 31 -14 0 11 -4 23 -10 26 -5 3 -10
16 -10 28 0 17 2 19 10 7 17 -28 20 -3 4 44 -13 37 -20 46 -36 44 -16 -2 -27
9 -47 47 -31 60 -79 135 -86 135 -3 0 -5 -4 -5 -9z"/>
<path fill="#00FF00" d="M4877 2590 c-9 -36 57 -199 115 -282 21 -30 38 -36 38 -14 0 18 -87
194 -108 218 -8 10 -15 31 -14 47 1 37 -23 61 -31 31z"/>
<path fill="#00FF00" d="M4920 2339 c0 -11 16 -55 37 -97 22 -46 32 -77 25 -80 -12 -4 5 -62
29 -101 15 -23 41 -29 38 -8 -1 6 1 20 6 30 4 11 1 26 -9 40 -9 12 -23 32 -31
43 -16 22 -18 29 -29 105 -9 64 -66 122 -66 68z"/>
<path fill="#00FF00" d="M4760 2305 c0 -18 31 -74 57 -102 31 -34 53 -42 53 -20 0 22 -74 122
-93 125 -9 2 -17 1 -17 -3z"/>
<path fill="#00FF00" d="M3985 2143 c9 -16 31 -46 50 -67 25 -31 37 -37 51 -31 11 4 27 7 37
6 37 -5 14 22 -60 69 -43 28 -82 50 -86 50 -5 0 -1 -12 8 -27z"/>
<path fill="#00FF00" d="M4890 2150 c0 -6 7 -37 16 -69 18 -65 47 -106 81 -116 20 -6 21 -4
13 24 -11 38 -89 171 -101 171 -5 0 -9 -5 -9 -10z"/>
<path fill="#00FF00" d="M4200 2142 c0 -28 128 -116 149 -103 10 7 3 17 -30 39 -24 17 -56 40
-71 51 -27 22 -48 27 -48 13z"/>
<path fill="#00FF00" d="M4719 2103 c19 -37 38 -59 92 -105 23 -20 52 -67 116 -190 7 -14 20
-29 28 -32 18 -6 19 -1 4 25 -6 11 -12 29 -14 40 -2 10 -19 42 -38 71 -19 29
-48 78 -66 109 -35 64 -53 82 -83 84 -11 1 -25 9 -30 18 -19 35 -28 15 -9 -20z"/>
<path fill="#00FF00" d="M4160 2045 c0 -24 166 -198 201 -210 9 -3 55 -44 102 -91 56 -56 95
-87 112 -88 14 -2 41 -20 61 -40 39 -40 66 -49 41 -13 -9 12 -32 45 -52 74
-39 58 -233 217 -287 236 -10 4 -18 15 -18 26 0 11 -11 28 -25 38 -14 10 -42
30 -62 46 -31 24 -73 36 -73 22z"/>
<path fill="#00FF00" d="M4554 2028 c8 -42 24 -75 40 -81 22 -9 20 9 -6 52 -13 20 -21 38 -20
41 2 2 -2 6 -8 8 -6 2 -9 -5 -6 -20z"/>
<path fill="#00FF00" d="M4360 1993 c0 -13 96 -113 109 -113 19 0 -13 53 -54 89 -35 30 -55
39 -55 24z"/>
<path fill="#00FF00" d="M4718 1894 c-8 -7 9 -39 53 -99 20 -28 42 -67 48 -87 7 -20 19 -42
27 -48 12 -11 14 -5 14 36 0 39 -7 59 -41 111 -49 74 -84 105 -101 87z"/>
</g>
</svg>
