<?xml version="1.0" standalone="no"?>
<!DOCTYPE svg PUBLIC "-//W3C//DTD SVG 20010904//EN"
 "http://www.w3.org/TR/2001/REC-SVG-20010904/DTD/svg10.dtd">
<svg version="1.0" xmlns="http://www.w3.org/2000/svg"
 width="468pt" height="457pt" viewBox="0 0 468 457"
 preserveAspectRatio="xMidYMid meet">
<metadata>
Created by potrace 1.8, written by Peter Selinger 2001-2007
</metadata>
<g transform="translate(0,457) scale(0.063847,-0.063847)"
fill="#000000" stroke="none">
<path fill="#FF0000" d="M2566 7061 c-17 -6 -14 -10 20 -23 42 -17 61 -5 28 19 -20 15 -21 15
-48 4z"/>
<path fill="#FF0000" d="M2400 5905 c0 -10 7 -15 18 -13 21 4 19 22 -2 26 -10 2 -16 -3 -16
-13z"/>
<path fill="#FF0000" d="M866 5861 c-3 -5 1 -14 9 -21 12 -10 15 -10 15 3 0 19 -16 31 -24 18z"/>
<path fill="#FF0000" d="M1086 5721 c-8 -12 2 -55 14 -59 5 -2 10 -9 10 -15 0 -7 20 -22 45
-34 50 -24 55 -19 30 40 -20 49 -84 93 -99 68z"/>
<path fill="#FF0000" d="M1670 5650 c0 -3 7 -16 16 -28 14 -20 14 -22 0 -22 -9 0 -16 5 -16
10 0 6 -8 10 -17 10 -13 0 -11 -6 10 -28 15 -15 27 -33 27 -39 0 -16 89 -103
105 -103 8 0 15 3 15 6 0 13 -45 71 -79 102 l-36 33 32 -6 c29 -6 32 -4 31 17
-2 35 -27 58 -60 56 -15 -1 -28 -5 -28 -8z"/>
<path fill="#FF0000" d="M896 5614 c-8 -22 -8 -34 2 -34 11 0 52 35 52 44 0 13 -48 5 -54 -10z"/>
<path fill="#FF0000" d="M3241 5585 c-19 -34 -20 -38 -5 -60 16 -25 44 -34 44 -15 0 21 22 8
82 -50 34 -32 65 -57 67 -54 3 3 -1 9 -9 14 -8 6 -12 10 -7 10 4 0 -4 18 -18
40 -14 22 -25 42 -25 45 0 9 -43 69 -64 87 -28 26 -42 22 -65 -17z"/>
<path fill="#FF0000" d="M1906 5555 c4 -8 9 -15 13 -15 4 0 12 -15 19 -33 16 -45 68 -95 83
-80 20 20 2 63 -29 69 -16 3 -37 20 -51 40 -24 35 -45 46 -35 19z"/>
<path fill="#FF0000" d="M3163 5549 c-13 -13 -7 -36 15 -61 23 -28 41 -23 36 10 -7 37 -36 66
-51 51z"/>
<path fill="#FF0000" d="M2340 5502 c0 -25 27 -60 60 -77 25 -13 29 -13 34 1 8 22 9 20 -25
59 -33 38 -69 47 -69 17z"/>
<path fill="#FF0000" d="M940 5501 c0 -5 5 -13 10 -16 6 -3 10 -2 10 4 0 5 -4 13 -10 16 -5 3
-10 2 -10 -4z"/>
<path fill="#FF0000" d="M3902 5483 c-6 -2 -10 -9 -6 -14 3 -5 -2 -9 -10 -9 -9 0 -16 -7 -16
-17 0 -22 48 -103 62 -103 20 0 49 44 44 65 -3 11 -6 25 -6 31 0 12 -38 54
-48 53 -4 0 -13 -3 -20 -6z"/>
<path fill="#FF0000" d="M3786 5435 c-21 -17 -27 -28 -21 -44 10 -32 54 -81 73 -81 14 0 16 9
14 59 -3 39 -9 64 -20 74 -15 14 -20 13 -46 -8z"/>
<path fill="#FF0000" d="M685 5420 c-3 -5 1 -10 9 -10 9 0 16 5 16 10 0 6 -4 10 -9 10 -6 0
-13 -4 -16 -10z"/>
<path fill="#FF0000" d="M2534 5405 c-8 -20 18 -48 40 -43 13 2 14 7 3 27 -15 31 -35 38 -43
16z"/>
<path fill="#FF0000" d="M687 5373 c-4 -3 -7 -11 -7 -17 0 -6 5 -5 12 2 6 6 9 14 7 17 -3 3
-9 2 -12 -2z"/>
<path fill="#FF0000" d="M1860 5282 c0 -5 11 -18 25 -30 44 -38 64 -23 22 16 -23 22 -47 29
-47 14z"/>
<path fill="#FF0000" d="M1485 5271 c-8 -15 3 -31 21 -31 9 0 14 7 12 17 -4 20 -24 28 -33 14z"/>
<path fill="#FF0000" d="M3830 5277 c0 -2 9 -14 20 -27 22 -26 27 -15 6 13 -12 15 -26 23 -26
14z"/>
<path fill="#FF0000" d="M2202 5198 c6 -18 28 -21 28 -4 0 9 -7 16 -16 16 -9 0 -14 -5 -12
-12z"/>
<path fill="#FF0000" d="M1150 5155 c7 -9 15 -13 17 -11 7 7 -7 26 -19 26 -6 0 -6 -6 2 -15z"/>
<path fill="#FF0000" d="M675 5141 c-3 -5 2 -11 10 -15 8 -3 17 -1 20 3 3 5 -2 11 -10 15 -8
3 -17 1 -20 -3z"/>
<path fill="#FF0000" d="M4272 5128 c-17 -17 -15 -38 3 -38 12 0 35 28 35 44 0 11 -26 6 -38
-6z"/>
<path fill="#FF0000" d="M2405 5100 c3 -5 11 -10 16 -10 6 0 7 5 4 10 -3 6 -11 10 -16 10 -6
0 -7 -4 -4 -10z"/>
<path fill="#FF0000" d="M4315 5050 c3 -5 8 -10 11 -10 2 0 4 5 4 10 0 6 -5 10 -11 10 -5 0
-7 -4 -4 -10z"/>
<path fill="#FF0000" d="M685 5010 c19 -21 45 -27 45 -10 0 6 -12 15 -26 20 -36 14 -39 13
-19 -10z"/>
<path fill="#FF0000" d="M4329 4999 c-1 -2 -3 -15 -4 -29 -1 -14 -6 -33 -10 -42 -10 -26 25
-24 59 3 31 24 35 59 7 59 -11 0 -26 3 -35 6 -9 3 -17 5 -17 3z"/>
<path fill="#FF0000" d="M1538 4939 c7 -18 22 -28 22 -14 0 3 0 12 0 20 0 8 -7 15 -15 15 -10
0 -12 -6 -7 -21z"/>
<path fill="#FF0000" d="M4012 4895 c11 -25 28 -34 28 -14 0 11 -24 39 -34 39 -3 0 0 -11 6
-25z"/>
<path fill="#FF0000" d="M1147 4880 c10 -11 21 -20 26 -20 4 0 3 9 -3 20 -6 11 -17 20 -25 20
-12 0 -12 -4 2 -20z"/>
<path fill="#FF0000" d="M2486 4891 c-3 -5 1 -11 9 -15 15 -6 29 7 18 18 -9 9 -21 8 -27 -3z"/>
<path fill="#FF0000" d="M4050 4849 c0 -25 16 -49 32 -49 15 0 8 27 -12 50 l-20 23 0 -24z"/>
<path fill="#FF0000" d="M1468 4853 c-10 -3 -18 -9 -18 -14 0 -6 4 -8 9 -5 5 3 14 -1 21 -9
18 -21 29 -19 23 5 -6 24 -12 28 -35 23z"/>
<path fill="#FF0000" d="M1420 4834 c0 -8 5 -12 10 -9 6 4 8 11 5 16 -9 14 -15 11 -15 -7z"/>
<path fill="#FF0000" d="M2545 4840 c3 -5 11 -10 16 -10 6 0 7 5 4 10 -3 6 -11 10 -16 10 -6
0 -7 -4 -4 -10z"/>
<path fill="#FF0000" d="M2830 4771 c0 -22 47 -64 64 -58 14 6 13 10 -10 37 -27 29 -54 40
-54 21z"/>
<path fill="#FF0000" d="M4340 4719 c0 -36 24 -69 49 -69 20 0 4 51 -25 80 l-24 25 0 -36z"/>
<path fill="#FF0000" d="M1520 4695 l-25 -27 33 -29 c50 -45 69 -18 34 49 l-18 33 -24 -26z"/>
<path fill="#FF0000" d="M1690 4685 c0 -8 7 -15 15 -15 8 0 15 7 15 15 0 8 -7 15 -15 15 -8 0
-15 -7 -15 -15z"/>
<path fill="#FF0000" d="M4276 4675 l-30 -13 31 -31 c44 -43 61 -41 59 8 0 22 -3 38 -5 35 -2
-2 -9 0 -15 5 -6 5 -24 3 -40 -4z"/>
<path fill="#FF0000" d="M4444 4675 c-8 -21 2 -45 20 -45 22 0 26 35 4 49 -15 9 -20 9 -24 -4z"/>
<path fill="#FF0000" d="M1884 4669 c-3 -6 -1 -16 5 -22 8 -8 11 -5 11 11 0 24 -5 28 -16 11z"/>
<path fill="#FF0000" d="M2915 4630 c-8 -13 9 -20 24 -11 10 6 9 10 -3 14 -8 3 -18 2 -21 -3z"/>
<path fill="#FF0000" d="M2065 4601 c-8 -14 5 -62 16 -55 12 7 12 51 0 59 -5 3 -12 1 -16 -4z"/>
<path fill="#FF0000" d="M3396 4562 c-9 -14 12 -35 28 -29 23 9 20 37 -3 37 -11 0 -22 -4 -25
-8z"/>
<path fill="#FF0000" d="M2340 4551 c0 -6 5 -13 10 -16 6 -3 10 1 10 9 0 9 -4 16 -10 16 -5 0
-10 -4 -10 -9z"/>
<path fill="#FF0000" d="M2585 4550 c-8 -13 5 -13 25 0 13 8 13 10 -2 10 -9 0 -20 -4 -23 -10z"/>
<path fill="#FF0000" d="M3040 4521 c0 -12 42 -43 49 -35 3 3 0 9 -8 13 -7 5 -12 12 -11 17 0
5 -6 10 -14 12 -9 2 -16 -1 -16 -7z"/>
<path fill="#FF0000" d="M4222 4498 c2 -14 13 -24 33 -30 46 -12 59 -3 39 27 -22 34 -77 36
-72 3z"/>
<path fill="#FF0000" d="M1675 4460 c3 -5 8 -10 11 -10 2 0 4 5 4 10 0 6 -5 10 -11 10 -5 0
-7 -4 -4 -10z"/>
<path fill="#FF0000" d="M1807 4453 c-12 -11 -8 -22 12 -33 11 -5 22 -6 25 -1 7 11 -28 43
-37 34z"/>
<path fill="#FF0000" d="M2725 4450 c3 -5 8 -10 11 -10 2 0 4 5 4 10 0 6 -5 10 -11 10 -5 0
-7 -4 -4 -10z"/>
<path fill="#FF0000" d="M3372 4449 c2 -7 10 -15 17 -17 8 -3 12 1 9 9 -2 7 -10 15 -17 17 -8
3 -12 -1 -9 -9z"/>
<path fill="#FF0000" d="M1645 4431 c-10 -9 -4 -19 20 -35 24 -16 26 -15 46 3 12 11 18 24 15
29 -6 10 -72 12 -81 3z"/>
<path fill="#FF0000" d="M1900 4406 c0 -10 9 -16 21 -16 24 0 21 23 -4 28 -10 2 -17 -3 -17
-12z"/>
<path fill="#FF0000" d="M4517 4388 c8 -18 26 -41 39 -51 30 -22 52 -13 29 13 -9 10 -13 24
-9 36 4 10 4 16 -1 12 -4 -4 -20 -1 -36 7 -38 20 -39 20 -22 -17z"/>
<path fill="#FF0000" d="M2472 4378 c-17 -17 -15 -28 6 -28 24 0 32 8 25 26 -6 17 -15 18 -31
2z"/>
<path fill="#FF0000" d="M3825 4350 c-8 -13 3 -30 18 -29 8 0 7 3 -2 6 -10 4 -10 7 -1 13 8 5
9 10 2 14 -6 3 -13 2 -17 -4z"/>
<path fill="#FF0000" d="M3962 4335 c-13 -24 -3 -67 16 -63 24 5 39 35 26 55 -15 24 -31 27
-42 8z"/>
<path fill="#FF0000" d="M2510 4293 c0 -56 22 -85 33 -44 2 11 -4 32 -14 48 l-19 28 0 -32z"/>
<path fill="#FF0000" d="M1950 4290 c0 -5 7 -10 15 -10 8 0 15 5 15 10 0 6 -7 10 -15 10 -8 0
-15 -4 -15 -10z"/>
<path fill="#FF0000" d="M3135 4281 c-3 -6 7 -25 24 -41 41 -41 62 -39 45 4 -3 9 -11 16 -17
16 -6 0 -18 7 -28 16 -11 10 -19 12 -24 5z"/>
<path fill="#FF0000" d="M2770 4260 c0 -11 5 -20 10 -20 6 0 10 -9 10 -19 0 -28 17 -35 29
-12 8 15 6 25 -10 45 -24 31 -39 33 -39 6z"/>
<path fill="#FF0000" d="M2599 4256 c-6 -25 -4 -35 13 -64 10 -18 18 -40 18 -48 0 -16 26 -19
35 -5 6 11 -4 83 -14 98 -7 12 -50 27 -52 19z"/>
<path fill="#FF0000" d="M2163 4238 c-8 -13 -5 -56 4 -72 9 -14 31 35 25 56 -6 24 -19 31 -29
16z"/>
<path fill="#FF0000" d="M4585 4238 c9 -22 55 -39 76 -27 23 12 25 34 3 25 -9 -3 -21 -3 -27
1 -22 14 -57 14 -52 1z"/>
<path fill="#FF0000" d="M3064 4216 c-11 -29 2 -50 39 -65 46 -17 55 -10 32 26 -32 49 -61 65
-71 39z"/>
<path fill="#FF0000" d="M1921 4194 c0 -11 3 -14 6 -6 3 7 2 16 -1 19 -3 4 -6 -2 -5 -13z"/>
<path fill="#FF0000" d="M4682 4198 c-7 -7 -12 -22 -12 -35 0 -18 6 -23 26 -23 14 0 39 -9 55
-21 23 -16 29 -17 29 -5 0 8 -12 21 -27 28 -17 8 -27 21 -25 30 4 22 -31 41
-46 26z"/>
<path fill="#FF0000" d="M5085 4203 c-11 -3 -25 -12 -32 -20 -14 -18 5 -42 52 -62 27 -11 31
-11 47 9 21 26 22 31 6 52 -15 19 -45 27 -73 21z"/>
<path fill="#FF0000" d="M3845 4160 c-8 -13 13 -40 31 -40 17 0 25 15 18 34 -7 18 -39 22 -49
6z"/>
<path fill="#FF0000" d="M2435 4121 c-6 -11 9 -23 19 -14 9 9 7 23 -3 23 -6 0 -12 -4 -16 -9z"/>
<path fill="#FF0000" d="M3664 4095 c-7 -16 20 -65 35 -65 5 0 16 -2 23 -5 24 -10 15 45 -11
66 -28 23 -40 24 -47 4z"/>
<path fill="#FF0000" d="M3336 4081 c-6 -9 43 -55 51 -48 6 7 -19 46 -34 51 -7 3 -15 2 -17
-3z"/>
<path fill="#FF0000" d="M5025 4070 c-3 -5 -1 -10 4 -10 6 0 11 5 11 10 0 6 -2 10 -4 10 -3 0
-8 -4 -11 -10z"/>
<path fill="#FF0000" d="M4602 4025 c0 -19 4 -38 9 -41 5 -3 7 9 5 25 -2 17 1 31 6 31 5 0 6
5 3 10 -13 20 -23 9 -23 -25z"/>
<path fill="#FF0000" d="M3990 4027 c0 -24 21 -37 42 -26 15 8 17 13 7 25 -14 18 -49 18 -49
1z"/>
<path fill="#FF0000" d="M4254 4029 c-7 -13 9 -32 31 -35 18 -3 20 17 3 34 -15 15 -25 15 -34
1z"/>
<path fill="#FF0000" d="M4340 4025 c0 -9 5 -15 11 -13 6 2 11 8 11 13 0 5 -5 11 -11 13 -6 2
-11 -4 -11 -13z"/>
<path fill="#FF0000" d="M2416 4014 c-9 -22 5 -36 24 -24 13 8 13 11 -1 25 -15 15 -17 15 -23
-1z"/>
<path fill="#FF0000" d="M3687 4003 c-13 -13 -7 -32 13 -38 25 -8 51 11 43 31 -5 14 -44 19
-56 7z"/>
<path fill="#FF0000" d="M4430 3996 c0 -8 4 -17 9 -20 11 -7 33 18 24 27 -12 12 -33 7 -33 -7z"/>
<path fill="#FF0000" d="M3103 3963 c-17 -6 -16 -18 3 -37 19 -20 54 -21 54 -2 0 15 -27 47
-38 45 -4 0 -13 -3 -19 -6z"/>
<path fill="#FF0000" d="M4942 3942 c2 -9 -3 -22 -11 -28 -13 -10 -13 -14 -2 -28 7 -8 23 -15
35 -14 11 0 37 -7 57 -15 50 -22 96 -29 104 -16 14 22 -70 89 -112 89 -10 0
-31 7 -46 15 -26 13 -28 13 -25 -3z"/>
<path fill="#FF0000" d="M4535 3930 c3 -5 16 -10 28 -10 18 0 19 2 7 10 -20 13 -43 13 -35 0z"/>
<path fill="#FF0000" d="M3600 3922 c0 -5 7 -13 16 -16 10 -4 14 -1 12 6 -5 15 -28 23 -28 10z"/>
<path fill="#FF0000" d="M4401 3908 c-5 -13 -5 -27 0 -33 12 -12 54 29 45 44 -12 18 -36 12
-45 -11z"/>
<path fill="#FF0000" d="M4745 3921 c-7 -12 56 -61 78 -61 26 0 20 24 -13 48 -31 23 -55 28
-65 13z"/>
<path fill="#FF0000" d="M2667 3873 c-7 -7 3 -33 13 -33 14 0 19 28 5 33 -7 3 -15 3 -18 0z"/>
<path fill="#FF0000" d="M4120 3866 c0 -16 37 -32 48 -21 7 7 -25 35 -40 35 -4 0 -8 -6 -8
-14z"/>
<path fill="#FF0000" d="M3600 3818 c0 -16 19 -38 33 -38 4 0 7 10 5 22 -3 25 -38 39 -38 16z"/>
<path fill="#FF0000" d="M2710 3747 c0 -38 6 -48 26 -40 25 9 14 73 -12 73 -9 0 -14 -12 -14
-33z"/>
<path fill="#FF0000" d="M3726 3748 c26 -52 34 -59 55 -48 15 9 17 14 7 35 -8 19 -52 45 -75
45 -2 0 4 -15 13 -32z"/>
<path fill="#FF0000" d="M2913 3763 c-19 -7 -15 -34 7 -63 19 -23 21 -24 34 -7 18 23 26 21
26 -6 0 -33 23 -62 44 -54 20 8 21 45 0 85 -15 30 -24 36 -51 33 -6 -1 -14 3
-18 9 -7 11 -22 12 -42 3z"/>
<path fill="#FF0000" d="M5079 3748 c-10 -19 -8 -25 16 -45 50 -43 85 -11 45 40 -26 33 -45
34 -61 5z"/>
<path fill="#FF0000" d="M4815 3739 c-4 -6 2 -21 14 -33 12 -12 21 -27 21 -33 0 -17 49 -53
71 -53 23 0 23 8 4 34 -8 11 -12 29 -9 41 4 16 -1 27 -17 39 -27 18 -75 21
-84 5z"/>
<path fill="#FF0000" d="M4160 3679 c0 -5 5 -7 10 -4 6 3 10 8 10 11 0 2 -4 4 -10 4 -5 0 -10
-5 -10 -11z"/>
<path fill="#FF0000" d="M4734 3636 c-18 -14 -18 -16 21 -55 21 -23 47 -41 58 -41 10 0 15 5
12 10 -3 6 0 10 7 10 7 0 19 4 27 9 13 8 13 12 1 26 -31 38 -100 60 -126 41z"/>
<path fill="#FF0000" d="M2727 3634 c-11 -11 -8 -62 3 -69 11 -7 40 12 40 25 0 15 -35 51 -43
44z"/>
<path fill="#FF0000" d="M2780 3625 c0 -8 5 -15 10 -15 6 0 10 7 10 15 0 8 -4 15 -10 15 -5 0
-10 -7 -10 -15z"/>
<path fill="#FF0000" d="M4211 3597 c-7 -9 -4 -25 10 -56 21 -47 42 -50 47 -6 4 35 -39 82
-57 62z"/>
<path fill="#FF0000" d="M2935 3590 c3 -5 11 -10 16 -10 6 0 7 5 4 10 -3 6 -11 10 -16 10 -6
0 -7 -4 -4 -10z"/>
<path fill="#FF0000" d="M4145 3570 c3 -5 12 -7 20 -3 21 7 19 13 -6 13 -11 0 -18 -4 -14 -10z"/>
<path fill="#FF0000" d="M3370 3551 c0 -16 19 -23 43 -15 21 7 21 7 2 15 -28 11 -45 11 -45 0z"/>
<path fill="#FF0000" d="M4740 3537 c0 -23 22 -81 38 -99 22 -26 40 -22 47 11 9 44 -7 65 -77
99 -5 2 -8 -3 -8 -11z"/>
<path fill="#FF0000" d="M4375 3517 c-7 -30 0 -80 12 -84 11 -4 32 59 29 84 -4 25 -35 25 -41
0z"/>
<path fill="#FF0000" d="M3600 3519 c0 -20 28 -39 75 -49 26 -6 50 -8 53 -5 3 3 1 5 -5 5 -6
0 -25 14 -43 30 -31 29 -80 41 -80 19z"/>
<path fill="#FF0000" d="M4025 3520 c3 -5 8 -10 11 -10 2 0 4 5 4 10 0 6 -5 10 -11 10 -5 0
-7 -4 -4 -10z"/>
<path fill="#FF0000" d="M2747 3496 c-9 -24 -10 -23 13 -29 23 -6 25 2 7 27 -13 18 -14 18
-20 2z"/>
<path fill="#FF0000" d="M2915 3494 c-11 -11 -13 -20 -6 -27 12 -12 41 8 41 29 0 19 -15 18
-35 -2z"/>
<path fill="#FF0000" d="M3530 3487 c0 -14 40 -37 65 -37 22 0 7 26 -21 39 -33 15 -44 14 -44
-2z"/>
<path fill="#FF0000" d="M3996 3442 c26 -27 54 -23 54 6 0 16 -7 19 -39 18 l-39 -1 24 -23z"/>
<path fill="#FF0000" d="M3199 3454 c-5 -46 3 -121 16 -140 l15 -24 21 21 c20 20 20 24 8 63
-8 22 -14 45 -14 50 0 12 -45 41 -46 30z"/>
<path fill="#FF0000" d="M3087 3433 c-10 -10 -8 -43 2 -43 5 0 16 -3 25 -6 11 -4 16 0 16 13
0 29 -27 52 -43 36z"/>
<path fill="#FF0000" d="M4082 3428 c2 -6 10 -14 16 -16 7 -2 10 2 6 12 -7 18 -28 22 -22 4z"/>
<path fill="#FF0000" d="M3785 3410 c-3 -5 1 -10 10 -10 9 0 13 5 10 10 -3 6 -8 10 -10 10 -2
0 -7 -4 -10 -10z"/>
<path fill="#FF0000" d="M2768 3393 c6 -2 12 -12 12 -21 0 -13 3 -13 12 -4 10 10 10 15 -2 22
-8 5 -19 9 -25 9 -5 0 -4 -3 3 -6z"/>
<path fill="#FF0000" d="M3410 3384 c1 -19 28 -44 49 -44 22 0 26 7 13 27 -9 14 -62 29 -62
17z"/>
<path fill="#FF0000" d="M4107 3383 c-12 -12 -7 -43 6 -43 20 0 25 9 20 31 -5 20 -15 24 -26
12z"/>
<path fill="#FF0000" d="M2976 3351 c-4 -7 -5 -15 -2 -18 9 -9 19 4 14 18 -4 11 -6 11 -12 0z"/>
<path fill="#FF0000" d="M4680 3340 c0 -6 -11 -8 -25 -4 -29 7 -35 -17 -9 -38 9 -7 26 -24 38
-37 56 -62 55 -61 78 -52 31 12 28 29 -18 89 -35 48 -64 66 -64 42z"/>
<path fill="#FF0000" d="M3776 3331 c-8 -12 23 -43 35 -36 15 10 10 24 -10 35 -12 6 -22 6
-25 1z"/>
<path fill="#FF0000" d="M2952 3302 c-20 -3 -23 -8 -20 -40 2 -26 8 -38 21 -40 11 -2 17 3 17
15 0 11 5 24 11 30 16 16 -2 39 -29 35z"/>
<path fill="#FF0000" d="M3550 3275 c-8 -9 -8 -15 -2 -15 12 0 26 19 19 26 -2 2 -10 -2 -17
-11z"/>
<path fill="#FF0000" d="M4386 3243 c-13 -14 -5 -46 22 -79 30 -38 42 -43 37 -16 -2 9 -4 29
-4 43 -1 26 -42 65 -55 52z"/>
<path fill="#FF0000" d="M3340 3219 c0 -5 5 -7 10 -4 6 3 10 8 10 11 0 2 -4 4 -10 4 -5 0 -10
-5 -10 -11z"/>
<path fill="#FF0000" d="M3834 3179 c-10 -17 5 -59 21 -59 20 0 20 56 0 63 -8 4 -17 2 -21 -4z"/>
<path fill="#FF0000" d="M4843 3163 c9 -9 19 -14 23 -11 10 10 -6 28 -24 28 -15 0 -15 -1 1
-17z"/>
<path fill="#FF0000" d="M3565 3139 c-8 -25 -1 -34 20 -26 19 8 20 47 1 47 -8 0 -18 -9 -21
-21z"/>
<path fill="#FF0000" d="M3696 3094 c-4 -10 -13 -13 -26 -9 -16 5 -20 2 -20 -19 0 -20 -4 -24
-17 -19 -13 5 -15 3 -9 -13 4 -10 10 -31 13 -47 3 -15 10 -30 14 -33 14 -8 23
26 10 39 -16 16 -14 30 3 24 21 -8 38 17 41 58 2 39 0 43 -9 19z"/>
<path fill="#FF0000" d="M3996 3101 c-9 -15 3 -53 21 -66 29 -21 34 -7 12 35 -22 43 -25 45
-33 31z"/>
<path fill="#FF0000" d="M3892 3038 c2 -6 10 -14 16 -16 7 -2 10 2 6 12 -7 18 -28 22 -22 4z"/>
<path fill="#FF0000" d="M3360 3015 c0 -20 22 -65 31 -65 15 0 22 50 9 65 -16 19 -40 19 -40
0z"/>
<path fill="#FF0000" d="M3920 2979 c7 -11 14 -19 16 -16 7 7 -7 37 -17 37 -6 0 -5 -9 1 -21z"/>
<path fill="#FF0000" d="M3321 2939 c-7 -16 -9 -38 -6 -50 6 -17 4 -21 -8 -16 -21 8 -29 -3
-16 -20 7 -7 13 -27 15 -44 2 -17 10 -40 18 -51 14 -20 15 -20 35 13 24 39 25
49 10 83 -8 18 -9 29 -2 38 8 9 5 22 -11 45 l-22 31 -13 -29z"/>
<path fill="#FF0000" d="M4650 2855 c0 -14 59 -49 68 -40 3 3 -3 13 -12 24 -22 24 -56 34 -56
16z"/>
<path fill="#FF0000" d="M3630 2702 c0 -10 -9 -28 -20 -40 -27 -28 -26 -31 15 -48 43 -18 45
-18 45 2 0 8 -4 13 -9 9 -5 -3 -12 -1 -16 5 -3 5 -1 10 5 10 6 0 8 4 5 10 -3
5 -1 18 5 29 8 16 6 22 -10 31 -17 9 -20 8 -20 -8z"/>
<path fill="#FF0000" d="M4234 2673 c14 -58 28 -83 48 -83 18 0 20 4 13 48 -9 59 -11 62 -42
62 -22 0 -24 -3 -19 -27z"/>
<path fill="#FF0000" d="M3871 2636 c-16 -17 -21 -31 -16 -45 8 -27 25 -27 25 -1 0 11 4 20 9
20 5 0 9 11 9 25 0 14 -1 25 -3 25 -1 0 -12 -11 -24 -24z"/>
<path fill="#FF0000" d="M3680 2630 c0 -5 5 -10 11 -10 5 0 7 5 4 10 -3 6 -8 10 -11 10 -2 0
-4 -4 -4 -10z"/>
<path fill="#FF0000" d="M5002 2589 c2 -7 10 -15 17 -17 8 -3 12 1 9 9 -2 7 -10 15 -17 17 -8
3 -12 -1 -9 -9z"/>
<path fill="#FF0000" d="M4282 2549 c2 -7 10 -15 17 -17 8 -3 12 1 9 9 -2 7 -10 15 -17 17 -8
3 -12 -1 -9 -9z"/>
<path fill="#FF0000" d="M4700 2532 c0 -5 7 -15 15 -22 8 -7 15 -8 15 -2 0 5 -7 15 -15 22 -8
7 -15 8 -15 2z"/>
<path fill="#FF0000" d="M3633 2524 c-26 -11 -13 -39 25 -56 52 -22 89 0 64 39 -8 13 -71 25
-89 17z"/>
<path fill="#FF0000" d="M4460 2491 c0 -24 18 -37 31 -24 13 13 1 43 -17 43 -8 0 -14 -9 -14
-19z"/>
<path fill="#FF0000" d="M5029 2459 c13 -11 26 -17 29 -14 8 8 -20 35 -37 35 -12 -1 -11 -5 8
-21z"/>
<path fill="#FF0000" d="M4385 2450 c-3 -5 1 -10 9 -10 8 0 18 5 21 10 3 6 -1 10 -9 10 -8 0
-18 -4 -21 -10z"/>
<path fill="#FF0000" d="M3715 2380 c-10 -16 14 -50 35 -50 44 0 66 22 33 34 -10 3 -28 10
-40 15 -14 6 -25 7 -28 1z"/>
<path fill="#FF0000" d="M4660 2376 c0 -9 7 -16 16 -16 17 0 14 22 -4 28 -7 2 -12 -3 -12 -12z"/>
<path fill="#FF0000" d="M3874 2358 c3 -7 9 -21 12 -30 8 -22 18 -23 33 -4 12 15 2 27 -32 39
-13 5 -17 3 -13 -5z"/>
<path fill="#FF0000" d="M4479 2341 c-19 -16 -21 -22 -12 -32 9 -8 9 -16 3 -25 -14 -16 58
-90 73 -75 7 7 6 16 -4 27 -13 15 -11 16 11 9 l25 -7 -22 24 c-13 13 -23 36
-23 50 0 40 -22 52 -51 29z"/>
<path fill="#FF0000" d="M4668 2274 c-9 -8 9 -44 22 -44 14 0 12 13 -3 34 -7 9 -16 14 -19 10z"/>
<path fill="#FF0000" d="M3863 2193 c-9 -3 -11 -17 -7 -46 10 -63 30 -94 69 -108 19 -7 36
-20 38 -28 3 -13 5 -13 12 3 6 13 3 23 -6 30 -8 6 -14 17 -15 24 -1 6 -2 23
-2 37 -1 13 -16 40 -33 60 -32 36 -35 37 -56 28z"/>
<path fill="#FF0000" d="M3740 2166 c0 -28 12 -46 31 -46 25 0 25 36 0 50 -26 13 -31 13 -31
-4z"/>
<path fill="#FF0000" d="M4370 2025 c7 -8 17 -15 22 -15 6 0 5 7 -2 15 -7 8 -17 15 -22 15 -6
0 -5 -7 2 -15z"/>
<path fill="#FF0000" d="M4632 1969 c2 -7 10 -15 17 -17 8 -3 12 1 9 9 -2 7 -10 15 -17 17 -8
3 -12 -1 -9 -9z"/>
<path fill="#FF0000" d="M4713 1650 c-28 -11 -29 -28 -2 -59 17 -21 23 -22 44 -13 14 7 25 16
25 22 0 5 7 10 15 10 18 0 18 5 5 31 -11 20 -49 24 -87 9z"/>
<path fill="#FF0000" d="M4784 1527 c-8 -22 3 -37 27 -37 24 0 24 6 -1 32 -17 18 -20 19 -26
5z"/>
<path fill="#FF0000" d="M4720 1475 c0 -8 5 -15 10 -15 6 0 10 7 10 15 0 8 -4 15 -10 15 -5 0
-10 -7 -10 -15z"/>
</g>
</svg>
