<?xml version="1.0" standalone="no"?>
<!DOCTYPE svg PUBLIC "-//W3C//DTD SVG 20010904//EN"
 "http://www.w3.org/TR/2001/REC-SVG-20010904/DTD/svg10.dtd">
<svg version="1.0" xmlns="http://www.w3.org/2000/svg"
 width="468pt" height="490pt" viewBox="0 0 468 490"
 preserveAspectRatio="xMidYMid meet">
<metadata>
Created by potrace 1.8, written by Peter Selinger 2001-2007
</metadata>
<g transform="translate(0,490) scale(0.099363,-0.099363)"
fill="#000000" stroke="none">
<path fill="#00FF00" d="M3206 4047 c-25 -52 -56 -92 -74 -95 -12 -2 -19 -9 -16 -16 3 -7 -2
-18 -10 -25 -15 -13 -10 -51 6 -51 6 0 6 -6 -1 -14 -8 -10 -9 -16 -1 -21 6 -4
1 -22 -15 -49 -14 -24 -25 -53 -25 -65 0 -11 -5 -30 -12 -40 -6 -10 -8 -26 -4
-36 9 -24 27 -7 56 55 13 27 27 50 31 50 5 0 15 13 24 30 16 31 20 64 7 56 -4
-2 -14 -1 -21 3 -10 6 -8 16 8 44 11 19 17 38 14 41 -4 3 0 6 7 6 9 0 8 5 -4
19 -17 18 -17 19 1 25 16 5 63 63 63 78 0 12 -29 16 -34 5z"/>
<path fill="#00FF00" d="M3268 3935 c-6 -14 -15 -25 -19 -25 -7 0 -29 -54 -29 -71 0 -4 14 -3
30 2 17 6 30 15 30 19 0 5 4 19 9 32 5 13 10 28 11 33 1 6 6 16 12 23 8 9 5
12 -11 12 -13 0 -26 -10 -33 -25z"/>
<path fill="#00FF00" d="M2335 3758 c3 -18 7 -56 9 -85 5 -64 15 -95 26 -88 5 3 11 -4 15 -15
5 -15 9 -17 19 -8 14 14 18 48 7 63 -5 5 -12 26 -15 45 -7 32 -17 62 -35 99
-15 30 -30 23 -26 -11z"/>
<path fill="#00FF00" d="M1900 3705 c0 -20 40 -109 46 -103 6 7 -25 106 -36 113 -6 3 -10 -1
-10 -10z"/>
<path fill="#00FF00" d="M3260 3651 c0 -4 -12 -20 -26 -35 -15 -14 -23 -26 -18 -26 5 0 1 -5
-8 -11 -10 -5 -18 -14 -18 -19 0 -14 33 1 53 25 9 11 24 32 32 48 14 24 14 27
0 27 -8 0 -15 -4 -15 -9z"/>
<path fill="#00FF00" d="M1627 3643 c-11 -10 -8 -33 3 -33 5 0 23 -13 38 -30 30 -31 66 -44
42 -15 -7 8 -10 15 -7 15 3 0 -9 16 -27 35 -35 37 -39 39 -49 28z"/>
<path fill="#00FF00" d="M3366 3623 c-10 -3 -39 -25 -65 -49 -25 -24 -49 -44 -53 -44 -4 0 -5
-7 -1 -16 10 -26 50 -8 99 44 24 25 44 52 44 59 0 7 -1 12 -2 12 -2 -1 -12 -4
-22 -6z"/>
<path fill="#00FF00" d="M1410 3511 c0 -11 40 -41 54 -41 5 0 -1 11 -14 25 -24 26 -40 32 -40
16z"/>
<path fill="#00FF00" d="M3375 3385 c-27 -13 -57 -33 -66 -44 -9 -11 -19 -17 -23 -14 -9 10
-35 -29 -29 -44 7 -18 16 -16 42 8 12 11 29 18 37 15 7 -3 14 -1 14 4 0 6 7
10 15 10 8 0 15 4 15 9 0 5 14 14 32 22 27 11 29 14 12 20 -17 6 -16 8 8 14
16 4 25 11 22 16 -8 14 -25 10 -79 -16z"/>
<path fill="#00FF00" d="M3523 3356 c-78 -44 -95 -65 -63 -73 27 -7 25 -17 -6 -32 -19 -8 -30
-9 -39 -1 -17 14 -28 -18 -19 -54 7 -29 25 -34 44 -11 7 8 20 15 29 15 14 0
14 2 1 10 -13 9 -13 10 1 10 8 0 31 14 49 30 30 27 49 35 73 31 4 0 7 4 7 9 0
6 3 9 8 9 4 -1 18 -1 32 0 25 2 25 2 -5 16 -16 7 -24 14 -17 14 14 1 12 22 -3
33 -6 5 -5 8 3 8 6 0 12 7 12 15 0 24 -30 16 -107 -29z"/>
<path fill="#00FF00" d="M1575 3380 c-3 -5 8 -16 24 -25 17 -8 28 -21 26 -28 -4 -8 8 -13 37
-14 l43 -2 -34 29 c-19 16 -37 28 -39 25 -2 -2 -11 2 -19 10 -17 17 -29 19
-38 5z"/>
<path fill="#00FF00" d="M1017 3234 c-10 -10 12 -44 28 -44 7 0 17 -9 20 -20 3 -11 13 -20 22
-20 9 0 13 6 9 15 -8 21 7 19 38 -6 14 -11 30 -17 36 -14 5 3 10 1 10 -4 0 -6
9 -11 19 -11 28 0 37 -21 16 -36 -17 -12 -16 -14 9 -24 37 -14 36 -14 26 20
-5 18 -5 30 1 30 5 0 4 9 -3 20 -7 11 -18 20 -25 20 -7 0 -52 18 -99 40 -91
42 -97 44 -107 34z"/>
<path fill="#00FF00" d="M3918 3223 c-16 -8 -28 -20 -28 -26 0 -7 -18 -23 -40 -37 -37 -23
-53 -50 -30 -50 17 0 60 23 60 32 0 5 15 15 34 23 49 21 70 44 55 61 -13 16
-16 16 -51 -3z"/>
<path fill="#00FF00" d="M4020 3203 c-8 -3 -17 -9 -20 -12 -3 -3 -22 -15 -42 -25 -21 -11 -38
-23 -38 -28 0 -5 4 -7 8 -4 4 2 14 1 21 -3 9 -6 0 -16 -31 -32 -23 -14 -42
-29 -41 -34 1 -6 -6 -18 -14 -27 -15 -17 -14 -18 6 -18 12 0 19 4 16 10 -3 6
5 14 18 19 13 5 32 18 42 28 10 10 21 18 24 18 13 0 120 91 117 100 -3 12 -44
17 -66 8z"/>
<path fill="#00FF00" d="M988 2851 c-10 -3 -14 -11 -10 -17 10 -16 82 -45 82 -33 0 13 16 11
32 -4 12 -12 44 -24 86 -33 17 -3 28 24 15 37 -6 6 -32 12 -58 15 -27 2 -53 8
-59 13 -6 5 -22 11 -36 13 -14 1 -27 6 -30 9 -3 4 -13 4 -22 0z"/>
<path fill="#00FF00" d="M3989 2735 c-5 -5 -35 -11 -66 -12 -53 -1 -79 -15 -66 -36 3 -4 -2
-7 -10 -5 -9 2 -16 0 -16 -4 -2 -25 1 -28 32 -22 17 3 46 7 62 9 17 1 44 10
60 19 17 9 36 16 43 16 6 0 12 4 12 9 0 5 12 12 26 15 15 4 23 10 20 14 -11
10 -86 8 -97 -3z"/>
<path fill="#00FF00" d="M3770 2497 c0 -4 -4 -5 -10 -2 -5 3 -10 2 -10 -2 0 -5 -13 -8 -28 -7
-15 1 -36 -5 -47 -12 -16 -12 -16 -14 -3 -14 9 0 18 -6 21 -12 3 -10 7 -10 20
0 9 8 21 11 27 7 5 -3 13 1 16 9 3 9 16 16 29 16 13 0 25 7 29 15 4 11 -1 14
-19 13 -14 -1 -25 -6 -25 -11z"/>
<path fill="#00FF00" d="M3853 2332 c-23 -3 -30 -17 -15 -25 4 -2 25 1 47 7 36 11 37 13 15
17 -14 2 -35 3 -47 1z"/>
<path fill="#00FF00" d="M3765 1960 c28 -12 45 -12 45 0 0 6 -15 10 -32 9 -28 0 -30 -2 -13
-9z"/>
<path fill="#00FF00" d="M1250 1725 c-22 -13 -16 -21 13 -16 4 0 7 -4 7 -10 0 -6 7 -9 15 -5
8 3 21 -1 29 -9 7 -8 16 -12 19 -9 3 3 10 -4 17 -15 9 -17 15 -19 30 -11 13 7
21 7 25 0 4 -6 11 -8 16 -5 5 4 9 2 9 -2 0 -5 11 -10 24 -11 19 -1 24 3 23 18
-1 13 -8 20 -22 20 -11 0 -36 11 -55 23 -22 15 -49 24 -73 24 -21 0 -42 5 -45
10 -5 8 -15 7 -32 -2z"/>
<path fill="#00FF00" d="M3871 1713 c-1 -6 -10 -9 -21 -6 -27 7 -25 -13 2 -28 13 -7 29 -18
36 -26 16 -15 42 -17 42 -3 0 5 -9 14 -21 20 -11 6 -24 21 -29 33 -5 12 -9 17
-9 10z"/>
<path fill="#00FF00" d="M3860 1296 c0 -7 7 -19 15 -26 8 -7 15 -21 15 -32 0 -10 4 -17 9 -14
5 3 12 -6 15 -20 8 -29 25 -28 37 3 6 16 -1 29 -33 62 -43 43 -58 50 -58 27z"/>
<path fill="#00FF00" d="M3664 1159 c-4 -7 1 -18 12 -26 10 -7 34 -27 52 -45 31 -30 53 -34
36 -6 -5 7 -9 19 -9 26 0 21 -81 66 -91 51z"/>
<path fill="#00FF00" d="M3493 954 c-4 -10 6 -26 28 -45 54 -46 119 -91 119 -82 0 4 4 3 8 -3
10 -16 52 -28 52 -15 0 6 -4 11 -9 11 -5 0 -13 9 -16 21 -4 11 -9 18 -12 15
-4 -3 -18 7 -32 22 -27 27 -66 56 -109 79 -19 10 -24 10 -29 -3z"/>
<path fill="#00FF00" d="M3310 844 c0 -21 40 -67 60 -69 3 0 11 -4 18 -9 7 -4 15 -6 18 -4 6
7 -32 48 -45 48 -6 0 -11 7 -11 16 0 8 -4 12 -10 9 -5 -3 -10 -1 -10 4 0 6 -4
11 -10 11 -5 0 -10 -3 -10 -6z"/>
<path fill="#00FF00" d="M3460 830 c0 -4 7 -13 15 -20 8 -7 15 -9 15 -5 0 3 19 -9 41 -29 38
-32 59 -38 59 -16 0 13 -93 77 -112 77 -10 0 -18 -4 -18 -7z"/>
<path fill="#00FF00" d="M2810 668 c0 -13 9 -34 20 -48 l19 -25 -4 25 c-6 41 -17 70 -26 70
-5 0 -9 -10 -9 -22z"/>
<path fill="#00FF00" d="M3125 663 c-6 -27 6 -43 34 -43 7 0 22 -11 33 -25 11 -14 23 -23 27
-20 5 2 16 -4 26 -15 22 -24 37 -26 33 -3 -3 14 -98 104 -134 126 -7 4 -14 -3
-19 -20z"/>
<path fill="#00FF00" d="M2570 626 c0 -19 9 -55 20 -81 24 -55 59 -104 61 -84 2 26 -3 44 -17
60 -8 9 -11 19 -8 22 4 4 -1 9 -10 13 -13 5 -14 9 -5 20 9 11 9 14 0 14 -7 0
-9 5 -6 10 3 6 2 10 -4 10 -5 0 -8 11 -6 25 1 16 -3 25 -11 25 -9 0 -14 -12
-14 -34z"/>
<path fill="#00FF00" d="M3037 593 c-15 -14 -6 -56 18 -87 14 -18 23 -35 20 -38 -9 -8 13 -58
25 -58 6 0 8 5 5 11 -4 6 -9 35 -11 65 -2 31 -12 69 -21 85 -18 30 -25 34 -36
22z"/>
</g>
</svg>
