<?xml version="1.0" standalone="no"?>
<!DOCTYPE svg PUBLIC "-//W3C//DTD SVG 20010904//EN"
 "http://www.w3.org/TR/2001/REC-SVG-20010904/DTD/svg10.dtd">
<svg version="1.0" xmlns="http://www.w3.org/2000/svg"
 width="468pt" height="490pt" viewBox="0 0 468 490"
 preserveAspectRatio="xMidYMid meet">
<metadata>
Created by potrace 1.8, written by Peter Selinger 2001-2007
</metadata>
<g transform="translate(0,490) scale(0.099363,-0.099363)"
fill="#000000" stroke="none">
<path fill="#FF0000" d="M2908 4443 c7 -3 16 -2 19 1 4 3 -2 6 -13 5 -11 0 -14 -3 -6 -6z"/>
<path fill="#FF0000" d="M2897 3953 c-10 -26 -11 -40 -4 -45 17 -10 34 14 34 49 0 43 -11 42
-30 -4z"/>
<path fill="#FF0000" d="M3085 3929 c-9 -28 1 -36 14 -10 7 12 7 22 2 26 -5 3 -13 -4 -16 -16z"/>
<path fill="#FF0000" d="M2879 3888 c-9 -46 -9 -88 0 -88 7 0 14 8 17 18 3 9 10 25 15 35 11
21 4 37 -17 37 -8 0 -14 -1 -15 -2z"/>
<path fill="#FF0000" d="M2318 3874 c-12 -22 -2 -69 15 -72 14 -3 17 2 13 22 -6 32 -22 61
-28 50z"/>
<path fill="#FF0000" d="M2984 3852 c-16 -10 -28 -82 -14 -82 6 0 13 8 16 18 3 9 10 25 16 36
11 20 -1 39 -18 28z"/>
<path fill="#FF0000" d="M2517 3766 c-21 -24 -24 -32 -12 -34 8 -2 15 -7 16 -10 5 -41 3 -62
-5 -62 -16 0 6 -17 33 -25 15 -5 21 -4 17 3 -4 6 0 15 8 19 15 8 12 53 -3 53
-4 0 -7 10 -8 22 -1 11 -7 24 -14 28 -8 5 -8 9 0 11 5 2 7 9 3 15 -4 7 -17 0
-35 -20z"/>
<path fill="#FF0000" d="M3581 3751 c-46 -56 1 -96 53 -45 32 33 30 55 -6 65 -21 5 -30 2 -47
-20z"/>
<path fill="#FF0000" d="M1570 3739 c0 -5 5 -7 10 -4 6 3 10 8 10 11 0 2 -4 4 -10 4 -5 0 -10
-5 -10 -11z"/>
<path fill="#FF0000" d="M3317 3732 c-23 -27 -10 -45 19 -26 27 18 30 29 10 37 -8 3 -21 -2
-29 -11z"/>
<path fill="#FF0000" d="M3216 3723 c-8 -20 21 -28 38 -10 14 13 12 15 -9 19 -15 3 -26 0 -29
-9z"/>
<path fill="#FF0000" d="M2218 3703 c7 -3 16 -2 19 1 4 3 -2 6 -13 5 -11 0 -14 -3 -6 -6z"/>
<path fill="#FF0000" d="M3718 3698 c-10 -27 3 -37 23 -20 10 9 19 20 19 24 0 13 -38 9 -42
-4z"/>
<path fill="#FF0000" d="M2007 3694 c-3 -3 -2 -16 2 -28 5 -11 7 -32 4 -46 -2 -13 0 -31 3
-40 4 -8 6 -23 5 -32 -1 -11 4 -18 13 -18 9 0 16 -4 16 -10 0 -5 14 -10 31
-10 17 0 28 4 24 10 -3 6 0 10 7 10 9 0 9 3 -2 10 -8 5 -10 10 -3 10 17 0 9
31 -11 46 -10 7 -15 17 -11 23 3 6 2 11 -4 11 -5 0 -11 -5 -13 -12 -6 -17 -28
0 -28 23 0 12 7 19 20 19 14 0 18 5 13 16 -5 13 -7 13 -14 2 -7 -10 -9 -9 -9
5 0 16 -30 24 -43 11z"/>
<path fill="#FF0000" d="M2618 3693 c6 -2 10 -9 7 -13 -11 -18 33 -79 53 -72 7 2 11 0 10 -5
-2 -4 2 -9 7 -10 11 -3 11 10 0 45 -4 12 -11 22 -17 22 -5 0 -18 9 -30 20 -12
11 -27 20 -32 19 -6 0 -5 -3 2 -6z"/>
<path fill="#FF0000" d="M2225 3680 c3 -5 8 -10 11 -10 2 0 4 5 4 10 0 6 -5 10 -11 10 -5 0
-7 -4 -4 -10z"/>
<path fill="#FF0000" d="M3783 3683 c-12 -2 -24 -11 -27 -20 -4 -11 -2 -14 9 -9 9 3 19 -3 25
-14 8 -15 8 -20 -1 -20 -7 0 -10 -2 -7 -5 10 -10 67 26 62 40 -3 8 -12 11 -22
8 -11 -5 -14 -2 -9 10 3 9 3 16 -1 16 -4 -1 -17 -4 -29 -6z"/>
<path fill="#FF0000" d="M1570 3666 c0 -8 7 -16 15 -20 17 -6 18 -4 9 18 -8 20 -24 21 -24 2z"/>
<path fill="#FF0000" d="M2157 3674 c-6 -7 3 -44 12 -44 10 0 11 39 2 45 -5 2 -11 2 -14 -1z"/>
<path fill="#FF0000" d="M3186 3657 c-11 -8 -15 -17 -10 -20 14 -8 37 8 33 22 -3 8 -10 8 -23
-2z"/>
<path fill="#FF0000" d="M3490 3614 c0 -8 -4 -14 -8 -14 -4 0 -8 -9 -9 -20 -1 -11 2 -18 7
-15 5 3 11 1 15 -5 6 -9 -16 -15 -39 -11 -5 1 -6 -5 -3 -14 4 -10 1 -15 -11
-15 -14 0 -14 -2 -3 -9 9 -6 24 -5 39 2 14 7 19 13 12 15 -7 3 6 13 30 24 32
15 39 22 29 29 -8 5 -15 4 -17 -1 -5 -14 -32 -13 -32 1 0 6 9 13 20 16 29 8
25 31 -5 31 -15 0 -25 -6 -25 -14z"/>
<path fill="#FF0000" d="M1762 3532 c-7 -9 -10 -11 -6 -3 4 9 2 12 -6 9 -8 -2 -15 -9 -17 -14
-4 -13 35 -16 42 -3 4 5 11 9 16 9 6 0 8 -4 5 -8 -8 -14 57 -75 68 -65 3 4 6
0 6 -7 0 -7 3 -11 6 -7 9 9 -46 77 -76 92 -23 12 -28 11 -38 -3z"/>
<path fill="#FF0000" d="M1610 3516 c0 -2 7 -6 15 -10 8 -3 15 -1 15 4 0 6 -7 10 -15 10 -8 0
-15 -2 -15 -4z"/>
<path fill="#FF0000" d="M3170 3510 c0 -5 5 -10 11 -10 5 0 7 5 4 10 -3 6 -8 10 -11 10 -2 0
-4 -4 -4 -10z"/>
<path fill="#FF0000" d="M1650 3499 c0 -5 5 -7 10 -4 6 3 10 8 10 11 0 2 -4 4 -10 4 -5 0 -10
-5 -10 -11z"/>
<path fill="#FF0000" d="M3395 3480 c3 -5 8 -10 11 -10 2 0 4 5 4 10 0 6 -5 10 -11 10 -5 0
-7 -4 -4 -10z"/>
<path fill="#FF0000" d="M1468 3453 c6 -2 10 -9 7 -13 -7 -12 71 -89 82 -81 4 3 8 16 8 28 0
25 -62 74 -92 72 -11 0 -13 -3 -5 -6z"/>
<path fill="#FF0000" d="M3880 3420 c-8 -5 -10 -10 -5 -10 6 0 17 5 25 10 8 5 11 10 5 10 -5
0 -17 -5 -25 -10z"/>
<path fill="#FF0000" d="M3840 3408 c0 -9 5 -20 10 -23 13 -8 13 5 0 25 -8 13 -10 13 -10 -2z"/>
<path fill="#FF0000" d="M3815 3400 c3 -5 8 -10 11 -10 2 0 4 5 4 10 0 6 -5 10 -11 10 -5 0
-7 -4 -4 -10z"/>
<path fill="#FF0000" d="M3844 3361 c-52 -30 -103 -37 -117 -17 -6 8 -10 8 -14 -1 -2 -7 -12
-13 -21 -13 -15 0 -15 -2 -1 -15 12 -12 22 -14 42 -6 17 7 28 7 32 1 4 -6 0
-10 -7 -11 -7 0 -4 -4 7 -9 20 -9 20 -9 0 -9 -22 -1 -45 -19 -45 -34 0 -15 67
-1 114 23 59 31 83 59 78 92 -2 15 -7 28 -11 28 -3 0 -29 -13 -57 -29z"/>
<path fill="#FF0000" d="M1365 3350 c3 -5 8 -10 11 -10 2 0 4 5 4 10 0 6 -5 10 -11 10 -5 0
-7 -4 -4 -10z"/>
<path fill="#FF0000" d="M1402 3316 c7 -8 16 -12 20 -10 4 2 9 0 13 -6 3 -5 14 -10 23 -10 10
1 3 9 -18 20 -42 23 -55 25 -38 6z"/>
<path fill="#FF0000" d="M3630 3326 c0 -2 9 -6 20 -9 11 -3 20 -1 20 4 0 5 -9 9 -20 9 -11 0
-20 -2 -20 -4z"/>
<path fill="#FF0000" d="M1200 3300 c20 -13 33 -13 25 0 -3 6 -14 10 -23 10 -15 0 -15 -2 -2
-10z"/>
<path fill="#FF0000" d="M3990 3300 c0 -5 5 -10 10 -10 6 0 10 5 10 10 0 6 -4 10 -10 10 -5 0
-10 -4 -10 -10z"/>
<path fill="#FF0000" d="M3675 3290 c3 -5 11 -10 16 -10 6 0 7 5 4 10 -3 6 -11 10 -16 10 -6
0 -7 -4 -4 -10z"/>
<path fill="#FF0000" d="M1350 3276 c0 -9 5 -16 10 -16 6 0 10 4 10 9 0 6 -4 13 -10 16 -5 3
-10 -1 -10 -9z"/>
<path fill="#FF0000" d="M3950 3280 c-13 -8 -13 -10 2 -10 9 0 20 5 23 10 8 13 -5 13 -25 0z"/>
<path fill="#FF0000" d="M3420 3270 c0 -5 5 -10 11 -10 5 0 7 5 4 10 -3 6 -8 10 -11 10 -2 0
-4 -4 -4 -10z"/>
<path fill="#FF0000" d="M1400 3260 c0 -5 5 -10 10 -10 6 0 10 5 10 10 0 6 -4 10 -10 10 -5 0
-10 -4 -10 -10z"/>
<path fill="#FF0000" d="M3611 3261 c-8 -6 -9 -11 -3 -15 6 -3 14 -1 17 5 9 14 2 20 -14 10z"/>
<path fill="#FF0000" d="M3665 3239 c-16 -12 -22 -18 -12 -15 10 3 25 6 33 6 9 0 13 4 10 9
-4 5 0 12 6 14 7 3 9 6 3 6 -5 1 -23 -9 -40 -20z"/>
<path fill="#FF0000" d="M1555 3240 c-3 -5 -1 -10 4 -10 6 0 11 5 11 10 0 6 -2 10 -4 10 -3 0
-8 -4 -11 -10z"/>
<path fill="#FF0000" d="M3505 3219 c-4 -6 -5 -12 -2 -15 7 -7 37 7 37 17 0 13 -27 11 -35 -2z"/>
<path fill="#FF0000" d="M3374 3151 c3 -5 -1 -11 -9 -15 -8 -3 -15 -10 -15 -16 0 -5 9 -2 20
7 22 19 26 33 9 33 -5 0 -8 -4 -5 -9z"/>
<path fill="#FF0000" d="M1127 3119 c8 -8 16 -8 30 0 16 9 14 10 -11 11 -22 0 -27 -3 -19 -11z"/>
<path fill="#FF0000" d="M3707 3115 c-10 -7 -26 -11 -36 -8 -11 3 -18 -1 -18 -11 0 -9 4 -16
9 -16 14 0 9 -48 -8 -64 -8 -9 -24 -16 -35 -16 -22 0 -32 -18 -27 -51 l3 -23
25 26 c43 46 55 62 53 70 -2 5 3 8 10 9 36 2 53 10 70 33 10 14 25 26 33 26 8
0 14 7 14 15 0 8 -4 15 -9 15 -5 0 -11 -7 -15 -15 -3 -8 -13 -15 -21 -15 -9 0
-13 5 -10 10 4 6 11 8 16 5 5 -4 9 -1 9 5 0 7 -6 10 -14 7 -7 -3 -17 -2 -22 3
-5 5 -17 3 -27 -5z"/>
<path fill="#FF0000" d="M1276 3078 c-15 -21 -15 -24 1 -35 20 -15 47 -17 38 -3 -3 6 -2 10 3
10 5 0 9 10 8 22 -1 31 -31 34 -50 6z"/>
<path fill="#FF0000" d="M1353 3052 c0 -12 5 -22 9 -22 11 0 10 12 -2 30 -7 12 -9 10 -7 -8z"/>
<path fill="#FF0000" d="M1745 3029 c-4 -6 -5 -13 -2 -16 7 -7 27 6 27 18 0 12 -17 12 -25 -2z"/>
<path fill="#FF0000" d="M3970 3010 c0 -5 4 -10 9 -10 6 0 13 5 16 10 3 6 -1 10 -9 10 -9 0
-16 -4 -16 -10z"/>
<path fill="#FF0000" d="M3707 2976 c-8 -20 15 -26 38 -10 10 8 17 14 14 15 -2 0 -14 2 -26 5
-12 2 -23 -2 -26 -10z"/>
<path fill="#FF0000" d="M970 2971 c0 -11 19 -24 38 -27 6 -1 12 2 12 7 0 5 -7 9 -15 9 -8 0
-15 5 -15 10 0 6 -4 10 -10 10 -5 0 -10 -4 -10 -9z"/>
<path fill="#FF0000" d="M3671 2954 c0 -11 3 -14 6 -6 3 7 2 16 -1 19 -3 4 -6 -2 -5 -13z"/>
<path fill="#FF0000" d="M1125 2910 c4 -6 11 -8 16 -5 14 9 11 15 -7 15 -8 0 -12 -5 -9 -10z"/>
<path fill="#FF0000" d="M2578 2903 c7 -3 16 -2 19 1 4 3 -2 6 -13 5 -11 0 -14 -3 -6 -6z"/>
<path fill="#FF0000" d="M3968 2886 c-16 -8 -28 -11 -28 -7 0 5 -11 6 -25 3 -32 -6 -33 -20
-1 -17 14 2 33 -3 42 -10 16 -11 15 -13 -14 -20 -18 -3 -32 -10 -32 -15 0 -5
15 -4 33 2 17 5 41 12 52 15 15 3 20 12 19 31 -1 32 -11 36 -46 18z"/>
<path fill="#FF0000" d="M2579 2868 c-8 -29 -7 -47 4 -42 14 5 18 44 5 44 -4 0 -8 -1 -9 -2z"/>
<path fill="#FF0000" d="M3856 2855 c4 -8 10 -12 15 -9 11 6 2 24 -11 24 -5 0 -7 -7 -4 -15z"/>
<path fill="#FF0000" d="M4186 2861 c-4 -5 -2 -12 3 -15 5 -4 12 -2 15 3 4 5 2 12 -3 15 -5 4
-12 2 -15 -3z"/>
<path fill="#FF0000" d="M940 2850 c0 -5 4 -10 9 -10 6 0 13 5 16 10 3 6 -1 10 -9 10 -9 0
-16 -4 -16 -10z"/>
<path fill="#FF0000" d="M2290 2845 c0 -8 4 -15 10 -15 5 0 7 7 4 15 -4 8 -8 15 -10 15 -2 0
-4 -7 -4 -15z"/>
<path fill="#FF0000" d="M2466 2844 c-8 -20 -8 -24 2 -24 4 0 8 9 9 20 2 24 -3 26 -11 4z"/>
<path fill="#FF0000" d="M2483 2812 c-7 -4 -9 -13 -4 -21 6 -10 10 -9 15 5 8 20 4 25 -11 16z"/>
<path fill="#FF0000" d="M3883 2813 c-7 -3 -13 -9 -13 -14 0 -6 5 -7 10 -4 6 3 10 1 10 -4 0
-6 7 -11 15 -11 8 0 15 4 15 9 0 14 -24 29 -37 24z"/>
<path fill="#FF0000" d="M3840 2800 c0 -5 5 -10 11 -10 5 0 7 5 4 10 -3 6 -8 10 -11 10 -2 0
-4 -4 -4 -10z"/>
<path fill="#FF0000" d="M1910 2779 c0 -5 5 -7 10 -4 6 3 10 8 10 11 0 2 -4 4 -10 4 -5 0 -10
-5 -10 -11z"/>
<path fill="#FF0000" d="M2425 2760 c-3 -5 -1 -10 4 -10 6 0 11 5 11 10 0 6 -2 10 -4 10 -3 0
-8 -4 -11 -10z"/>
<path fill="#FF0000" d="M1052 2718 c2 -6 15 -13 29 -14 23 -4 23 -3 5 11 -24 18 -39 19 -34
3z"/>
<path fill="#FF0000" d="M772 2700 c5 -16 36 -22 44 -9 3 5 1 9 -5 9 -5 0 -17 3 -27 7 -11 4
-15 2 -12 -7z"/>
<path fill="#FF0000" d="M2424 2693 c-11 -18 -11 -41 1 -71 11 -28 38 23 30 58 -8 34 -16 37
-31 13z"/>
<path fill="#FF0000" d="M1030 2680 c0 -5 5 -10 11 -10 5 0 7 5 4 10 -3 6 -8 10 -11 10 -2 0
-4 -4 -4 -10z"/>
<path fill="#FF0000" d="M968 2633 c7 -3 16 -2 19 1 4 3 -2 6 -13 5 -11 0 -14 -3 -6 -6z"/>
<path fill="#FF0000" d="M3917 2618 c-8 -30 -2 -34 28 -18 23 12 23 14 7 26 -24 18 -29 17
-35 -8z"/>
<path fill="#FF0000" d="M810 2510 c0 -5 5 -10 11 -10 5 0 7 5 4 10 -3 6 -8 10 -11 10 -2 0
-4 -4 -4 -10z"/>
<path fill="#FF0000" d="M3906 2474 c-11 -28 -7 -32 28 -27 19 2 44 -1 56 -7 16 -9 24 -8 36
5 8 8 22 15 30 15 26 0 14 17 -13 19 -16 1 -39 3 -53 5 -14 2 -31 -2 -39 -8
-11 -8 -15 -8 -18 2 -6 17 -20 15 -27 -4z"/>
<path fill="#FF0000" d="M930 2452 c0 -4 11 -9 26 -10 14 -1 23 2 19 8 -7 12 -45 14 -45 2z"/>
<path fill="#FF0000" d="M904 2403 c10 -11 36 -12 36 -2 0 5 -10 9 -22 9 -12 0 -18 -3 -14 -7z"/>
<path fill="#FF0000" d="M3950 2370 c0 -5 5 -10 10 -10 6 0 10 5 10 10 0 6 -4 10 -10 10 -5 0
-10 -4 -10 -10z"/>
<path fill="#FF0000" d="M3987 2342 c-9 -2 -15 -8 -12 -13 8 -12 45 -12 45 0 0 13 -12 18 -33
13z"/>
<path fill="#FF0000" d="M845 2330 c-10 -16 14 -30 43 -24 23 5 28 9 20 18 -12 12 -56 17 -63
6z"/>
<path fill="#FF0000" d="M946 2313 c-3 -4 3 -13 15 -21 11 -8 23 -11 26 -8 4 3 1 6 -6 6 -7 0
-10 4 -7 9 7 10 -19 23 -28 14z"/>
<path fill="#FF0000" d="M3932 2289 c-27 -10 -21 -26 16 -40 20 -8 23 -12 13 -18 -23 -15 -2
-31 39 -31 29 0 42 5 50 20 6 11 15 18 21 15 16 -11 10 7 -8 21 -24 18 -31 17
-36 -3 -4 -17 -5 -17 -6 0 -1 18 -21 25 -21 6 0 -5 -10 1 -22 15 -19 20 -27
23 -46 15z"/>
<path fill="#FF0000" d="M4161 2266 c-9 -10 -8 -15 4 -20 10 -4 15 1 15 14 0 24 -4 25 -19 6z"/>
<path fill="#FF0000" d="M1055 2200 c-3 -5 -1 -10 4 -10 6 0 11 5 11 10 0 6 -2 10 -4 10 -3 0
-8 -4 -11 -10z"/>
<path fill="#FF0000" d="M3965 2174 c-16 -8 -23 -12 -15 -10 8 2 23 -1 32 -5 10 -6 19 -5 24
2 12 20 -11 28 -41 13z"/>
<path fill="#FF0000" d="M3910 2160 c0 -5 5 -10 10 -10 6 0 10 5 10 10 0 6 -4 10 -10 10 -5 0
-10 -4 -10 -10z"/>
<path fill="#FF0000" d="M1070 2134 c0 -8 5 -12 10 -9 6 4 8 11 5 16 -9 14 -15 11 -15 -7z"/>
<path fill="#FF0000" d="M1100 2134 c0 -8 5 -12 10 -9 6 3 10 10 10 16 0 5 -4 9 -10 9 -5 0
-10 -7 -10 -16z"/>
<path fill="#FF0000" d="M3895 2131 c-3 -6 3 -15 14 -20 27 -15 31 -14 31 9 0 21 -33 29 -45
11z"/>
<path fill="#FF0000" d="M4150 2110 c0 -5 7 -10 15 -10 8 0 15 5 15 10 0 6 -7 10 -15 10 -8 0
-15 -4 -15 -10z"/>
<path fill="#FF0000" d="M3913 2006 c1 -40 9 -45 77 -52 25 -3 51 -7 58 -9 26 -9 12 36 -15
45 -16 6 -36 15 -45 20 -10 6 -26 10 -36 10 -10 0 -23 5 -29 11 -8 8 -11 1
-10 -25z"/>
<path fill="#FF0000" d="M1205 1950 c-3 -5 -3 -10 2 -11 4 0 19 -3 32 -5 28 -5 26 -2 -6 15
-14 7 -24 8 -28 1z"/>
<path fill="#FF0000" d="M2494 1895 c3 -8 1 -15 -5 -15 -6 0 -9 -6 -6 -12 2 -7 0 -21 -5 -30
-9 -18 -5 -20 27 -20 34 0 38 2 26 15 -6 8 -8 16 -5 20 10 9 -6 45 -22 51 -12
4 -15 2 -10 -9z"/>
<path fill="#FF0000" d="M1097 1854 c-8 -9 1 -24 14 -24 6 0 8 4 5 9 -4 5 0 12 6 14 9 4 8 6
-3 6 -9 1 -19 -2 -22 -5z"/>
<path fill="#FF0000" d="M1226 1853 c-3 -3 -6 -13 -6 -21 0 -9 3 -12 7 -9 3 4 12 2 20 -4 9
-9 13 -8 13 0 0 6 10 11 22 11 13 0 18 4 13 9 -14 12 -61 22 -69 14z"/>
<path fill="#FF0000" d="M1286 1774 c-9 -23 -8 -24 12 -23 11 0 12 2 4 6 -10 4 -10 8 -1 19 7
8 7 14 1 14 -5 0 -13 -7 -16 -16z"/>
<path fill="#FF0000" d="M3404 1766 c-7 -19 13 -56 31 -56 8 0 15 -7 15 -15 0 -13 -4 -14 -20
-5 -14 7 -20 7 -20 0 0 -11 36 -50 46 -50 4 0 13 -8 20 -17 9 -12 13 -14 14
-5 0 9 7 11 20 7 26 -8 26 9 -1 36 -12 12 -22 26 -23 33 -1 6 -12 22 -24 34
-13 13 -20 27 -17 31 2 5 -2 12 -11 15 -22 8 -24 8 -30 -8z"/>
<path fill="#FF0000" d="M3866 1756 c10 -8 21 -12 24 -10 5 6 -21 24 -34 24 -6 0 -1 -6 10
-14z"/>
<path fill="#FF0000" d="M3900 1736 c0 -9 7 -16 15 -16 8 0 15 -4 15 -10 0 -5 5 -10 11 -10
16 0 6 21 -19 38 -20 13 -22 13 -22 -2z"/>
<path fill="#FF0000" d="M4144 1709 c-3 -6 -17 -8 -31 -4 -16 4 -22 2 -18 -5 3 -5 1 -10 -5
-10 -7 0 -5 -6 4 -15 18 -18 47 -20 44 -2 -2 6 4 13 12 13 8 1 21 2 29 3 11 1
11 4 1 16 -15 18 -26 19 -36 4z"/>
<path fill="#FF0000" d="M3980 1682 c0 -5 6 -9 13 -9 6 0 23 -3 37 -7 23 -6 24 -6 5 6 -25 15
-55 21 -55 10z"/>
<path fill="#FF0000" d="M4050 1628 c0 -4 7 -8 15 -8 8 0 15 4 15 8 0 5 -7 9 -15 9 -8 0 -15
-4 -15 -9z"/>
<path fill="#FF0000" d="M3620 1529 c7 -11 14 -18 17 -15 8 8 -5 36 -17 36 -7 0 -7 -6 0 -21z"/>
<path fill="#FF0000" d="M3763 1485 c13 -27 37 -34 37 -10 0 8 -7 15 -15 15 -8 0 -15 5 -15
10 0 6 -4 10 -9 10 -5 0 -4 -11 2 -25z"/>
<path fill="#FF0000" d="M3824 1491 c-4 -9 -8 -19 -8 -23 -1 -3 -4 -10 -8 -14 -13 -12 -9 -42
8 -58 18 -18 34 -21 34 -5 0 5 -6 7 -12 4 -7 -4 -2 3 11 14 13 12 18 21 12 21
-7 0 -9 5 -6 10 8 13 25 13 25 -1 0 -15 36 -60 43 -53 2 3 -7 31 -21 63 -20
46 -30 59 -48 59 -13 0 -26 -8 -30 -17z m20 -56 c3 -9 0 -15 -8 -15 -7 0 -13
7 -13 15 0 8 4 15 8 15 4 0 9 -7 13 -15z"/>
<path fill="#FF0000" d="M3222 1440 c7 -10 14 -17 17 -15 2 3 10 0 18 -6 20 -17 16 5 -5 24
-27 24 -46 23 -30 -3z"/>
<path fill="#FF0000" d="M1534 1385 c-6 -19 -7 -35 -3 -35 5 0 9 6 9 13 0 8 4 7 10 -3 6 -10
10 -11 10 -2 0 6 -1 13 -2 15 -1 1 4 12 11 25 10 19 9 22 -6 22 -12 0 -22 -12
-29 -35z"/>
<path fill="#FF0000" d="M3460 1416 c0 -2 7 -6 15 -10 8 -3 15 -1 15 4 0 6 -7 10 -15 10 -8 0
-15 -2 -15 -4z"/>
<path fill="#FF0000" d="M1440 1380 c0 -5 5 -10 11 -10 5 0 7 5 4 10 -3 6 -8 10 -11 10 -2 0
-4 -4 -4 -10z"/>
<path fill="#FF0000" d="M1513 1306 c4 -9 2 -16 -3 -16 -6 0 -10 5 -10 10 0 19 -21 10 -29
-12 -5 -15 -4 -26 3 -30 7 -5 7 -8 -3 -8 -8 0 -11 -7 -8 -20 3 -10 0 -21 -7
-24 -8 -3 -8 -5 0 -5 7 -1 24 5 39 13 25 13 25 15 8 25 -14 8 -15 10 -3 11 19
0 45 30 45 50 0 8 -9 16 -19 18 -14 3 -17 0 -13 -12z"/>
<path fill="#FF0000" d="M3800 1286 c0 -9 5 -16 10 -16 6 0 10 4 10 9 0 6 -4 13 -10 16 -5 3
-10 -1 -10 -9z"/>
<path fill="#FF0000" d="M3820 1252 c0 -5 9 -17 20 -27 18 -16 20 -16 20 -2 0 9 -9 21 -20 27
-11 6 -20 7 -20 2z"/>
<path fill="#FF0000" d="M3700 1199 c0 -18 2 -19 15 -9 15 12 12 30 -6 30 -5 0 -9 -10 -9 -21z"/>
<path fill="#FF0000" d="M1431 1167 c-11 -14 -5 -27 11 -27 5 0 6 5 2 11 -3 6 0 15 7 20 8 5
9 9 3 9 -6 0 -17 -6 -23 -13z"/>
<path fill="#FF0000" d="M3727 1165 c-8 -18 11 -31 25 -17 11 11 3 32 -12 32 -4 0 -10 -7 -13
-15z"/>
<path fill="#FF0000" d="M3960 1155 c22 -23 40 -25 40 -4 0 6 -4 7 -10 4 -5 -3 -10 1 -10 9 0
10 -9 16 -22 16 l-21 0 23 -25z"/>
<path fill="#FF0000" d="M1675 1150 c3 -5 8 -10 11 -10 2 0 4 5 4 10 0 6 -5 10 -11 10 -5 0
-7 -4 -4 -10z"/>
<path fill="#FF0000" d="M1575 1139 c4 -6 0 -9 -10 -7 -13 2 -19 -4 -20 -20 -1 -16 2 -21 12
-17 8 3 19 5 24 5 6 0 8 4 5 9 -4 5 -1 11 6 13 13 5 2 28 -13 28 -6 0 -7 -5
-4 -11z"/>
<path fill="#FF0000" d="M3840 1110 c0 -5 5 -10 10 -10 6 0 10 5 10 10 0 6 -4 10 -10 10 -5 0
-10 -4 -10 -10z"/>
<path fill="#FF0000" d="M1640 1088 c0 -4 7 -8 15 -8 8 0 15 4 15 8 0 5 -7 9 -15 9 -8 0 -15
-4 -15 -9z"/>
<path fill="#FF0000" d="M1527 1066 c-5 -11 0 -16 14 -16 11 0 17 -4 14 -10 -3 -5 3 -10 14
-10 12 0 21 5 21 10 0 6 8 10 18 10 14 1 15 2 2 9 -33 19 -77 23 -83 7z"/>
<path fill="#FF0000" d="M1801 1067 c-9 -12 -7 -16 9 -20 21 -5 25 0 11 21 -6 10 -10 10 -20
-1z"/>
<path fill="#FF0000" d="M1637 1064 c-8 -8 1 -24 12 -24 4 0 8 7 8 15 0 16 -9 20 -20 9z"/>
<path fill="#FF0000" d="M3242 1046 c7 -8 15 -12 17 -11 5 6 -10 25 -20 25 -5 0 -4 -6 3 -14z"/>
<path fill="#FF0000" d="M3590 1042 c0 -5 7 -9 15 -9 8 0 15 4 15 9 0 4 -7 8 -15 8 -8 0 -15
-4 -15 -8z"/>
<path fill="#FF0000" d="M3630 1032 c0 -18 50 -94 50 -76 0 5 5 1 11 -8 5 -10 17 -18 26 -18
12 0 13 3 4 14 -10 11 -8 15 6 19 17 4 17 5 -1 6 -10 0 -24 8 -30 17 -6 8 -20
16 -31 18 -24 3 -27 28 -5 38 11 5 9 7 -7 7 -16 1 -23 -5 -23 -17z"/>
<path fill="#FF0000" d="M3848 1043 c7 -3 16 -2 19 1 4 3 -2 6 -13 5 -11 0 -14 -3 -6 -6z"/>
<path fill="#FF0000" d="M1513 1021 c-11 -17 -8 -18 35 -17 42 1 44 2 19 10 -15 6 -27 13 -27
18 0 14 -15 8 -27 -11z"/>
<path fill="#FF0000" d="M3218 1007 c12 -7 19 -16 15 -21 -10 -10 17 -26 42 -25 12 0 14 3 7
6 -7 3 -24 16 -37 29 -13 13 -30 24 -37 24 -7 -1 -3 -6 10 -13z"/>
<path fill="#FF0000" d="M3080 965 c0 -8 8 -18 18 -24 9 -5 15 -13 12 -18 -3 -4 2 -9 11 -11
26 -5 11 44 -17 57 -19 8 -24 8 -24 -4z"/>
<path fill="#FF0000" d="M2985 959 c-4 -6 2 -19 13 -30 24 -22 38 -9 22 21 -12 22 -25 26 -35
9z"/>
<path fill="#FF0000" d="M1645 950 c3 -5 11 -10 16 -10 6 0 7 5 4 10 -3 6 -11 10 -16 10 -6 0
-7 -4 -4 -10z"/>
<path fill="#FF0000" d="M3615 910 c3 -5 11 -10 16 -10 6 0 7 5 4 10 -3 6 -11 10 -16 10 -6 0
-7 -4 -4 -10z"/>
<path fill="#FF0000" d="M1860 892 c0 -7 -57 -36 -72 -37 -5 0 -8 -4 -9 -10 0 -5 -5 -16 -11
-22 -8 -10 -6 -13 6 -13 14 0 21 -11 17 -32 0 -5 8 -8 19 -8 11 0 20 5 20 11
0 5 4 8 10 4 5 -3 16 5 25 19 13 19 14 29 6 45 -6 11 -8 27 -5 35 3 9 3 16 0
16 -3 0 -6 -3 -6 -8z"/>
<path fill="#FF0000" d="M2340 889 c0 -5 5 -7 10 -4 6 3 10 8 10 11 0 2 -4 4 -10 4 -5 0 -10
-5 -10 -11z"/>
<path fill="#FF0000" d="M2473 835 c0 -9 5 -14 11 -12 6 3 19 -3 30 -12 17 -15 18 -15 15 4
-3 11 -9 20 -16 20 -6 0 -15 3 -19 8 -12 12 -21 8 -21 -8z"/>
<path fill="#FF0000" d="M2056 808 c-12 -17 -16 -19 -16 -6 0 10 -7 15 -17 13 -10 -2 -23 -4
-28 -4 -17 -2 -37 -59 -29 -83 4 -13 7 -33 5 -45 -1 -13 2 -23 8 -23 12 0 23
36 25 80 1 30 24 49 35 31 10 -16 35 5 28 23 -4 9 -2 15 5 13 6 -1 13 4 15 11
8 20 -15 13 -31 -10z"/>
<path fill="#FF0000" d="M1470 780 c-20 -12 -5 -24 16 -12 9 5 12 12 7 15 -5 3 -15 2 -23 -3z"/>
<path fill="#FF0000" d="M2327 762 c-19 -21 -22 -32 -7 -32 6 0 14 8 17 18 4 9 11 20 17 24 8
6 8 8 0 8 -6 0 -18 -8 -27 -18z"/>
<path fill="#FF0000" d="M2740 760 c0 -5 5 -10 11 -10 5 0 7 5 4 10 -3 6 -8 10 -11 10 -2 0
-4 -4 -4 -10z"/>
<path fill="#FF0000" d="M1455 740 c-3 -5 -1 -10 4 -10 6 0 11 5 11 10 0 6 -2 10 -4 10 -3 0
-8 -4 -11 -10z"/>
<path fill="#FF0000" d="M2785 740 c-3 -5 1 -10 10 -10 9 0 13 5 10 10 -3 6 -8 10 -10 10 -2
0 -7 -4 -10 -10z"/>
<path fill="#FF0000" d="M3418 743 c6 -2 10 -9 6 -14 -3 -5 0 -9 5 -9 6 0 11 7 11 15 0 8 -8
15 -17 14 -11 0 -13 -3 -5 -6z"/>
<path fill="#FF0000" d="M3070 723 c1 -20 29 -43 44 -37 18 7 16 31 -3 27 -6 -2 -11 2 -11 7
0 6 -7 10 -15 10 -8 0 -15 -3 -15 -7z"/>
<path fill="#FF0000" d="M2780 716 c0 -2 7 -6 15 -10 8 -3 15 -1 15 4 0 6 -7 10 -15 10 -8 0
-15 -2 -15 -4z"/>
<path fill="#FF0000" d="M2560 700 c0 -5 5 -10 11 -10 5 0 7 5 4 10 -3 6 -8 10 -11 10 -2 0
-4 -4 -4 -10z"/>
<path fill="#FF0000" d="M2080 691 c0 -9 30 -24 36 -18 2 1 -6 8 -16 15 -11 7 -20 8 -20 3z"/>
<path fill="#FF0000" d="M2168 664 c-4 -22 13 -74 24 -74 4 0 8 7 8 15 0 8 -5 15 -11 15 -8 0
-7 5 1 16 11 12 11 18 -2 31 -15 14 -16 14 -20 -3z"/>
<path fill="#FF0000" d="M1975 640 c3 -5 8 -10 11 -10 2 0 4 5 4 10 0 6 -5 10 -11 10 -5 0 -7
-4 -4 -10z"/>
<path fill="#FF0000" d="M2285 640 c-3 -5 -1 -10 4 -10 6 0 11 5 11 10 0 6 -2 10 -4 10 -3 0
-8 -4 -11 -10z"/>
<path fill="#FF0000" d="M2926 590 c4 -19 15 -43 26 -52 24 -21 37 -23 34 -5 -2 16 -36 64
-36 52 -1 -6 -7 1 -15 15 -14 25 -14 25 -9 -10z"/>
<path fill="#FF0000" d="M3390 600 c0 -5 5 -10 11 -10 5 0 7 5 4 10 -3 6 -8 10 -11 10 -2 0
-4 -4 -4 -10z"/>
<path fill="#FF0000" d="M2178 568 c-7 -18 2 -39 13 -32 12 7 12 44 0 44 -5 0 -11 -6 -13 -12z"/>
<path fill="#FF0000" d="M2857 554 c-8 -9 5 -50 24 -74 l19 -25 0 23 c0 12 4 22 8 22 15 0 10
39 -6 46 -23 10 -40 13 -45 8z"/>
<path fill="#FF0000" d="M2700 490 c0 -5 0 -12 0 -15 0 -12 14 -4 16 10 1 8 -2 15 -7 15 -5 0
-9 -4 -9 -10z"/>
<path fill="#FF0000" d="M2810 461 c0 -5 5 -13 10 -16 6 -3 10 -2 10 4 0 5 -4 13 -10 16 -5 3
-10 2 -10 -4z"/>
<path fill="#FF0000" d="M2785 440 c-3 -5 -2 -17 3 -26 6 -11 11 -13 16 -5 4 6 3 11 -3 11 -6
0 -8 7 -5 15 7 17 -1 20 -11 5z"/>
<path fill="#FF0000" d="M2475 430 c4 -6 11 -8 16 -5 14 9 11 15 -7 15 -8 0 -12 -5 -9 -10z"/>
</g>
</svg>
