<?xml version="1.0" encoding="UTF-8" standalone="no"?>
<svg
   xmlns:dc="http://purl.org/dc/elements/1.1/"
   xmlns:cc="http://creativecommons.org/ns#"
   xmlns:rdf="http://www.w3.org/1999/02/22-rdf-syntax-ns#"
   xmlns:svg="http://www.w3.org/2000/svg"
   xmlns="http://www.w3.org/2000/svg"
   xmlns:sodipodi="http://sodipodi.sourceforge.net/DTD/sodipodi-0.dtd"
   xmlns:inkscape="http://www.inkscape.org/namespaces/inkscape"
   version="1.0"
   width="393.52472"
   height="379.75955"
   viewBox="0 0 314.81978 303.80764"
   preserveAspectRatio="xMidYMid meet"
   id="svg2"
   inkscape:version="0.47 r22583"
   sodipodi:docname="combined.svg">
  <defs
     id="defs416">
    <inkscape:perspective
       sodipodi:type="inkscape:persp3d"
       inkscape:vp_x="0 : 285.625 : 1"
       inkscape:vp_y="0 : 1000 : 0"
       inkscape:vp_z="585 : 285.625 : 1"
       inkscape:persp3d-origin="292.5 : 190.41667 : 1"
       id="perspective418" />
  </defs>
  <sodipodi:namedview
     pagecolor="#ffffff"
     bordercolor="#666666"
     borderopacity="1"
     objecttolerance="10"
     gridtolerance="10"
     guidetolerance="10"
     inkscape:pageopacity="0"
     inkscape:pageshadow="2"
     inkscape:window-width="1920"
     inkscape:window-height="1005"
     id="namedview414"
     showgrid="false"
     inkscape:zoom="1.4004376"
     inkscape:cx="126.70262"
     inkscape:cy="185.3354"
     inkscape:window-x="0"
     inkscape:window-y="24"
     inkscape:window-maximized="1"
     inkscape:current-layer="svg2" />
  <metadata
     id="metadata4">
Created by potrace 1.8, written by Peter Selinger 2001-2007
<rdf:RDF>
  <cc:Work
     rdf:about="">
    <dc:format>image/svg+xml</dc:format>
    <dc:type
       rdf:resource="http://purl.org/dc/dcmitype/StillImage" />
    <dc:title />
  </cc:Work>
</rdf:RDF>
</metadata>
  <path
     style="fill:#00ff00;stroke:none"
     id="path8"
     d="m 49.424604,15.70598 c 0,1.340787 5.043913,6.640088 10.087826,10.598602 3.064656,2.362341 3.958514,2.617731 3.958514,1.085401 0,-0.638472 1.021552,-0.19154 3.383891,1.66002 4.086209,3.19235 4.469289,3.32004 4.596989,1.27694 0.12769,-1.72387 -0.89386,-4.46929 -1.66003,-4.46929 -0.255385,0 -0.702314,-0.574623 -0.893855,-1.340787 -0.383082,-1.149246 -0.510776,-1.213093 -1.213093,-0.255388 -0.63847,0.893858 -0.957705,0.830011 -2.490033,-0.893858 -1.660022,-1.851563 -4.596984,-3.19235 -5.363148,-2.362339 -0.191541,0.191541 -1.213093,-0.383082 -2.234645,-1.213093 -1.021552,-0.893858 -2.234645,-1.596175 -2.681574,-1.596175 -0.446929,0 -1.340787,-0.574623 -2.043104,-1.340787 -0.63847,-0.702317 -1.723869,-1.596175 -2.298492,-1.91541 -0.957705,-0.510776 -1.149246,-0.383082 -1.149246,0.766164 z" />
  <path
     style="fill:#00ff00;stroke:none"
     id="path10"
     d="m 184.78024,29.369233 c 0,0.83002 3.89467,6.06547 4.98007,6.64009 0.57462,0.31924 1.40463,1.85157 1.78771,3.38389 0.38308,1.53233 1.02155,2.68158 1.40464,2.61773 0.38308,-0.12769 1.72386,1.02155 2.93696,2.42619 2.10695,2.49003 3.57543,2.87311 3.57543,0.83001 0,-0.51078 0.31924,-0.89386 0.63847,-0.89386 0.38308,0 0.63847,-0.38308 0.63847,-0.89386 0,-0.76616 -7.21471,-6.12931 -8.23626,-6.12931 -0.25539,0 -0.95771,-0.9577 -1.66002,-2.10695 -0.63848,-1.0854 -1.78772,-2.68157 -2.49004,-3.51159 -1.46848,-1.59617 -3.57543,-3.00081 -3.57543,-2.36234 z" />
  <path
     style="fill:#00ff00;stroke:none"
     id="path12"
     d="m 46.870724,35.051623 c 0,0.51077 0.191541,1.02155 0.510776,1.14924 0.255388,0.0639 1.660022,1.85157 3.19235,3.83082 2.490033,3.3839 4.596984,4.72468 4.596984,3.00081 0,-0.89386 -5.682383,-7.53394 -7.150864,-8.30011 -0.893858,-0.44693 -1.149246,-0.38308 -1.149246,0.31924 z" />
  <path
     style="fill:#00ff00;stroke:none"
     id="path14"
     d="m 180.31095,36.328563 c 0,0.57462 0.25539,1.02155 0.57462,1.02155 0.31924,0 0.76617,0.70232 0.95771,1.59618 0.25539,0.89385 0.70231,1.59617 1.02155,1.59617 0.83001,0 0.83001,-0.0639 -0.38308,-2.42619 -1.14925,-2.36234 -2.1708,-3.19235 -2.1708,-1.78771 z" />
  <path
     style="fill:#00ff00;stroke:none"
     id="path16"
     d="m 95.394444,41.691713 c 0,0.25538 0.70232,1.14924 1.59617,1.91541 0.95771,0.83001 1.59618,1.08539 1.59618,0.57462 -0.0639,-0.83001 -3.19235,-3.38389 -3.19235,-2.49003 z" />
  <path
     style="fill:#00ff00;stroke:none"
     id="path18"
     d="m 76.240344,44.437133 c 0,0.89386 4.46929,6.32085 5.17161,6.32085 1.27694,0 0.44693,-1.97926 -1.91541,-4.40544 -2.61773,-2.74542 -3.2562,-3.12851 -3.2562,-1.91541 z" />
  <path
     style="fill:#00ff00;stroke:none"
     id="path20"
     d="m 202.01893,45.777913 c 0.31923,1.14925 0.83001,3.12851 1.21309,4.3416 0.83001,2.80927 5.93777,7.98087 7.34241,7.4701 0.83001,-0.31924 0.89386,-0.70232 0.25539,-2.1708 -1.27694,-2.87311 -3.57544,-6.3847 -4.78853,-7.3424 -0.63847,-0.44693 -1.66002,-1.59618 -2.29849,-2.61773 -1.53233,-2.36234 -2.36234,-2.1708 -1.72387,0.31923 z" />
  <path
     style="fill:#00ff00;stroke:none"
     id="path22"
     d="m 32.185914,49.481043 c 0,0.95771 1.979257,2.55388 3.19235,2.55388 0.702317,0 2.170798,0.57462 3.320044,1.27694 2.681574,1.66002 3.575432,1.66002 2.106951,0 -0.63847,-0.70232 -1.532328,-1.27694 -1.91541,-1.27694 -0.446929,0 -0.957705,-0.38308 -1.149246,-0.89386 -0.383082,-0.89386 -5.554689,-2.49003 -5.554689,-1.66002 z" />
  <path
     style="fill:#00ff00;stroke:none"
     id="path24"
     d="m 24.779662,54.333413 c 0.06385,0.57463 0.830011,1.59618 1.723869,2.23465 l 1.532328,1.27694 -1.723869,-0.44693 c -3.064656,-0.70232 -1.91541,0.57462 3.83082,4.34159 7.725487,5.10776 8.236263,3.89467 1.27694,-3.00081 -5.426995,-5.36314 -6.895476,-6.38469 -6.640088,-4.40544 z" />
  <path
     style="fill:#00ff00;stroke:none"
     id="path26"
     d="m 219.25762,55.738053 c 0,0.31923 0.57462,1.21309 1.27694,2.0431 0.70232,0.83001 1.27694,1.85156 1.27694,2.23464 0,0.44693 0.44693,1.14925 0.9577,1.59618 0.76617,0.63847 0.95771,0.63847 0.95771,-0.25539 0,-0.57462 -0.31923,-1.02155 -0.63847,-1.02155 -0.38308,0 -0.51078,-0.63847 -0.25539,-1.53233 0.25539,-1.14924 0,-1.78771 -1.0854,-2.55388 -1.66002,-1.14924 -2.49003,-1.27694 -2.49003,-0.51077 z" />
  <path
     style="fill:#00ff00;stroke:none"
     id="path28"
     d="m 44.316844,56.568063 c 0,0.70231 4.660831,5.68238 5.299301,5.68238 1.149246,0 0.191541,-2.0431 -1.91541,-4.08621 -2.426186,-2.36234 -3.383891,-2.80927 -3.383891,-1.59617 z" />
  <path
     style="fill:#00ff00;stroke:none"
     id="path30"
     d="m 230.55854,57.142683 c 0.19154,0.63847 0.70232,1.59617 1.21309,1.97926 0.51078,0.38308 0.89386,1.0854 0.89386,1.53232 0,1.2131 3.1285,4.78853 4.2139,4.78853 1.85157,0 0.89386,-3.06466 -2.0431,-6.32085 -3.06466,-3.38389 -4.85237,-4.2139 -4.27775,-1.97926 z" />
  <path
     style="fill:#00ff00;stroke:none"
     id="path32"
     d="m 9.8394639,57.142683 c 0,0.89386 4.5331371,5.10776 5.5546891,5.10776 1.340787,0 0.957705,-0.89386 -1.213093,-3.00081 -2.234645,-2.0431 -4.3415961,-3.06466 -4.3415961,-2.10695 z" />
  <path
     style="fill:#00ff00;stroke:none"
     id="path34"
     d="m 205.27513,62.314293 c 0.38308,0.76616 1.66002,2.23464 2.87311,3.25619 1.21309,1.0854 2.04311,2.10695 1.91541,2.36234 -0.51077,0.83001 0.57462,1.85157 2.36234,2.2985 2.42619,0.63846 2.23465,-0.76617 -0.51078,-3.76698 -1.21309,-1.34079 -2.23464,-2.68157 -2.23464,-3.00081 0,-0.31923 -0.31924,-0.57462 -0.70232,-0.57462 -0.38308,0 -1.0854,-0.44693 -1.59617,-0.95771 -0.57463,-0.51077 -1.40464,-0.9577 -1.91541,-0.9577 -0.76617,0 -0.83001,0.25539 -0.19154,1.34079 z" />
  <path
     style="fill:#00ff00;stroke:none"
     id="path36"
     d="m 239.68866,69.145923 c 0,1.53232 3.89467,8.93858 5.42699,10.34321 l 1.78772,1.59617 -0.38308,-2.74542 c -0.19154,-1.53232 -0.83001,-3.32004 -1.40464,-3.95851 -0.57462,-0.63847 -1.59617,-2.10695 -2.17079,-3.32004 -1.0854,-1.97926 -3.2562,-3.2562 -3.2562,-1.91541 z" />
  <path
     style="fill:#00ff00;stroke:none"
     id="path38"
     d="m 232.02702,71.125173 c 0,0.89386 4.2139,7.02317 5.42699,7.85318 1.46849,1.0854 1.59618,0.38309 0.25539,-2.0431 -1.66002,-2.87312 -5.68238,-7.02317 -5.68238,-5.81008 z" />
  <path
     style="fill:#00ff00;stroke:none"
     id="path40"
     d="m 140.08734,79.808363 c 0,1.0854 5.23545,4.78853 6.70393,4.78853 1.0854,0 -0.0638,-1.21309 -2.80926,-3.06466 -3.19235,-2.0431 -3.89467,-2.36233 -3.89467,-1.72387 z" />
  <path
     style="fill:#00ff00;stroke:none"
     id="path42"
     d="m 160.96531,83.383803 c 1.78772,3.00081 3.76697,4.66083 5.10776,4.0862 0.9577,-0.38308 0.70232,-0.83001 -1.91541,-3.25619 -3.63928,-3.2562 -4.78853,-3.57543 -3.19235,-0.83001 z" />
  <path
     style="fill:#00ff00;stroke:none"
     id="path44"
     d="m 105.16303,84.533043 c 0.25539,1.0854 1.14925,3.06466 2.0431,4.40545 0.89386,1.27694 1.59618,3.19235 1.59618,4.27774 0,1.91542 0.95771,3.51159 2.0431,3.51159 1.14925,0 -0.19154,-6.64009 -2.10695,-10.27937 -0.44693,-0.83001 -0.9577,-1.97925 -1.21309,-2.49003 -0.25539,-0.51078 -0.95771,-1.0854 -1.59618,-1.21309 -0.9577,-0.1277 -1.08539,0.12769 -0.76616,1.78771 z" />
  <path
     style="fill:#00ff00;stroke:none"
     id="path46"
     d="m 145.83357,92.130843 c 0,1.53232 7.78933,7.85318 8.61934,7.02317 0.63847,-0.63847 -0.44692,-2.10696 -3.57543,-4.85238 -2.93696,-2.49003 -5.04391,-3.38389 -5.04391,-2.17079 z" />
  <path
     style="fill:#00ff00;stroke:none"
     id="path48"
     d="m 113.01621,96.919363 c 0.1277,3.575427 0.25539,4.277747 0.83001,4.277747 0.76617,0 1.2131,-3.447737 0.57463,-5.043907 -0.70232,-1.97926 -1.46849,-1.59618 -1.40464,0.76616 z" />
  <path
     style="fill:#00ff00;stroke:none"
     id="path50"
     d="m 156.11294,101.38865 c 0.89386,0.76616 2.23464,2.29849 3.00081,3.44774 0.76616,1.0854 1.85156,1.91541 2.49003,1.85156 0.57462,-0.12769 1.91541,0.25539 2.87311,0.76617 4.91622,2.42618 1.46848,-1.85157 -4.2139,-5.23546 -4.34159,-2.617717 -6.76778,-3.128497 -4.15005,-0.83001 z" />
  <path
     style="fill:#00ff00;stroke:none"
     id="path52"
     d="m 145.83357,101.64404 c 0.0638,1.40463 4.66083,4.85237 6.12931,4.53314 0.63847,-0.1277 -0.19154,-1.0854 -2.23464,-2.61773 -3.32005,-2.42619 -3.89467,-2.74542 -3.89467,-1.91541 z" />
  <path
     style="fill:#00ff00;stroke:none"
     id="path54"
     d="m 268.6752,125.39512 c 0.25539,0.38308 0.76616,0.70232 1.14924,0.70232 0.44693,0 1.40464,0.63847 2.23465,1.40463 1.02155,0.95771 1.66002,1.2131 2.1708,0.70232 0.44693,-0.44693 0.12769,-0.9577 -0.89386,-1.66002 -2.10695,-1.34079 -5.23545,-2.1708 -4.66083,-1.14925 z" />
  <path
     style="fill:#00ff00;stroke:none"
     id="path56"
     d="m 178.77862,134.26986 c -0.19154,0.31923 1.27694,1.53232 3.2562,2.74542 1.91541,1.21309 4.27775,2.93696 5.17161,3.89466 0.89385,1.02156 1.97925,1.78772 2.49003,1.78772 1.53233,0 0.83001,-1.78772 -1.21309,-3.2562 -1.14925,-0.83001 -2.49004,-1.85156 -2.93697,-2.29849 -0.44693,-0.44693 -1.27694,-0.83001 -1.72387,-0.83001 -0.51077,0 -1.27694,-0.51078 -1.72386,-1.14925 -0.95771,-1.21309 -2.80927,-1.72387 -3.32005,-0.89385 z" />
  <path
     style="fill:#00ff00;stroke:none"
     id="path58"
     d="m 280.55074,141.86765 c 0.0639,1.0854 2.42619,3.32004 5.10776,4.72468 1.59617,0.83001 3.00081,1.72387 3.19235,1.97925 0.63847,0.76617 5.17161,3.70313 5.74623,3.70313 1.02155,0 0.70232,-1.14925 -0.76616,-2.74542 -0.83001,-0.89386 -2.1708,-2.29849 -3.00081,-3.2562 -0.76617,-0.89386 -1.72387,-1.46848 -2.10695,-1.27694 -0.31924,0.19154 -1.0854,-0.0639 -1.66003,-0.63847 -1.02155,-0.89386 -5.2993,-2.93696 -6.19316,-2.93696 -0.19154,0 -0.31923,0.19154 -0.31923,0.44693 z" />
  <path
     style="fill:#00ff00;stroke:none"
     id="path60"
     d="m 205.53052,149.52929 c 0.25538,0.63847 0.63846,1.78771 0.76616,2.55388 0.19154,0.76616 1.02155,2.0431 1.85156,2.80927 l 1.53233,1.40463 0,-1.91541 c 0,-1.21309 -0.63847,-2.74542 -1.72387,-3.95851 -1.91541,-2.1708 -3.1285,-2.61773 -2.42618,-0.89386 z" />
  <path
     style="fill:#00ff00;stroke:none"
     id="path62"
     d="m 180.69403,164.98026 c 0.31924,0.31924 1.46848,0.76617 2.49003,1.02155 1.85157,0.38309 1.85157,0.38309 0.70232,-0.57462 -1.34079,-1.0854 -4.27775,-1.46848 -3.19235,-0.44693 z" />
  <path
     style="fill:#00ff00;stroke:none"
     id="path64"
     d="m 183.75869,181.70818 c -0.38308,0.63847 4.59698,6.95932 5.49084,6.95932 1.0854,0 1.27694,-1.14925 0.31923,-1.91541 -0.57462,-0.44693 -1.40463,-1.72387 -1.97925,-2.87312 -0.95771,-2.10695 -3.12851,-3.32004 -3.83082,-2.17079 z" />
  <path
     style="fill:#00ff00;stroke:none"
     id="path66"
     d="m 207.31823,189.05058 c -0.38308,0.83001 -0.44693,1.53233 -0.12769,1.53233 0.31923,0 0.57462,0.76616 0.57462,1.66002 0,1.02155 0.31923,1.53233 0.83001,1.34079 0.76616,-0.25539 0.70232,-2.74542 -0.0639,-4.98007 -0.38308,-1.02155 -0.51077,-0.9577 -1.21309,0.44693 z" />
  <path
     style="fill:#00ff00;stroke:none"
     id="path68"
     d="m 271.61216,192.30678 c 0.0639,0.63847 0.38308,1.91541 0.83001,2.87311 1.02155,2.2985 8.10857,10.08783 9.19397,10.08783 1.14924,0 1.02155,-0.44693 -0.51078,-2.42619 -4.15005,-5.49084 -5.04391,-6.76778 -5.04391,-7.78933 0,-1.21309 -2.55388,-3.83082 -3.70313,-3.83082 -0.44693,0 -0.76616,0.51078 -0.76616,1.0854 z" />
  <path
     style="fill:#00ff00;stroke:none"
     id="path70"
     d="m 272.50602,209.9924 c -0.63847,1.59617 4.85237,8.93858 5.87392,7.85318 0.44693,-0.44693 -3.19235,-7.02317 -4.53314,-8.10857 -0.76616,-0.63847 -1.02155,-0.57462 -1.34078,0.25539 z" />
  <path
     style="fill:#00ff00;stroke:none"
     id="path72"
     d="m 271.61216,215.41939 c 0,0.57463 2.80927,6.5124 3.89467,8.36396 0.31923,0.51078 1.34078,2.55388 2.17079,4.46929 0.89386,1.91541 1.91542,3.95851 2.23465,4.46929 0.38308,0.51078 0.89386,1.59617 1.21309,2.36234 0.89386,1.91541 1.97926,2.42618 1.97926,0.89386 0,-0.70232 -0.25539,-1.46848 -0.63847,-1.66003 -0.31924,-0.19154 -0.63847,-1.02155 -0.63847,-1.78771 0,-1.0854 0.12769,-1.21309 0.63847,-0.44693 1.0854,1.78772 1.27694,0.19154 0.25539,-2.80927 -0.83001,-2.36234 -1.27694,-2.93696 -2.29849,-2.80927 -1.02156,0.1277 -1.72387,-0.57462 -3.00081,-3.0008 -1.97926,-3.83083 -5.04392,-8.61935 -5.49085,-8.61935 -0.19154,0 -0.31923,0.25539 -0.31923,0.57462 z" />
  <path
     style="fill:#00ff00;stroke:none"
     id="path74"
     d="m 280.99767,218.67559 c -0.57462,2.29849 3.63928,12.70555 7.3424,18.00485 1.34079,1.91541 2.42619,2.2985 2.42619,0.89386 0,-1.14924 -5.55469,-12.38632 -6.89548,-13.91864 -0.51077,-0.63847 -0.9577,-1.97926 -0.89385,-3.00081 0.0638,-2.36234 -1.46848,-3.89467 -1.97926,-1.97926 z" />
  <path
     style="fill:#00ff00;stroke:none"
     id="path76"
     d="m 283.74309,234.70119 c 0,0.70231 1.02155,3.51158 2.36234,6.19316 1.40463,2.93696 2.0431,4.91622 1.59617,5.10776 -0.76616,0.25538 0.31924,3.95851 1.85157,6.44854 0.9577,1.46848 2.61772,1.85157 2.42618,0.51078 -0.0638,-0.38308 0.0639,-1.27694 0.38308,-1.91541 0.25539,-0.70232 0.0639,-1.66002 -0.57462,-2.55388 -0.57462,-0.76617 -1.46848,-2.04311 -1.97926,-2.74542 -1.02155,-1.40464 -1.14924,-1.85157 -1.85156,-6.70394 -0.57462,-4.08621 -4.2139,-7.78933 -4.2139,-4.34159 z" />
  <path
     style="fill:#00ff00;stroke:none"
     id="path78"
     d="m 273.52757,236.87199 c 0,1.14924 1.97926,4.72467 3.63928,6.51239 1.97926,2.1708 3.38389,2.68157 3.38389,1.27694 0,-1.40464 -4.72468,-7.78933 -5.93777,-7.98088 -0.57462,-0.12769 -1.0854,-0.0638 -1.0854,0.19155 z" />
  <path
     style="fill:#00ff00;stroke:none"
     id="path80"
     d="m 224.04614,247.2152 c 0.57463,1.02155 1.97926,2.93696 3.19235,4.27775 1.59618,1.97925 2.36234,2.36234 3.2562,1.97925 0.70232,-0.25538 1.72387,-0.44692 2.36234,-0.38308 2.36234,0.31924 0.89386,-1.40463 -3.83082,-4.40544 -2.74542,-1.78772 -5.23545,-3.19235 -5.49084,-3.19235 -0.31924,0 -0.0639,0.76616 0.51077,1.72387 z" />
  <path
     style="fill:#00ff00;stroke:none"
     id="path82"
     d="m 281.82768,246.76827 c 0,0.38308 0.44693,2.36234 1.02155,4.40544 1.14925,4.15006 3.00081,6.76778 5.17161,7.40625 1.27694,0.38309 1.34079,0.25539 0.83001,-1.53232 -0.70232,-2.42619 -5.68238,-10.91784 -6.44855,-10.91784 -0.31923,0 -0.57462,0.31923 -0.57462,0.63847 z" />
  <path
     style="fill:#00ff00;stroke:none"
     id="path84"
     d="m 237.77325,247.27905 c 0,1.78771 8.17242,7.40625 9.5132,6.57624 0.63847,-0.44693 0.19154,-1.0854 -1.91541,-2.49004 -1.53232,-1.08539 -3.57543,-2.55388 -4.53313,-3.25619 -1.72387,-1.40464 -3.06466,-1.72387 -3.06466,-0.83001 z" />
  <path
     style="fill:#00ff00;stroke:none"
     id="path86"
     d="m 270.90984,249.76908 c 1.2131,2.36234 2.42619,3.76697 5.87393,6.70393 1.46848,1.27694 3.32004,4.27775 7.40625,12.13093 0.44693,0.89386 1.27694,1.85157 1.78772,2.04311 1.14924,0.38308 1.21309,0.0639 0.25538,-1.59618 -0.38308,-0.70231 -0.76616,-1.85156 -0.89386,-2.55388 -0.12769,-0.63847 -1.21309,-2.68157 -2.42618,-4.53313 -1.21309,-1.85157 -3.06466,-4.98007 -4.2139,-6.95933 -2.23465,-4.08621 -3.38389,-5.23545 -5.2993,-5.36314 -0.70232,-0.0639 -1.59618,-0.57463 -1.91541,-1.14925 -1.2131,-2.23465 -1.78772,-0.95771 -0.57463,1.27694 z" />
  <path
     style="fill:#00ff00;stroke:none"
     id="path88"
     d="m 235.21937,253.4722 c 0,1.53233 10.5986,12.64171 12.83325,13.40787 0.57462,0.19155 3.51158,2.80927 6.51239,5.81008 3.57543,3.57543 6.06547,5.55469 7.15087,5.61854 0.89385,0.12769 2.61772,1.27694 3.89466,2.55388 2.49004,2.55388 4.2139,3.1285 2.61773,0.83001 -0.57462,-0.76617 -2.0431,-2.87312 -3.32005,-4.72468 -2.49003,-3.70313 -14.87635,-13.8548 -18.32408,-15.06789 -0.63847,-0.25539 -1.14925,-0.95771 -1.14925,-1.66002 0,-0.70232 -0.70232,-1.78772 -1.59617,-2.42619 -0.89386,-0.63847 -2.68158,-1.91541 -3.95852,-2.93696 -1.97926,-1.53233 -4.66083,-2.29849 -4.66083,-1.40464 z" />
  <path
     style="fill:#00ff00;stroke:none"
     id="path90"
     d="m 260.37509,254.5576 c 0.51077,2.68158 1.53233,4.78853 2.55388,5.17161 1.40463,0.57462 1.27694,-0.57462 -0.38308,-3.32004 -0.83001,-1.27694 -1.34079,-2.42619 -1.27694,-2.61773 0.12769,-0.12769 -0.1277,-0.38308 -0.51078,-0.51078 -0.38308,-0.12769 -0.57462,0.31924 -0.38308,1.27694 z" />
  <path
     style="fill:#00ff00;stroke:none"
     id="path92"
     d="m 247.98877,256.79225 c 0,0.83001 6.12931,7.21471 6.95932,7.21471 1.2131,0 -0.83001,-3.38389 -3.44774,-5.68238 -2.23464,-1.91541 -3.51158,-2.49004 -3.51158,-1.53233 z" />
  <path
     style="fill:#00ff00;stroke:none"
     id="path94"
     d="m 270.846,263.1131 c -0.51078,0.44693 0.57462,2.49003 3.38389,6.32085 1.27694,1.78772 2.68157,4.27775 3.06465,5.55469 0.44693,1.27694 1.2131,2.68158 1.72387,3.06466 0.76617,0.70232 0.89386,0.31923 0.89386,-2.29849 0,-2.49004 -0.44693,-3.76698 -2.61773,-7.08702 -3.1285,-4.72468 -5.36315,-6.70393 -6.44854,-5.55469 z" />
  <path
     style="fill:#ff0000;stroke:none"
     id="path100"
     d="m 24.907356,9.8320555 c -0.191541,0.3192355 0.06385,0.8938585 0.574623,1.3407875 0.766164,0.63847 0.957705,0.63847 0.957705,-0.191541 0,-1.2130935 -1.021552,-1.9792575 -1.532328,-1.1492465 z" />
  <path
     style="fill:#ff0000;stroke:none"
     id="path102"
     d="m 38.953696,18.770636 c -0.510776,0.766164 0.127694,3.511585 0.893858,3.766973 0.319235,0.127694 0.63847,0.574623 0.63847,0.957705 0,0.446929 1.27694,1.404634 2.873115,2.170798 3.19235,1.532331 3.511585,1.213093 1.91541,-2.55388 -1.27694,-3.128503 -5.363148,-5.937771 -6.320853,-4.341596 z" />
  <path
     style="fill:#ff0000;stroke:none"
     id="path104"
     d="m 76.240344,23.303773 c 0,0.191541 0.44693,1.021552 1.02155,1.787716 0.89386,1.27694 0.89386,1.404634 0,1.404634 -0.57462,0 -1.02155,-0.319235 -1.02155,-0.63847 0,-0.383082 -0.51078,-0.63847 -1.0854,-0.63847 -0.83001,0 -0.70232,0.383082 0.63847,1.787716 0.95771,0.957704 1.72387,2.106954 1.72387,2.490034 0,1.02155 5.68238,6.57624 6.70394,6.57624 0.51077,0 0.9577,-0.19154 0.9577,-0.38308 0,-0.83001 -2.87312,-4.53314 -5.04391,-6.5124 l -2.2985,-2.10695 2.04311,0.38309 c 1.85156,0.38308 2.0431,0.25538 1.97926,-1.085404 -0.1277,-2.234645 -1.72387,-3.703126 -3.83082,-3.575432 -0.95771,0.06385 -1.78772,0.319235 -1.78772,0.510776 z" />
  <path
     style="fill:#ff0000;stroke:none"
     id="path106"
     d="m 26.822766,25.602265 c -0.510776,1.404634 -0.510776,2.170798 0.127694,2.170798 0.702317,0 3.320044,-2.234645 3.320044,-2.809268 0,-0.830011 -3.064656,-0.319235 -3.447738,0.63847 z" />
  <path
     style="fill:#ff0000;stroke:none"
     id="path108"
     d="m 176.54398,27.453833 c -1.2131,2.17079 -1.27694,2.42618 -0.31924,3.83081 1.02155,1.59618 2.80927,2.1708 2.80927,0.95771 0,-1.34079 1.40463,-0.51078 5.23545,3.19235 2.1708,2.0431 4.15006,3.63928 4.27775,3.44774 0.19154,-0.19154 -0.0638,-0.57463 -0.57462,-0.89386 -0.51078,-0.38308 -0.76616,-0.63847 -0.44693,-0.63847 0.25539,0 -0.25539,-1.14925 -1.14924,-2.55388 -0.89386,-1.40463 -1.59618,-2.68157 -1.59618,-2.87311 0,-0.57463 -2.74542,-4.40545 -4.08621,-5.554694 -1.78771,-1.660022 -2.68157,-1.404634 -4.15005,1.085404 z" />
  <path
     style="fill:#ff0000;stroke:none"
     id="path110"
     d="m 91.308234,29.369233 c 0.25539,0.51078 0.57462,0.95771 0.83001,0.95771 0.25539,0 0.76617,0.9577 1.2131,2.10695 1.02155,2.87312 4.34159,6.06547 5.2993,5.10776 1.27694,-1.27694 0.12769,-4.02236 -1.85157,-4.40544 -1.02155,-0.19154 -2.36233,-1.27694 -3.25619,-2.55388 -1.53233,-2.23465 -2.87312,-2.93696 -2.23465,-1.2131 z" />
  <path
     style="fill:#ff0000;stroke:none"
     id="path112"
     d="m 171.56391,29.752323 c -0.83001,0.83001 -0.44693,2.29849 0.95771,3.89466 1.46848,1.78772 2.61772,1.46848 2.29849,-0.63847 -0.44693,-2.36234 -2.29849,-4.2139 -3.2562,-3.25619 z" />
  <path
     style="fill:#ff0000;stroke:none"
     id="path114"
     d="m 119.01783,32.753133 c 0,1.59617 1.72387,3.83082 3.83082,4.91621 1.59618,0.83002 1.85156,0.83002 2.1708,-0.0638 0.51077,-1.40464 0.57462,-1.27694 -1.59618,-3.76698 -2.10695,-2.42618 -4.40544,-3.0008 -4.40544,-1.08539 z" />
  <path
     style="fill:#ff0000;stroke:none"
     id="path116"
     d="m 29.632034,32.816973 c 0,0.31924 0.319235,0.83001 0.63847,1.02155 0.383082,0.19155 0.63847,0.1277 0.63847,-0.25538 0,-0.31924 -0.255388,-0.83001 -0.63847,-1.02155 -0.319235,-0.19155 -0.63847,-0.1277 -0.63847,0.25538 z" />
  <path
     style="fill:#ff0000;stroke:none"
     id="path118"
     d="m 218.74684,33.966223 c -0.38308,0.12769 -0.63847,0.57462 -0.38308,0.89386 0.19154,0.31923 -0.12769,0.57462 -0.63847,0.57462 -0.57462,0 -1.02155,0.44693 -1.02155,1.0854 0,1.40463 3.06466,6.57624 3.95851,6.57624 1.27694,0 3.12851,-2.80927 2.80927,-4.15005 -0.19154,-0.70232 -0.38308,-1.59618 -0.38308,-1.97926 0,-0.76617 -2.42619,-3.44774 -3.06466,-3.38389 -0.25538,0 -0.83001,0.19154 -1.27694,0.38308 z" />
  <path
     style="fill:#ff0000;stroke:none"
     id="path120"
     d="m 211.34059,37.030883 c -1.34078,1.08539 -1.72387,1.78771 -1.34078,2.80926 0.63846,2.04311 3.44773,5.17161 4.66083,5.17161 0.89385,0 1.02155,-0.57462 0.89385,-3.76697 -0.19154,-2.49004 -0.57462,-4.08621 -1.27694,-4.72468 -0.9577,-0.89386 -1.27694,-0.83001 -2.93696,0.51078 z" />
  <path
     style="fill:#ff0000;stroke:none"
     id="path122"
     d="m 13.351049,37.988583 c -0.191541,0.31923 0.06385,0.63847 0.574623,0.63847 0.574623,0 1.021552,-0.31924 1.021552,-0.63847 0,-0.38308 -0.255388,-0.63847 -0.574623,-0.63847 -0.383082,0 -0.830011,0.25539 -1.021552,0.63847 z" />
  <path
     style="fill:#ff0000;stroke:none"
     id="path124"
     d="m 131.40415,38.946293 c -0.51078,1.27693 1.14924,3.06465 2.55388,2.74542 0.83001,-0.1277 0.89386,-0.44693 0.19154,-1.72387 -0.95771,-1.97926 -2.23465,-2.42619 -2.74542,-1.02155 z" />
  <path
     style="fill:#ff0000;stroke:none"
     id="path126"
     d="m 13.478743,40.989393 c -0.255388,0.19154 -0.446929,0.70232 -0.446929,1.0854 0,0.38308 0.319235,0.31923 0.766164,-0.1277 0.383082,-0.38308 0.574623,-0.89385 0.446929,-1.08539 -0.191541,-0.19155 -0.574623,-0.1277 -0.766164,0.12769 z" />
  <path
     style="fill:#ff0000;stroke:none"
     id="path128"
     d="m 88.371274,46.799473 c 0,0.31923 0.70232,1.14924 1.59618,1.91541 2.80926,2.42618 4.0862,1.46848 1.40463,-1.02156 -1.46848,-1.40463 -3.00081,-1.85156 -3.00081,-0.89385 z" />
  <path
     style="fill:#ff0000;stroke:none"
     id="path130"
     d="m 64.428649,47.501783 c -0.510776,0.95771 0.191541,1.97926 1.340787,1.97926 0.574623,0 0.893858,-0.44693 0.766164,-1.0854 -0.255388,-1.27694 -1.532328,-1.78772 -2.106951,-0.89386 z" />
  <path
     style="fill:#ff0000;stroke:none"
     id="path132"
     d="m 214.14986,47.118703 c 0,0.12769 0.57462,0.89386 1.27694,1.72387 1.40463,1.66002 1.72387,0.9577 0.38308,-0.83001 -0.76616,-0.95771 -1.66002,-1.46848 -1.66002,-0.89386 z" />
  <path
     style="fill:#ff0000;stroke:none"
     id="path134"
     d="m 110.20694,52.162613 c 0.38309,1.14925 1.78772,1.34079 1.78772,0.25539 0,-0.57462 -0.44693,-1.02155 -1.02155,-1.02155 -0.57463,0 -0.89386,0.31923 -0.76617,0.76616 z" />
  <path
     style="fill:#ff0000;stroke:none"
     id="path136"
     d="m 43.039904,54.908043 c 0.446929,0.57462 0.957705,0.83001 1.085399,0.70231 0.446929,-0.44693 -0.446929,-1.66002 -1.213093,-1.66002 -0.383082,0 -0.383082,0.38308 0.127694,0.95771 z" />
  <path
     style="fill:#ff0000;stroke:none"
     id="path138"
     d="m 12.712579,55.801893 c -0.191541,0.31924 0.127694,0.70232 0.63847,0.95771 0.510776,0.19154 1.085399,0.0639 1.27694,-0.19154 0.191541,-0.31924 -0.127694,-0.70232 -0.63847,-0.95771 -0.510776,-0.19154 -1.085399,-0.0639 -1.27694,0.19154 z" />
  <path
     style="fill:#ff0000;stroke:none"
     id="path140"
     d="m 242.37023,56.631903 c -1.08539,1.0854 -0.9577,2.42619 0.19154,2.42619 0.76617,0 2.23465,-1.78772 2.23465,-2.80927 0,-0.70232 -1.66002,-0.38308 -2.42619,0.38308 z" />
  <path
     style="fill:#ff0000;stroke:none"
     id="path142"
     d="m 123.16788,58.419623 c 0.19155,0.31923 0.70232,0.63847 1.02156,0.63847 0.38308,0 0.44693,-0.31924 0.25539,-0.63847 -0.19155,-0.38308 -0.70232,-0.63847 -1.02156,-0.63847 -0.38308,0 -0.44693,0.25539 -0.25539,0.63847 z" />
  <path
     style="fill:#ff0000;stroke:none"
     id="path144"
     d="m 245.11565,61.611973 c 0.19155,0.31923 0.51078,0.63847 0.70232,0.63847 0.1277,0 0.25539,-0.31924 0.25539,-0.63847 0,-0.38308 -0.31923,-0.63847 -0.70232,-0.63847 -0.31923,0 -0.44693,0.25539 -0.25539,0.63847 z" />
  <path
     style="fill:#ff0000;stroke:none"
     id="path146"
     d="m 13.351049,64.165853 c 1.213093,1.34079 2.873115,1.72387 2.873115,0.63847 0,-0.38308 -0.766164,-0.95771 -1.660022,-1.27694 -2.298492,-0.89386 -2.490033,-0.83001 -1.213093,0.63847 z" />
  <path
     style="fill:#ff0000;stroke:none"
     id="path148"
     d="m 246.00951,64.868173 c -0.0638,0.12769 -0.19154,0.9577 -0.25538,1.85156 -0.0639,0.89386 -0.38309,2.10695 -0.63848,2.68157 -0.63847,1.66003 1.59618,1.53233 3.76698,-0.19154 1.97925,-1.53233 2.23464,-3.76697 0.44693,-3.76697 -0.70232,0 -1.66002,-0.19154 -2.23465,-0.38308 -0.57462,-0.19154 -1.0854,-0.31924 -1.0854,-0.19154 z" />
  <path
     style="fill:#ff0000;stroke:none"
     id="path150"
     d="m 67.81254,68.698993 c 0.446929,1.14924 1.404634,1.78771 1.404634,0.89385 0,-0.19154 0,-0.76616 0,-1.27694 0,-0.51077 -0.446929,-0.9577 -0.957705,-0.9577 -0.63847,0 -0.766164,0.38308 -0.446929,1.34079 z" />
  <path
     style="fill:#ff0000;stroke:none"
     id="path152"
     d="m 225.77001,71.508253 c 0.70232,1.59618 1.78772,2.1708 1.78772,0.89386 0,-0.70231 -1.53233,-2.49003 -2.1708,-2.49003 -0.19154,0 0,0.70232 0.38308,1.59617 z" />
  <path
     style="fill:#ff0000;stroke:none"
     id="path154"
     d="m 42.848363,72.465963 c 0.63847,0.70232 1.340787,1.27694 1.660022,1.27694 0.255388,0 0.191541,-0.57462 -0.191541,-1.27694 -0.383082,-0.70232 -1.085399,-1.27694 -1.596175,-1.27694 -0.766164,0 -0.766164,0.25539 0.127694,1.27694 z" />
  <path
     style="fill:#ff0000;stroke:none"
     id="path156"
     d="m 128.33949,71.763643 c -0.19154,0.31924 0.0639,0.70232 0.57463,0.95771 0.9577,0.38308 1.85156,-0.44693 1.14924,-1.14925 -0.57462,-0.57462 -1.34079,-0.51077 -1.72387,0.19154 z" />
  <path
     style="fill:#ff0000;stroke:none"
     id="path158"
     d="m 228.1962,74.445223 c 0,1.59617 1.02155,3.1285 2.0431,3.1285 0.95771,0 0.51078,-1.72387 -0.76616,-3.19235 l -1.27694,-1.46848 0,1.53233 z" />
  <path
     style="fill:#ff0000;stroke:none"
     id="path160"
     d="m 63.34325,74.189833 c -0.63847,0.19154 -1.149246,0.57462 -1.149246,0.89386 0,0.38308 0.255388,0.51077 0.574623,0.31923 0.319235,-0.19154 0.893858,0.0639 1.340787,0.57462 1.149246,1.34079 1.851563,1.2131 1.468481,-0.31923 -0.383082,-1.53233 -0.766164,-1.78772 -2.234645,-1.46848 z" />
  <path
     style="fill:#ff0000;stroke:none"
     id="path162"
     d="m 60.278594,75.402923 c 0,0.51078 0.319235,0.76617 0.63847,0.57462 0.383082,-0.25538 0.510776,-0.70231 0.319235,-1.02155 -0.574623,-0.89386 -0.957705,-0.70231 -0.957705,0.44693 z" />
  <path
     style="fill:#ff0000;stroke:none"
     id="path164"
     d="m 132.10646,75.019843 c 0.19155,0.31923 0.70232,0.63847 1.02156,0.63847 0.38308,0 0.44693,-0.31924 0.25539,-0.63847 -0.19155,-0.38308 -0.70232,-0.63847 -1.02156,-0.63847 -0.38308,0 -0.44693,0.25539 -0.25539,0.63847 z" />
  <path
     style="fill:#ff0000;stroke:none"
     id="path166"
     d="m 150.30286,79.425283 c 0,1.40464 3.00081,4.08621 4.08621,3.70313 0.89386,-0.38308 0.83001,-0.63847 -0.63847,-2.36234 -1.72387,-1.85156 -3.44774,-2.55388 -3.44774,-1.34079 z" />
  <path
     style="fill:#ff0000;stroke:none"
     id="path168"
     d="m 246.71183,82.745333 c 0,2.29849 1.53233,4.40544 3.1285,4.40544 1.27694,0 0.25539,-3.2562 -1.59617,-5.10776 l -1.53233,-1.59618 0,2.2985 z" />
  <path
     style="fill:#ff0000;stroke:none"
     id="path170"
     d="m 66.663294,84.277653 -1.596175,1.72387 2.106951,1.85157 c 3.192354,2.87311 4.405444,1.14924 2.170798,-3.12851 l -1.149246,-2.10695 -1.532328,1.66002 z" />
  <path
     style="fill:#ff0000;stroke:none"
     id="path172"
     d="m 77.517284,84.916123 c 0,0.51078 0.44693,0.95771 0.9577,0.95771 0.51078,0 0.95771,-0.44693 0.95771,-0.95771 0,-0.51077 -0.44693,-0.9577 -0.95771,-0.9577 -0.51077,0 -0.9577,0.44693 -0.9577,0.9577 z" />
  <path
     style="fill:#ff0000;stroke:none"
     id="path174"
     d="m 242.62562,85.554593 -1.91541,0.83002 1.97926,1.97925 c 2.80927,2.74542 3.89467,2.61773 3.76697,-0.51077 0,-1.40464 -0.19154,-2.42619 -0.31923,-2.23465 -0.1277,0.1277 -0.57463,0 -0.95771,-0.31923 -0.38308,-0.31924 -1.53233,-0.19154 -2.55388,0.25538 z" />
  <path
     style="fill:#ff0000;stroke:none"
     id="path176"
     d="m 253.35192,85.554593 c -0.51078,1.34079 0.12769,2.87312 1.27694,2.87312 1.40463,0 1.66002,-2.23464 0.25539,-3.1285 -0.95771,-0.57463 -1.27694,-0.57463 -1.53233,0.25538 z" />
  <path
     style="fill:#ff0000;stroke:none"
     id="path178"
     d="m 89.903604,85.937683 c -0.19154,0.38308 -0.0639,1.02155 0.31923,1.40463 0.51078,0.51078 0.70232,0.31924 0.70232,-0.70232 0,-1.53232 -0.31923,-1.78771 -1.02155,-0.70231 z" />
  <path
     style="fill:#ff0000;stroke:none"
     id="path180"
     d="m 155.72985,88.427713 c -0.51077,0.83001 0.57463,1.27694 1.53233,0.70232 0.63847,-0.38309 0.57463,-0.63847 -0.19154,-0.89386 -0.51077,-0.19154 -1.14924,-0.12769 -1.34079,0.19154 z" />
  <path
     style="fill:#ff0000;stroke:none"
     id="path182"
     d="m 101.4599,90.279273 c -0.51077,0.89386 0.31924,3.95852 1.02156,3.51159 0.76616,-0.44693 0.76616,-3.2562 0,-3.76698 -0.31924,-0.19154 -0.76617,-0.0638 -1.02156,0.25539 z" />
  <path
     style="fill:#ff0000;stroke:none"
     id="path184"
     d="m 186.44026,92.769313 c -0.57462,0.89385 0.76617,2.23464 1.78772,1.85156 1.46848,-0.57462 1.27694,-2.36234 -0.19154,-2.36234 -0.70232,0 -1.40464,0.25539 -1.59618,0.51078 z" />
  <path
     style="fill:#ff0000;stroke:none"
     id="path186"
     d="m 119.01783,93.471623 c 0,0.38308 0.31923,0.83001 0.63847,1.02155 0.38308,0.19155 0.63847,-0.0638 0.63847,-0.57462 0,-0.57462 -0.25539,-1.02155 -0.63847,-1.02155 -0.31924,0 -0.63847,0.25539 -0.63847,0.57462 z" />
  <path
     style="fill:#ff0000;stroke:none"
     id="path188"
     d="m 134.66034,93.535473 c -0.51077,0.83001 0.31924,0.83001 1.59618,0 0.83001,-0.51078 0.83001,-0.63847 -0.12769,-0.63847 -0.57463,0 -1.27694,0.25539 -1.46849,0.63847 z" />
  <path
     style="fill:#ff0000;stroke:none"
     id="path190"
     d="m 163.71073,95.387033 c 0,0.76617 2.68157,2.74542 3.1285,2.23465 0.19154,-0.19154 0,-0.57463 -0.51077,-0.83001 -0.44693,-0.31924 -0.76617,-0.76617 -0.70232,-1.0854 0,-0.31924 -0.38308,-0.63847 -0.89386,-0.76617 -0.57462,-0.12769 -1.02155,0.0639 -1.02155,0.44693 z" />
  <path
     style="fill:#ff0000;stroke:none"
     id="path192"
     d="m 239.17788,96.855513 c 0.1277,0.89386 0.83001,1.53233 2.10696,1.91541 2.93696,0.76617 3.76697,0.19154 2.49003,-1.72387 -1.40464,-2.17079 -4.91622,-2.29849 -4.59699,-0.19154 z" />
  <path
     style="fill:#ff0000;stroke:none"
     id="path194"
     d="m 76.559584,99.281703 c 0.19154,0.31924 0.51077,0.63847 0.70231,0.63847 0.1277,0 0.25539,-0.31923 0.25539,-0.63847 0,-0.38308 -0.31923,-0.63847 -0.70232,-0.63847 -0.31923,0 -0.44693,0.25539 -0.25538,0.63847 z" />
  <path
     style="fill:#ff0000;stroke:none"
     id="path196"
     d="m 84.987384,99.728633 c -0.76616,0.702317 -0.51078,1.404627 0.76616,2.106947 0.70232,0.31923 1.40464,0.38308 1.59618,0.0639 0.44693,-0.70232 -1.78772,-2.745417 -2.36234,-2.170797 z" />
  <path
     style="fill:#ff0000;stroke:none"
     id="path198"
     d="m 143.59893,99.920173 c 0.19154,0.319227 0.51077,0.638467 0.70231,0.638467 0.1277,0 0.25539,-0.31924 0.25539,-0.638467 0,-0.38308 -0.31924,-0.63847 -0.70232,-0.63847 -0.31923,0 -0.44693,0.25539 -0.25538,0.63847 z" />
  <path
     style="fill:#ff0000;stroke:none"
     id="path200"
     d="m 184.90793,99.984023 c 0.1277,0.446927 0.63847,0.957697 1.0854,1.085397 0.51078,0.19154 0.76617,-0.0639 0.57463,-0.57463 -0.1277,-0.44693 -0.63847,-0.957697 -1.0854,-1.085397 -0.51078,-0.19154 -0.76617,0.0639 -0.57463,0.57463 z" />
  <path
     style="fill:#ff0000;stroke:none"
     id="path202"
     d="m 74.644174,101.13326 c -0.63847,0.57463 -0.25539,1.2131 1.27694,2.23465 1.53232,1.02155 1.66002,0.9577 2.93696,-0.19154 0.76616,-0.70232 1.14924,-1.53233 0.9577,-1.85157 -0.38308,-0.63847 -4.59698,-0.76616 -5.1716,-0.19154 z" />
  <path
     style="fill:#ff0000;stroke:none"
     id="path204"
     d="m 90.925154,102.72944 c 0,0.63847 0.57462,1.02155 1.34079,1.02155 1.53233,0 1.34078,-1.46848 -0.25539,-1.78772 -0.63847,-0.12769 -1.0854,0.19154 -1.0854,0.76617 z" />
  <path
     style="fill:#ff0000;stroke:none"
     id="path206"
     d="m 258.01275,103.87868 c 0.51077,1.14925 1.66002,2.61773 2.49003,3.2562 1.91541,1.40464 3.32005,0.83001 1.85156,-0.83001 -0.57462,-0.63847 -0.83001,-1.53233 -0.57462,-2.29849 0.25539,-0.63847 0.25539,-1.02155 -0.0638,-0.76617 -0.25539,0.25539 -1.27695,0.0639 -2.2985,-0.44693 -2.42618,-1.27694 -2.49003,-1.27694 -1.40463,1.0854 z" />
  <path
     style="fill:#ff0000;stroke:none"
     id="path208"
     d="m 127.44563,104.51715 c -1.0854,1.0854 -0.9577,1.78772 0.38309,1.78772 1.53232,0 2.0431,-0.51078 1.59617,-1.66002 -0.38308,-1.0854 -0.9577,-1.14925 -1.97926,-0.1277 z" />
  <path
     style="fill:#ff0000;stroke:none"
     id="path210"
     d="m 213.83062,106.30487 c -0.51077,0.83001 0.19155,1.91541 1.14925,1.85156 0.51078,0 0.44693,-0.19154 -0.12769,-0.38308 -0.63847,-0.25539 -0.63847,-0.44693 -0.0639,-0.83001 0.51078,-0.31924 0.57462,-0.63847 0.12769,-0.89386 -0.38308,-0.19154 -0.83001,-0.12769 -1.0854,0.25539 z" />
  <path
     style="fill:#ff0000;stroke:none"
     id="path212"
     d="m 222.57766,107.26257 c -0.83001,1.53233 -0.19154,4.27775 1.02156,4.02237 1.53232,-0.31924 2.49003,-2.23465 1.66002,-3.51159 -0.95771,-1.53233 -1.97926,-1.72387 -2.68158,-0.51078 z" />
  <path
     style="fill:#ff0000;stroke:none"
     id="path214"
     d="m 129.87182,109.94415 c 0,3.57543 1.40463,5.42699 2.10695,2.80927 0.12769,-0.70232 -0.25539,-2.04311 -0.89386,-3.06466 l -1.21309,-1.78772 0,2.04311 z" />
  <path
     style="fill:#ff0000;stroke:none"
     id="path216"
     d="m 94.117504,110.13569 c 0,0.31923 0.44693,0.63847 0.95771,0.63847 0.51077,0 0.9577,-0.31924 0.9577,-0.63847 0,-0.38308 -0.44693,-0.63847 -0.9577,-0.63847 -0.51078,0 -0.95771,0.25539 -0.95771,0.63847 z" />
  <path
     style="fill:#ff0000;stroke:none"
     id="path218"
     d="m 169.77619,110.71031 c -0.19154,0.38308 0.44693,1.59618 1.53233,2.61773 2.61773,2.61773 3.95852,2.49003 2.87312,-0.25539 -0.19154,-0.57462 -0.70232,-1.02155 -1.0854,-1.02155 -0.38308,0 -1.14925,-0.44693 -1.78772,-1.02155 -0.70231,-0.63847 -1.21309,-0.76617 -1.53233,-0.31924 z" />
  <path
     style="fill:#ff0000;stroke:none"
     id="path220"
     d="m 146.47204,112.0511 c 0,0.70232 0.31923,1.27694 0.63847,1.27694 0.38308,0 0.63847,0.57462 0.63847,1.21309 0,1.78772 1.0854,2.23465 1.85156,0.76617 0.51078,-0.95771 0.38308,-1.59618 -0.63847,-2.87312 -1.53233,-1.97926 -2.49003,-2.10695 -2.49003,-0.38308 z" />
  <path
     style="fill:#ff0000;stroke:none"
     id="path222"
     d="m 135.5542,112.30649 c -0.38308,1.59617 -0.25539,2.23464 0.83001,4.08621 0.63847,1.14924 1.14925,2.55388 1.14925,3.06465 0,1.02155 1.66002,1.21309 2.23464,0.31924 0.38309,-0.70232 -0.25538,-5.2993 -0.89385,-6.25701 -0.44693,-0.76616 -3.19235,-1.72387 -3.32005,-1.21309 z" />
  <path
     style="fill:#ff0000;stroke:none"
     id="path224"
     d="m 107.71691,113.45573 c -0.51078,0.83001 -0.31923,3.57544 0.25539,4.59699 0.57462,0.89386 1.97926,-2.23465 1.59617,-3.57543 -0.38308,-1.53233 -1.21309,-1.97926 -1.85156,-1.02156 z" />
  <path
     style="fill:#ff0000;stroke:none"
     id="path226"
     d="m 262.35434,113.45573 c 0.57463,1.40464 3.51159,2.49004 4.85238,1.72387 1.46848,-0.76616 1.59617,-2.17079 0.19154,-1.59617 -0.57463,0.19154 -1.34079,0.19154 -1.72387,-0.0639 -1.40464,-0.89386 -3.63928,-0.89386 -3.32005,-0.0638 z" />
  <path
     style="fill:#ff0000;stroke:none"
     id="path228"
     d="m 165.24306,114.86037 c -0.70232,1.85156 0.12769,3.19235 2.49003,4.15005 2.93696,1.0854 3.51159,0.63847 2.0431,-1.66002 -2.0431,-3.1285 -3.89466,-4.15005 -4.53313,-2.49003 z" />
  <path
     style="fill:#ff0000;stroke:none"
     id="path230"
     d="m 92.265944,116.265 c 0,0.70232 0.19154,0.89386 0.38308,0.38308 0.19154,-0.44693 0.12769,-1.02155 -0.0639,-1.21309 -0.19154,-0.25539 -0.38308,0.12769 -0.31923,0.83001 z" />
  <path
     style="fill:#ff0000;stroke:none"
     id="path232"
     d="m 268.5475,116.00961 c -0.44692,0.44693 -0.76616,1.40464 -0.76616,2.23465 0,1.14924 0.38308,1.46848 1.66002,1.46848 0.89386,0 2.49003,0.57462 3.51159,1.34079 1.46848,1.02155 1.85156,1.0854 1.85156,0.31923 0,-0.51077 -0.76616,-1.34078 -1.72387,-1.78771 -1.0854,-0.51078 -1.72387,-1.34079 -1.59617,-1.91541 0.25538,-1.40464 -1.97926,-2.61773 -2.93697,-1.66003 z" />
  <path
     style="fill:#ff0000;stroke:none"
     id="path234"
     d="m 294.27784,115.69038 c -0.70231,0.19154 -1.59617,0.76616 -2.0431,1.27694 -0.89386,1.14924 0.31924,2.68157 3.32005,3.95851 1.72386,0.70232 1.97925,0.70232 3.0008,-0.57462 1.34079,-1.66002 1.40464,-1.97926 0.38309,-3.32004 -0.95771,-1.2131 -2.87312,-1.72387 -4.66084,-1.34079 z" />
  <path
     style="fill:#ff0000;stroke:none"
     id="path236"
     d="m 215.10756,118.4358 c -0.51077,0.83001 0.83002,2.55388 1.97926,2.55388 1.0854,0 1.59618,-0.9577 1.14925,-2.1708 -0.44693,-1.14924 -2.49004,-1.40463 -3.12851,-0.38308 z" />
  <path
     style="fill:#ff0000;stroke:none"
     id="path238"
     d="m 125.08329,120.92583 c -0.38308,0.70232 0.57463,1.46848 1.2131,0.89386 0.57462,-0.57462 0.44693,-1.46848 -0.19154,-1.46848 -0.38309,0 -0.76617,0.25539 -1.02156,0.57462 z" />
  <path
     style="fill:#ff0000;stroke:none"
     id="path240"
     d="m 203.55126,122.58585 c -0.44693,1.02156 1.27694,4.15006 2.23464,4.15006 0.31924,0 1.02155,0.12769 1.46848,0.31923 1.53233,0.63847 0.95771,-2.87311 -0.70231,-4.2139 -1.78772,-1.46848 -2.55388,-1.53233 -3.00081,-0.25539 z" />
  <path
     style="fill:#ff0000;stroke:none"
     id="path242"
     d="m 182.60944,123.47971 c -0.38308,0.57463 2.74542,3.51159 3.2562,3.06466 0.38308,-0.44693 -1.21309,-2.93696 -2.1708,-3.2562 -0.44693,-0.19154 -0.9577,-0.12769 -1.0854,0.19154 z" />
  <path
     style="fill:#ff0000;stroke:none"
     id="path244"
     d="m 290.44703,124.18203 c -0.19155,0.31924 -0.0639,0.63847 0.25538,0.63847 0.38309,0 0.70232,-0.31923 0.70232,-0.63847 0,-0.38308 -0.12769,-0.63847 -0.25539,-0.63847 -0.19154,0 -0.51077,0.25539 -0.70231,0.63847 z" />
  <path
     style="fill:#ff0000;stroke:none"
     id="path246"
     d="m 263.43974,127.05514 c 0,1.2131 0.25539,2.42619 0.57463,2.61773 0.31923,0.19154 0.44693,-0.57462 0.31923,-1.59617 -0.12769,-1.0854 0.0639,-1.97926 0.38308,-1.97926 0.31924,0 0.38309,-0.31924 0.19154,-0.63847 -0.83001,-1.27694 -1.46848,-0.57462 -1.46848,1.59617 z" />
  <path
     style="fill:#ff0000;stroke:none"
     id="path248"
     d="m 224.36538,126.92745 c 0,1.53233 1.34079,2.36234 2.68157,1.66002 0.95771,-0.51077 1.0854,-0.83001 0.44693,-1.59617 -0.89386,-1.14925 -3.1285,-1.14925 -3.1285,-0.0639 z" />
  <path
     style="fill:#ff0000;stroke:none"
     id="path250"
     d="m 241.22099,126.79976 c -0.44693,0.83001 0.57462,2.0431 1.97926,2.23464 1.14924,0.19154 1.27693,-1.0854 0.19154,-2.1708 -0.95771,-0.9577 -1.59618,-0.9577 -2.1708,-0.0638 z" />
  <path
     style="fill:#ff0000;stroke:none"
     id="path252"
     d="m 246.71183,127.05514 c 0,0.57463 0.31923,0.95771 0.70232,0.83002 0.38308,-0.1277 0.70231,-0.51078 0.70231,-0.83002 0,-0.31923 -0.31923,-0.70231 -0.70231,-0.83001 -0.38309,-0.12769 -0.70232,0.25539 -0.70232,0.83001 z" />
  <path
     style="fill:#ff0000;stroke:none"
     id="path254"
     d="m 123.8702,127.75746 c -0.57462,1.40464 0.31924,2.29849 1.53233,1.53233 0.83001,-0.51078 0.83001,-0.70232 -0.0639,-1.59618 -0.9577,-0.9577 -1.0854,-0.9577 -1.46848,0.0639 z" />
  <path
     style="fill:#ff0000;stroke:none"
     id="path256"
     d="m 205.01974,128.45978 c -0.83001,0.83001 -0.44693,2.0431 0.83001,2.42618 1.59617,0.51078 3.2562,-0.70231 2.74542,-1.97925 -0.31923,-0.89386 -2.80927,-1.2131 -3.57543,-0.44693 z" />
  <path
     style="fill:#ff0000;stroke:none"
     id="path258"
     d="m 252.45806,128.90671 c 0,0.51077 0.25539,1.0854 0.57462,1.27694 0.70232,0.44693 2.10695,-1.14925 1.53233,-1.72387 -0.76616,-0.76617 -2.10695,-0.44693 -2.10695,0.44693 z" />
  <path
     style="fill:#ff0000;stroke:none"
     id="path260"
     d="m 167.73309,131.01366 c -1.0854,0.38308 -1.02155,1.14924 0.19154,2.36234 1.21309,1.27694 3.44774,1.34078 3.44774,0.12769 0,-0.9577 -1.72387,-3.00081 -2.42619,-2.87311 -0.25538,0 -0.83001,0.19154 -1.21309,0.38308 z" />
  <path
     style="fill:#ff0000;stroke:none"
     id="path262"
     d="m 285.14772,132.35445 c 0.1277,0.57462 -0.19154,1.40463 -0.70231,1.78771 -0.83001,0.63847 -0.83001,0.89386 -0.1277,1.78772 0.44693,0.51077 1.46848,0.9577 2.23465,0.89386 0.70231,0 2.36234,0.44692 3.63928,0.9577 3.19235,1.40463 6.12931,1.85156 6.64008,1.02155 0.89386,-1.40463 -4.46929,-5.68238 -7.15086,-5.68238 -0.63847,0 -1.97926,-0.44693 -2.93696,-0.95771 -1.66002,-0.83001 -1.78772,-0.83001 -1.59618,0.19155 z" />
  <path
     style="fill:#ff0000;stroke:none"
     id="path264"
     d="m 259.162,133.12061 c 0.19154,0.31923 1.02155,0.63847 1.78771,0.63847 1.14925,0 1.21309,-0.12769 0.44693,-0.63847 -1.27694,-0.83001 -2.74542,-0.83001 -2.23464,0 z" />
  <path
     style="fill:#ff0000;stroke:none"
     id="path266"
     d="m 199.46505,133.63139 c 0,0.31923 0.44693,0.83001 1.02155,1.02155 0.63847,0.25539 0.89386,0.0638 0.76617,-0.38308 -0.31924,-0.95771 -1.78772,-1.46849 -1.78772,-0.63847 z" />
  <path
     style="fill:#ff0000;stroke:none"
     id="path268"
     d="m 250.6065,134.52524 c -0.31924,0.83001 -0.31924,1.72387 0,2.10695 0.76616,0.76617 3.44773,-1.85156 2.87311,-2.80926 -0.76616,-1.14925 -2.29849,-0.76617 -2.87311,0.70231 z" />
  <path
     style="fill:#ff0000;stroke:none"
     id="path270"
     d="m 272.56987,133.69523 c -0.44693,0.76617 3.57543,3.89467 4.98006,3.89467 1.66002,0 1.27694,-1.53233 -0.83001,-3.06466 -1.97926,-1.46848 -3.51159,-1.78771 -4.15005,-0.83001 z" />
  <path
     style="fill:#ff0000;stroke:none"
     id="path272"
     d="m 139.8958,136.75989 c -0.44693,0.44693 0.19154,2.10695 0.83001,2.10695 0.89386,0 1.21309,-1.78772 0.31923,-2.10695 -0.44692,-0.19154 -0.9577,-0.19154 -1.14924,0 z" />
  <path
     style="fill:#ff0000;stroke:none"
     id="path274"
     d="m 232.66549,137.20682 c 0,1.02155 2.36234,2.0431 3.06466,1.34078 0.44692,-0.44692 -1.59618,-2.23464 -2.55388,-2.23464 -0.25539,0 -0.51078,0.38308 -0.51078,0.89386 z" />
  <path
     style="fill:#ff0000;stroke:none"
     id="path276"
     d="m 199.46505,140.27147 c 0,1.02156 1.21309,2.42619 2.10695,2.42619 0.25539,0 0.44693,-0.63847 0.31924,-1.40463 -0.19155,-1.59618 -2.42619,-2.49004 -2.42619,-1.02156 z" />
  <path
     style="fill:#ff0000;stroke:none"
     id="path278"
     d="m 142.64122,144.80461 c 0,2.42619 0.38308,3.06466 1.66002,2.55388 1.59618,-0.57462 0.89386,-4.66083 -0.76616,-4.66083 -0.57463,0 -0.89386,0.76616 -0.89386,2.10695 z" />
  <path
     style="fill:#ff0000;stroke:none"
     id="path280"
     d="m 207.50977,144.74076 c 1.66002,3.32005 2.1708,3.76698 3.51159,3.06466 0.9577,-0.57462 1.0854,-0.89386 0.44693,-2.23465 -0.51078,-1.21309 -3.32005,-2.87311 -4.78853,-2.87311 -0.12769,0 0.25539,0.9577 0.83001,2.0431 z" />
  <path
     style="fill:#ff0000;stroke:none"
     id="path282"
     d="m 155.60216,143.78306 c -1.21309,0.44693 -0.9577,2.1708 0.44693,4.02236 1.21309,1.46848 1.34079,1.53233 2.1708,0.44693 1.14924,-1.46848 1.66002,-1.34079 1.66002,0.38308 0,2.10695 1.46848,3.95851 2.80927,3.44774 1.27694,-0.51078 1.34078,-2.87312 0,-5.427 -0.95771,-1.91541 -1.53233,-2.29849 -3.2562,-2.10695 -0.38308,0.0639 -0.89386,-0.19154 -1.14925,-0.57462 -0.44692,-0.70232 -1.40463,-0.76616 -2.68157,-0.19154 z" />
  <path
     style="fill:#ff0000;stroke:none"
     id="path284"
     d="m 293.89476,144.74076 c -0.63847,1.2131 -0.51077,1.59618 1.02156,2.87312 3.19234,2.74542 5.42699,0.70232 2.87311,-2.55388 -1.66002,-2.10695 -2.87311,-2.1708 -3.89467,-0.31924 z" />
  <path
     style="fill:#ff0000;stroke:none"
     id="path286"
     d="m 277.03916,145.31539 c -0.25539,0.38308 0.12769,1.34078 0.89385,2.10695 0.76617,0.76616 1.34079,1.72387 1.34079,2.10695 0,1.0854 3.1285,3.38389 4.53314,3.38389 1.46848,0 1.46848,-0.51078 0.25539,-2.1708 -0.51078,-0.70232 -0.76617,-1.85156 -0.57463,-2.61773 0.25539,-1.02155 -0.0639,-1.72386 -1.0854,-2.49003 -1.72387,-1.14924 -4.78852,-1.34079 -5.36314,-0.31923 z" />
  <path
     style="fill:#ff0000;stroke:none"
     id="path288"
     d="m 235.21937,149.14621 c 0,0.31923 0.31923,0.44693 0.63847,0.25538 0.38308,-0.19154 0.63847,-0.51077 0.63847,-0.70231 0,-0.1277 -0.25539,-0.25539 -0.63847,-0.25539 -0.31924,0 -0.63847,0.31923 -0.63847,0.70232 z" />
  <path
     style="fill:#ff0000;stroke:none"
     id="path290"
     d="m 271.86755,151.89163 c -1.14925,0.89386 -1.14925,1.02155 1.34078,3.51158 1.34079,1.46848 3.00081,2.61773 3.70313,2.61773 0.63847,0 0.95771,-0.31924 0.76616,-0.63847 -0.19154,-0.38308 0,-0.63847 0.44693,-0.63847 0.44693,0 1.2131,-0.25539 1.72387,-0.57462 0.83001,-0.51078 0.83001,-0.76617 0.0639,-1.66003 -1.97926,-2.42618 -6.3847,-3.83082 -8.04472,-2.61772 z" />
  <path
     style="fill:#ff0000;stroke:none"
     id="path292"
     d="m 143.72662,152.01932 c -0.70232,0.70232 -0.51078,3.95852 0.19154,4.40544 0.70232,0.44693 2.55388,-0.76616 2.55388,-1.59617 0,-0.95771 -2.23465,-3.2562 -2.74542,-2.80927 z" />
  <path
     style="fill:#ff0000;stroke:none"
     id="path294"
     d="m 147.11051,152.59394 c 0,0.51078 0.31923,0.95771 0.63847,0.95771 0.38308,0 0.63847,-0.44693 0.63847,-0.95771 0,-0.51077 -0.25539,-0.9577 -0.63847,-0.9577 -0.31924,0 -0.63847,0.44693 -0.63847,0.9577 z" />
  <path
     style="fill:#ff0000;stroke:none"
     id="path296"
     d="m 238.47557,154.38166 c -0.44693,0.57462 -0.25539,1.59618 0.63847,3.57543 1.34078,3.00081 2.68157,3.19235 3.00081,0.38308 0.25538,-2.23464 -2.49004,-5.23545 -3.63928,-3.95851 z" />
  <path
     style="fill:#ff0000;stroke:none"
     id="path298"
     d="m 157.0068,154.82859 c 0.19154,0.31923 0.70231,0.63847 1.02155,0.63847 0.38308,0 0.44693,-0.31924 0.25538,-0.63847 -0.19154,-0.38308 -0.70231,-0.63847 -1.02155,-0.63847 -0.38308,0 -0.44693,0.25539 -0.25538,0.63847 z" />
  <path
     style="fill:#ff0000;stroke:none"
     id="path300"
     d="m 234.26167,156.10553 c 0.19154,0.31923 0.76616,0.44693 1.27693,0.19154 1.34079,-0.44693 1.2131,-0.83001 -0.38308,-0.83001 -0.70231,0 -1.14924,0.25539 -0.89385,0.63847 z" />
  <path
     style="fill:#ff0000;stroke:none"
     id="path302"
     d="m 184.78024,157.31862 c 0,1.02155 1.21309,1.46848 2.74542,0.95771 1.34079,-0.44693 1.34079,-0.44693 0.12769,-0.95771 -1.78771,-0.70231 -2.87311,-0.70231 -2.87311,0 z" />
  <path
     style="fill:#ff0000;stroke:none"
     id="path304"
     d="m 272.25063,158.21248 c 0,1.46848 1.40463,5.17161 2.42619,6.32085 1.40463,1.66003 2.55388,1.40464 3.0008,-0.70231 0.57463,-2.80927 -0.44692,-4.15006 -4.91621,-6.32086 -0.31924,-0.12769 -0.51078,0.19154 -0.51078,0.70232 z" />
  <path
     style="fill:#ff0000;stroke:none"
     id="path306"
     d="m 248.94647,159.48942 c -0.44692,1.91541 0,5.10776 0.76617,5.36315 0.70232,0.25539 2.0431,-3.76697 1.85156,-5.36315 -0.25539,-1.59617 -2.23464,-1.59617 -2.61773,0 z" />
  <path
     style="fill:#ff0000;stroke:none"
     id="path308"
     d="m 199.46505,159.36173 c 0,1.27694 1.78772,2.49003 4.78853,3.1285 1.66002,0.38308 3.19234,0.51078 3.38389,0.31923 0.19154,-0.19154 0.0638,-0.31923 -0.31924,-0.31923 -0.38308,0 -1.59617,-0.89386 -2.74542,-1.91541 -1.97926,-1.85156 -5.10776,-2.61773 -5.10776,-1.21309 z" />
  <path
     style="fill:#ff0000;stroke:none"
     id="path310"
     d="m 226.60002,159.29788 c 0.19155,0.31923 0.51078,0.63847 0.70232,0.63847 0.1277,0 0.25539,-0.31924 0.25539,-0.63847 0,-0.38308 -0.31924,-0.63847 -0.70232,-0.63847 -0.31923,0 -0.44693,0.25539 -0.25539,0.63847 z" />
  <path
     style="fill:#ff0000;stroke:none"
     id="path312"
     d="m 145.00356,160.83021 c -0.57462,1.53233 -0.63847,1.46848 0.83001,1.85156 1.46848,0.38308 1.59617,-0.12769 0.44693,-1.72387 -0.83001,-1.14924 -0.89386,-1.14924 -1.27694,-0.12769 z" />
  <path
     style="fill:#ff0000;stroke:none"
     id="path314"
     d="m 155.72985,160.9579 c -0.70231,0.70232 -0.83001,1.27694 -0.38308,1.72387 0.76617,0.76616 2.61773,-0.51078 2.61773,-1.85156 0,-1.2131 -0.9577,-1.14925 -2.23465,0.12769 z" />
  <path
     style="fill:#ff0000;stroke:none"
     id="path316"
     d="m 194.99576,161.40483 c 0,0.89386 2.55388,2.36234 4.15005,2.36234 1.40464,0 0.44693,-1.66002 -1.34078,-2.49003 -2.10695,-0.95771 -2.80927,-0.89386 -2.80927,0.12769 z" />
  <path
     style="fill:#ff0000;stroke:none"
     id="path318"
     d="m 224.74846,164.27795 c 1.66002,1.72386 3.44774,1.46848 3.44774,-0.38309 0,-1.02155 -0.44693,-1.21309 -2.49003,-1.14924 l -2.49004,0.0638 1.53233,1.46849 z" />
  <path
     style="fill:#ff0000;stroke:none"
     id="path320"
     d="m 173.8624,163.51178 c -0.31923,2.93696 0.19154,7.72549 1.02155,8.93858 l 0.95771,1.53233 1.34079,-1.34079 c 1.27694,-1.27694 1.27694,-1.53233 0.51077,-4.02236 -0.51077,-1.40463 -0.89386,-2.87311 -0.89386,-3.19235 0,-0.76616 -2.87311,-2.61773 -2.93696,-1.91541 z" />
  <path
     style="fill:#ff0000;stroke:none"
     id="path322"
     d="m 166.71154,164.85257 c -0.63847,0.63847 -0.51078,2.74542 0.12769,2.74542 0.31924,0 1.02155,0.19154 1.59618,0.38308 0.70231,0.25539 1.02155,0 1.02155,-0.83001 0,-1.85156 -1.72387,-3.32004 -2.74542,-2.29849 z" />
  <path
     style="fill:#ff0000;stroke:none"
     id="path324"
     d="m 230.2393,165.1718 c 0.1277,0.38309 0.63847,0.89386 1.02156,1.02156 0.44692,0.12769 0.63847,-0.1277 0.38308,-0.76617 -0.44693,-1.14924 -1.78772,-1.40463 -1.40464,-0.25539 z" />
  <path
     style="fill:#ff0000;stroke:none"
     id="path326"
     d="m 211.27674,166.32105 c -0.19154,0.31923 0.0639,0.63847 0.63847,0.63847 0.57463,0 0.83002,-0.31924 0.63847,-0.63847 -0.19154,-0.38308 -0.51077,-0.63847 -0.63847,-0.63847 -0.12769,0 -0.44692,0.25539 -0.63847,0.63847 z" />
  <path
     style="fill:#ff0000;stroke:none"
     id="path328"
     d="m 146.34435,167.40645 c 0.38308,0.12769 0.76616,0.76616 0.76616,1.34079 0,0.83001 0.19154,0.83001 0.76616,0.25538 0.63847,-0.63847 0.63847,-0.9577 -0.12769,-1.40463 -0.51078,-0.31924 -1.21309,-0.57462 -1.59618,-0.57462 -0.31923,0 -0.25538,0.19154 0.19155,0.38308 z" />
  <path
     style="fill:#ff0000;stroke:none"
     id="path330"
     d="m 187.33412,167.98107 c 0.0639,1.21309 1.78772,2.80927 3.1285,2.80927 1.40464,0 1.66002,-0.44693 0.83001,-1.72387 -0.57462,-0.89386 -3.95851,-1.85156 -3.95851,-1.0854 z" />
  <path
     style="fill:#ff0000;stroke:none"
     id="path332"
     d="m 231.83548,168.04492 c -0.76617,0.76616 -0.44693,2.74542 0.38308,2.74542 1.27694,0 1.59618,-0.57462 1.27694,-1.97926 -0.31923,-1.27694 -0.9577,-1.53233 -1.66002,-0.76616 z" />
  <path
     style="fill:#ff0000;stroke:none"
     id="path334"
     d="m 159.62452,170.08802 c -0.25539,0.44693 -0.31923,0.95771 -0.12769,1.14925 0.57462,0.57462 1.21309,-0.25539 0.89386,-1.14925 -0.25539,-0.70231 -0.38309,-0.70231 -0.76617,0 z" />
  <path
     style="fill:#ff0000;stroke:none"
     id="path336"
     d="m 268.41981,170.79034 c 0,0.38308 -0.70232,0.51078 -1.59618,0.25539 -1.85156,-0.44693 -2.23464,1.0854 -0.57462,2.42618 0.57462,0.44693 1.66002,1.53233 2.42619,2.36234 3.57543,3.95852 3.51158,3.89467 4.98006,3.32005 1.97926,-0.76617 1.78772,-1.85157 -1.14924,-5.68239 -2.23465,-3.06465 -4.08621,-4.2139 -4.08621,-2.68157 z" />
  <path
     style="fill:#ff0000;stroke:none"
     id="path338"
     d="m 210.70212,171.36496 c -0.51077,0.76617 1.46848,2.74542 2.23465,2.29849 0.9577,-0.63847 0.63847,-1.53232 -0.63847,-2.23464 -0.76617,-0.38308 -1.40464,-0.38308 -1.59618,-0.0639 z" />
  <path
     style="fill:#ff0000;stroke:none"
     id="path340"
     d="m 158.09219,173.21653 c -1.27694,0.19154 -1.46848,0.51077 -1.27694,2.55388 0.1277,1.66002 0.51078,2.42618 1.34079,2.55388 0.70232,0.12769 1.0854,-0.19155 1.0854,-0.95771 0,-0.70232 0.31923,-1.53233 0.70232,-1.91541 1.02155,-1.02155 -0.1277,-2.49003 -1.85157,-2.23464 z" />
  <path
     style="fill:#ff0000;stroke:none"
     id="path342"
     d="m 196.2727,174.94039 c -0.51078,0.57463 -0.51078,0.95771 -0.12769,0.95771 0.76616,0 1.66002,-1.21309 1.21309,-1.66002 -0.1277,-0.1277 -0.63847,0.12769 -1.0854,0.70231 z" />
  <path
     style="fill:#ff0000;stroke:none"
     id="path344"
     d="m 249.64879,176.9835 c -0.83001,0.89386 -0.31923,2.93696 1.40464,5.04391 1.91541,2.42619 2.68157,2.74542 2.36233,1.02155 -0.12769,-0.57462 -0.25538,-1.85156 -0.25538,-2.74542 -0.0639,-1.66002 -2.68158,-4.15005 -3.51159,-3.32004 z" />
  <path
     style="fill:#ff0000;stroke:none"
     id="path346"
     d="m 182.86483,178.51583 c 0,0.31923 0.31923,0.44693 0.63847,0.25538 0.38308,-0.19154 0.63847,-0.51077 0.63847,-0.70231 0,-0.1277 -0.25539,-0.25539 -0.63847,-0.25539 -0.31924,0 -0.63847,0.31923 -0.63847,0.70232 z" />
  <path
     style="fill:#ff0000;stroke:none"
     id="path348"
     d="m 214.40525,181.06971 c -0.63847,1.0854 0.31923,3.76697 1.34078,3.76697 1.27694,0 1.27694,-3.57543 0,-4.02236 -0.51077,-0.25539 -1.08539,-0.1277 -1.34078,0.25539 z" />
  <path
     style="fill:#ff0000;stroke:none"
     id="path350"
     d="m 278.82687,182.09126 c 0.57462,0.57462 1.21309,0.89386 1.46848,0.70232 0.63847,-0.63847 -0.38308,-1.78772 -1.53233,-1.78772 -0.9577,0 -0.9577,0.0639 0.0639,1.0854 z" />
  <path
     style="fill:#ff0000;stroke:none"
     id="path352"
     d="m 197.2304,183.62359 c -0.51077,1.59617 -0.0638,2.17079 1.27694,1.66002 1.2131,-0.51078 1.27695,-3.00081 0.0639,-3.00081 -0.51077,0 -1.14924,0.57462 -1.34079,1.34079 z" />
  <path
     style="fill:#ff0000;stroke:none"
     id="path354"
     d="m 205.59436,186.4967 c -0.25539,0.63847 -0.83001,0.83001 -1.66002,0.57463 -1.02155,-0.31924 -1.27694,-0.1277 -1.27694,1.21309 0,1.27694 -0.25539,1.53233 -1.0854,1.21309 -0.83001,-0.31923 -0.9577,-0.19154 -0.57462,0.83001 0.25539,0.63847 0.63847,1.97926 0.83001,3.00081 0.19154,0.95771 0.63847,1.91541 0.89386,2.10695 0.89385,0.51078 1.46848,-1.66002 0.63847,-2.49003 -1.02156,-1.02155 -0.89386,-1.91541 0.19154,-1.53233 1.34078,0.51078 2.42618,-1.0854 2.61772,-3.70313 0.1277,-2.49003 0,-2.74542 -0.57462,-1.21309 z" />
  <path
     style="fill:#ff0000;stroke:none"
     id="path356"
     d="m 224.74846,186.04977 c -0.57462,0.95771 0.19154,3.38389 1.34079,4.2139 1.85156,1.34079 2.1708,0.44693 0.76616,-2.23464 -1.40463,-2.74542 -1.59617,-2.87312 -2.10695,-1.97926 z" />
  <path
     style="fill:#ff0000;stroke:none"
     id="path358"
     d="m 218.10837,190.07213 c 0.1277,0.38309 0.63847,0.89386 1.02156,1.02156 0.44692,0.12769 0.63847,-0.1277 0.38308,-0.76617 -0.44693,-1.14924 -1.78772,-1.40463 -1.40464,-0.25539 z" />
  <path
     style="fill:#ff0000;stroke:none"
     id="path360"
     d="m 184.14177,191.54062 c 0,1.27693 1.40463,4.15005 1.97926,4.15005 0.9577,0 1.40463,-3.19235 0.57462,-4.15005 -1.02155,-1.2131 -2.55388,-1.2131 -2.55388,0 z" />
  <path
     style="fill:#ff0000;stroke:none"
     id="path362"
     d="m 219.89609,193.83911 c 0.44693,0.70231 0.89386,1.21309 1.02155,1.02155 0.44693,-0.44693 -0.44693,-2.36234 -1.0854,-2.36234 -0.38308,0 -0.31923,0.57462 0.0639,1.34079 z" />
  <path
     style="fill:#ff0000;stroke:none"
     id="path364"
     d="m 181.65174,196.39299 c -0.44693,1.02155 -0.57463,2.42618 -0.38309,3.19235 0.38309,1.0854 0.25539,1.34078 -0.51077,1.02155 -1.34079,-0.51078 -1.85156,0.19154 -1.02155,1.27694 0.44693,0.44693 0.83001,1.72387 0.9577,2.80927 0.1277,1.0854 0.63847,2.55388 1.14925,3.25619 0.89386,1.27694 0.9577,1.27694 2.23464,-0.83001 1.53233,-2.49003 1.59618,-3.1285 0.63847,-5.2993 -0.51077,-1.14924 -0.57462,-1.85156 -0.12769,-2.42618 0.51077,-0.57463 0.31923,-1.40464 -0.70232,-2.87312 l -1.40463,-1.97926 -0.83001,1.85157 z" />
  <path
     style="fill:#ff0000;stroke:none"
     id="path366"
     d="m 266.5044,201.75613 c 0,0.89386 3.76697,3.12851 4.3416,2.55388 0.19154,-0.19154 -0.19154,-0.83001 -0.76617,-1.53232 -1.40463,-1.53233 -3.57543,-2.1708 -3.57543,-1.02156 z" />
  <path
     style="fill:#ff0000;stroke:none"
     id="path368"
     d="m 201.38046,211.52473 c 0,0.63847 -0.57462,1.78771 -1.27694,2.55388 -1.72387,1.78771 -1.66002,1.97925 0.95771,3.06465 2.74542,1.14925 2.87311,1.14925 2.87311,-0.12769 0,-0.51078 -0.25539,-0.83001 -0.57462,-0.57463 -0.31924,0.19155 -0.76617,0.0639 -1.02156,-0.31923 -0.19154,-0.31924 -0.0638,-0.63847 0.31924,-0.63847 0.38308,0 0.51078,-0.25539 0.31923,-0.63847 -0.19154,-0.31923 -0.0638,-1.14925 0.31924,-1.85156 0.51078,-1.02156 0.38308,-1.40464 -0.63847,-1.97926 -1.0854,-0.57462 -1.27694,-0.51078 -1.27694,0.51078 z" />
  <path
     style="fill:#ff0000;stroke:none"
     id="path370"
     d="m 239.94405,213.37629 c 0.89386,3.70312 1.78771,5.2993 3.06465,5.2993 1.14925,0 1.27694,-0.25539 0.83002,-3.06466 -0.57463,-3.76697 -0.70232,-3.95851 -2.68158,-3.95851 -1.40463,0 -1.53233,0.19154 -1.21309,1.72387 z" />
  <path
     style="fill:#ff0000;stroke:none"
     id="path372"
     d="m 216.76759,215.73863 c -1.02156,1.0854 -1.34079,1.97925 -1.02156,2.87311 0.51078,1.72387 1.59618,1.72387 1.59618,0.0639 0,-0.70232 0.25539,-1.27694 0.57462,-1.27694 0.31924,0 0.57463,-0.70232 0.57463,-1.59618 0,-0.89385 -0.0639,-1.59617 -0.19155,-1.59617 -0.0638,0 -0.76616,0.70232 -1.53232,1.53233 z" />
  <path
     style="fill:#ff0000;stroke:none"
     id="path374"
     d="m 204.57281,216.12171 c 0,0.31923 0.31923,0.63847 0.70232,0.63847 0.31923,0 0.44693,-0.31924 0.25539,-0.63847 -0.19155,-0.38308 -0.51078,-0.63847 -0.70232,-0.63847 -0.1277,0 -0.25539,0.25539 -0.25539,0.63847 z" />
  <path
     style="fill:#ff0000;stroke:none"
     id="path376"
     d="m 288.97854,218.73944 c 0.1277,0.44693 0.63847,0.9577 1.0854,1.0854 0.51078,0.19154 0.76617,-0.0639 0.57463,-0.57463 -0.1277,-0.44693 -0.63847,-0.9577 -1.0854,-1.0854 -0.51078,-0.19154 -0.76617,0.0639 -0.57463,0.57463 z" />
  <path
     style="fill:#ff0000;stroke:none"
     id="path378"
     d="m 243.0087,221.29332 c 0.1277,0.44693 0.63847,0.9577 1.0854,1.0854 0.51078,0.19154 0.76617,-0.0639 0.57463,-0.57463 -0.1277,-0.44693 -0.63847,-0.9577 -1.0854,-1.0854 -0.51078,-0.19154 -0.76617,0.0639 -0.57463,0.57463 z" />
  <path
     style="fill:#ff0000;stroke:none"
     id="path380"
     d="m 269.69675,222.37872 c 0,0.31923 0.44693,0.9577 0.95771,1.40463 0.51077,0.44693 0.9577,0.51078 0.9577,0.12769 0,-0.31923 -0.44693,-0.9577 -0.9577,-1.40463 -0.51078,-0.44693 -0.95771,-0.51078 -0.95771,-0.12769 z" />
  <path
     style="fill:#ff0000;stroke:none"
     id="path382"
     d="m 201.572,222.88949 c -1.66002,0.70232 -0.83001,2.49003 1.59618,3.57543 3.32004,1.40464 5.68238,0 4.0862,-2.49003 -0.51077,-0.83001 -4.53313,-1.59617 -5.68238,-1.0854 z" />
  <path
     style="fill:#ff0000;stroke:none"
     id="path384"
     d="m 254.37347,224.99644 c 0,1.53233 1.14925,2.36234 1.97926,1.53233 0.83001,-0.83001 0.0638,-2.74542 -1.0854,-2.74542 -0.51078,0 -0.89386,0.57462 -0.89386,1.21309 z" />
  <path
     style="fill:#ff0000;stroke:none"
     id="path386"
     d="m 290.70241,227.03955 c 0.83001,0.70231 1.66002,1.0854 1.85157,0.89386 0.51077,-0.51078 -1.27694,-2.23465 -2.36234,-2.23465 -0.76617,0.0639 -0.70232,0.31923 0.51077,1.34079 z" />
  <path
     style="fill:#ff0000;stroke:none"
     id="path388"
     d="m 249.58494,227.61417 c -0.19154,0.31924 0.0639,0.63847 0.57463,0.63847 0.51077,0 1.14924,-0.31923 1.34078,-0.63847 0.19155,-0.38308 -0.0638,-0.63847 -0.57462,-0.63847 -0.51077,0 -1.14924,0.25539 -1.34079,0.63847 z" />
  <path
     style="fill:#ff0000;stroke:none"
     id="path390"
     d="m 206.80745,232.08346 c -0.63847,1.02155 0.89386,3.19235 2.23465,3.19235 2.80927,0 4.2139,-1.40463 2.10695,-2.1708 -0.63847,-0.19154 -1.78772,-0.63847 -2.55388,-0.9577 -0.89386,-0.38308 -1.59617,-0.44693 -1.78772,-0.0638 z" />
  <path
     style="fill:#ff0000;stroke:none"
     id="path392"
     d="m 267.14287,232.33885 c 0,0.57462 0.44693,1.02155 1.02155,1.02155 1.0854,0 0.89386,-1.40463 -0.25539,-1.78772 -0.44693,-0.12769 -0.76616,0.19155 -0.76616,0.76617 z" />
  <path
     style="fill:#ff0000;stroke:none"
     id="path394"
     d="m 216.95913,233.48809 c 0.19154,0.44693 0.57462,1.34079 0.76616,1.91541 0.51078,1.40464 1.14925,1.46849 2.10695,0.25539 0.76617,-0.9577 0.1277,-1.72387 -2.0431,-2.49003 -0.83001,-0.31924 -1.0854,-0.19154 -0.83001,0.31923 z" />
  <path
     style="fill:#ff0000;stroke:none"
     id="path396"
     d="m 255.58656,234.57349 c -1.21309,1.02155 -1.34078,1.40464 -0.76616,2.04311 0.57462,0.51077 0.57462,1.02155 0.19154,1.59617 -0.89386,1.02155 3.70313,5.74623 4.66083,4.78853 0.44693,-0.44693 0.38308,-1.02156 -0.25539,-1.72387 -0.83001,-0.95771 -0.70231,-1.02155 0.70232,-0.57462 l 1.59618,0.44692 -1.40464,-1.53232 c -0.83001,-0.83002 -1.46848,-2.2985 -1.46848,-3.19235 0,-2.55388 -1.40463,-3.32005 -3.2562,-1.85157 z" />
  <path
     style="fill:#ff0000;stroke:none"
     id="path398"
     d="m 267.65365,238.85124 c -0.57463,0.51078 0.57462,2.80927 1.40463,2.80927 0.89386,0 0.76616,-0.83001 -0.19154,-2.1708 -0.44693,-0.57462 -1.02155,-0.89386 -1.21309,-0.63847 z" />
  <path
     style="fill:#ff0000;stroke:none"
     id="path400"
     d="m 216.25681,244.02285 c -0.57462,0.19154 -0.70232,1.0854 -0.44693,2.93696 0.63847,4.02236 1.91541,6.00162 4.40544,6.89548 1.2131,0.44693 2.2985,1.27694 2.42619,1.78771 0.19154,0.83001 0.31924,0.83001 0.76617,-0.19154 0.38308,-0.83001 0.19154,-1.46848 -0.38309,-1.91541 -0.51077,-0.38308 -0.89386,-1.0854 -0.9577,-1.53233 -0.0639,-0.38308 -0.1277,-1.46848 -0.1277,-2.36233 -0.0638,-0.83002 -1.02155,-2.55389 -2.10695,-3.83082 -2.0431,-2.2985 -2.23464,-2.36234 -3.57543,-1.78772 z" />
  <path
     style="fill:#ff0000;stroke:none"
     id="path402"
     d="m 208.40363,245.74672 c 0,1.78771 0.76616,2.93696 1.97926,2.93696 1.59617,0 1.59617,-2.29849 0,-3.19235 -1.66003,-0.83001 -1.97926,-0.83001 -1.97926,0.25539 z" />
  <path
     style="fill:#ff0000;stroke:none"
     id="path404"
     d="m 248.62724,254.74915 c 0.44693,0.51077 1.0854,0.9577 1.40463,0.9577 0.38309,0 0.31924,-0.44693 -0.12769,-0.9577 -0.44693,-0.51078 -1.0854,-0.95771 -1.40463,-0.95771 -0.38309,0 -0.31924,0.44693 0.12769,0.95771 z" />
  <path
     style="fill:#ff0000;stroke:none"
     id="path406"
     d="m 265.35515,258.32458 c 0.1277,0.44693 0.63847,0.9577 1.0854,1.0854 0.51078,0.19154 0.76617,-0.0639 0.57463,-0.57463 -0.1277,-0.44693 -0.63847,-0.9577 -1.0854,-1.0854 -0.51078,-0.19154 -0.76617,0.0639 -0.57463,0.57463 z" />
  <path
     style="fill:#ff0000;stroke:none"
     id="path408"
     d="m 270.52676,278.69177 c -1.78772,0.70232 -1.85156,1.78772 -0.12769,3.76697 1.0854,1.34079 1.46848,1.40464 2.80926,0.83001 0.89386,-0.44693 1.59618,-1.02155 1.59618,-1.40463 0,-0.31923 0.44693,-0.63847 0.9577,-0.63847 1.14925,0 1.14925,-0.31924 0.31924,-1.97926 -0.70232,-1.27694 -3.1285,-1.53233 -5.55469,-0.57462 z" />
  <path
     style="fill:#ff0000;stroke:none"
     id="path410"
     d="m 275.0599,286.54495 c -0.51078,1.40463 0.19154,2.36234 1.72387,2.36234 1.53232,0 1.53232,-0.38308 -0.0639,-2.0431 -1.0854,-1.14925 -1.27694,-1.2131 -1.66002,-0.31924 z" />
  <path
     style="fill:#ff0000;stroke:none"
     id="path412"
     d="m 270.97369,289.86499 c 0,0.51078 0.31923,0.95771 0.63847,0.95771 0.38308,0 0.63847,-0.44693 0.63847,-0.95771 0,-0.51077 -0.25539,-0.9577 -0.63847,-0.9577 -0.31924,0 -0.63847,0.44693 -0.63847,0.9577 z" />
  <path
     style="fill:none;stroke:#000000;stroke-width:2.4000001;stroke-linecap:butt;stroke-linejoin:miter;stroke-miterlimit:4;stroke-opacity:1;stroke-dasharray:none"
     d="M 233.53335,38.433073 C 218.06498,29.785083 206.45654,12.51864 186.20353,16.981548 163.71015,13.519381 140.88271,18.434485 118.17817,17.32461 103.58413,17.512129 88.325404,18.299479 75.297104,10.441819 59.735322,6.6341685 44.398233,0.5308345 28.15419,1.2597975 12.297642,1.2668975 10.141454,23.080229 5.7241329,34.804143 c -1.457988,12.95032 -12.001233,35.48727 5.2294081,41.61088 16.457303,5.88916 32.761557,13.56929 45.189403,26.212597 10.714938,13.62056 27.96743,18.5089 43.14413,25.32903 12.395096,8.13023 23.687916,18.10945 31.780196,30.62435 6.47974,9.95532 4.82902,29.75846 19.40293,31.39777 17.03786,-1.59694 22.84953,13.98834 24.03375,28.0877 4.18439,20.64486 24.41441,30.69366 37.64402,44.90214 9.46376,11.0535 19.73649,21.62486 31.97322,29.65751 12.37109,7.69463 30.49191,15.3278 43.51982,4.89276 11.51698,-9.65901 11.21095,-25.00457 12.72859,-38.58331 0.37457,-19.18734 1.75349,-38.57666 -0.57125,-57.69625 -1.7138,-11.23145 -18.64477,-29.09118 -5.2125,-37.01399 15.29843,-2.08826 21.31197,-17.16255 18.26759,-30.8811 0.88776,-12.11466 -2.62962,-32.12537 -19.20306,-28.00828 -15.2016,1.6997 -27.42689,-10.596967 -29.14172,-25.109197 -4.49608,-14.04544 -9.56241,-30.66715 -23.91481,-37.43754 -2.37786,-1.41214 -4.72218,-2.87976 -7.0605,-4.35614 z"
     id="path3427" />
</svg>
