<?xml version="1.0" encoding="UTF-8" standalone="no"?>
<svg
   xmlns:dc="http://purl.org/dc/elements/1.1/"
   xmlns:cc="http://creativecommons.org/ns#"
   xmlns:rdf="http://www.w3.org/1999/02/22-rdf-syntax-ns#"
   xmlns:svg="http://www.w3.org/2000/svg"
   xmlns="http://www.w3.org/2000/svg"
   xmlns:sodipodi="http://sodipodi.sourceforge.net/DTD/sodipodi-0.dtd"
   xmlns:inkscape="http://www.inkscape.org/namespaces/inkscape"
   version="1.0"
   width="460.3992"
   height="491.51297"
   viewBox="0 0 368.31936 393.21038"
   preserveAspectRatio="xMidYMid meet"
   id="svg2"
   inkscape:version="0.47 r22583"
   sodipodi:docname="combined.svg">
  <defs
     id="defs390">
    <inkscape:perspective
       sodipodi:type="inkscape:persp3d"
       inkscape:vp_x="0 : 306.25 : 1"
       inkscape:vp_y="0 : 1000 : 0"
       inkscape:vp_z="585 : 306.25 : 1"
       inkscape:persp3d-origin="292.5 : 204.16667 : 1"
       id="perspective392" />
    <inkscape:perspective
       id="perspective3206"
       inkscape:persp3d-origin="0.5 : 0.33333333 : 1"
       inkscape:vp_z="1 : 0.5 : 1"
       inkscape:vp_y="0 : 1000 : 0"
       inkscape:vp_x="0 : 0.5 : 1"
       sodipodi:type="inkscape:persp3d" />
  </defs>
  <sodipodi:namedview
     pagecolor="#ffffff"
     bordercolor="#666666"
     borderopacity="1"
     objecttolerance="10"
     gridtolerance="10"
     guidetolerance="10"
     inkscape:pageopacity="0"
     inkscape:pageshadow="2"
     inkscape:window-width="1920"
     inkscape:window-height="1053"
     id="namedview388"
     showgrid="false"
     inkscape:zoom="1.3142857"
     inkscape:cx="39.358928"
     inkscape:cy="248.41271"
     inkscape:window-x="1920"
     inkscape:window-y="0"
     inkscape:window-maximized="1"
     inkscape:current-layer="svg2" />
  <metadata
     id="metadata4">
Created by potrace 1.8, written by Peter Selinger 2001-2007
<rdf:RDF>
  <cc:Work
     rdf:about="">
    <dc:format>image/svg+xml</dc:format>
    <dc:type
       rdf:resource="http://purl.org/dc/dcmitype/StillImage" />
  </cc:Work>
</rdf:RDF>
</metadata>
  <g
     id="g4185"
     transform="translate(-62.817206,-74.867625)">
    <path
       d="m 318.55778,87.877939 c -2.48408,5.166876 -5.56433,9.141396 -7.35286,9.439485 -1.19236,0.198726 -1.8879,0.894267 -1.58981,1.589808 0.29809,0.695541 -0.19873,1.788538 -0.99363,2.484078 -1.49045,1.29172 -0.99363,5.06751 0.59618,5.06751 0.59617,0 0.59617,0.59618 -0.0994,1.39108 -0.7949,0.99363 -0.89426,1.58981 -0.0994,2.08662 0.59618,0.39746 0.0994,2.18599 -1.49044,4.86879 -1.39109,2.38471 -2.48408,5.26624 -2.48408,6.4586 0,1.09299 -0.49682,2.98089 -1.19236,3.97452 -0.59617,0.99363 -0.7949,2.58344 -0.39745,3.57706 0.89427,2.38472 2.6828,0.69555 5.56433,-5.46496 1.29172,-2.6828 2.6828,-4.96815 3.08025,-4.96815 0.49682,0 1.49045,-1.29172 2.38472,-2.98089 1.5898,-3.08025 1.98725,-6.35923 0.69554,-5.56433 -0.39746,0.19873 -1.39109,0.0994 -2.08663,-0.29809 -0.99363,-0.59618 -0.7949,-1.58981 0.79491,-4.37197 1.09299,-1.8879 1.68917,-3.77579 1.39108,-4.07388 -0.39745,-0.29809 0,-0.59618 0.69554,-0.59618 0.89427,0 0.7949,-0.49681 -0.39745,-1.887897 -1.68917,-1.788534 -1.68917,-1.887897 0.0994,-2.484075 1.58981,-0.496815 6.25987,-6.259869 6.25987,-7.750314 0,-1.192356 -2.88153,-1.589808 -3.37834,-0.496815 z"
       id="path8"
       style="fill:#00ff00;stroke:none" />
    <path
       d="m 324.71828,99.006595 c -0.59617,1.391085 -1.49044,2.484075 -1.88789,2.484075 -0.69554,0 -2.88153,5.3656 -2.88153,7.05477 0,0.39745 1.39108,0.29809 2.98089,-0.19872 1.68917,-0.59618 2.98089,-1.49045 2.98089,-1.8879 0,-0.49682 0.39745,-1.8879 0.89427,-3.17962 0.49681,-1.29172 0.99363,-2.78216 1.09299,-3.27897 0.0994,-0.596183 0.59618,-1.589813 1.19236,-2.285354 0.7949,-0.894267 0.49681,-1.192356 -1.093,-1.192356 -1.29172,0 -2.58343,0.99363 -3.27898,2.484075 z"
       id="path10"
       style="fill:#00ff00;stroke:none" />
    <path
       d="m 232.0126,116.59385 c 0.29809,1.78853 0.69555,5.56432 0.89427,8.44585 0.49682,6.35923 1.49045,9.43949 2.58344,8.74394 0.49682,-0.29808 1.09299,0.39746 1.49045,1.49045 0.49681,1.49044 0.89426,1.68917 1.88789,0.7949 1.39108,-1.39108 1.78854,-4.76942 0.69554,-6.25987 -0.49681,-0.49681 -1.19235,-2.58343 -1.49044,-4.47133 -0.69554,-3.17962 -1.68917,-6.16051 -3.47771,-9.83694 -1.49044,-2.98089 -2.98089,-2.28535 -2.58344,1.093 z"
       id="path12"
       style="fill:#00ff00;stroke:none" />
    <path
       d="m 188.7897,121.86008 c 0,1.98726 3.97452,10.83057 4.5707,10.23439 0.59618,-0.69554 -2.48408,-10.53247 -3.57707,-11.22802 -0.59618,-0.29808 -0.99363,0.0994 -0.99363,0.99363 z"
       id="path14"
       style="fill:#00ff00;stroke:none" />
    <path
       d="m 323.92338,127.22569 c 0,0.39745 -1.19236,1.98726 -2.58344,3.4777 -1.49044,1.39108 -2.28535,2.58344 -1.78853,2.58344 0.49681,0 0.0994,0.49681 -0.79491,1.09299 -0.99363,0.49682 -1.78853,1.39108 -1.78853,1.8879 0,1.39108 3.27898,-0.0994 5.26624,-2.48408 0.89427,-1.09299 2.38471,-3.17961 3.17962,-4.76942 1.39108,-2.38471 1.39108,-2.6828 0,-2.6828 -0.79491,0 -1.49045,0.39745 -1.49045,0.89427 z"
       id="path16"
       style="fill:#00ff00;stroke:none" />
    <path
       d="m 161.6636,128.02059 c -1.09299,0.99363 -0.7949,3.27898 0.29809,3.27898 0.49681,0 2.28535,1.29172 3.77579,2.98089 2.98089,3.08025 6.55796,4.37197 4.17325,1.49044 -0.69554,-0.7949 -0.99363,-1.49044 -0.69554,-1.49044 0.29809,0 -0.89427,-1.58981 -2.6828,-3.47771 -3.47771,-3.67643 -3.87516,-3.87515 -4.86879,-2.78216 z"
       id="path18"
       style="fill:#00ff00;stroke:none" />
    <path
       d="m 334.45586,130.00785 c -0.99363,0.29809 -3.87516,2.48408 -6.4586,4.86879 -2.48407,2.38471 -4.86878,4.37197 -5.26624,4.37197 -0.39745,0 -0.49681,0.69554 -0.0994,1.58981 0.99363,2.58344 4.96815,0.7949 9.83694,-4.37197 2.38471,-2.48408 4.37197,-5.16688 4.37197,-5.86242 0,-0.69554 -0.0994,-1.19236 -0.19873,-1.19236 -0.19872,0.0994 -1.19235,0.39745 -2.18598,0.59618 z"
       id="path20"
       style="fill:#00ff00;stroke:none" />
    <path
       d="m 140.10183,141.13651 c 0,1.09299 3.97452,4.07388 5.3656,4.07388 0.49682,0 -0.0994,-1.09299 -1.39108,-2.48408 -2.38471,-2.58343 -3.97452,-3.17961 -3.97452,-1.5898 z"
       id="path22"
       style="fill:#00ff00;stroke:none" />
    <path
       d="m 335.35013,153.65624 c -2.68281,1.29172 -5.6637,3.27898 -6.55796,4.37198 -0.89427,1.09299 -1.8879,1.68917 -2.28535,1.39108 -0.89427,-0.99363 -3.47771,2.88153 -2.88153,4.37197 0.69554,1.78853 1.58981,1.58981 4.17325,-0.7949 1.19235,-1.093 2.88152,-1.78854 3.67643,-1.49045 0.69554,0.29809 1.39108,0.0994 1.39108,-0.39745 0,-0.59618 0.69554,-0.99363 1.49044,-0.99363 0.79491,0 1.49045,-0.39745 1.49045,-0.89427 0,-0.49681 1.39108,-1.39108 3.17962,-2.18598 2.6828,-1.093 2.88152,-1.39109 1.19235,-1.98726 -1.68917,-0.59618 -1.58981,-0.79491 0.79491,-1.39109 1.5898,-0.39745 2.48407,-1.09299 2.18598,-1.5898 -0.7949,-1.39109 -2.48407,-0.99363 -7.84967,1.5898 z"
       id="path24"
       style="fill:#00ff00;stroke:none" />
    <path
       d="m 350.05585,156.53777 c -7.75031,4.37197 -9.43949,6.4586 -6.25987,7.2535 2.6828,0.69554 2.48407,1.68917 -0.59618,3.17962 -1.88789,0.7949 -2.98089,0.89426 -3.87515,0.0994 -1.68918,-1.39108 -2.78217,1.78853 -1.8879,5.3656 0.69554,2.88153 2.48407,3.37834 4.37197,1.09299 0.69554,-0.7949 1.98726,-1.49044 2.88153,-1.49044 1.39108,0 1.39108,-0.19873 0.0994,-0.99363 -1.29172,-0.89427 -1.29172,-0.99363 0.0994,-0.99363 0.79491,0 3.08026,-1.39108 4.86879,-2.98089 2.98089,-2.6828 4.86879,-3.47771 7.2535,-3.08025 0.39745,0 0.69554,-0.39746 0.69554,-0.89427 0,-0.59618 0.29809,-0.89427 0.7949,-0.89427 0.39746,0.0994 1.78854,0.0994 3.17962,0 2.48408,-0.19872 2.48408,-0.19872 -0.49682,-1.58981 -1.5898,-0.69554 -2.38471,-1.39108 -1.68917,-1.39108 1.39109,-0.0994 1.19236,-2.18598 -0.29809,-3.27898 -0.59617,-0.49681 -0.49681,-0.7949 0.29809,-0.7949 0.59618,0 1.19236,-0.69554 1.19236,-1.49045 0,-2.38471 -2.98089,-1.5898 -10.63184,2.88153 z"
       id="path26"
       style="fill:#00ff00;stroke:none" />
    <path
       d="m 156.49672,154.15306 c -0.29808,0.49681 0.79491,1.58981 2.38472,2.48407 1.68917,0.79491 2.78216,2.08663 2.58343,2.78217 -0.39745,0.7949 0.79491,1.29172 3.67644,1.39108 l 4.2726,0.19873 -3.37834,-2.88153 c -1.88789,-1.58981 -3.67643,-2.78216 -3.87515,-2.48408 -0.19873,0.19873 -1.093,-0.19872 -1.8879,-0.99363 -1.68917,-1.68917 -2.88153,-1.88789 -3.7758,-0.49681 z"
       id="path28"
       style="fill:#00ff00;stroke:none" />
    <path
       d="m 101.05217,168.66006 c -0.99363,0.99363 1.19236,4.37197 2.78217,4.37197 0.69554,0 1.68917,0.89427 1.98726,1.98726 0.29808,1.09299 1.29171,1.98726 2.18598,1.98726 0.89427,0 1.29172,-0.59618 0.89427,-1.49045 -0.79491,-2.08662 0.69554,-1.88789 3.77579,0.59618 1.39108,1.093 2.98089,1.68917 3.57707,1.39108 0.49682,-0.29808 0.99363,-0.0994 0.99363,0.39746 0,0.59617 0.89427,1.09299 1.8879,1.09299 2.78216,0 3.67643,2.08662 1.58981,3.57707 -1.68918,1.19235 -1.58981,1.39108 0.89426,2.38471 3.67643,1.39108 3.57707,1.39108 2.58344,-1.98726 -0.49681,-1.78853 -0.49681,-2.98089 0.0994,-2.98089 0.49682,0 0.39746,-0.89427 -0.29809,-1.98726 -0.69554,-1.09299 -1.78853,-1.98726 -2.48407,-1.98726 -0.69554,0 -5.16688,-1.78853 -9.83694,-3.97452 -9.04203,-4.17325 -9.63821,-4.37197 -10.63184,-3.37834 z"
       id="path30"
       style="fill:#00ff00;stroke:none" />
    <path
       d="m 389.30423,169.75305 c -1.5898,0.7949 -2.78216,1.98726 -2.78216,2.58344 0,0.69554 -1.78853,2.28535 -3.97452,3.67643 -3.67643,2.28535 -5.26624,4.96815 -2.98089,4.96815 1.68917,0 5.96178,-2.28535 5.96178,-3.17962 0,-0.49681 1.49044,-1.49044 3.37834,-2.28535 4.86879,-2.08662 6.95541,-4.37197 5.46497,-6.06114 -1.29172,-1.58981 -1.58981,-1.58981 -5.06752,0.29809 z"
       id="path32"
       style="fill:#00ff00;stroke:none" />
    <path
       d="m 399.43926,171.74031 c -0.7949,0.29809 -1.68917,0.89427 -1.98726,1.19236 -0.29809,0.29809 -2.18599,1.49044 -4.17325,2.48407 -2.08662,1.09299 -3.77579,2.28535 -3.77579,2.78217 0,0.49681 0.39745,0.69554 0.7949,0.39745 0.39746,-0.19873 1.39109,-0.0994 2.08663,0.29809 0.89426,0.59617 0,1.5898 -3.08026,3.17961 -2.28535,1.39108 -4.17324,2.88153 -4.07388,3.37834 0.0994,0.59618 -0.59618,1.78854 -1.39108,2.68281 -1.49045,1.68917 -1.39108,1.78853 0.59618,1.78853 1.19235,0 1.88789,-0.39745 1.58981,-0.99363 -0.29809,-0.59618 0.49681,-1.39108 1.78853,-1.8879 1.29172,-0.49681 3.17962,-1.78853 4.17325,-2.78216 0.99363,-0.99363 2.08662,-1.78854 2.38471,-1.78854 1.29172,0 11.92356,-9.04203 11.62547,-9.9363 -0.29809,-1.19235 -4.37197,-1.68917 -6.55796,-0.7949 z"
       id="path34"
       style="fill:#00ff00;stroke:none" />
    <path
       d="m 98.170644,206.71609 c -0.99363,0.29809 -1.391082,1.09299 -0.99363,1.68917 0.99363,1.58981 8.147766,4.47133 8.147766,3.27898 0,-1.29172 1.58981,-1.093 3.17962,0.39745 1.19235,1.19235 4.37197,2.38471 8.54521,3.27898 1.68918,0.29809 2.78217,-2.38471 1.49045,-3.67643 -0.59618,-0.59618 -3.17962,-1.19236 -5.76305,-1.49045 -2.68281,-0.19872 -5.26624,-0.7949 -5.86242,-1.29172 -0.59618,-0.49681 -2.18599,-1.09299 -3.57707,-1.29172 -1.39108,-0.0994 -2.6828,-0.59617 -2.98089,-0.89426 -0.29809,-0.39746 -1.291719,-0.39746 -2.185986,0 z"
       id="path36"
       style="fill:#00ff00;stroke:none" />
    <path
       d="m 396.35901,218.24219 c -0.49682,0.49682 -3.47771,1.093 -6.55796,1.19236 -5.26624,0.0994 -7.84968,1.49045 -6.55796,3.57707 0.29809,0.39745 -0.19872,0.69554 -0.99363,0.49681 -0.89427,-0.19872 -1.58981,0 -1.58981,0.39746 -0.19872,2.48407 0.0994,2.78216 3.17962,2.18598 1.68917,-0.29809 4.5707,-0.69554 6.1605,-0.89427 1.68918,-0.0994 4.37198,-0.99363 5.96179,-1.88789 1.68917,-0.89427 3.57706,-1.58981 4.2726,-1.58981 0.59618,0 1.19236,-0.39745 1.19236,-0.89427 0,-0.49681 1.19236,-1.19235 2.58344,-1.49044 1.49044,-0.39745 2.28535,-0.99363 1.98726,-1.39108 -1.09299,-0.99363 -8.54522,-0.79491 -9.63821,0.29808 z"
       id="path38"
       style="fill:#00ff00;stroke:none" />
    <path
       d="m 374.59851,241.89059 c 0,0.39745 -0.39745,0.49681 -0.99363,0.19872 -0.49682,-0.29808 -0.99363,-0.19872 -0.99363,0.19873 0,0.49682 -1.29172,0.7949 -2.78216,0.69554 -1.49045,-0.0994 -3.57707,0.49682 -4.67006,1.19236 -1.58981,1.19235 -1.58981,1.39108 -0.29809,1.39108 0.89426,0 1.78853,0.59618 2.08662,1.19236 0.29809,0.99363 0.69554,0.99363 1.98726,0 0.89427,-0.79491 2.08662,-1.093 2.6828,-0.69555 0.49682,0.29809 1.29172,-0.0994 1.58981,-0.89426 0.29809,-0.89427 1.58981,-1.58981 2.88152,-1.58981 1.29172,0 2.48408,-0.69554 2.88153,-1.49045 0.39745,-1.09299 -0.0994,-1.39108 -1.88789,-1.29171 -1.39109,0.0994 -2.48408,0.59617 -2.48408,1.09299 z"
       id="path40"
       style="fill:#00ff00;stroke:none" />
    <path
       d="m 382.84564,258.28548 c -2.28535,0.29809 -2.98089,1.68917 -1.49045,2.48408 0.39746,0.19872 2.48408,-0.0994 4.67007,-0.69554 3.57706,-1.093 3.67643,-1.29172 1.49044,-1.68917 -1.39108,-0.19873 -3.4777,-0.29809 -4.67006,-0.0994 z"
       id="path42"
       style="fill:#00ff00;stroke:none" />
    <path
       d="m 374.10169,295.24852 c 2.78217,1.19236 4.47134,1.19236 4.47134,0 0,-0.59618 -1.49044,-0.99363 -3.17962,-0.89427 -2.78216,0 -2.98089,0.19873 -1.29172,0.89427 z"
       id="path44"
       style="fill:#00ff00;stroke:none" />
    <path
       d="m 124.20375,318.59882 c -2.18599,1.29172 -1.58981,2.08663 1.29172,1.58981 0.39745,0 0.69554,0.39746 0.69554,0.99363 0,0.59618 0.69554,0.89427 1.49045,0.49682 0.7949,-0.29809 2.08662,0.0994 2.88152,0.89427 0.69554,0.7949 1.58981,1.19235 1.8879,0.89426 0.29809,-0.29809 0.99363,0.39745 1.68917,1.49045 0.89427,1.68917 1.49044,1.88789 2.98089,1.09299 1.29172,-0.69554 2.08662,-0.69554 2.48407,0 0.39746,0.59618 1.093,0.7949 1.58981,0.49681 0.49682,-0.39745 0.89427,-0.19872 0.89427,0.19873 0,0.49682 1.09299,0.99363 2.38471,1.09299 1.8879,0.0994 2.38471,-0.29809 2.28535,-1.78853 -0.0994,-1.29172 -0.7949,-1.98726 -2.18598,-1.98726 -1.093,0 -3.57707,-1.09299 -5.46497,-2.28535 -2.18599,-1.49044 -4.86879,-2.38471 -7.2535,-2.38471 -2.08662,0 -4.17324,-0.49682 -4.47133,-0.99363 -0.49682,-0.79491 -1.49045,-0.69554 -3.17962,0.19872 z"
       id="path46"
       style="fill:#00ff00;stroke:none" />
    <path
       d="m 384.63417,319.79118 c -0.0994,0.59618 -0.99363,0.89427 -2.08662,0.59618 -2.6828,-0.69554 -2.48407,1.29172 0.19873,2.78216 1.29172,0.69554 2.88152,1.78854 3.57706,2.58344 1.58981,1.49045 4.17325,1.68917 4.17325,0.29809 0,-0.49682 -0.89427,-1.39108 -2.08662,-1.98726 -1.093,-0.59618 -2.38471,-2.08662 -2.88153,-3.27898 -0.49681,-1.19236 -0.89427,-1.68917 -0.89427,-0.99363 z"
       id="path48"
       style="fill:#00ff00;stroke:none" />
    <path
       d="m 383.54118,361.22555 c 0,0.69554 0.69554,1.8879 1.49045,2.58344 0.7949,0.69554 1.49044,2.08662 1.49044,3.17962 0,0.99363 0.39745,1.68917 0.89427,1.39108 0.49681,-0.29809 1.19235,0.59618 1.49044,1.98726 0.79491,2.88152 2.48408,2.78216 3.67643,-0.29809 0.59618,-1.58981 -0.0994,-2.88153 -3.27898,-6.16051 -4.2726,-4.27261 -5.76305,-4.96815 -5.76305,-2.6828 z"
       id="path50"
       style="fill:#00ff00;stroke:none" />
    <path
       d="m 364.06603,374.83828 c -0.39745,0.69554 0.0994,1.78854 1.19236,2.58344 0.99363,0.69554 3.37834,2.6828 5.16687,4.47134 3.08026,2.98089 5.26624,3.37834 3.57707,0.59617 -0.49681,-0.69554 -0.89427,-1.88789 -0.89427,-2.58343 0,-2.08663 -8.0484,-6.55796 -9.04203,-5.06752 z"
       id="path52"
       style="fill:#00ff00;stroke:none" />
    <path
       d="m 347.07496,395.2077 c -0.39745,0.99363 0.59618,2.58344 2.78216,4.47133 5.36561,4.5707 11.8242,9.04204 11.8242,8.14777 0,-0.39745 0.39745,-0.29809 0.7949,0.29809 0.99363,1.58981 5.16688,2.78216 5.16688,1.49044 0,-0.59618 -0.39745,-1.09299 -0.89427,-1.09299 -0.49681,0 -1.29172,-0.89427 -1.5898,-2.08662 -0.39746,-1.093 -0.89427,-1.78854 -1.19236,-1.49045 -0.39745,0.29809 -1.78854,-0.69554 -3.17962,-2.18598 -2.6828,-2.68281 -6.55795,-5.56433 -10.83056,-7.84968 -1.8879,-0.99363 -2.38472,-0.99363 -2.88153,0.29809 z"
       id="path54"
       style="fill:#00ff00;stroke:none" />
    <path
       d="m 328.89153,406.13763 c 0,2.08662 3.97452,6.65732 5.96178,6.85604 0.29809,0 1.09299,0.39746 1.78853,0.89427 0.69555,0.39745 1.49045,0.59618 1.78854,0.39745 0.59618,-0.69554 -3.17962,-4.76942 -4.47134,-4.76942 -0.59618,0 -1.09299,-0.69554 -1.09299,-1.58981 0,-0.7949 -0.39745,-1.19235 -0.99363,-0.89427 -0.49682,0.29809 -0.99363,0.0994 -0.99363,-0.39745 0,-0.59617 -0.39745,-1.09299 -0.99363,-1.09299 -0.49681,0 -0.99363,0.29809 -0.99363,0.59618 z"
       id="path56"
       style="fill:#00ff00;stroke:none" />
    <path
       d="m 343.79598,407.52871 c 0,0.39745 0.69554,1.29172 1.49044,1.98726 0.79491,0.69554 1.49045,0.89427 1.49045,0.49681 0,-0.29808 1.8879,0.89427 4.07388,2.88153 3.7758,3.17962 5.86242,3.7758 5.86242,1.58981 0,-1.29172 -9.24076,-7.65095 -11.12866,-7.65095 -0.99363,0 -1.78853,0.39745 -1.78853,0.69554 z"
       id="path58"
       style="fill:#00ff00;stroke:none" />
    <path
       d="m 279.21003,423.62552 c 0,1.29171 0.89427,3.37834 1.98726,4.76942 l 1.8879,2.48407 -0.39745,-2.48407 c -0.59618,-4.07388 -1.68918,-6.95541 -2.58344,-6.95541 -0.49682,0 -0.89427,0.99363 -0.89427,2.18599 z"
       id="path60"
       style="fill:#00ff00;stroke:none" />
    <path
       d="m 310.50938,424.12233 c -0.59618,2.6828 0.59617,4.27261 3.37834,4.27261 0.69554,0 2.18598,1.09299 3.27898,2.48407 1.09299,1.39109 2.28534,2.28535 2.6828,1.98726 0.49681,-0.19872 1.58981,0.39746 2.58344,1.49045 2.18598,2.38471 3.67643,2.58344 3.27897,0.29809 -0.29808,-1.39108 -9.73757,-10.33375 -13.31464,-12.51974 -0.69554,-0.39745 -1.39108,0.29809 -1.88789,1.98726 z"
       id="path62"
       style="fill:#00ff00;stroke:none" />
    <path
       d="m 255.36291,427.79876 c 0,1.8879 0.89427,5.46497 1.98726,8.04841 2.38471,5.46496 5.86242,10.33375 6.06114,8.34649 0.19873,-2.58344 -0.29809,-4.37198 -1.68917,-5.96178 -0.7949,-0.89427 -1.09299,-1.8879 -0.7949,-2.18599 0.39745,-0.39745 -0.0994,-0.89427 -0.99363,-1.29172 -1.29172,-0.49681 -1.39108,-0.89426 -0.49682,-1.98726 0.89427,-1.09299 0.89427,-1.39108 0,-1.39108 -0.69554,0 -0.89426,-0.49682 -0.59617,-0.99363 0.29808,-0.59618 0.19872,-0.99363 -0.39746,-0.99363 -0.49681,0 -0.7949,-1.09299 -0.59617,-2.48408 0.0994,-1.5898 -0.29809,-2.48407 -1.093,-2.48407 -0.89426,0 -1.39108,1.19236 -1.39108,3.37834 z"
       id="path64"
       style="fill:#00ff00;stroke:none" />
    <path
       d="m 301.76543,431.07774 c -1.49044,1.39108 -0.59618,5.56433 1.78853,8.64458 1.39109,1.78854 2.28535,3.47771 1.98726,3.7758 -0.89426,0.7949 1.29172,5.76305 2.48408,5.76305 0.59618,0 0.7949,-0.49681 0.49682,-1.09299 -0.39746,-0.59618 -0.89427,-3.47771 -1.093,-6.4586 -0.19872,-3.08025 -1.19235,-6.85605 -2.08662,-8.44585 -1.78854,-2.98089 -2.48408,-3.37835 -3.57707,-2.18599 z"
       id="path66"
       style="fill:#00ff00;stroke:none" />
    <path
       d="m 287.85461,97.218061 c -0.99363,2.583438 -1.09299,3.974519 -0.39745,4.471339 1.68917,0.99363 3.37834,-1.39109 3.37834,-4.868791 0,-4.272609 -1.09299,-4.173246 -2.98089,0.397452 z"
       id="path70"
       style="fill:#ff0000;stroke:none" />
    <path
       d="m 306.53485,99.602773 c -0.89426,2.782167 0.0994,3.577067 1.39109,0.993627 0.69554,-1.192353 0.69554,-2.185983 0.19872,-2.583435 -0.49681,-0.298089 -1.29172,0.397452 -1.58981,1.589808 z"
       id="path72"
       style="fill:#ff0000;stroke:none" />
    <path
       d="m 286.06608,103.67666 c -0.89427,4.57069 -0.89427,8.74394 0,8.74394 0.69554,0 1.39108,-0.7949 1.68917,-1.78853 0.29809,-0.89427 0.99363,-2.48408 1.49044,-3.47771 1.093,-2.08662 0.39745,-3.67643 -1.68917,-3.67643 -0.7949,0 -1.39108,0.0994 -1.49044,0.19873 z"
       id="path74"
       style="fill:#ff0000;stroke:none" />
    <path
       d="m 230.32343,105.06774 c -1.19235,2.18598 -0.19872,6.85604 1.49045,7.15413 1.39108,0.29809 1.68917,-0.19872 1.29172,-2.18598 -0.59618,-3.17962 -2.18599,-6.06115 -2.78217,-4.96815 z"
       id="path76"
       style="fill:#ff0000;stroke:none" />
    <path
       d="m 296.49919,107.25372 c -1.58981,0.99363 -2.78216,8.14777 -1.39108,8.14777 0.59618,0 1.29172,-0.7949 1.58981,-1.78853 0.29809,-0.89427 0.99363,-2.48408 1.58981,-3.57707 1.09299,-1.98726 -0.0994,-3.87516 -1.78854,-2.78217 z"
       id="path78"
       style="fill:#ff0000;stroke:none" />
    <path
       d="m 250.09667,115.79894 c -2.08662,2.38471 -2.38471,3.17962 -1.19235,3.37834 0.7949,0.19873 1.49044,0.69554 1.5898,0.99363 0.49682,4.07389 0.29809,6.16051 -0.49681,6.16051 -1.58981,0 0.59618,1.68917 3.27898,2.48407 1.49044,0.49682 2.08662,0.39746 1.68917,-0.29808 -0.39745,-0.59618 0,-1.49045 0.7949,-1.8879 1.49045,-0.79491 1.19236,-5.26624 -0.29809,-5.26624 -0.39745,0 -0.69554,-0.99363 -0.7949,-2.18599 -0.0994,-1.09299 -0.69554,-2.38471 -1.39108,-2.78216 -0.79491,-0.49682 -0.79491,-0.89427 0,-1.09299 0.49681,-0.19873 0.69554,-0.89427 0.29809,-1.49045 -0.39746,-0.69554 -1.68917,0 -3.47771,1.98726 z"
       id="path80"
       style="fill:#ff0000;stroke:none" />
    <path
       d="m 355.8189,117.28939 c -4.57069,5.56432 0.0994,9.53884 5.26624,4.47133 3.17962,-3.27898 2.98089,-5.46496 -0.59618,-6.45859 -2.08662,-0.49682 -2.98089,-0.19873 -4.67006,1.98726 z"
       id="path82"
       style="fill:#ff0000;stroke:none" />
    <path
       d="m 155.99991,118.48174 c 0,0.49682 0.49681,0.69554 0.99363,0.39745 0.59618,-0.29808 0.99363,-0.7949 0.99363,-1.09299 0,-0.19872 -0.39745,-0.39745 -0.99363,-0.39745 -0.49682,0 -0.99363,0.49681 -0.99363,1.09299 z"
       id="path84"
       style="fill:#ff0000;stroke:none" />
    <path
       d="m 329.58707,119.17728 c -2.28535,2.6828 -0.99363,4.47134 1.8879,2.58344 2.6828,-1.78853 2.98089,-2.88153 0.99363,-3.67643 -0.79491,-0.29809 -2.08663,0.19873 -2.88153,1.09299 z"
       id="path86"
       style="fill:#ff0000;stroke:none" />
    <path
       d="m 319.55141,120.07155 c -0.79491,1.98726 2.08662,2.78216 3.77579,0.99363 1.39108,-1.29172 1.19236,-1.49044 -0.89426,-1.8879 -1.49045,-0.29809 -2.58344,0 -2.88153,0.89427 z"
       id="path88"
       style="fill:#ff0000;stroke:none" />
    <path
       d="m 220.38713,122.05881 c 0.69555,0.29809 1.58981,0.19873 1.8879,-0.0994 0.39745,-0.29809 -0.19872,-0.59618 -1.29172,-0.49682 -1.09299,0 -1.39108,0.29809 -0.59618,0.59618 z"
       id="path90"
       style="fill:#ff0000;stroke:none" />
    <path
       d="m 369.43163,122.55563 c -0.99363,2.6828 0.29809,3.67643 2.28535,1.98726 0.99363,-0.89427 1.8879,-1.98726 1.8879,-2.38472 0,-1.29172 -3.77579,-0.89426 -4.17325,0.39746 z"
       id="path92"
       style="fill:#ff0000;stroke:none" />
    <path
       d="m 199.42154,122.95308 c -0.29809,0.29809 -0.19872,1.58981 0.19873,2.78216 0.49681,1.09299 0.69554,3.17962 0.39745,4.5707 -0.19873,1.29172 0,3.08025 0.29809,3.97452 0.39745,0.7949 0.59618,2.28535 0.49681,3.17962 -0.0994,1.09299 0.39746,1.78853 1.29172,1.78853 0.89427,0 1.58981,0.39745 1.58981,0.99363 0,0.49681 1.39108,0.99363 3.08025,0.99363 1.68917,0 2.78217,-0.39745 2.38472,-0.99363 -0.29809,-0.59618 0,-0.99363 0.69554,-0.99363 0.89426,0 0.89426,-0.29809 -0.19873,-0.99363 -0.7949,-0.49682 -0.99363,-0.99363 -0.29809,-0.99363 1.68917,0 0.89427,-3.08025 -1.09299,-4.5707 -0.99363,-0.69554 -1.49045,-1.68917 -1.09299,-2.28535 0.29808,-0.59618 0.19872,-1.09299 -0.39746,-1.09299 -0.49681,0 -1.09299,0.49681 -1.29172,1.19236 -0.59617,1.68917 -2.78216,0 -2.78216,-2.28535 0,-1.19236 0.69554,-1.8879 1.98726,-1.8879 1.39108,0 1.78853,-0.49682 1.29172,-1.58981 -0.49682,-1.29172 -0.69554,-1.29172 -1.39108,-0.19872 -0.69554,0.99363 -0.89427,0.89426 -0.89427,-0.49682 0,-1.58981 -2.98089,-2.38471 -4.27261,-1.09299 z"
       id="path94"
       style="fill:#ff0000;stroke:none" />
    <path
       d="m 260.13233,123.05244 c 0.59618,0.19873 0.99363,0.89427 0.69554,1.29172 -1.09299,1.78853 3.27898,7.84968 5.26624,7.15414 0.69555,-0.19873 1.093,0 0.99363,0.49681 -0.19872,0.39745 0.19873,0.89427 0.69555,0.99363 1.09299,0.29809 1.09299,-0.99363 0,-4.47133 -0.39746,-1.19236 -1.093,-2.18599 -1.68918,-2.18599 -0.49681,0 -1.78853,-0.89427 -2.98089,-1.98726 -1.19235,-1.09299 -2.6828,-1.98726 -3.17961,-1.8879 -0.59618,0 -0.49682,0.29809 0.19872,0.59618 z"
       id="path96"
       style="fill:#ff0000;stroke:none" />
    <path
       d="m 221.08268,124.34416 c 0.29808,0.49681 0.7949,0.99363 1.09299,0.99363 0.19872,0 0.39745,-0.49682 0.39745,-0.99363 0,-0.59618 -0.49681,-0.99363 -1.09299,-0.99363 -0.49682,0 -0.69554,0.39745 -0.39745,0.99363 z"
       id="path98"
       style="fill:#ff0000;stroke:none" />
    <path
       d="m 375.89023,124.04607 c -1.19236,0.19873 -2.38471,1.09299 -2.6828,1.98726 -0.39745,1.09299 -0.19873,1.39108 0.89426,0.89427 0.89427,-0.29809 1.8879,0.29809 2.48408,1.39108 0.7949,1.49044 0.7949,1.98726 -0.0994,1.98726 -0.69554,0 -0.99363,0.19873 -0.69554,0.49681 0.99363,0.99363 6.65732,-2.58343 6.1605,-3.97452 -0.29809,-0.7949 -1.19235,-1.09299 -2.18598,-0.7949 -1.093,0.49682 -1.39109,0.19873 -0.89427,-0.99363 0.29809,-0.89427 0.29809,-1.58981 -0.0994,-1.58981 -0.39746,0.0994 -1.68917,0.39745 -2.88153,0.59618 z"
       id="path100"
       style="fill:#ff0000;stroke:none" />
    <path
       d="m 155.99991,125.73524 c 0,0.79491 0.69554,1.58981 1.49045,1.98726 1.68917,0.59618 1.78853,0.39745 0.89426,-1.78853 -0.7949,-1.98726 -2.38471,-2.08663 -2.38471,-0.19873 z"
       id="path102"
       style="fill:#ff0000;stroke:none" />
    <path
       d="m 214.32599,124.94034 c -0.59618,0.69554 0.29809,4.37197 1.19236,4.37197 0.99363,0 1.09299,-3.87516 0.19872,-4.47134 -0.49681,-0.19872 -1.09299,-0.19872 -1.39108,0.0994 z"
       id="path104"
       style="fill:#ff0000;stroke:none" />
    <path
       d="m 316.57052,126.62951 c -1.09299,0.7949 -1.49045,1.68917 -0.99363,1.98726 1.39108,0.7949 3.67643,-0.7949 3.27898,-2.18599 -0.29809,-0.7949 -0.99363,-0.7949 -2.28535,0.19873 z"
       id="path106"
       style="fill:#ff0000;stroke:none" />
    <path
       d="m 346.77687,130.90212 c 0,0.7949 -0.39745,1.39108 -0.7949,1.39108 -0.39746,0 -0.79491,0.89427 -0.89427,1.98726 -0.0994,1.09299 0.19872,1.78853 0.69554,1.49044 0.49681,-0.29808 1.09299,-0.0994 1.49044,0.49682 0.59618,0.89427 -1.5898,1.49044 -3.87515,1.09299 -0.49682,-0.0994 -0.59618,0.49682 -0.29809,1.39108 0.39745,0.99363 0.0994,1.49045 -1.09299,1.49045 -1.39109,0 -1.39109,0.19873 -0.29809,0.89427 0.89426,0.59617 2.38471,0.49681 3.87515,-0.19873 1.39109,-0.69554 1.8879,-1.29172 1.19236,-1.49044 -0.69554,-0.29809 0.59618,-1.29172 2.98089,-2.38472 3.17962,-1.49044 3.87516,-2.18598 2.88153,-2.88152 -0.79491,-0.49682 -1.49045,-0.39746 -1.68917,0.0994 -0.49682,1.39108 -3.17962,1.29172 -3.17962,-0.0994 0,-0.59618 0.89427,-1.29172 1.98726,-1.58981 2.88153,-0.79491 2.48408,-3.08025 -0.49681,-3.08025 -1.49045,0 -2.48408,0.59617 -2.48408,1.39108 z"
       id="path108"
       style="fill:#ff0000;stroke:none" />
    <path
       d="m 175.07761,139.04988 c -0.69555,0.89427 -0.99363,1.093 -0.59618,0.29809 0.39745,-0.89426 0.19872,-1.19235 -0.59618,-0.89426 -0.7949,0.19872 -1.49044,0.89426 -1.68917,1.39108 -0.39745,1.29172 3.4777,1.58981 4.17324,0.29809 0.39746,-0.49682 1.093,-0.89427 1.58981,-0.89427 0.59618,0 0.79491,0.39745 0.49682,0.7949 -0.79491,1.39109 5.66369,7.45223 6.75668,6.4586 0.29809,-0.39745 0.59618,0 0.59618,0.69554 0,0.69554 0.29809,1.09299 0.59618,0.69554 0.89427,-0.89427 -4.5707,-7.65095 -7.55159,-9.1414 -2.28535,-1.19235 -2.78216,-1.09299 -3.77579,0.29809 z"
       id="path110"
       style="fill:#ff0000;stroke:none" />
    <path
       d="m 159.97443,140.63969 c 0,0.19873 0.69554,0.59618 1.49044,0.99363 0.79491,0.29809 1.49045,0.0994 1.49045,-0.39745 0,-0.59618 -0.69554,-0.99363 -1.49045,-0.99363 -0.7949,0 -1.49044,0.19873 -1.49044,0.39745 z"
       id="path112"
       style="fill:#ff0000;stroke:none" />
    <path
       d="m 314.98071,141.23587 c 0,0.49681 0.49682,0.99363 1.09299,0.99363 0.49682,0 0.69554,-0.49682 0.39745,-0.99363 -0.29808,-0.59618 -0.7949,-0.99363 -1.09299,-0.99363 -0.19872,0 -0.39745,0.39745 -0.39745,0.99363 z"
       id="path114"
       style="fill:#ff0000;stroke:none" />
    <path
       d="m 163.94895,142.32886 c 0,0.49682 0.49682,0.69554 0.99363,0.39745 0.59618,-0.29808 0.99363,-0.7949 0.99363,-1.09299 0,-0.19872 -0.39745,-0.39745 -0.99363,-0.39745 -0.49681,0 -0.99363,0.49681 -0.99363,1.09299 z"
       id="path116"
       style="fill:#ff0000;stroke:none" />
    <path
       d="m 337.33739,144.21676 c 0.29808,0.49681 0.7949,0.99363 1.09299,0.99363 0.19872,0 0.39745,-0.49682 0.39745,-0.99363 0,-0.59618 -0.49681,-0.99363 -1.09299,-0.99363 -0.49682,0 -0.69554,0.39745 -0.39745,0.99363 z"
       id="path118"
       style="fill:#ff0000;stroke:none" />
    <path
       d="m 145.86488,146.89956 c 0.59618,0.19873 0.99363,0.89427 0.69554,1.29172 -0.69554,1.19236 7.05478,8.84331 8.14777,8.0484 0.39745,-0.29809 0.7949,-1.58981 0.7949,-2.78216 0,-2.48408 -6.1605,-7.35286 -9.14139,-7.15414 -1.09299,0 -1.29172,0.29809 -0.49682,0.59618 z"
       id="path120"
       style="fill:#ff0000;stroke:none" />
    <path
       d="m 385.52844,150.17854 c -0.7949,0.49681 -0.99363,0.99363 -0.49681,0.99363 0.59617,0 1.68917,-0.49682 2.48407,-0.99363 0.7949,-0.49682 1.09299,-0.99363 0.49681,-0.99363 -0.49681,0 -1.68917,0.49681 -2.48407,0.99363 z"
       id="path122"
       style="fill:#ff0000;stroke:none" />
    <path
       d="m 381.55392,151.3709 c 0,0.89426 0.49682,1.98726 0.99363,2.28534 1.29172,0.79491 1.29172,-0.49681 0,-2.48407 -0.7949,-1.29172 -0.99363,-1.29172 -0.99363,0.19873 z"
       id="path124"
       style="fill:#ff0000;stroke:none" />
    <path
       d="m 379.06985,152.1658 c 0.29808,0.49681 0.7949,0.99363 1.09299,0.99363 0.19872,0 0.39745,-0.49682 0.39745,-0.99363 0,-0.59618 -0.49681,-0.99363 -1.09299,-0.99363 -0.49682,0 -0.69554,0.39745 -0.39745,0.99363 z"
       id="path126"
       style="fill:#ff0000;stroke:none" />
    <path
       d="m 381.95137,156.04096 c -5.16687,2.98089 -10.23439,3.67643 -11.62547,1.68917 -0.59618,-0.79491 -0.99363,-0.79491 -1.39108,0.0994 -0.19873,0.69554 -1.19236,1.29172 -2.08662,1.29172 -1.49045,0 -1.49045,0.19873 -0.0994,1.49044 1.19236,1.19236 2.18599,1.39109 4.17325,0.59618 1.68917,-0.69554 2.78216,-0.69554 3.17961,-0.0994 0.39746,0.59618 0,0.99363 -0.69554,1.09299 -0.69554,0 -0.39745,0.39745 0.69554,0.89427 1.98726,0.89427 1.98726,0.89427 0,0.89427 -2.18598,0.0994 -4.47133,1.88789 -4.47133,3.37834 0,1.49044 6.65732,0.0994 11.32738,-2.28535 5.86242,-3.08025 8.24713,-5.86242 7.75032,-9.1414 -0.19873,-1.49044 -0.69555,-2.78216 -1.093,-2.78216 -0.29809,0 -2.88152,1.29172 -5.66369,2.88153 z"
       id="path128"
       style="fill:#ff0000;stroke:none" />
    <path
       d="m 135.63049,157.13395 c 0.29809,0.49681 0.79491,0.99363 1.093,0.99363 0.19872,0 0.39745,-0.49682 0.39745,-0.99363 0,-0.59618 -0.49681,-0.99363 -1.09299,-0.99363 -0.49682,0 -0.69554,0.39745 -0.39746,0.99363 z"
       id="path130"
       style="fill:#ff0000;stroke:none" />
    <path
       d="m 139.30693,160.51229 c 0.69554,0.79491 1.5898,1.19236 1.98726,0.99363 0.39745,-0.19872 0.89426,0 1.29171,0.59618 0.29809,0.49681 1.39109,0.99363 2.28535,0.99363 0.99363,-0.0994 0.29809,-0.89427 -1.78853,-1.98726 -4.17325,-2.28535 -5.46496,-2.48408 -3.77579,-0.59618 z"
       id="path132"
       style="fill:#ff0000;stroke:none" />
    <path
       d="m 360.68769,159.51866 c 0,0.19873 0.89427,0.59618 1.98726,0.89427 1.09299,0.29809 1.98726,0.0994 1.98726,-0.39745 0,-0.49682 -0.89427,-0.89427 -1.98726,-0.89427 -1.09299,0 -1.98726,0.19873 -1.98726,0.39745 z"
       id="path134"
       style="fill:#ff0000;stroke:none" />
    <path
       d="m 119.2356,162.1021 c 1.98726,1.29172 3.27898,1.29172 2.48408,0 -0.29809,-0.59618 -1.39109,-0.99363 -2.28535,-0.99363 -1.49045,0 -1.49045,0.19873 -0.19873,0.99363 z"
       id="path136"
       style="fill:#ff0000;stroke:none" />
    <path
       d="m 396.45837,162.1021 c 0,0.49681 0.49682,0.99363 0.99363,0.99363 0.59618,0 0.99363,-0.49682 0.99363,-0.99363 0,-0.59618 -0.39745,-0.99363 -0.99363,-0.99363 -0.49681,0 -0.99363,0.39745 -0.99363,0.99363 z"
       id="path138"
       style="fill:#ff0000;stroke:none" />
    <path
       d="m 365.15903,163.09573 c 0.29808,0.49681 1.09299,0.99363 1.5898,0.99363 0.59618,0 0.69554,-0.49682 0.39746,-0.99363 -0.29809,-0.59618 -1.093,-0.99363 -1.58981,-0.99363 -0.59618,0 -0.69554,0.39745 -0.39745,0.99363 z"
       id="path140"
       style="fill:#ff0000;stroke:none" />
    <path
       d="m 134.14005,164.48681 c 0,0.89427 0.49681,1.58981 0.99363,1.58981 0.59618,0 0.99363,-0.39745 0.99363,-0.89427 0,-0.59618 -0.39745,-1.29172 -0.99363,-1.58981 -0.49682,-0.29808 -0.99363,0.0994 -0.99363,0.89427 z"
       id="path142"
       style="fill:#ff0000;stroke:none" />
    <path
       d="m 392.48385,164.08936 c -1.29172,0.7949 -1.29172,0.99363 0.19873,0.99363 0.89426,0 1.98726,-0.49682 2.28535,-0.99363 0.7949,-1.29172 -0.49682,-1.29172 -2.48408,0 z"
       id="path144"
       style="fill:#ff0000;stroke:none" />
    <path
       d="m 339.82146,165.08299 c 0,0.49681 0.49682,0.99363 1.09299,0.99363 0.49682,0 0.69554,-0.49682 0.39746,-0.99363 -0.29809,-0.59618 -0.79491,-0.99363 -1.093,-0.99363 -0.19872,0 -0.39745,0.39745 -0.39745,0.99363 z"
       id="path146"
       style="fill:#ff0000;stroke:none" />
    <path
       d="m 139.1082,166.07662 c 0,0.49681 0.49681,0.99363 0.99363,0.99363 0.59618,0 0.99363,-0.49682 0.99363,-0.99363 0,-0.59618 -0.39745,-0.99363 -0.99363,-0.99363 -0.49682,0 -0.99363,0.39745 -0.99363,0.99363 z"
       id="path148"
       style="fill:#ff0000;stroke:none" />
    <path
       d="m 358.79979,165.97726 c -0.7949,0.59617 -0.89426,1.09299 -0.29809,1.49044 0.59618,0.29809 1.39109,0.0994 1.68917,-0.49681 0.89427,-1.39109 0.19873,-1.98726 -1.39108,-0.99363 z"
       id="path150"
       style="fill:#ff0000;stroke:none" />
    <path
       d="m 364.1654,168.16324 c -1.58981,1.19236 -2.18599,1.78854 -1.19236,1.49045 0.99363,-0.29809 2.48407,-0.59618 3.27898,-0.59618 0.89427,0 1.29172,-0.39745 0.99363,-0.89427 -0.39745,-0.49681 0,-1.19235 0.59618,-1.39108 0.69554,-0.29809 0.89426,-0.59618 0.29809,-0.59618 -0.49682,-0.0994 -2.28535,0.89427 -3.97452,1.98726 z"
       id="path152"
       style="fill:#ff0000;stroke:none" />
    <path
       d="m 154.50946,168.06388 c -0.29808,0.49681 -0.0994,0.99363 0.39746,0.99363 0.59617,0 1.09299,-0.49682 1.09299,-0.99363 0,-0.59618 -0.19873,-0.99363 -0.39745,-0.99363 -0.29809,0 -0.79491,0.39745 -1.093,0.99363 z"
       id="path154"
       style="fill:#ff0000;stroke:none" />
    <path
       d="m 348.26731,170.1505 c -0.39745,0.59618 -0.49681,1.19236 -0.19872,1.49045 0.69554,0.69554 3.67643,-0.69554 3.67643,-1.68917 0,-1.29172 -2.6828,-1.093 -3.47771,0.19872 z"
       id="path156"
       style="fill:#ff0000;stroke:none" />
    <path
       d="m 335.25076,176.90719 c 0.29809,0.49681 -0.0994,1.09299 -0.89427,1.49044 -0.7949,0.29809 -1.49044,0.99363 -1.49044,1.58981 0,0.49681 0.89427,0.19873 1.98726,-0.69554 2.18599,-1.8879 2.58344,-3.27898 0.89427,-3.27898 -0.49682,0 -0.79491,0.39745 -0.49682,0.89427 z"
       id="path158"
       style="fill:#ff0000;stroke:none" />
    <path
       d="m 111.9821,180.0868 c 0.79491,0.79491 1.58981,0.79491 2.98089,0 1.58981,-0.89426 1.39108,-0.99363 -1.09299,-1.09299 -2.18599,0 -2.6828,0.29809 -1.8879,1.09299 z"
       id="path160"
       style="fill:#ff0000;stroke:none" />
    <path
       d="m 368.33864,180.48425 c -0.99363,0.69555 -2.58344,1.093 -3.57707,0.79491 -1.09299,-0.29809 -1.78853,0.0994 -1.78853,1.09299 0,0.89427 0.39745,1.58981 0.89427,1.58981 1.39108,0 0.89426,4.76942 -0.79491,6.35923 -0.7949,0.89427 -2.38471,1.58981 -3.4777,1.58981 -2.18599,0 -3.17962,1.78853 -2.6828,5.06751 l 0.29809,2.28535 2.48407,-2.58344 c 4.27261,-4.57069 5.46497,-6.1605 5.26624,-6.95541 -0.19873,-0.49681 0.29809,-0.7949 0.99363,-0.89426 3.57707,-0.19873 5.26624,-0.99363 6.95541,-3.27898 0.99363,-1.39108 2.48407,-2.58344 3.27898,-2.58344 0.7949,0 1.39108,-0.69554 1.39108,-1.49045 0,-0.7949 -0.39745,-1.49044 -0.89427,-1.49044 -0.49681,0 -1.09299,0.69554 -1.49044,1.49044 -0.29809,0.79491 -1.29172,1.49045 -2.08663,1.49045 -0.89426,0 -1.29171,-0.49682 -0.99362,-0.99363 0.39745,-0.59618 1.09299,-0.7949 1.5898,-0.49682 0.49682,0.39746 0.89427,0.0994 0.89427,-0.49681 0,-0.69554 -0.59618,-0.99363 -1.39108,-0.69554 -0.69554,0.29809 -1.68917,0.19872 -2.18599,-0.29809 -0.49681,-0.49682 -1.68917,-0.29809 -2.6828,0.49681 z"
       id="path162"
       style="fill:#ff0000;stroke:none" />
    <path
       d="m 126.78719,184.16069 c -1.49045,2.08662 -1.49045,2.38471 0.0994,3.4777 1.98726,1.49045 4.67006,1.68917 3.7758,0.29809 -0.29809,-0.59618 -0.19873,-0.99363 0.29808,-0.99363 0.49682,0 0.89427,-0.99363 0.79491,-2.18599 -0.0994,-3.08025 -3.08026,-3.37834 -4.96815,-0.59617 z"
       id="path164"
       style="fill:#ff0000;stroke:none" />
    <path
       d="m 134.43814,186.74412 c 0,1.19236 0.49681,2.18599 0.89427,2.18599 1.09299,0 0.99363,-1.19236 -0.19873,-2.98089 -0.69554,-1.19236 -0.89427,-0.99363 -0.69554,0.7949 z"
       id="path166"
       style="fill:#ff0000;stroke:none" />
    <path
       d="m 173.38844,189.02947 c -0.39746,0.59618 -0.49682,1.29172 -0.19873,1.58981 0.69554,0.69554 2.6828,-0.59618 2.6828,-1.78853 0,-1.19236 -1.68917,-1.19236 -2.48407,0.19872 z"
       id="path168"
       style="fill:#ff0000;stroke:none" />
    <path
       d="m 394.47111,190.91737 c 0,0.49681 0.39745,0.99363 0.89427,0.99363 0.59618,0 1.29172,-0.49682 1.58981,-0.99363 0.29808,-0.59618 -0.0994,-0.99363 -0.89427,-0.99363 -0.89427,0 -1.58981,0.39745 -1.58981,0.99363 z"
       id="path170"
       style="fill:#ff0000;stroke:none" />
    <path
       d="m 368.33864,194.29571 c -0.7949,1.98726 1.49045,2.58344 3.7758,0.99363 0.99362,-0.7949 1.68917,-1.39108 1.39108,-1.49044 -0.19873,0 -1.39108,-0.19873 -2.58344,-0.49682 -1.19236,-0.19872 -2.28535,0.19873 -2.58344,0.99363 z"
       id="path172"
       style="fill:#ff0000;stroke:none" />
    <path
       d="m 96.38211,194.79253 c 0,1.09299 1.887897,2.38471 3.77579,2.6828 0.59618,0.0994 1.19236,-0.19873 1.19236,-0.69554 0,-0.49682 -0.69554,-0.89427 -1.490445,-0.89427 -0.794904,0 -1.490445,-0.49682 -1.490445,-0.99363 0,-0.59618 -0.397452,-0.99363 -0.99363,-0.99363 -0.496815,0 -0.99363,0.39745 -0.99363,0.89427 z"
       id="path174"
       style="fill:#ff0000;stroke:none" />
    <path
       d="m 364.76157,196.4817 c 0,1.09299 0.29809,1.39108 0.59618,0.59618 0.29809,-0.69555 0.19873,-1.58981 -0.0994,-1.8879 -0.29809,-0.39745 -0.59618,0.19872 -0.49682,1.29172 z"
       id="path176"
       style="fill:#ff0000;stroke:none" />
    <path
       d="m 111.78338,200.85367 c 0.39745,0.59618 1.09299,0.7949 1.5898,0.49681 1.39109,-0.89426 1.093,-1.49044 -0.69554,-1.49044 -0.7949,0 -1.19235,0.49681 -0.89426,0.99363 z"
       id="path178"
       style="fill:#ff0000;stroke:none" />
    <path
       d="m 256.15781,201.54921 c 0.69555,0.29809 1.58981,0.19873 1.8879,-0.0994 0.39745,-0.29809 -0.19872,-0.59618 -1.29172,-0.49682 -1.09299,0 -1.39108,0.29809 -0.59618,0.59618 z"
       id="path180"
       style="fill:#ff0000;stroke:none" />
    <path
       d="m 394.27238,203.23838 c -1.5898,0.79491 -2.78216,1.09299 -2.78216,0.69554 0,-0.49681 -1.09299,-0.59618 -2.48408,-0.29809 -3.17961,0.59618 -3.27897,1.98726 -0.0994,1.68917 1.39108,-0.19872 3.27898,0.29809 4.17325,0.99363 1.58981,1.093 1.49044,1.29172 -1.39108,1.98726 -1.78854,0.29809 -3.17962,0.99363 -3.17962,1.49045 0,0.49681 1.49044,0.39745 3.27898,-0.19873 1.68917,-0.49681 4.07388,-1.19235 5.16688,-1.49044 1.49044,-0.29809 1.98726,-1.19236 1.88789,-3.08025 -0.0994,-3.17962 -1.09299,-3.57707 -4.5707,-1.78854 z"
       id="path182"
       style="fill:#ff0000;stroke:none" />
    <path
       d="m 256.25718,205.02692 c -0.79491,2.88152 -0.69554,4.67006 0.39745,4.17324 1.39108,-0.49681 1.78853,-4.37197 0.49681,-4.37197 -0.39745,0 -0.7949,0.0994 -0.89426,0.19873 z"
       id="path184"
       style="fill:#ff0000;stroke:none" />
    <path
       d="m 383.14373,206.31863 c 0.39745,0.79491 0.99363,1.19236 1.49044,0.89427 1.093,-0.59618 0.19873,-2.38471 -1.09299,-2.38471 -0.49681,0 -0.69554,0.69554 -0.39745,1.49044 z"
       id="path186"
       style="fill:#ff0000;stroke:none" />
    <path
       d="m 415.93352,205.72246 c -0.39745,0.49681 -0.19873,1.19235 0.29809,1.49044 0.49681,0.39745 1.19235,0.19873 1.49044,-0.29809 0.39745,-0.49681 0.19873,-1.19235 -0.29809,-1.49044 -0.49681,-0.39745 -1.19235,-0.19873 -1.49044,0.29809 z"
       id="path188"
       style="fill:#ff0000;stroke:none" />
    <path
       d="m 93.40122,206.81545 c 0,0.49681 0.397452,0.99363 0.894267,0.99363 0.596178,0 1.291719,-0.49682 1.589808,-0.99363 0.298089,-0.59618 -0.09936,-0.99363 -0.894267,-0.99363 -0.894267,0 -1.589808,0.39745 -1.589808,0.99363 z"
       id="path190"
       style="fill:#ff0000;stroke:none" />
    <path
       d="m 227.54127,207.31226 c 0,0.79491 0.39745,1.49045 0.99363,1.49045 0.49682,0 0.69554,-0.69554 0.39745,-1.49045 -0.39745,-0.7949 -0.7949,-1.49044 -0.99363,-1.49044 -0.19872,0 -0.39745,0.69554 -0.39745,1.49044 z"
       id="path192"
       style="fill:#ff0000;stroke:none" />
    <path
       d="m 245.02916,207.41163 c -0.79491,1.98726 -0.79491,2.38471 0.19872,2.38471 0.39746,0 0.79491,-0.89427 0.89427,-1.98726 0.19873,-2.38471 -0.29809,-2.58344 -1.09299,-0.39745 z"
       id="path194"
       style="fill:#ff0000;stroke:none" />
    <path
       d="m 246.71833,210.59124 c -0.69554,0.39746 -0.89427,1.29172 -0.39745,2.08663 0.59617,0.99363 0.99363,0.89426 1.49044,-0.49682 0.79491,-1.98726 0.39745,-2.48407 -1.09299,-1.58981 z"
       id="path196"
       style="fill:#ff0000;stroke:none" />
    <path
       d="m 385.82653,210.49188 c -0.69554,0.29809 -1.29172,0.89427 -1.29172,1.39108 0,0.59618 0.49682,0.69554 0.99363,0.39745 0.59618,-0.29808 0.99363,-0.0994 0.99363,0.39746 0,0.59617 0.69554,1.09299 1.49044,1.09299 0.79491,0 1.49045,-0.39745 1.49045,-0.89427 0,-1.39108 -2.38471,-2.88152 -3.67643,-2.38471 z"
       id="path198"
       style="fill:#ff0000;stroke:none" />
    <path
       d="m 381.55392,211.7836 c 0,0.49681 0.49682,0.99363 1.09299,0.99363 0.49682,0 0.69554,-0.49682 0.39746,-0.99363 -0.29809,-0.59618 -0.79491,-0.99363 -1.093,-0.99363 -0.19872,0 -0.39745,0.39745 -0.39745,0.99363 z"
       id="path200"
       style="fill:#ff0000;stroke:none" />
    <path
       d="m 189.78333,213.87022 c 0,0.49682 0.49681,0.69554 0.99363,0.39745 0.59618,-0.29808 0.99363,-0.7949 0.99363,-1.09299 0,-0.19872 -0.39745,-0.39745 -0.99363,-0.39745 -0.49682,0 -0.99363,0.49681 -0.99363,1.09299 z"
       id="path202"
       style="fill:#ff0000;stroke:none" />
    <path
       d="m 240.95528,215.75812 c -0.29809,0.49681 -0.0994,0.99363 0.39745,0.99363 0.59618,0 1.09299,-0.49682 1.09299,-0.99363 0,-0.59618 -0.19873,-0.99363 -0.39745,-0.99363 -0.29809,0 -0.79491,0.39745 -1.09299,0.99363 z"
       id="path204"
       style="fill:#ff0000;stroke:none" />
    <path
       d="m 104.52988,219.93137 c 0.19872,0.59617 1.49044,1.29171 2.88152,1.39108 2.28535,0.39745 2.28535,0.29809 0.49682,-1.093 -2.38471,-1.78853 -3.87516,-1.88789 -3.37834,-0.29808 z"
       id="path206"
       style="fill:#ff0000;stroke:none" />
    <path
       d="m 76.708236,221.7199 c 0.496815,1.58981 3.577068,2.18599 4.371972,0.89427 0.298089,-0.49682 0.09936,-0.89427 -0.496815,-0.89427 -0.496815,0 -1.689171,-0.29809 -2.682801,-0.69554 -1.092993,-0.39745 -1.490445,-0.19873 -1.192356,0.69554 z"
       id="path208"
       style="fill:#ff0000;stroke:none" />
    <path
       d="m 240.85591,222.41544 c -1.09299,1.78853 -1.09299,4.07388 0.0994,7.05477 1.09299,2.78217 3.77579,-2.28535 2.98089,-5.76305 -0.79491,-3.37834 -1.58981,-3.67643 -3.08026,-1.29172 z"
       id="path210"
       style="fill:#ff0000;stroke:none" />
    <path
       d="m 102.34389,223.70716 c 0,0.49681 0.49682,0.99363 1.09299,0.99363 0.49682,0 0.69554,-0.49682 0.39746,-0.99363 -0.29809,-0.59618 -0.79491,-0.99363 -1.093,-0.99363 -0.19872,0 -0.39745,0.39745 -0.39745,0.99363 z"
       id="path212"
       style="fill:#ff0000;stroke:none" />
    <path
       d="m 96.183384,228.37722 c 0.695541,0.29809 1.589808,0.19873 1.887897,-0.0994 0.397452,-0.29809 -0.198726,-0.59618 -1.291719,-0.49682 -1.092993,0 -1.391082,0.29809 -0.596178,0.59618 z"
       id="path214"
       style="fill:#ff0000;stroke:none" />
    <path
       d="m 389.20487,229.86767 c -0.7949,2.98089 -0.19873,3.37834 2.78217,1.78853 2.28534,-1.19236 2.28534,-1.39108 0.69554,-2.58344 -2.38472,-1.78853 -2.88153,-1.68917 -3.47771,0.79491 z"
       id="path216"
       style="fill:#ff0000;stroke:none" />
    <path
       d="m 80.48403,240.59887 c 0,0.49681 0.496815,0.99363 1.092993,0.99363 0.496815,0 0.695541,-0.49682 0.397452,-0.99363 -0.298089,-0.59618 -0.794904,-0.99363 -1.092993,-0.99363 -0.198726,0 -0.397452,0.39745 -0.397452,0.99363 z"
       id="path218"
       style="fill:#ff0000;stroke:none" />
    <path
       d="m 388.11188,244.17594 c -1.093,2.78216 -0.69554,3.17961 2.78216,2.6828 1.8879,-0.19873 4.37197,0.0994 5.56433,0.69554 1.58981,0.89427 2.38471,0.7949 3.57707,-0.49682 0.7949,-0.7949 2.18598,-1.49044 2.98089,-1.49044 2.58344,0 1.39108,-1.68917 -1.29172,-1.8879 -1.58981,-0.0994 -3.87516,-0.29809 -5.26624,-0.49681 -1.39108,-0.19873 -3.08025,0.19872 -3.87516,0.7949 -1.09299,0.79491 -1.49044,0.79491 -1.78853,-0.19872 -0.59618,-1.68918 -1.98726,-1.49045 -2.6828,0.39745 z"
       id="path220"
       style="fill:#ff0000;stroke:none" />
    <path
       d="m 92.40759,246.36192 c 0,0.39746 1.092993,0.89427 2.583438,0.99363 1.391082,0.0994 2.285349,-0.19872 1.887897,-0.7949 -0.695541,-1.19236 -4.471335,-1.39108 -4.471335,-0.19873 z"
       id="path222"
       style="fill:#ff0000;stroke:none" />
    <path
       d="m 89.824152,251.23071 c 0.99363,1.09299 3.577068,1.19236 3.577068,0.19873 0,-0.49682 -0.99363,-0.89427 -2.185986,-0.89427 -1.192356,0 -1.788534,0.29809 -1.391082,0.69554 z"
       id="path224"
       style="fill:#ff0000;stroke:none" />
    <path
       d="m 392.48385,254.50969 c 0,0.49681 0.49682,0.99363 0.99363,0.99363 0.59618,0 0.99363,-0.49682 0.99363,-0.99363 0,-0.59618 -0.39745,-0.99363 -0.99363,-0.99363 -0.49681,0 -0.99363,0.39745 -0.99363,0.99363 z"
       id="path226"
       style="fill:#ff0000;stroke:none" />
    <path
       d="m 396.16028,257.29185 c -0.89427,0.19873 -1.49044,0.79491 -1.19235,1.29172 0.7949,1.19236 4.47133,1.19236 4.47133,0 0,-1.29172 -1.19236,-1.78853 -3.27898,-1.29172 z"
       id="path228"
       style="fill:#ff0000;stroke:none" />
    <path
       d="m 83.961735,258.48421 c -0.99363,1.58981 1.391082,2.98089 4.272609,2.38471 2.285349,-0.49681 2.782164,-0.89427 1.98726,-1.78853 -1.192356,-1.19236 -5.564328,-1.68917 -6.259869,-0.59618 z"
       id="path230"
       style="fill:#ff0000;stroke:none" />
    <path
       d="m 93.997398,260.17338 c -0.298089,0.39745 0.298089,1.29172 1.490445,2.08662 1.092993,0.79491 2.285349,1.093 2.583438,0.79491 0.397452,-0.29809 0.09936,-0.59618 -0.596178,-0.59618 -0.695541,0 -0.99363,-0.39745 -0.695541,-0.89427 0.695541,-0.99363 -1.887897,-2.28535 -2.782164,-1.39108 z"
       id="path232"
       style="fill:#ff0000;stroke:none" />
    <path
       d="m 390.69532,262.55809 c -2.68281,0.99363 -2.08663,2.58344 1.5898,3.97452 1.98726,0.79491 2.28535,1.19236 1.29172,1.78854 -2.28535,1.49044 -0.19872,3.08025 3.87516,3.08025 2.88153,0 4.17325,-0.49682 4.96815,-1.98726 0.59618,-1.09299 1.49044,-1.78853 2.08662,-1.49045 1.58981,1.093 0.99363,-0.69554 -0.7949,-2.08662 -2.38471,-1.78853 -3.08025,-1.68917 -3.57707,0.29809 -0.39745,1.68917 -0.49681,1.68917 -0.59618,0 -0.0994,-1.78853 -2.08662,-2.48407 -2.08662,-0.59618 0,0.49682 -0.99363,-0.0994 -2.18599,-1.49044 -1.88789,-1.98726 -2.6828,-2.28535 -4.57069,-1.49045 z"
       id="path234"
       style="fill:#ff0000;stroke:none" />
    <path
       d="m 413.44944,264.84344 c -0.89426,0.99363 -0.7949,1.49045 0.39746,1.98726 0.99363,0.39745 1.49044,-0.0994 1.49044,-1.39108 0,-2.38471 -0.39745,-2.48408 -1.8879,-0.59618 z"
       id="path236"
       style="fill:#ff0000;stroke:none" />
    <path
       d="m 104.82797,271.4014 c -0.29809,0.49681 -0.0994,0.99363 0.39745,0.99363 0.59618,0 1.09299,-0.49682 1.09299,-0.99363 0,-0.59618 -0.19873,-0.99363 -0.39745,-0.99363 -0.29809,0 -0.79491,0.39745 -1.09299,0.99363 z"
       id="path238"
       style="fill:#ff0000;stroke:none" />
    <path
       d="m 393.9743,273.98484 c -1.58981,0.7949 -2.28535,1.19235 -1.49045,0.99363 0.7949,-0.19873 2.28535,0.0994 3.17962,0.49681 0.99363,0.59618 1.88789,0.49682 2.38471,-0.19872 1.19235,-1.98726 -1.09299,-2.78217 -4.07388,-1.29172 z"
       id="path240"
       style="fill:#ff0000;stroke:none" />
    <path
       d="m 388.50933,275.37592 c 0,0.49681 0.49681,0.99363 0.99363,0.99363 0.59618,0 0.99363,-0.49682 0.99363,-0.99363 0,-0.59618 -0.39745,-0.99363 -0.99363,-0.99363 -0.49682,0 -0.99363,0.39745 -0.99363,0.99363 z"
       id="path242"
       style="fill:#ff0000;stroke:none" />
    <path
       d="m 106.31841,277.95936 c 0,0.7949 0.49682,1.19235 0.99363,0.89426 0.59618,-0.39745 0.7949,-1.09299 0.49682,-1.5898 -0.89427,-1.39109 -1.49045,-1.093 -1.49045,0.69554 z"
       id="path244"
       style="fill:#ff0000;stroke:none" />
    <path
       d="m 109.2993,277.95936 c 0,0.7949 0.49682,1.19235 0.99363,0.89426 0.59618,-0.29808 0.99363,-0.99362 0.99363,-1.5898 0,-0.49682 -0.39745,-0.89427 -0.99363,-0.89427 -0.49681,0 -0.99363,0.69554 -0.99363,1.58981 z"
       id="path246"
       style="fill:#ff0000;stroke:none" />
    <path
       d="m 387.01888,278.25745 c -0.29808,0.59617 0.29809,1.49044 1.39109,1.98726 2.6828,1.49044 3.08025,1.39108 3.08025,-0.89427 0,-2.08662 -3.27898,-2.88153 -4.47134,-1.09299 z"
       id="path248"
       style="fill:#ff0000;stroke:none" />
    <path
       d="m 412.35645,280.34407 c 0,0.49681 0.69554,0.99363 1.49045,0.99363 0.7949,0 1.49044,-0.49682 1.49044,-0.99363 0,-0.59618 -0.69554,-0.99363 -1.49044,-0.99363 -0.79491,0 -1.49045,0.39745 -1.49045,0.99363 z"
       id="path250"
       style="fill:#ff0000;stroke:none" />
    <path
       d="m 388.80742,290.67782 c 0.0994,3.97452 0.89427,4.47134 7.65095,5.16688 2.48408,0.29809 5.06751,0.69554 5.76305,0.89426 2.58344,0.89427 1.19236,-3.57706 -1.49044,-4.47133 -1.58981,-0.59618 -3.57707,-1.49045 -4.47134,-1.98726 -0.99363,-0.59618 -2.58343,-0.99363 -3.57706,-0.99363 -0.99363,0 -2.28535,-0.49682 -2.88153,-1.09299 -0.79491,-0.79491 -1.09299,-0.0994 -0.99363,2.48407 z"
       id="path252"
       style="fill:#ff0000;stroke:none" />
    <path
       d="m 119.73242,296.24215 c -0.29809,0.49681 -0.29809,0.99363 0.19872,1.09299 0.39745,0 1.8879,0.29809 3.17962,0.49682 2.78216,0.49681 2.58344,0.19872 -0.59618,-1.49045 -1.39108,-0.69554 -2.38471,-0.7949 -2.78216,-0.0994 z"
       id="path254"
       style="fill:#ff0000;stroke:none" />
    <path
       d="m 247.81132,301.70711 c 0.29809,0.79491 0.0994,1.49045 -0.49681,1.49045 -0.59618,0 -0.89427,0.59618 -0.59618,1.19236 0.19872,0.69554 0,2.08662 -0.49682,2.98089 -0.89426,1.78853 -0.49681,1.98726 2.68281,1.98726 3.37834,0 3.77579,-0.19873 2.58343,-1.49045 -0.59617,-0.7949 -0.7949,-1.58981 -0.49681,-1.98726 0.99363,-0.89427 -0.59618,-4.47133 -2.18599,-5.06751 -1.19235,-0.39745 -1.49044,-0.19873 -0.99363,0.89426 z"
       id="path256"
       style="fill:#ff0000;stroke:none" />
    <path
       d="m 109.00121,305.781 c -0.7949,0.89426 0.0994,2.38471 1.39108,2.38471 0.59618,0 0.79491,-0.39745 0.49682,-0.89427 -0.39745,-0.49681 0,-1.19235 0.59618,-1.39108 0.89426,-0.39745 0.7949,-0.59618 -0.29809,-0.59618 -0.89427,-0.0994 -1.8879,0.19873 -2.18599,0.49682 z"
       id="path258"
       style="fill:#ff0000;stroke:none" />
    <path
       d="m 121.81904,305.88036 c -0.29809,0.29809 -0.59618,1.29172 -0.59618,2.08662 0,0.89427 0.29809,1.19236 0.69554,0.89427 0.29809,-0.39745 1.19236,-0.19873 1.98726,0.39745 0.89427,0.89427 1.29172,0.79491 1.29172,0 0,-0.59618 0.99363,-1.09299 2.18599,-1.09299 1.29171,0 1.78853,-0.39745 1.29171,-0.89427 -1.39108,-1.19235 -6.06114,-2.18598 -6.85604,-1.39108 z"
       id="path260"
       style="fill:#ff0000;stroke:none" />
    <path
       d="m 127.78082,313.73004 c -0.89427,2.28535 -0.79491,2.38471 1.19235,2.28535 1.093,0 1.19236,-0.19873 0.39746,-0.59618 -0.99363,-0.39745 -0.99363,-0.79491 -0.0994,-1.8879 0.69554,-0.7949 0.69554,-1.39108 0.0994,-1.39108 -0.49682,0 -1.29172,0.69554 -1.58981,1.58981 z"
       id="path262"
       style="fill:#ff0000;stroke:none" />
    <path
       d="m 338.23165,314.52494 c -0.69554,1.8879 1.29172,5.56433 3.08026,5.56433 0.7949,0 1.49044,0.69554 1.49044,1.49044 0,1.29172 -0.39745,1.39109 -1.98726,0.49682 -1.39108,-0.69554 -1.98726,-0.69554 -1.98726,0 0,1.09299 3.57707,4.96815 4.5707,4.96815 0.39745,0 1.29172,0.7949 1.98726,1.68917 0.89426,1.19236 1.29172,1.39108 1.39108,0.49682 0,-0.89427 0.69554,-1.093 1.98726,-0.69555 2.58344,0.79491 2.58344,-0.89426 -0.0994,-3.57706 -1.19236,-1.19236 -2.18599,-2.58344 -2.28535,-3.27898 -0.0994,-0.59618 -1.19236,-2.18599 -2.38471,-3.37834 -1.29172,-1.29172 -1.98726,-2.68281 -1.68917,-3.08026 0.19872,-0.49681 -0.19873,-1.19235 -1.093,-1.49044 -2.18598,-0.79491 -2.38471,-0.79491 -2.98089,0.7949 z"
       id="path264"
       style="fill:#ff0000;stroke:none" />
    <path
       d="m 384.13736,315.51857 c 0.99363,0.79491 2.08662,1.19236 2.38471,0.99363 0.49681,-0.59618 -2.08662,-2.38471 -3.37834,-2.38471 -0.59618,0 -0.0994,0.59618 0.99363,1.39108 z"
       id="path266"
       style="fill:#ff0000;stroke:none" />
    <path
       d="m 387.5157,317.50583 c 0,0.89427 0.69554,1.58981 1.49044,1.58981 0.79491,0 1.49045,0.39745 1.49045,0.99363 0,0.49682 0.49682,0.99363 1.09299,0.99363 1.58981,0 0.59618,-2.08662 -1.88789,-3.77579 -1.98726,-1.29172 -2.18599,-1.29172 -2.18599,0.19872 z"
       id="path268"
       style="fill:#ff0000;stroke:none" />
    <path
       d="m 411.76027,320.18863 c -0.29809,0.59618 -1.68917,0.79491 -3.08025,0.39746 -1.58981,-0.39746 -2.18599,-0.19873 -1.78853,0.49681 0.29808,0.49681 0.0994,0.99363 -0.49682,0.99363 -0.69554,0 -0.49681,0.59618 0.39745,1.49044 1.78854,1.78854 4.67006,1.98726 4.37197,0.19873 -0.19872,-0.59618 0.39746,-1.29172 1.19236,-1.29172 0.7949,-0.0994 2.08662,-0.19872 2.88153,-0.29809 1.09299,-0.0994 1.09299,-0.39745 0.0994,-1.5898 -1.49044,-1.78854 -2.58344,-1.8879 -3.57707,-0.39746 z"
       id="path270"
       style="fill:#ff0000;stroke:none" />
    <path
       d="m 395.46474,322.87143 c 0,0.49682 0.59618,0.89427 1.29172,0.89427 0.59618,0 2.28535,0.29809 3.67643,0.69554 2.28535,0.59618 2.38471,0.59618 0.49682,-0.59618 -2.48408,-1.49044 -5.46497,-2.08662 -5.46497,-0.99363 z"
       id="path272"
       style="fill:#ff0000;stroke:none" />
    <path
       d="m 402.42015,328.23704 c 0,0.39745 0.69554,0.7949 1.49044,0.7949 0.79491,0 1.49045,-0.39745 1.49045,-0.7949 0,-0.49682 -0.69554,-0.89427 -1.49045,-0.89427 -0.7949,0 -1.49044,0.39745 -1.49044,0.89427 z"
       id="path274"
       style="fill:#ff0000;stroke:none" />
    <path
       d="m 359.69406,338.07397 c 0.69554,1.093 1.39108,1.78854 1.68917,1.49045 0.7949,-0.79491 -0.49681,-3.57707 -1.68917,-3.57707 -0.69554,0 -0.69554,0.59618 0,2.08662 z"
       id="path276"
       style="fill:#ff0000;stroke:none" />
    <path
       d="m 373.90297,342.44594 c 1.29172,2.68281 3.67643,3.37835 3.67643,0.99363 0,-0.7949 -0.69554,-1.49044 -1.49045,-1.49044 -0.7949,0 -1.49044,-0.49682 -1.49044,-0.99363 0,-0.59618 -0.39745,-0.99363 -0.89427,-0.99363 -0.49681,0 -0.39745,1.09299 0.19873,2.48407 z"
       id="path278"
       style="fill:#ff0000;stroke:none" />
    <path
       d="m 379.96411,341.84977 c -0.39745,0.89426 -0.7949,1.88789 -0.7949,2.28535 -0.0994,0.29808 -0.39745,0.99363 -0.79491,1.39108 -1.29171,1.19235 -0.89426,4.17324 0.79491,5.76305 1.78853,1.78854 3.37834,2.08662 3.37834,0.49682 0,-0.49682 -0.59618,-0.69554 -1.19236,-0.39746 -0.69554,0.39746 -0.19872,-0.29808 1.093,-1.39108 1.29172,-1.19235 1.78853,-2.08662 1.19235,-2.08662 -0.69554,0 -0.89426,-0.49682 -0.59617,-0.99363 0.7949,-1.29172 2.48407,-1.29172 2.48407,0.0994 0,1.49045 3.57707,5.96178 4.27261,5.26624 0.19872,-0.29809 -0.69554,-3.08025 -2.08662,-6.25987 -1.98726,-4.5707 -2.98089,-5.86241 -4.76943,-5.86241 -1.29172,0 -2.58344,0.7949 -2.98089,1.68917 z m 1.98726,5.56432 c 0.29809,0.89427 0,1.49045 -0.7949,1.49045 -0.69554,0 -1.29172,-0.69554 -1.29172,-1.49045 0,-0.7949 0.39745,-1.49044 0.7949,-1.49044 0.39746,0 0.89427,0.69554 1.29172,1.49044 z"
       id="path280"
       style="fill:#ff0000;stroke:none" />
    <path
       d="m 320.14759,346.91728 c 0.69554,0.99363 1.39108,1.68917 1.68917,1.49045 0.19872,-0.29809 0.99363,0 1.78853,0.59617 1.98726,1.68917 1.58981,-0.49681 -0.49681,-2.38471 -2.68281,-2.38471 -4.5707,-2.28535 -2.98089,0.29809 z"
       id="path282"
       style="fill:#ff0000;stroke:none" />
    <path
       d="m 152.42284,352.38224 c -0.59618,1.8879 -0.69554,3.47771 -0.29809,3.47771 0.49682,0 0.89427,-0.59618 0.89427,-1.29172 0,-0.7949 0.39745,-0.69554 0.99363,0.29809 0.59618,0.99363 0.99363,1.09299 0.99363,0.19873 0,-0.59618 -0.0994,-1.29172 -0.19873,-1.49045 -0.0994,-0.0994 0.39746,-1.19236 1.093,-2.48407 0.99363,-1.8879 0.89426,-2.18599 -0.59618,-2.18599 -1.19236,0 -2.18599,1.19236 -2.88153,3.4777 z"
       id="path284"
       style="fill:#ff0000;stroke:none" />
    <path
       d="m 343.79598,349.30199 c 0,0.19873 0.69554,0.59618 1.49044,0.99363 0.79491,0.29809 1.49045,0.0994 1.49045,-0.39745 0,-0.59618 -0.69554,-0.99363 -1.49045,-0.99363 -0.7949,0 -1.49044,0.19873 -1.49044,0.39745 z"
       id="path286"
       style="fill:#ff0000;stroke:none" />
    <path
       d="m 143.08272,352.87906 c 0,0.49681 0.49682,0.99363 1.09299,0.99363 0.49682,0 0.69554,-0.49682 0.39746,-0.99363 -0.29809,-0.59618 -0.79491,-0.99363 -1.093,-0.99363 -0.19872,0 -0.39745,0.39745 -0.39745,0.99363 z"
       id="path288"
       style="fill:#ff0000;stroke:none" />
    <path
       d="m 150.33622,360.23192 c 0.39745,0.89427 0.19873,1.58981 -0.29809,1.58981 -0.59618,0 -0.99363,-0.49681 -0.99363,-0.99363 0,-1.8879 -2.08662,-0.99363 -2.88153,1.19236 -0.49681,1.49044 -0.39745,2.58343 0.29809,2.98089 0.69554,0.49681 0.69554,0.7949 -0.29809,0.7949 -0.7949,0 -1.09299,0.69554 -0.7949,1.98726 0.29809,0.99363 0,2.08662 -0.69554,2.38471 -0.79491,0.29809 -0.79491,0.49682 0,0.49682 0.69554,0.0994 2.38471,-0.49682 3.87515,-1.29172 2.48408,-1.29172 2.48408,-1.49045 0.79491,-2.48408 -1.39108,-0.7949 -1.49045,-0.99363 -0.29809,-1.09299 1.8879,0 4.47133,-2.98089 4.47133,-4.96815 0,-0.7949 -0.89426,-1.58981 -1.88789,-1.78853 -1.39108,-0.29809 -1.68917,0 -1.29172,1.19235 z"
       id="path290"
       style="fill:#ff0000;stroke:none" />
    <path
       d="m 377.5794,362.21918 c 0,0.89427 0.49682,1.58981 0.99363,1.58981 0.59618,0 0.99363,-0.39745 0.99363,-0.89427 0,-0.59618 -0.39745,-1.29172 -0.99363,-1.5898 -0.49681,-0.29809 -0.99363,0.0994 -0.99363,0.89426 z"
       id="path292"
       style="fill:#ff0000;stroke:none" />
    <path
       d="m 379.56666,365.59752 c 0,0.49682 0.89427,1.68917 1.98726,2.6828 1.78853,1.58981 1.98726,1.58981 1.98726,0.19873 0,-0.89427 -0.89427,-2.08662 -1.98726,-2.6828 -1.09299,-0.59618 -1.98726,-0.69554 -1.98726,-0.19873 z"
       id="path294"
       style="fill:#ff0000;stroke:none" />
    <path
       d="m 367.6431,370.86376 c 0,1.78854 0.19873,1.8879 1.49045,0.89427 1.49044,-1.19236 1.19235,-2.98089 -0.59618,-2.98089 -0.49682,0 -0.89427,0.99363 -0.89427,2.08662 z"
       id="path296"
       style="fill:#ff0000;stroke:none" />
    <path
       d="m 142.18845,374.04338 c -1.09299,1.39108 -0.49681,2.6828 1.093,2.6828 0.49681,0 0.59617,-0.49682 0.19872,-1.09299 -0.29809,-0.59618 0,-1.49045 0.69554,-1.98726 0.79491,-0.49682 0.89427,-0.89427 0.29809,-0.89427 -0.59618,0 -1.68917,0.59618 -2.28535,1.29172 z"
       id="path298"
       style="fill:#ff0000;stroke:none" />
    <path
       d="m 370.3259,374.2421 c -0.7949,1.78854 1.09299,3.08026 2.48408,1.68918 1.09299,-1.093 0.29808,-3.17962 -1.19236,-3.17962 -0.39745,0 -0.99363,0.69554 -1.29172,1.49044 z"
       id="path300"
       style="fill:#ff0000;stroke:none" />
    <path
       d="m 393.47748,375.23573 c 2.18599,2.28535 3.97452,2.48408 3.97452,0.39746 0,-0.59618 -0.39745,-0.69554 -0.99363,-0.39746 -0.49681,0.29809 -0.99363,-0.0994 -0.99363,-0.89426 0,-0.99363 -0.89427,-1.58981 -2.18599,-1.58981 l -2.08662,0 2.28535,2.48407 z"
       id="path302"
       style="fill:#ff0000;stroke:none" />
    <path
       d="m 166.43303,375.73255 c 0.29808,0.49681 0.7949,0.99363 1.09299,0.99363 0.19872,0 0.39745,-0.49682 0.39745,-0.99363 0,-0.59618 -0.49682,-0.99363 -1.09299,-0.99363 -0.49682,0 -0.69554,0.39745 -0.39745,0.99363 z"
       id="path304"
       style="fill:#ff0000;stroke:none" />
    <path
       d="m 156.49672,376.82554 c 0.39746,0.59618 0,0.89427 -0.99363,0.69554 -1.29171,-0.19872 -1.88789,0.39746 -1.98726,1.98726 -0.0994,1.58981 0.19873,2.08663 1.19236,1.68917 0.7949,-0.29808 1.8879,-0.49681 2.38471,-0.49681 0.59618,0 0.79491,-0.39745 0.49682,-0.89427 -0.39745,-0.49681 -0.0994,-1.09299 0.59618,-1.29172 1.29172,-0.49681 0.19872,-2.78216 -1.29172,-2.78216 -0.59618,0 -0.69554,0.49681 -0.39746,1.09299 z"
       id="path306"
       style="fill:#ff0000;stroke:none" />
    <path
       d="m 381.55392,379.70707 c 0,0.49682 0.49682,0.99363 0.99363,0.99363 0.59618,0 0.99363,-0.49681 0.99363,-0.99363 0,-0.59618 -0.39745,-0.99363 -0.99363,-0.99363 -0.49681,0 -0.99363,0.39745 -0.99363,0.99363 z"
       id="path308"
       style="fill:#ff0000;stroke:none" />
    <path
       d="m 162.95532,381.89306 c 0,0.39745 0.69554,0.7949 1.49045,0.7949 0.7949,0 1.49044,-0.39745 1.49044,-0.7949 0,-0.49682 -0.69554,-0.89427 -1.49044,-0.89427 -0.79491,0 -1.49045,0.39745 -1.49045,0.89427 z"
       id="path310"
       style="fill:#ff0000;stroke:none" />
    <path
       d="m 151.7273,384.07904 c -0.49681,1.09299 0,1.58981 1.39108,1.58981 1.093,0 1.68917,0.39745 1.39108,0.99363 -0.29808,0.49681 0.29809,0.99363 1.39109,0.99363 1.19235,0 2.08662,-0.49682 2.08662,-0.99363 0,-0.59618 0.7949,-0.99363 1.78853,-0.99363 1.39109,-0.0994 1.49045,-0.19873 0.19873,-0.89427 -3.27898,-1.88789 -7.65095,-2.28535 -8.24713,-0.69554 z"
       id="path312"
       style="fill:#ff0000;stroke:none" />
    <path
       d="m 178.95276,383.97968 c -0.89426,1.19235 -0.69554,1.58981 0.89427,1.98726 2.08662,0.49681 2.48407,0 1.09299,-2.08662 -0.59617,-0.99363 -0.99363,-0.99363 -1.98726,0.0994 z"
       id="path314"
       style="fill:#ff0000;stroke:none" />
    <path
       d="m 162.65723,384.27777 c -0.7949,0.7949 0.0994,2.38471 1.19236,2.38471 0.39745,0 0.7949,-0.69554 0.7949,-1.49045 0,-1.5898 -0.89427,-1.98726 -1.98726,-0.89426 z"
       id="path316"
       style="fill:#ff0000;stroke:none" />
    <path
       d="m 322.13485,386.0663 c 0.69554,0.79491 1.49044,1.19236 1.68917,1.09299 0.49681,-0.59617 -0.99363,-2.48407 -1.98726,-2.48407 -0.49682,0 -0.39745,0.59618 0.29809,1.39108 z"
       id="path318"
       style="fill:#ff0000;stroke:none" />
    <path
       d="m 356.71317,386.46375 c 0,0.49682 0.69554,0.89427 1.49045,0.89427 0.7949,0 1.49044,-0.39745 1.49044,-0.89427 0,-0.39745 -0.69554,-0.7949 -1.49044,-0.7949 -0.79491,0 -1.49045,0.39745 -1.49045,0.7949 z"
       id="path320"
       style="fill:#ff0000;stroke:none" />
    <path
       d="m 360.68769,387.45738 c 0,1.78854 4.96815,9.34013 4.96815,7.55159 0,-0.49681 0.49682,-0.0994 1.09299,0.79491 0.49682,0.99363 1.68917,1.78853 2.58344,1.78853 1.19236,0 1.29172,-0.29809 0.39745,-1.39108 -0.99363,-1.093 -0.7949,-1.49045 0.59618,-1.8879 1.68917,-0.39745 1.68917,-0.49681 -0.0994,-0.59618 -0.99363,0 -2.38471,-0.7949 -2.98089,-1.68917 -0.59618,-0.7949 -1.98726,-1.58981 -3.08025,-1.78853 -2.38472,-0.29809 -2.68281,-2.78217 -0.49682,-3.7758 1.09299,-0.49681 0.89427,-0.69554 -0.69554,-0.69554 -1.58981,-0.0994 -2.28535,0.49682 -2.28535,1.68917 z"
       id="path322"
       style="fill:#ff0000;stroke:none" />
    <path
       d="m 382.34882,386.36439 c 0.69555,0.29809 1.58981,0.19873 1.8879,-0.0994 0.39745,-0.29809 -0.19872,-0.59618 -1.29172,-0.49682 -1.09299,0 -1.39108,0.29809 -0.59618,0.59618 z"
       id="path324"
       style="fill:#ff0000;stroke:none" />
    <path
       d="m 150.33622,388.55038 c -1.09299,1.68917 -0.79491,1.78853 3.4777,1.68917 4.17325,-0.0994 4.37198,-0.19873 1.8879,-0.99363 -1.49044,-0.59618 -2.6828,-1.29172 -2.6828,-1.78854 0,-1.39108 -1.49044,-0.7949 -2.6828,1.093 z"
       id="path326"
       style="fill:#ff0000;stroke:none" />
    <path
       d="m 319.75013,389.94146 c 1.19236,0.69554 1.8879,1.58981 1.49045,2.08662 -0.99363,0.99363 1.68917,2.58344 4.17325,2.48408 1.19235,0 1.39108,-0.29809 0.69554,-0.59618 -0.69554,-0.29809 -2.38472,-1.58981 -3.67643,-2.88153 -1.29172,-1.29172 -2.9809,-2.38471 -3.67644,-2.38471 -0.69554,0.0994 -0.29809,0.59618 0.99363,1.29172 z"
       id="path328"
       style="fill:#ff0000;stroke:none" />
    <path
       d="m 306.03804,394.1147 c 0,0.79491 0.7949,1.78854 1.78853,2.38472 0.89427,0.49681 1.49045,1.29172 1.19236,1.78853 -0.29809,0.39745 0.19873,0.89427 1.09299,1.09299 2.58344,0.49682 1.093,-4.37197 -1.68917,-5.66369 -1.8879,-0.7949 -2.38471,-0.7949 -2.38471,0.39745 z"
       id="path330"
       style="fill:#ff0000;stroke:none" />
    <path
       d="m 296.59856,394.71088 c -0.39746,0.59618 0.19872,1.8879 1.29171,2.98089 2.38472,2.18599 3.7758,0.89427 2.18599,-2.08662 -1.19236,-2.18599 -2.48407,-2.58344 -3.4777,-0.89427 z"
       id="path332"
       style="fill:#ff0000;stroke:none" />
    <path
       d="m 163.45213,395.60515 c 0.29809,0.49681 1.093,0.99363 1.58981,0.99363 0.59618,0 0.69554,-0.49682 0.39746,-0.99363 -0.29809,-0.59618 -1.093,-0.99363 -1.58981,-0.99363 -0.59618,0 -0.69554,0.39745 -0.39746,0.99363 z"
       id="path334"
       style="fill:#ff0000;stroke:none" />
    <path
       d="m 359.19724,399.57967 c 0.29809,0.49681 1.093,0.99363 1.58981,0.99363 0.59618,0 0.69554,-0.49682 0.39745,-0.99363 -0.29808,-0.59618 -1.09299,-0.99363 -1.5898,-0.99363 -0.59618,0 -0.69554,0.39745 -0.39746,0.99363 z"
       id="path336"
       style="fill:#ff0000;stroke:none" />
    <path
       d="m 184.81518,401.3682 c 0,0.69554 -5.66369,3.57707 -7.15414,3.67643 -0.49681,0 -0.7949,0.39746 -0.89426,0.99364 0,0.49681 -0.49682,1.5898 -1.093,2.18598 -0.7949,0.99363 -0.59617,1.29172 0.59618,1.29172 1.39108,0 2.08663,1.09299 1.68917,3.17962 0,0.49681 0.79491,0.7949 1.8879,0.7949 1.09299,0 1.98726,-0.49682 1.98726,-1.09299 0,-0.49682 0.39745,-0.79491 0.99363,-0.39746 0.49681,0.29809 1.58981,-0.49681 2.48408,-1.88789 1.29171,-1.8879 1.39108,-2.88153 0.59617,-4.47134 -0.59617,-1.09299 -0.7949,-2.6828 -0.49681,-3.4777 0.29809,-0.89427 0.29809,-1.58981 0,-1.58981 -0.29809,0 -0.59618,0.29809 -0.59618,0.7949 z"
       id="path338"
       style="fill:#ff0000;stroke:none" />
    <path
       d="m 232.50942,401.66629 c 0,0.49682 0.49681,0.69554 0.99363,0.39745 0.59618,-0.29808 0.99363,-0.7949 0.99363,-1.09299 0,-0.19872 -0.39745,-0.39745 -0.99363,-0.39745 -0.49682,0 -0.99363,0.49681 -0.99363,1.09299 z"
       id="path340"
       style="fill:#ff0000;stroke:none" />
    <path
       d="m 245.7247,407.03189 c 0,0.89427 0.49681,1.39109 1.09299,1.19236 0.59618,-0.29809 1.8879,0.29809 2.98089,1.19236 1.68917,1.49044 1.78854,1.49044 1.49045,-0.39746 -0.29809,-1.09299 -0.89427,-1.98726 -1.58981,-1.98726 -0.59618,0 -1.49045,-0.29808 -1.8879,-0.7949 -1.19235,-1.19236 -2.08662,-0.7949 -2.08662,0.7949 z"
       id="path342"
       style="fill:#ff0000;stroke:none" />
    <path
       d="m 204.29033,409.7147 c -1.19236,1.68917 -1.58981,1.88789 -1.58981,0.59617 0,-0.99363 -0.69554,-1.49044 -1.68917,-1.29172 -0.99363,0.19873 -2.28535,0.39746 -2.78217,0.39746 -1.68917,0.19872 -3.67643,5.86241 -2.88152,8.24713 0.39745,1.29172 0.69554,3.27898 0.49681,4.47133 -0.0994,1.29172 0.19873,2.28535 0.79491,2.28535 1.19235,0 2.28535,-3.57707 2.48407,-7.94904 0.0994,-2.98089 2.38471,-4.86879 3.47771,-3.08025 0.99363,1.5898 3.4777,-0.49682 2.78216,-2.28535 -0.39745,-0.89427 -0.19873,-1.49045 0.49682,-1.29172 0.59617,0.0994 1.29172,-0.39745 1.49044,-1.09299 0.79491,-1.98726 -1.49044,-1.29172 -3.08025,0.99363 z"
       id="path344"
       style="fill:#ff0000;stroke:none" />
    <path
       d="m 146.06361,412.49686 c -1.98726,1.19236 -0.49681,2.38471 1.58981,1.19236 0.89426,-0.49682 1.19235,-1.19236 0.69554,-1.49045 -0.49682,-0.29809 -1.49045,-0.19873 -2.28535,0.29809 z"
       id="path346"
       style="fill:#ff0000;stroke:none" />
    <path
       d="m 231.2177,414.28539 c -1.8879,2.08663 -2.18598,3.17962 -0.69554,3.17962 0.59618,0 1.39108,-0.7949 1.68917,-1.78853 0.39745,-0.89427 1.09299,-1.98726 1.68917,-2.38472 0.79491,-0.59617 0.79491,-0.7949 0,-0.7949 -0.59618,0 -1.78853,0.7949 -2.6828,1.78853 z"
       id="path348"
       style="fill:#ff0000;stroke:none" />
    <path
       d="m 272.25462,414.48412 c 0,0.49681 0.49682,0.99363 1.09299,0.99363 0.49682,0 0.69554,-0.49682 0.39745,-0.99363 -0.29808,-0.59618 -0.7949,-0.99363 -1.09299,-0.99363 -0.19872,0 -0.39745,0.39745 -0.39745,0.99363 z"
       id="path350"
       style="fill:#ff0000;stroke:none" />
    <path
       d="m 144.57317,416.47138 c -0.29809,0.49681 -0.0994,0.99363 0.39745,0.99363 0.59618,0 1.09299,-0.49682 1.09299,-0.99363 0,-0.59618 -0.19873,-0.99363 -0.39745,-0.99363 -0.29809,0 -0.79491,0.39745 -1.09299,0.99363 z"
       id="path352"
       style="fill:#ff0000;stroke:none" />
    <path
       d="m 276.72595,416.47138 c -0.29808,0.49681 0.0994,0.99363 0.99363,0.99363 0.89427,0 1.29172,-0.49682 0.99363,-0.99363 -0.29808,-0.59618 -0.7949,-0.99363 -0.99363,-0.99363 -0.19872,0 -0.69554,0.39745 -0.99363,0.99363 z"
       id="path354"
       style="fill:#ff0000;stroke:none" />
    <path
       d="m 339.62273,416.17329 c 0.59618,0.19873 0.99363,0.89427 0.59618,1.39108 -0.29809,0.49682 0,0.89427 0.49682,0.89427 0.59618,0 1.09299,-0.69554 1.09299,-1.49045 0,-0.7949 -0.7949,-1.49044 -1.68917,-1.39108 -1.09299,0 -1.29172,0.29809 -0.49682,0.59618 z"
       id="path356"
       style="fill:#ff0000;stroke:none" />
    <path
       d="m 305.04441,418.16055 c 0.0994,1.98726 2.88153,4.27261 4.37197,3.67643 1.78854,-0.69554 1.58981,-3.08025 -0.29809,-2.6828 -0.59617,0.19873 -1.09299,-0.19872 -1.09299,-0.69554 0,-0.59618 -0.69554,-0.99363 -1.49045,-0.99363 -0.7949,0 -1.49044,0.29809 -1.49044,0.69554 z"
       id="path358"
       style="fill:#ff0000;stroke:none" />
    <path
       d="m 276.22914,418.85609 c 0,0.19873 0.69554,0.59618 1.49044,0.99363 0.79491,0.29809 1.49045,0.0994 1.49045,-0.39745 0,-0.59618 -0.69554,-0.99363 -1.49045,-0.99363 -0.7949,0 -1.49044,0.19873 -1.49044,0.39745 z"
       id="path360"
       style="fill:#ff0000;stroke:none" />
    <path
       d="m 254.36928,420.4459 c 0,0.49682 0.49682,0.99363 1.09299,0.99363 0.49682,0 0.69554,-0.49681 0.39746,-0.99363 -0.29809,-0.59618 -0.79491,-0.99363 -1.093,-0.99363 -0.19872,0 -0.39745,0.39745 -0.39745,0.99363 z"
       id="path362"
       style="fill:#ff0000;stroke:none" />
    <path
       d="m 206.67504,421.34017 c 0,0.89426 2.98089,2.38471 3.57707,1.78853 0.19872,-0.0994 -0.59618,-0.7949 -1.58981,-1.49044 -1.09299,-0.69554 -1.98726,-0.79491 -1.98726,-0.29809 z"
       id="path364"
       style="fill:#ff0000;stroke:none" />
    <path
       d="m 215.41898,424.02297 c -0.39745,2.18598 1.29172,7.35286 2.38472,7.35286 0.39745,0 0.7949,-0.69554 0.7949,-1.49045 0,-0.7949 -0.49682,-1.49044 -1.09299,-1.49044 -0.79491,0 -0.69554,-0.49682 0.0994,-1.58981 1.09299,-1.19235 1.09299,-1.78853 -0.19873,-3.08025 -1.49044,-1.39108 -1.5898,-1.39108 -1.98726,0.29809 z"
       id="path366"
       style="fill:#ff0000;stroke:none" />
    <path
       d="m 196.24192,426.40768 c 0.29809,0.49681 0.79491,0.99363 1.093,0.99363 0.19872,0 0.39745,-0.49682 0.39745,-0.99363 0,-0.59618 -0.49682,-0.99363 -1.09299,-0.99363 -0.49682,0 -0.69554,0.39745 -0.39746,0.99363 z"
       id="path368"
       style="fill:#ff0000;stroke:none" />
    <path
       d="m 227.04446,426.40768 c -0.29809,0.49681 -0.0994,0.99363 0.39745,0.99363 0.59618,0 1.09299,-0.49682 1.09299,-0.99363 0,-0.59618 -0.19873,-0.99363 -0.39745,-0.99363 -0.29809,0 -0.79491,0.39745 -1.09299,0.99363 z"
       id="path370"
       style="fill:#ff0000;stroke:none" />
    <path
       d="m 290.73614,431.37583 c 0.39745,1.8879 1.49044,4.27261 2.58344,5.16688 2.38471,2.08662 3.67643,2.28534 3.37834,0.49681 -0.19873,-1.58981 -3.57707,-6.35923 -3.57707,-5.16688 -0.0994,0.59618 -0.69554,-0.0994 -1.49045,-1.49044 -1.39108,-2.48408 -1.39108,-2.48408 -0.89426,0.99363 z"
       id="path372"
       style="fill:#ff0000;stroke:none" />
    <path
       d="m 336.84057,430.3822 c 0,0.49681 0.49682,0.99363 1.09299,0.99363 0.49682,0 0.69554,-0.49682 0.39746,-0.99363 -0.29809,-0.59618 -0.79491,-0.99363 -1.093,-0.99363 -0.19872,0 -0.39745,0.39745 -0.39745,0.99363 z"
       id="path374"
       style="fill:#ff0000;stroke:none" />
    <path
       d="m 216.41261,433.56182 c -0.69554,1.78853 0.19873,3.87515 1.29172,3.17961 1.19236,-0.69554 1.19236,-4.37197 0,-4.37197 -0.49681,0 -1.09299,0.59618 -1.29172,1.19236 z"
       id="path376"
       style="fill:#ff0000;stroke:none" />
    <path
       d="m 283.88009,434.9529 c -0.7949,0.89427 0.49682,4.96815 2.38471,7.35286 l 1.8879,2.48407 0,-2.28534 c 0,-1.19236 0.39745,-2.18599 0.7949,-2.18599 1.49045,0 0.99363,-3.87516 -0.59617,-4.5707 -2.28535,-0.99363 -3.97452,-1.29172 -4.47134,-0.7949 z"
       id="path378"
       style="fill:#ff0000;stroke:none" />
    <path
       d="m 268.2801,441.31213 c 0,0.49681 0,1.19236 0,1.49044 0,1.19236 1.39108,0.39746 1.58981,-0.99363 0.0994,-0.7949 -0.19873,-1.49044 -0.69554,-1.49044 -0.49682,0 -0.89427,0.39745 -0.89427,0.99363 z"
       id="path380"
       style="fill:#ff0000;stroke:none" />
    <path
       d="m 279.21003,444.19366 c 0,0.49681 0.49682,1.29172 0.99363,1.5898 0.59618,0.29809 0.99363,0.19873 0.99363,-0.39745 0,-0.49681 -0.39745,-1.29172 -0.99363,-1.58981 -0.49681,-0.29808 -0.99363,-0.19872 -0.99363,0.39746 z"
       id="path382"
       style="fill:#ff0000;stroke:none" />
    <path
       d="m 276.72595,446.28028 c -0.29808,0.49681 -0.19872,1.68917 0.29809,2.58344 0.59618,1.09299 1.093,1.29172 1.58981,0.49681 0.39745,-0.59617 0.29809,-1.09299 -0.29809,-1.09299 -0.59618,0 -0.7949,-0.69554 -0.49681,-1.49045 0.69554,-1.68917 -0.0994,-1.98726 -1.093,-0.49681 z"
       id="path384"
       style="fill:#ff0000;stroke:none" />
    <path
       d="m 245.92342,447.27391 c 0.39746,0.59618 1.093,0.7949 1.58981,0.49681 1.39109,-0.89426 1.093,-1.49044 -0.69554,-1.49044 -0.7949,0 -1.19235,0.49681 -0.89427,0.99363 z"
       id="path386"
       style="fill:#ff0000;stroke:none" />
    <path
       id="path3990"
       d="M 402.95652,146.69566 C 387.55479,132.62757 385.18475,103.30458 359.35024,102.7455 338.8325,98.321942 327.98484,74.022789 305.54778,76.206057 c -25.09026,4.097549 -47.16775,16.85037 -73.2379,15.294478 -21.77275,10.319025 -43.35068,13.143205 -67.70699,12.321165 -20.45075,-1.83845 -41.86695,-2.41719 -53.07609,18.7258 -15.542189,10.71853 -9.74442,34.61765 -26.788707,43.75081 -7.619699,19.28606 -17.517126,38.4688 -19.593699,59.17984 -4.776931,25.60207 6.417865,49.6598 18.746911,71.29938 8.331771,23.44038 37.913825,30.23734 42.338755,55.3305 2.56773,22.07888 9.7372,42.99544 8.50737,65.69245 2.42075,24.15496 33.89809,8.68579 49.69735,13.76474 29.81989,15.67184 61.67421,27.66315 94.76732,34.02715 17.50072,-1.50064 38.72991,6.79166 53.33583,-5.93092 15.02651,-19.30765 35.18294,-34.0776 52.7014,-50.75482 27.02073,-21.26012 33.41896,-57.22028 37.74213,-89.30698 7.57177,-44.08867 8.05534,-89.26465 5.71155,-133.86191 -2.31042,-15.76448 -12.5142,-30.42768 -25.73649,-39.04208 z"
       style="color:#000000;fill:none;stroke:#000000;stroke-width:2.4000001;stroke-linecap:butt;stroke-linejoin:miter;stroke-miterlimit:4;stroke-opacity:1;stroke-dasharray:none;stroke-dashoffset:0;marker:none;visibility:visible;display:inline;overflow:visible;enable-background:accumulate" />
  </g>
</svg>
