<?xml version="1.0" encoding="UTF-8" standalone="no"?>
<svg
   xmlns:dc="http://purl.org/dc/elements/1.1/"
   xmlns:cc="http://creativecommons.org/ns#"
   xmlns:rdf="http://www.w3.org/1999/02/22-rdf-syntax-ns#"
   xmlns:svg="http://www.w3.org/2000/svg"
   xmlns="http://www.w3.org/2000/svg"
   xmlns:xlink="http://www.w3.org/1999/xlink"
   xmlns:sodipodi="http://sodipodi.sourceforge.net/DTD/sodipodi-0.dtd"
   xmlns:inkscape="http://www.inkscape.org/namespaces/inkscape"
   version="1.0"
   width="200"
   height="100%"
   viewBox="0 0 468 242"
   preserveAspectRatio="xMidYMid meet"
   id="svg2540"
   sodipodi:version="0.32"
   inkscape:version="0.46"
   sodipodi:docname="gradient_attempt.svg"
   inkscape:output_extension="org.inkscape.output.svg.inkscape"
   style="display:inline">
  <defs
     id="defs2549">
    <linearGradient
       id="linearGradient2466">
      <stop
         id="stop2470"
         offset="0"
         style="stop-color:#ff0000;stop-opacity:0;" />
      <stop
         style="stop-color:#ff0000;stop-opacity:1;"
         offset="0.45332953"
         id="stop2482" />
      <stop
         id="stop2478"
         offset="0.61768621"
         style="stop-color:#ff0000;stop-opacity:1;" />
      <stop
         style="stop-color:#ffff00;stop-opacity:1;"
         offset="0.81133962"
         id="stop2480" />
      <stop
         id="stop2468"
         offset="1"
         style="stop-color:#00ff00;stop-opacity:1;" />
    </linearGradient>
    <linearGradient
       id="linearGradient2458">
      <stop
         style="stop-color:#007f00;stop-opacity:0.49803922;"
         offset="0"
         id="stop2462" />
      <stop
         id="stop2464"
         offset="1"
         style="stop-color:#00ff00;stop-opacity:1;" />
    </linearGradient>
    <linearGradient
       id="linearGradient5700">
      <stop
         style="stop-color:#000000;stop-opacity:0;"
         offset="0"
         id="stop5702" />
      <stop
         id="stop5704"
         offset="0.68887061"
         style="stop-color:#007f00;stop-opacity:0.49803922;" />
      <stop
         style="stop-color:#00ff00;stop-opacity:1;"
         offset="1"
         id="stop5706" />
    </linearGradient>
    <linearGradient
       id="linearGradient5688">
      <stop
         style="stop-color:#ff0000;stop-opacity:0;"
         offset="0"
         id="stop5690" />
      <stop
         id="stop5694"
         offset="0.4377481"
         style="stop-color:#b70000;stop-opacity:0.16197184;" />
      <stop
         style="stop-color:#ff0000;stop-opacity:1;"
         offset="1"
         id="stop5696" />
    </linearGradient>
    <linearGradient
       id="linearGradient5680">
      <stop
         style="stop-color:#fa0000;stop-opacity:0;"
         offset="0"
         id="stop5682" />
      <stop
         id="stop5686"
         offset="0.49945495"
         style="stop-color:#7d7f00;stop-opacity:0.49803922;" />
      <stop
         style="stop-color:#00ff00;stop-opacity:1;"
         offset="1"
         id="stop5684" />
    </linearGradient>
    <linearGradient
       id="linearGradient2976">
      <stop
         id="stop2980"
         offset="0"
         style="stop-color:#ff0000;stop-opacity:0;" />
      <stop
         style="stop-color:#000000;stop-opacity:0.07843138;"
         offset="0.52337152"
         id="stop2988" />
      <stop
         style="stop-color:#b70000;stop-opacity:0.16197184;"
         offset="0.66544253"
         id="stop2986" />
      <stop
         id="stop2978"
         offset="1"
         style="stop-color:#000000;stop-opacity:1;" />
    </linearGradient>
    <linearGradient
       id="linearGradient2915">
      <stop
         id="stop2919"
         offset="0"
         style="stop-color:#ff0000;stop-opacity:0.50704223;" />
      <stop
         id="stop2917"
         offset="1"
         style="stop-color:#000000;stop-opacity:1;" />
    </linearGradient>
    <linearGradient
       inkscape:collect="always"
       id="linearGradient2715">
      <stop
         id="stop2719"
         offset="0"
         style="stop-color:#000000;stop-opacity:0;" />
      <stop
         id="stop2717"
         offset="1"
         style="stop-color:#000000;stop-opacity:1;" />
    </linearGradient>
    <linearGradient
       id="linearGradient2648">
      <stop
         style="stop-color:#ff0000;stop-opacity:1;"
         offset="0"
         id="stop2650" />
      <stop
         style="stop-color:#000000;stop-opacity:0;"
         offset="1"
         id="stop2652" />
    </linearGradient>
    <linearGradient
       id="linearGradient2561">
      <stop
         id="stop2565"
         offset="0"
         style="stop-color:#000000;stop-opacity:0;" />
      <stop
         style="stop-color:#007f00;stop-opacity:0.49803922;"
         offset="0.5"
         id="stop5698" />
      <stop
         id="stop2563"
         offset="1"
         style="stop-color:#00ff00;stop-opacity:1;" />
    </linearGradient>
    <inkscape:perspective
       sodipodi:type="inkscape:persp3d"
       inkscape:vp_x="0 : 218.75 : 1"
       inkscape:vp_y="0 : 1000 : 0"
       inkscape:vp_z="585 : 218.75 : 1"
       inkscape:persp3d-origin="292.5 : 145.83333 : 1"
       id="perspective2551" />
    <radialGradient
       inkscape:collect="always"
       xlink:href="#linearGradient2561"
       id="radialGradient2567"
       cx="3506.334"
       cy="2920.8252"
       fx="3506.334"
       fy="2920.8252"
       r="1888.144"
       gradientTransform="matrix(-0.9729256,0.9548632,-0.9385689,-0.9563251,9546.3969,1904.3184)"
       gradientUnits="userSpaceOnUse" />
    <inkscape:perspective
       id="perspective2635"
       inkscape:persp3d-origin="292.5 : 145.83333 : 1"
       inkscape:vp_z="585 : 218.75 : 1"
       inkscape:vp_y="0 : 1000 : 0"
       inkscape:vp_x="0 : 218.75 : 1"
       sodipodi:type="inkscape:persp3d" />
    <inkscape:perspective
       id="perspective2710"
       inkscape:persp3d-origin="292.5 : 145.83333 : 1"
       inkscape:vp_z="585 : 218.75 : 1"
       inkscape:vp_y="0 : 1000 : 0"
       inkscape:vp_x="0 : 218.75 : 1"
       sodipodi:type="inkscape:persp3d" />
    <radialGradient
       inkscape:collect="always"
       xlink:href="#linearGradient2715"
       id="radialGradient2721"
       cx="3950.9082"
       cy="3874.625"
       fx="3950.9082"
       fy="3874.625"
       r="1888.1439"
       gradientTransform="matrix(0.6400691,-1.1043564,0.9764847,0.6070979,-2909.6874,4571.9735)"
       gradientUnits="userSpaceOnUse" />
    <inkscape:perspective
       id="perspective2848"
       inkscape:persp3d-origin="292.5 : 145.83333 : 1"
       inkscape:vp_z="585 : 218.75 : 1"
       inkscape:vp_y="0 : 1000 : 0"
       inkscape:vp_x="0 : 218.75 : 1"
       sodipodi:type="inkscape:persp3d" />
    <inkscape:perspective
       id="perspective2910"
       inkscape:persp3d-origin="292.5 : 145.83333 : 1"
       inkscape:vp_z="585 : 218.75 : 1"
       inkscape:vp_y="0 : 1000 : 0"
       inkscape:vp_x="0 : 218.75 : 1"
       sodipodi:type="inkscape:persp3d" />
    <inkscape:perspective
       id="perspective2971"
       inkscape:persp3d-origin="292.5 : 145.83333 : 1"
       inkscape:vp_z="585 : 218.75 : 1"
       inkscape:vp_y="0 : 1000 : 0"
       inkscape:vp_x="0 : 218.75 : 1"
       sodipodi:type="inkscape:persp3d" />
    <radialGradient
       inkscape:collect="always"
       xlink:href="#linearGradient2976"
       id="radialGradient2982"
       cx="4964.6113"
       cy="1806.8956"
       fx="4964.6113"
       fy="1806.8956"
       r="1888.1439"
       gradientTransform="matrix(0.9739511,0.7774704,-0.8731852,1.0938553,1806.9454,-4043.8121)"
       gradientUnits="userSpaceOnUse" />
    <radialGradient
       inkscape:collect="always"
       xlink:href="#linearGradient5680"
       id="radialGradient3000"
       gradientUnits="userSpaceOnUse"
       gradientTransform="matrix(-0.9729256,0.9548632,-0.9385689,-0.9563251,9546.3969,1904.3184)"
       cx="3506.334"
       cy="2920.8252"
       fx="3506.334"
       fy="2920.8252"
       r="1888.144" />
    <radialGradient
       inkscape:collect="always"
       xlink:href="#linearGradient5688"
       id="radialGradient3004"
       gradientUnits="userSpaceOnUse"
       gradientTransform="matrix(-0.7864829,0.6590068,-0.4885663,-0.5830729,9851.8494,-425.65252)"
       cx="4964.6113"
       cy="1806.8956"
       fx="4964.6113"
       fy="1806.8956"
       r="1888.1439" />
    <radialGradient
       inkscape:collect="always"
       xlink:href="#linearGradient5700"
       id="radialGradient5638"
       gradientUnits="userSpaceOnUse"
       gradientTransform="matrix(-5.1124612e-2,-4.1466221e-2,-4.0122366e-2,4.9467798e-2,496.28335,171.82735)"
       cx="3506.334"
       cy="2920.8252"
       fx="3506.334"
       fy="2920.8252"
       r="1888.144" />
    <radialGradient
       inkscape:collect="always"
       xlink:href="#linearGradient2466"
       id="radialGradient2472"
       cx="-60.476608"
       cy="159.71106"
       fx="-60.476608"
       fy="159.71106"
       r="126.96069"
       gradientTransform="matrix(0.9212566,-1.2889336,1.419945,1.0148975,210.64559,76.018756)"
       gradientUnits="userSpaceOnUse" />
  </defs>
  <sodipodi:namedview
     inkscape:window-height="852"
     inkscape:window-width="1440"
     inkscape:pageshadow="2"
     inkscape:pageopacity="0.0"
     guidetolerance="10.0"
     gridtolerance="10.0"
     objecttolerance="10.0"
     borderopacity="1.0"
     bordercolor="#666666"
     pagecolor="#ffffff"
     id="base"
     showgrid="false"
     inkscape:zoom="1.8142857"
     inkscape:cx="100"
     inkscape:cy="86.811023"
     inkscape:window-x="20"
     inkscape:window-y="655"
     inkscape:current-layer="layer2"
     inkscape:showpageshadow="false"
     showborder="true" />
  <metadata
     id="metadata2542">
Created by potrace 1.7, written by Peter Selinger 2001-2005
<rdf:RDF>
  <cc:Work
     rdf:about="">
    <dc:format>image/svg+xml</dc:format>
    <dc:type
       rdf:resource="http://purl.org/dc/dcmitype/StillImage" />
  </cc:Work>
</rdf:RDF>
</metadata>
  <g
     id="g2628"
     transform="matrix(6.7241e-2,0,0,-6.7241e-2,-129.14971,134.73151)"
     style="fill:#000000;stroke:none">
    <path
       id="path2630"
       d="M 3319,4847 C 3304,4835 3282,4805 3270,4780 C 3251,4742 3207,4695 3190,4695 C 3187,4695 3181,4692 3175,4688 C 3160,4679 3108,4677 3084,4685 C 3073,4688 3058,4706 3052,4723 L 3039,4755 L 3020,4731 L 3000,4708 L 2958,4730 C 2934,4742 2903,4763 2889,4776 C 2866,4798 2861,4799 2851,4786 C 2844,4778 2841,4763 2844,4753 C 2861,4700 2790,4656 2745,4692 C 2721,4711 2720,4711 2713,4693 C 2710,4683 2698,4664 2688,4651 C 2678,4638 2670,4619 2670,4610 C 2670,4586 2612,4473 2584,4443 C 2572,4430 2557,4407 2550,4392 C 2531,4348 2486,4319 2430,4314 C 2388,4311 2376,4314 2357,4333 C 2337,4353 2325,4355 2208,4356 C 2114,4357 2077,4354 2069,4344 C 2063,4337 2052,4334 2045,4336 C 2036,4340 2024,4327 2012,4303 C 1997,4272 1994,4247 1996,4162 C 2000,4050 1990,4010 1939,3935 C 1896,3873 1827,3838 1755,3842 L 1716,3845 L 1715,3800 C 1714,3775 1708,3745 1702,3733 C 1695,3721 1687,3683 1684,3648 C 1680,3613 1672,3576 1666,3565 C 1661,3554 1656,3542 1655,3538 C 1655,3535 1635,3510 1610,3483 C 1546,3414 1510,3359 1510,3330 C 1510,3316 1495,3280 1476,3250 C 1440,3193 1438,3172 1470,3192 C 1485,3202 1495,3198 1533,3167 C 1558,3147 1585,3130 1593,3130 C 1600,3130 1615,3122 1624,3111 C 1640,3093 1643,3094 1713,3129 C 1777,3161 1795,3166 1851,3164 C 1886,3163 1920,3166 1925,3170 C 1944,3184 1995,3160 2017,3128 C 2044,3086 2068,3018 2065,2988 C 2064,2975 2062,2959 2061,2953 C 2059,2935 2040,2937 2018,2957 C 1995,2977 1969,2960 1988,2938 C 2012,2908 2019,2840 2003,2786 C 1995,2758 1982,2732 1975,2728 C 1968,2723 1961,2701 1961,2678 C 1960,2616 1955,2582 1947,2574 C 1943,2570 1940,2557 1940,2545 C 1940,2525 1893,2470 1877,2470 C 1864,2470 1767,2395 1733,2359 C 1649,2269 1598,2210 1605,2210 C 1609,2210 1605,2201 1595,2190 C 1571,2163 1567,2077 1587,1977 C 1605,1888 1623,1850 1649,1849 C 1660,1849 1657,1846 1642,1839 C 1610,1826 1620,1817 1688,1795 C 1735,1780 1752,1768 1771,1740 C 1783,1721 1811,1687 1831,1665 C 1852,1643 1873,1609 1877,1590 C 1883,1568 1892,1555 1903,1555 C 1929,1555 1944,1532 1945,1492 C 1945,1466 1949,1455 1960,1455 C 1968,1455 1992,1431 2013,1402 C 2051,1351 2051,1348 2034,1329 C 2016,1309 2018,1307 2066,1310 C 2088,1311 2105,1304 2121,1287 C 2150,1258 2153,1248 2154,1190 C 2155,1127 2181,1090 2223,1090 C 2249,1090 2265,1080 2300,1045 C 2336,1008 2341,999 2330,986 C 2317,970 2316,971 2365,955 C 2373,953 2385,939 2390,925 C 2402,893 2417,893 2451,926 C 2483,956 2600,989 2656,984 C 2726,977 2744,972 2806,946 C 2902,906 2939,881 2961,838 C 2982,797 3000,795 3000,835 C 3000,880 3104,880 3146,834 C 3167,812 3200,731 3200,702 C 3200,678 3247,623 3273,616 C 3311,607 3325,569 3314,503 C 3305,446 3305,445 3273,447 C 3231,451 3224,436 3256,411 C 3291,384 3318,384 3329,413 C 3351,472 3370,537 3370,556 C 3370,568 3377,584 3386,591 C 3395,598 3406,614 3410,626 C 3417,644 3427,647 3472,648 C 3535,648 3579,625 3610,575 C 3621,557 3638,539 3646,536 C 3660,531 3661,520 3656,478 C 3652,450 3642,402 3634,371 C 3627,341 3624,312 3628,308 C 3641,295 3700,375 3700,404 C 3700,430 3701,430 3779,430 C 3842,430 3866,434 3895,451 L 3931,473 L 3954,451 C 3996,411 3991,446 3947,507 C 3900,570 3863,653 3868,685 C 3870,696 3878,711 3885,719 C 3895,730 3895,737 3884,758 C 3873,779 3873,787 3886,804 C 3894,815 3900,831 3900,840 C 3900,856 3975,962 3990,968 C 3995,970 4011,964 4025,954 C 4058,932 4079,948 4051,974 C 4026,997 4033,1014 4077,1041 C 4128,1073 4212,1081 4236,1058 C 4239,1054 4248,1054 4255,1057 C 4271,1063 4349,1011 4390,968 C 4421,935 4446,854 4436,814 C 4431,795 4438,779 4467,743 L 4504,698 L 4478,649 C 4464,622 4456,598 4460,595 C 4465,592 4493,618 4524,651 C 4566,698 4578,718 4574,734 C 4565,771 4586,806 4635,834 C 4674,857 4680,865 4673,883 C 4669,895 4667,916 4668,930 C 4669,944 4670,972 4670,992 C 4671,1023 4678,1035 4712,1065 C 4735,1084 4761,1100 4771,1100 C 4781,1100 4814,1078 4846,1051 C 4878,1024 4908,1003 4912,1006 C 4916,1009 4902,1034 4880,1061 C 4836,1117 4833,1131 4859,1175 C 4877,1205 4877,1205 4845,1250 C 4793,1323 4781,1380 4810,1416 C 4817,1423 4819,1433 4816,1439 C 4813,1444 4817,1451 4825,1454 C 4836,1458 4839,1467 4834,1485 C 4827,1513 4846,1549 4888,1588 C 4910,1609 4924,1612 4998,1613 L 5083,1615 L 5085,1670 C 5087,1700 5090,1739 5093,1755 C 5096,1775 5091,1796 5078,1818 C 5067,1836 5061,1857 5064,1866 C 5067,1874 5062,1892 5053,1906 C 5038,1929 5030,1974 5030,2029 C 5030,2063 5052,2103 5076,2115 C 5128,2141 5135,2155 5112,2196 C 5096,2226 5114,2240 5171,2240 C 5232,2240 5241,2255 5193,2275 C 5145,2295 5122,2316 5100,2360 C 5082,2398 5089,2450 5114,2450 C 5121,2450 5135,2456 5146,2464 C 5164,2478 5164,2479 5135,2489 C 5087,2506 5075,2516 5075,2536 C 5075,2549 5069,2554 5058,2552 C 5037,2549 5035,2561 5051,2577 C 5060,2586 5054,2594 5028,2610 C 5008,2621 4986,2645 4979,2662 C 4972,2679 4956,2705 4943,2721 C 4916,2752 4880,2882 4880,2946 C 4880,2994 4907,3108 4922,3128 C 4928,3134 4930,3140 4926,3140 C 4912,3140 4950,3198 4975,3214 C 4989,3223 4998,3236 4994,3241 C 4991,3247 5000,3264 5014,3279 C 5033,3299 5039,3312 5034,3326 C 5023,3353 4981,3395 4962,3395 C 4926,3395 4934,3484 4974,3530 C 4988,3545 4989,3584 4977,3596 C 4973,3600 4958,3590 4944,3575 C 4913,3542 4897,3555 4911,3603 C 4921,3638 4901,3670 4868,3670 C 4858,3670 4850,3671 4850,3673 C 4850,3674 4847,3699 4844,3728 C 4839,3772 4842,3789 4864,3834 C 4889,3885 4893,3888 4948,3903 C 4979,3912 5022,3922 5043,3926 C 5084,3933 5100,3947 5076,3956 C 5063,3961 4953,3949 4875,3933 C 4849,3928 4847,3929 4858,3943 C 4875,3963 4857,3974 4830,3960 C 4805,3947 4805,3951 4830,3997 C 4853,4040 4846,4059 4818,4033 C 4807,4023 4793,4015 4787,4015 C 4780,4014 4768,4011 4760,4008 C 4727,3994 4676,3980 4662,3980 C 4651,3980 4650,3983 4660,3995 C 4680,4019 4662,4032 4630,4015 C 4585,3992 4543,3996 4524,4024 C 4516,4038 4503,4047 4495,4044 C 4487,4041 4483,4045 4483,4057 C 4485,4069 4478,4075 4462,4076 C 4432,4078 4430,4080 4427,4131 C 4426,4160 4432,4191 4446,4220 C 4476,4281 4464,4292 4421,4242 C 4371,4185 4328,4166 4253,4166 C 4219,4166 4185,4172 4177,4178 C 4170,4185 4160,4187 4157,4184 C 4153,4180 4117,4196 4077,4220 C 4022,4251 3998,4271 3986,4297 C 3975,4319 3964,4330 3955,4327 C 3948,4324 3936,4328 3929,4336 C 3923,4344 3912,4349 3906,4348 C 3900,4347 3879,4349 3859,4353 C 3819,4361 3787,4390 3771,4434 C 3762,4456 3757,4460 3746,4451 C 3715,4425 3646,4468 3645,4513 C 3645,4528 3638,4536 3623,4538 C 3605,4541 3600,4548 3600,4573 C 3600,4591 3609,4619 3620,4637 C 3648,4684 3628,4686 3586,4640 C 3566,4618 3542,4600 3534,4600 C 3526,4600 3522,4605 3525,4611 C 3529,4617 3523,4624 3511,4627 C 3499,4630 3490,4637 3490,4642 C 3490,4657 3439,4715 3426,4715 C 3420,4715 3415,4724 3414,4735 C 3413,4746 3409,4763 3405,4773 C 3401,4783 3403,4796 3409,4804 C 3416,4813 3417,4821 3412,4824 C 3406,4827 3386,4812 3367,4791 C 3347,4769 3329,4754 3326,4758 C 3312,4772 3322,4813 3345,4834 C 3358,4847 3367,4860 3363,4863 C 3353,4873 3347,4871 3319,4847 z"
       style="fill:#000000;fill-opacity:0" />
  </g>
  <g
     id="g2903"
     transform="matrix(6.7241e-2,0,0,-6.7241e-2,-130.16551,137.82992)"
     style="fill:#000000;stroke:none" />
  <g
     inkscape:groupmode="layer"
     id="layer2"
     inkscape:label="Assembly"
     style="opacity:1;display:inline"
     transform="translate(-129.1943,-215.08981)">
    <path
       style="opacity:0.50000000000000000;fill:url(#radialGradient2472);fill-opacity:1;stroke:none;display:inline"
       id="path2454"
       d="M 362.03678,55.662822 C 360.1778,57.149995 357.45132,60.867921 355.96415,63.966203 C 353.60945,68.675582 348.15648,74.500363 346.04965,74.500363 C 345.67787,74.500363 344.93426,74.872147 344.19069,75.367879 C 342.33171,76.483244 335.88729,76.731128 332.91293,75.739676 C 331.54969,75.367879 329.69073,73.137114 328.94714,71.030284 L 327.33603,67.064485 L 324.98134,70.038831 L 322.50272,72.889265 L 317.29761,70.162755 C 314.32325,68.675582 310.48139,66.073033 308.74635,64.461936 C 305.89594,61.735449 305.27627,61.611501 304.03696,63.222622 C 303.16943,64.214076 302.79765,66.073033 303.16943,67.312345 C 305.27627,73.880694 296.47716,79.333678 290.90026,74.872147 C 287.92591,72.517457 287.80197,72.517457 286.93445,74.748222 C 286.56266,75.987536 285.0755,78.342225 283.83618,79.953322 C 282.59687,81.564443 281.60542,83.919121 281.60542,85.03451 C 281.60542,88.008868 274.4174,102.01309 270.94732,105.73102 C 269.46014,107.34213 267.60119,110.19255 266.73366,112.05152 C 264.37897,117.50451 258.80208,121.0985 251.86192,121.71815 C 246.65681,122.08995 245.16963,121.71815 242.81494,119.36346 C 240.33632,116.88484 238.84914,116.63698 224.34919,116.51305 C 212.69964,116.38912 208.1142,116.76091 207.12274,118.00022 C 206.37915,118.86774 205.01592,119.23953 204.14841,118.99168 C 203.03302,118.49594 201.54583,120.10706 200.05866,123.0814 C 198.1997,126.92327 197.82789,130.02156 198.07577,140.5557 C 198.57149,154.436 197.33218,159.39325 191.01169,168.6881 C 185.68265,176.37183 177.1314,180.70943 168.20835,180.2137 L 163.37503,179.8419 L 163.25109,185.4188 C 163.12715,188.51709 162.38358,192.23503 161.63998,193.7222 C 160.77249,195.20937 159.78104,199.91876 159.40923,204.25636 C 158.91351,208.59395 157.92206,213.17939 157.17848,214.54264 C 156.55883,215.90588 155.93918,217.39304 155.81524,217.88878 C 155.81524,218.26056 153.33662,221.35886 150.23834,224.70501 C 142.30674,233.25627 137.84521,240.07247 137.84521,243.66648 C 137.84521,245.40151 135.98625,249.86304 133.63156,253.58098 C 129.17002,260.64506 128.92217,263.24761 132.88797,260.76898 C 134.74694,259.52968 135.98625,260.02539 140.69561,263.86728 C 143.79391,266.34591 147.14005,268.45272 148.1315,268.45272 C 148.99902,268.45272 150.85799,269.44417 151.97335,270.80742 C 153.95626,273.03819 154.32806,272.91426 163.00323,268.57665 C 170.93483,264.61086 173.1656,263.99122 180.10573,264.23907 C 184.44334,264.363 188.65699,263.99122 189.27665,263.49548 C 191.63134,261.76045 197.95184,264.73478 200.67833,268.70058 C 204.02446,273.90571 206.99882,282.33301 206.62702,286.05095 C 206.50307,287.66207 206.25522,289.64497 206.13129,290.38856 C 205.88343,292.61933 203.52874,292.37146 200.80225,289.89284 C 197.95184,287.41421 194.72963,289.52103 197.08432,292.24752 C 200.05866,295.96545 200.92618,304.39278 198.94328,311.08508 C 197.95184,314.55514 196.34073,317.77736 195.47322,318.27307 C 194.60569,318.89275 193.73818,321.61922 193.73818,324.46964 C 193.61424,332.15339 192.99459,336.36703 192.00314,337.35849 C 191.50741,337.85421 191.13561,339.46533 191.13561,340.9525 C 191.13561,343.43113 185.31085,350.24734 183.32795,350.24734 C 181.71684,350.24734 169.69552,359.54217 165.48185,364.00368 C 155.07165,375.15749 148.75116,382.46943 149.61868,382.46943 C 150.11439,382.46943 149.61868,383.58482 148.37936,384.94807 C 145.405,388.29421 144.90929,398.9523 147.38791,411.34542 C 149.61868,422.37528 151.84943,427.08467 155.07165,427.2086 C 156.43489,427.2086 156.0631,427.58041 154.20412,428.44791 C 150.23834,430.05903 151.47764,431.17442 159.90497,433.9009 C 165.72972,435.75986 167.83654,437.24703 170.19124,440.7171 C 171.6784,443.07181 175.14848,447.28548 177.62711,450.01197 C 180.22967,452.73845 182.83222,456.9521 183.32795,459.3068 C 184.07153,462.03327 185.1869,463.6444 186.55015,463.6444 C 189.77238,463.6444 191.63134,466.49481 191.75528,471.45206 C 191.75528,474.67427 192.251,476.03752 193.61424,476.03752 C 194.60569,476.03752 197.58003,479.01185 200.18258,482.60587 C 204.89197,488.92636 204.89197,489.29814 202.78515,491.65284 C 200.55439,494.13148 200.80225,494.37934 206.75096,494.00753 C 209.47745,493.88361 211.58427,494.75113 213.56716,496.85797 C 217.16117,500.45196 217.53296,501.69127 217.65689,508.87929 C 217.78084,516.68696 221.00305,521.27241 226.20815,521.27241 C 229.43036,521.27241 231.41327,522.51172 235.75085,526.84933 C 240.21239,531.43477 240.83204,532.55015 239.46879,534.16127 C 237.85769,536.14415 237.73377,536.02022 243.8064,538.00313 C 244.79782,538.25099 246.28502,539.98602 246.90467,541.72107 C 248.39184,545.68687 250.25082,545.68687 254.46447,541.59715 C 258.43027,537.87921 272.93023,533.78946 279.87038,534.40913 C 288.54557,535.27665 290.77631,535.8963 298.46006,539.11852 C 310.35745,544.07576 314.94292,547.17404 317.6694,552.50308 C 320.27195,557.58427 322.50272,557.83213 322.50272,552.87489 C 322.50272,547.29796 335.39155,547.29796 340.59668,552.99881 C 343.19924,555.7253 347.28896,565.76373 347.28896,569.35773 C 347.28896,572.33207 353.11373,579.14829 356.33594,580.01582 C 361.04533,581.1312 362.78037,585.84058 361.41712,594.02005 C 360.30175,601.08413 360.30175,601.20807 356.33594,600.9602 C 351.13083,600.46446 350.26331,602.32344 354.22912,605.42171 C 358.5667,608.76787 361.91285,608.76787 363.2761,605.17385 C 366.00258,597.86191 368.35727,589.80639 368.35727,587.4517 C 368.35727,585.96451 369.2248,583.98162 370.34017,583.11409 C 371.45556,582.24656 372.8188,580.26368 373.31452,578.77651 C 374.18204,576.54574 375.42135,576.17396 380.99824,576.05001 C 388.80593,576.05001 394.25889,578.90043 398.10077,585.097 C 399.46401,587.32776 401.57085,589.55851 402.5623,589.93032 C 404.29733,590.54997 404.42126,591.9132 403.80161,597.11832 C 403.30587,600.58839 402.06656,606.5371 401.0751,610.37897 C 400.2076,614.0969 399.83579,617.69091 400.33153,618.18662 C 401.94263,619.79775 409.25457,609.88324 409.25457,606.28924 C 409.25457,603.06702 409.37851,603.06702 419.04514,603.06702 C 426.8528,603.06702 429.82717,602.5713 433.42117,600.46446 L 437.88269,597.73799 L 440.7331,600.46446 C 445.93822,605.42171 445.31856,601.08413 439.8656,593.52433 C 434.04082,585.71664 429.45536,575.43036 430.07503,571.46457 C 430.32288,570.10132 431.31433,568.24235 432.18186,567.25089 C 433.42117,565.88765 433.42117,565.02014 432.05791,562.41757 C 430.69468,559.81502 430.69468,558.82358 432.3058,556.71675 C 433.29723,555.3535 434.04082,553.3706 434.04082,552.25522 C 434.04082,550.27232 443.33567,537.13562 445.19463,536.39201 C 445.81431,536.14415 447.79718,536.88776 449.53223,538.12707 C 453.62196,540.85354 456.22451,538.87063 452.75444,535.64844 C 449.65616,532.79802 450.52367,530.69119 455.97665,527.34503 C 462.29714,523.37925 472.70737,522.38779 475.68172,525.23821 C 476.05351,525.73394 477.1689,525.73394 478.03642,525.36215 C 480.01931,524.61856 489.68595,531.06298 494.76713,536.39201 C 498.60899,540.48176 501.70728,550.52019 500.46797,555.47744 C 499.8483,557.83213 500.71583,559.81502 504.30983,564.27655 L 508.89528,569.85345 L 505.67307,575.92607 C 503.93803,579.27223 502.94659,582.24656 503.4423,582.61837 C 504.06197,582.99016 507.53203,579.76795 511.3739,575.67822 C 516.57902,569.85345 518.0662,567.37482 517.57047,565.39193 C 516.4551,560.80647 519.05765,556.46889 525.13028,552.99881 C 529.96358,550.1484 530.7072,549.15695 529.83965,546.92618 C 529.34394,545.43901 529.09608,542.83645 529.22,541.1014 C 529.34394,539.36638 529.46786,535.8963 529.46786,533.41768 C 529.5918,529.5758 530.45934,528.08864 534.67299,524.3707 C 537.52342,522.016 540.74563,520.03309 541.98494,520.03309 C 543.22425,520.03309 547.31398,522.75958 551.27978,526.10573 C 555.24558,529.45188 558.96352,532.05443 559.45923,531.68264 C 559.95497,531.31083 558.21993,528.21257 555.49345,524.86641 C 550.04047,517.92628 549.66867,516.19123 552.89088,510.73826 C 555.12165,507.02032 555.12165,507.02032 551.15586,501.44342 C 544.71143,492.39644 543.22425,485.33236 546.81825,480.87084 C 547.68578,480.00331 547.93364,478.764 547.56185,478.0204 C 547.19004,477.40076 547.68578,476.53323 548.67723,476.16145 C 550.04047,475.66571 550.41227,474.55035 549.7926,472.31959 C 548.9251,468.84951 551.27978,464.38797 556.4849,459.55466 C 559.21138,456.9521 560.94641,456.58032 570.11733,456.45638 L 580.65148,456.20853 L 580.89934,449.39229 C 581.14721,445.67436 581.519,440.84105 581.89078,438.85815 C 582.26259,436.37952 581.64293,433.77697 580.03183,431.05047 C 578.66858,428.81972 577.92499,426.21717 578.29678,425.10178 C 578.66858,424.11033 578.04893,421.87957 576.93354,420.14454 C 575.07458,417.29411 574.08313,411.71721 574.08313,404.90098 C 574.08313,400.68734 576.80961,395.73008 579.78397,394.24291 C 586.22839,391.02069 587.09591,389.28566 584.24548,384.20448 C 582.26259,380.48654 584.49333,378.7515 591.55743,378.7515 C 599.11723,378.7515 600.23261,376.89254 594.28391,374.41392 C 588.33522,371.93529 585.48479,369.33274 582.75832,363.87975 C 580.52755,359.17036 581.39507,352.72594 584.49333,352.72594 C 585.36087,352.72594 587.09591,351.98238 588.45916,350.99093 C 590.6899,349.25588 590.6899,349.13195 587.09591,347.89263 C 581.14721,345.78582 579.66004,344.54651 579.66004,342.06788 C 579.66004,340.45677 578.91644,339.83712 577.5532,340.08498 C 574.95065,340.45677 574.70279,338.9696 576.68568,336.9867 C 577.80107,335.87133 577.05747,334.87988 573.83527,332.89696 C 571.35664,331.53372 568.63015,328.55938 567.76264,326.45254 C 566.89511,324.3457 564.91223,321.12351 563.3011,319.1406 C 559.95497,315.29873 555.49345,299.18768 555.49345,291.25608 C 555.49345,285.30739 558.83959,271.17921 560.69855,268.70058 C 561.44215,267.957 561.69001,267.21341 561.19429,267.21341 C 559.45923,267.21341 564.16862,260.02539 567.26692,258.04251 C 569.00195,256.92713 570.11733,255.31603 569.6216,254.69636 C 569.24981,253.95279 570.36519,251.84594 572.10022,249.98697 C 574.45491,247.50834 575.1985,245.89725 574.57884,244.1622 C 573.21559,240.81606 568.0105,235.61096 565.6558,235.61096 C 561.19429,235.61096 562.18571,224.58108 567.14297,218.88022 C 568.87801,217.02125 569.00195,212.18794 567.51478,210.70079 C 567.01905,210.20505 565.16008,211.44435 563.42503,213.30333 C 559.58316,217.39304 557.60027,215.78194 559.33531,209.83325 C 560.57462,205.49567 558.096,201.52986 554.00627,201.52986 C 552.76696,201.52986 551.77551,201.40593 551.77551,201.15806 C 551.77551,201.03415 551.40372,197.93585 551.03192,194.34187 C 550.41227,188.88887 550.78405,186.78204 553.51054,181.20515 C 556.60882,174.88466 557.10454,174.51286 563.92077,172.65389 C 567.76264,171.53851 573.09167,170.29919 575.69422,169.80347 C 580.77541,168.93596 582.75832,167.20092 579.78397,166.08555 C 578.17285,165.46588 564.54042,166.95305 554.8738,168.93596 C 551.65157,169.55562 551.40372,169.43168 552.76696,167.69664 C 554.8738,165.21802 552.64303,163.85478 549.29688,165.5898 C 546.19861,167.20092 546.19861,166.70519 549.29688,161.00436 C 552.14729,155.67531 551.27978,153.32061 547.80971,156.54283 C 546.44647,157.78214 544.71143,158.77359 543.96784,158.77359 C 543.10032,158.89753 541.61314,159.26931 540.62169,159.64112 C 536.53197,161.37615 530.21148,163.11118 528.47641,163.11118 C 527.11317,163.11118 526.98924,162.73939 528.22855,161.25222 C 530.7072,158.27786 528.47641,156.66676 524.51062,158.77359 C 518.93372,161.62401 513.72859,161.12829 511.3739,157.65822 C 510.38246,155.92318 508.77135,154.80781 507.77991,155.17959 C 506.78846,155.55137 506.29273,155.05567 506.29273,153.56849 C 506.5406,152.0813 505.67307,151.33773 503.69016,151.21379 C 499.97223,150.96593 499.72438,150.71806 499.35258,144.39757 C 499.22865,140.80356 499.97223,136.96169 501.70728,133.36769 C 505.42522,125.80789 503.93803,124.44464 498.60899,130.6412 C 492.41242,137.70529 487.08339,140.05999 477.78854,140.05999 C 473.57488,140.05999 469.36123,139.31639 468.36978,138.57281 C 467.50225,137.70529 466.26294,137.45743 465.89116,137.82922 C 465.39541,138.32493 460.9339,136.34205 455.97665,133.36769 C 449.16043,129.52582 446.18609,127.04719 444.69891,123.825 C 443.33567,121.0985 441.97241,119.73525 440.85705,120.10706 C 439.98952,120.47884 438.50235,119.98313 437.63483,118.99168 C 436.89122,118.00022 435.52799,117.38056 434.78441,117.50451 C 434.04082,117.62843 431.43827,117.38056 428.95964,116.88484 C 424.00239,115.89339 420.0366,112.29938 418.05369,106.84641 C 416.93831,104.11993 416.31866,103.62419 414.95541,104.73957 C 411.11355,107.96179 402.5623,102.63275 402.43836,97.055843 C 402.43836,95.196885 401.57085,94.205432 399.71187,93.957572 C 397.48112,93.585764 396.86146,92.718259 396.86146,89.619965 C 396.86146,87.3892 397.97683,83.919121 399.34008,81.68838 C 402.81016,75.8636 400.33153,75.615739 395.12642,81.316571 C 392.64779,84.04307 389.67343,86.273823 388.68198,86.273823 C 387.69054,86.273823 387.19481,85.654167 387.56662,84.910574 C 388.06234,84.167005 387.31875,83.299476 385.83158,82.927692 C 384.3444,82.555884 383.22901,81.68838 383.22901,81.068711 C 383.22901,79.209754 376.90852,72.021736 375.29743,72.021736 C 374.55384,72.021736 373.93419,70.906348 373.81025,69.543111 C 373.6863,68.179874 373.19059,66.073033 372.69488,64.83372 C 372.19913,63.594407 372.447,61.983309 373.19059,60.991857 C 374.05811,59.876468 374.18204,58.885015 373.56238,58.513231 C 372.8188,58.141447 370.34017,60.000404 367.98549,62.602954 C 365.50686,65.32944 363.2761,67.188422 362.9043,66.692701 C 361.16925,64.957655 362.40857,59.876468 365.259,57.273918 C 366.8701,55.662822 367.98549,54.0517 367.48974,53.679915 C 366.25043,52.440603 365.50686,52.688463 362.03678,55.662822 z" />
  </g>
</svg>
