<?xml version="1.0" standalone="no"?>
<!DOCTYPE svg PUBLIC "-//W3C//DTD SVG 20010904//EN"
 "http://www.w3.org/TR/2001/REC-SVG-20010904/DTD/svg10.dtd">
<svg version="1.0" xmlns="http://www.w3.org/2000/svg"
 width="468pt" height="350pt" viewBox="0 0 468 350"
 preserveAspectRatio="xMidYMid meet">
<metadata>
Created by potrace 1.7, written by Peter Selinger 2001-2005
</metadata>
<g transform="translate(0,350) scale(0.067241,-0.067241)"
fill="#000000" stroke="none">
<path d="M0 2600 l0 -2600 3480 0 3480 0 0 2600 0 2600 -3480 0 -3480 0 0
-2600z m3363 2263 c4 -3 -5 -16 -18 -29 -23 -21 -33 -62 -19 -76 3 -4 21 11
41 33 19 21 39 36 45 33 5 -3 4 -11 -3 -20 -6 -8 -8 -21 -4 -31 4 -10 8 -27 9
-38 1 -11 6 -20 12 -20 13 0 64 -58 64 -73 0 -5 9 -12 21 -15 12 -3 18 -10 14
-16 -3 -6 1 -11 9 -11 8 0 32 18 52 40 42 46 62 44 34 -3 -11 -18 -20 -46 -20
-64 0 -25 5 -32 23 -35 15 -2 22 -10 22 -25 1 -45 70 -88 101 -62 11 9 16 5
25 -17 16 -44 48 -73 88 -81 20 -4 41 -6 47 -5 6 1 17 -4 23 -12 7 -8 19 -12
26 -9 9 3 20 -8 31 -30 12 -26 36 -46 91 -77 40 -24 76 -40 80 -36 3 3 13 1
20 -6 8 -6 42 -12 76 -12 75 0 118 19 168 76 43 50 55 39 25 -22 -14 -29 -20
-60 -19 -89 3 -51 5 -53 35 -55 16 -1 23 -7 21 -19 0 -12 4 -16 12 -13 8 3 21
-6 29 -20 19 -28 61 -32 106 -9 32 17 50 4 30 -20 -10 -12 -9 -15 2 -15 14 0
65 14 98 28 8 3 20 6 27 7 6 0 20 8 31 18 28 26 35 7 12 -36 -25 -46 -25 -50
0 -37 27 14 45 3 28 -17 -11 -14 -9 -15 17 -10 78 16 188 28 201 23 24 -9 8
-23 -33 -30 -21 -4 -64 -14 -95 -23 -55 -15 -59 -18 -84 -69 -22 -45 -25 -62
-20 -106 3 -29 6 -54 6 -55 0 -2 8 -3 18 -3 33 0 53 -32 43 -67 -14 -48 2 -61
33 -28 14 15 29 25 33 21 12 -12 11 -51 -3 -66 -40 -46 -48 -135 -12 -135 19
0 61 -42 72 -69 5 -14 -1 -27 -20 -47 -14 -15 -23 -32 -20 -38 4 -5 -5 -18
-19 -27 -25 -16 -63 -74 -49 -74 4 0 2 -6 -4 -12 -15 -20 -42 -134 -42 -182 0
-64 36 -194 63 -225 13 -16 29 -42 36 -59 7 -17 29 -41 49 -52 26 -16 32 -24
23 -33 -16 -16 -14 -28 7 -25 11 2 17 -3 17 -16 0 -20 12 -30 60 -47 29 -10
29 -11 11 -25 -11 -8 -25 -14 -32 -14 -25 0 -32 -52 -14 -90 22 -44 45 -65 93
-85 48 -20 39 -35 -22 -35 -57 0 -75 -14 -59 -44 23 -41 16 -55 -36 -81 -24
-12 -46 -52 -46 -86 0 -55 8 -100 23 -123 9 -14 14 -32 11 -40 -3 -9 3 -30 14
-48 13 -22 18 -43 15 -63 -3 -16 -6 -55 -8 -85 l-2 -55 -85 -2 c-74 -1 -88 -4
-110 -25 -42 -39 -61 -75 -54 -103 5 -18 2 -27 -9 -31 -8 -3 -12 -10 -9 -15 3
-6 1 -16 -6 -23 -29 -36 -17 -93 35 -166 32 -45 32 -45 14 -75 -26 -44 -23
-58 21 -114 22 -27 36 -52 32 -55 -4 -3 -34 18 -66 45 -32 27 -65 49 -75 49
-10 0 -36 -16 -59 -35 -34 -30 -41 -42 -42 -73 0 -20 -1 -48 -2 -62 -1 -14 1
-35 5 -47 7 -18 1 -26 -38 -49 -49 -28 -70 -63 -61 -100 4 -16 -8 -36 -50 -83
-31 -33 -59 -59 -64 -56 -4 3 4 27 18 54 l26 49 -37 45 c-29 36 -36 52 -31 71
10 40 -15 121 -46 154 -41 43 -119 95 -135 89 -7 -3 -16 -3 -19 1 -24 23 -108
15 -159 -17 -44 -27 -51 -44 -26 -67 28 -26 7 -42 -26 -20 -14 10 -30 16 -35
14 -15 -6 -90 -112 -90 -128 0 -9 -6 -25 -14 -36 -13 -17 -13 -25 -2 -46 11
-21 11 -28 1 -39 -7 -8 -15 -23 -17 -34 -5 -32 32 -115 79 -178 44 -61 49 -96
7 -56 l-23 22 -36 -22 c-29 -17 -53 -21 -116 -21 -78 0 -79 0 -79 -26 0 -29
-59 -109 -72 -96 -4 4 -1 33 6 63 8 31 18 79 22 107 5 42 4 53 -10 58 -8 3
-25 21 -36 39 -31 50 -75 73 -138 73 -45 -1 -55 -4 -62 -22 -4 -12 -15 -28
-24 -35 -9 -7 -16 -23 -16 -35 0 -19 -19 -84 -41 -143 -11 -29 -38 -29 -73 -2
-32 25 -25 40 17 36 32 -2 32 -1 41 56 11 66 -3 104 -41 113 -26 7 -73 62 -73
86 0 29 -33 110 -54 132 -42 46 -146 46 -146 1 0 -40 -18 -38 -39 3 -22 43
-59 68 -155 108 -62 26 -80 31 -150 38 -56 5 -173 -28 -205 -58 -34 -33 -49
-33 -61 -1 -5 14 -17 28 -25 30 -49 16 -48 15 -35 31 11 13 6 22 -30 59 -35
35 -51 45 -77 45 -42 0 -68 37 -69 100 -1 58 -4 68 -33 97 -16 17 -33 24 -55
23 -48 -3 -50 -1 -32 19 17 19 17 22 -21 73 -21 29 -45 53 -53 53 -11 0 -15
11 -15 37 -1 40 -16 63 -42 63 -11 0 -20 13 -26 35 -4 19 -25 53 -46 75 -20
22 -48 56 -60 75 -19 28 -36 40 -83 55 -68 22 -78 31 -46 44 15 7 18 10 7 10
-26 1 -44 39 -62 128 -20 100 -16 186 8 213 10 11 14 20 10 20 -7 0 44 59 128
149 34 36 131 111 144 111 16 0 63 55 63 75 0 12 3 25 7 29 8 8 13 42 14 104
0 23 7 45 14 50 7 4 20 30 28 58 16 54 9 122 -15 152 -19 22 7 39 30 19 22
-20 41 -22 43 -4 1 6 3 22 4 35 3 30 -21 98 -48 140 -22 32 -73 56 -92 42 -5
-4 -39 -7 -74 -6 -56 2 -74 -3 -138 -35 -70 -35 -73 -36 -89 -18 -9 11 -24 19
-31 19 -8 0 -35 17 -60 37 -38 31 -48 35 -63 25 -32 -20 -30 1 6 58 19 30 34
66 34 80 0 29 36 84 100 153 25 27 45 52 45 55 1 4 6 16 11 27 6 11 14 48 18
83 3 35 11 73 18 85 6 12 12 42 13 67 l1 45 39 -3 c72 -4 141 31 184 93 51 75
61 115 57 227 -2 85 1 110 16 141 12 24 24 37 33 33 7 -2 18 1 24 8 8 10 45
13 139 12 117 -1 129 -3 149 -23 47 -47 163 -11 193 59 7 15 22 38 34 51 28
30 86 143 86 167 0 9 8 28 18 41 10 13 22 32 25 42 7 18 8 18 32 -1 45 -36
116 8 99 61 -3 10 0 25 7 33 10 13 15 12 38 -10 14 -13 45 -34 69 -46 l42 -22
20 23 19 24 13 -32 c6 -17 21 -35 32 -38 24 -8 76 -6 91 3 6 4 12 7 15 7 17 0
61 47 80 85 12 25 34 55 49 67 28 24 34 26 44 16z"/>
</g>
</svg>
