<?xml version="1.0" encoding="UTF-8" standalone="no"?>
<!-- Created with Inkscape (http://www.inkscape.org/) -->
<svg
   xmlns:dc="http://purl.org/dc/elements/1.1/"
   xmlns:cc="http://creativecommons.org/ns#"
   xmlns:rdf="http://www.w3.org/1999/02/22-rdf-syntax-ns#"
   xmlns:svg="http://www.w3.org/2000/svg"
   xmlns="http://www.w3.org/2000/svg"
   xmlns:xlink="http://www.w3.org/1999/xlink"
   xmlns:sodipodi="http://sodipodi.sourceforge.net/DTD/sodipodi-0.dtd"
   xmlns:inkscape="http://www.inkscape.org/namespaces/inkscape"
   width="761.30536"
   height="473.94794"
   id="svg2"
   sodipodi:version="0.32"
   inkscape:version="0.46"
   sodipodi:docname="property_cartoon.svg"
   inkscape:output_extension="org.inkscape.output.svg.inkscape"
   version="1.0"
   inkscape:export-filename="/home/mbergins/Documents/Projects/focal_adhesions/doc/presentations/VCU 8-4-09/figures/analysis/property_cartoon.png"
   inkscape:export-xdpi="150"
   inkscape:export-ydpi="150">
  <defs
     id="defs4">
    <marker
       inkscape:stockid="Arrow2Mend"
       orient="auto"
       refY="0"
       refX="0"
       id="Arrow2Mend"
       style="overflow:visible">
      <path
         id="path3249"
         style="font-size:12px;fill-rule:evenodd;stroke-width:0.625;stroke-linejoin:round"
         d="M 8.7185878,4.0337352 L -2.2072895,0.016013256 L 8.7185884,-4.0017078 C 6.97309,-1.6296469 6.9831476,1.6157441 8.7185878,4.0337352 z"
         transform="scale(-0.6,-0.6)" />
    </marker>
    <marker
       inkscape:stockid="Arrow1Lend"
       orient="auto"
       refY="0"
       refX="0"
       id="Arrow1Lend"
       style="overflow:visible">
      <path
         id="path3225"
         d="M 0,0 L 5,-5 L -12.5,0 L 5,5 L 0,0 z"
         style="fill-rule:evenodd;stroke:#000000;stroke-width:1pt;marker-start:none"
         transform="matrix(-0.8,0,0,-0.8,-10,0)" />
    </marker>
    <inkscape:perspective
       sodipodi:type="inkscape:persp3d"
       inkscape:vp_x="0 : 526.18109 : 1"
       inkscape:vp_y="0 : 1000 : 0"
       inkscape:vp_z="744.09448 : 526.18109 : 1"
       inkscape:persp3d-origin="372.04724 : 350.78739 : 1"
       id="perspective10" />
  </defs>
  <sodipodi:namedview
     id="base"
     pagecolor="#ffffff"
     bordercolor="#666666"
     borderopacity="1.0"
     gridtolerance="10000"
     guidetolerance="10"
     objecttolerance="10"
     inkscape:pageopacity="0.0"
     inkscape:pageshadow="2"
     inkscape:zoom="1.6162113"
     inkscape:cx="380.65269"
     inkscape:cy="236.97397"
     inkscape:document-units="px"
     inkscape:current-layer="layer1"
     showgrid="false"
     showguides="true"
     inkscape:guide-bbox="true"
     inkscape:window-width="1910"
     inkscape:window-height="1000"
     inkscape:window-x="1920"
     inkscape:window-y="0"
     borderlayer="true">
    <sodipodi:guide
       orientation="0,1"
       position="600.61647,921.45859"
       id="guide4526" />
    <sodipodi:guide
       orientation="0,1"
       position="624.799,652.93084"
       id="guide4596" />
  </sodipodi:namedview>
  <metadata
     id="metadata7">
    <rdf:RDF>
      <cc:Work
         rdf:about="">
        <dc:format>image/svg+xml</dc:format>
        <dc:type
           rdf:resource="http://purl.org/dc/dcmitype/StillImage" />
      </cc:Work>
    </rdf:RDF>
  </metadata>
  <g
     inkscape:label="Layer 1"
     inkscape:groupmode="layer"
     id="layer1"
     transform="translate(-70.655251,-103.39798)">
    <path
       style="opacity:0.75;fill:#ffff00;fill-opacity:1;fill-rule:evenodd;stroke:#000000;stroke-width:0.73150212px;stroke-linecap:butt;stroke-linejoin:miter;stroke-opacity:1"
       d="M 490.50553,325.44567 C 471.73757,314.18489 432.30957,324.48925 422.91288,343.28262 C 407.69974,373.70892 436.38679,398.87786 458.58678,412.75285 C 485.60353,429.63833 549.45159,448.92049 564.66968,410.87527 C 573.67505,388.36182 564.79132,365.93516 548.7103,349.85414 C 537.26404,338.40787 519.24395,321.83423 503.64854,317.93538 C 497.41252,316.37637 494.5777,321.3735 490.50553,325.44567 z"
       id="path3161" />
    <path
       style="fill:#ff0000;fill-opacity:1;fill-rule:evenodd;stroke:#000000;stroke-width:1px;stroke-linecap:butt;stroke-linejoin:miter;stroke-opacity:1"
       d="M 388.60586,351.83876 C 362.94912,336.44471 309.04907,350.53128 296.20333,376.22276 C 275.40621,417.81702 314.62284,452.22423 344.97133,471.19203 C 381.90459,494.27532 469.18809,520.635 489.99198,468.62529 C 502.30278,437.84827 490.15827,407.1899 468.17471,385.20634 C 452.5271,369.55873 427.89273,346.90174 406.57302,341.57181 C 398.04807,339.44057 394.17272,346.2719 388.60586,351.83876 z"
       id="path2385" />
    <path
       style="opacity:0.5;fill:#00ff00;fill-opacity:1;fill-rule:evenodd;stroke:#000000;stroke-width:0.48798078px;stroke-linecap:butt;stroke-linejoin:miter;stroke-opacity:1"
       d="M 542.18055,300.90918 C 529.66055,293.39718 503.35836,300.27115 497.08988,312.8081 C 486.94129,333.1053 506.07825,349.89536 520.88773,359.15128 C 538.91046,370.41548 581.50313,383.2785 591.65502,357.89876 C 597.66246,342.88016 591.73617,327.91947 581.00862,317.19191 C 573.37288,309.55618 561.35178,298.50001 550.94818,295.8991 C 546.78816,294.8591 544.89707,298.19266 542.18055,300.90918 z"
       id="path3159" />
    <path
       style="opacity:0.25;fill:#0000ff;fill-opacity:1;fill-rule:evenodd;stroke:#000000;stroke-width:0.18255083px;stroke-linecap:butt;stroke-linejoin:miter;stroke-opacity:1"
       d="M 574.90941,289.79845 C 570.22575,286.98825 560.38625,289.55977 558.04125,294.24977 C 554.24473,301.84284 561.40375,308.12391 566.94389,311.58649 C 573.68609,315.80037 589.61976,320.61235 593.41753,311.11793 C 595.66488,305.49956 593.44789,299.90285 589.43477,295.88973 C 586.57829,293.03325 582.08126,288.8972 578.18933,287.92421 C 576.63309,287.53515 575.92564,288.78222 574.90941,289.79845 z"
       id="path3163" />
    <path
       style="opacity:0.3;fill:none;fill-rule:evenodd;stroke:#000000;stroke-width:5;stroke-linecap:butt;stroke-linejoin:miter;stroke-miterlimit:4;stroke-dasharray:none;stroke-opacity:1"
       d="M 85.985687,169.40463 C 153.27554,116.40867 252.72612,128.33734 322.63652,169.49121 C 366.92921,211.77247 416.93993,256.06887 483.15269,249.4079 C 531.45654,255.61525 601.89238,208.24668 628.00565,271.25185 C 645.19277,328.843 627.44021,392.6957 650.23598,449.41179 C 693.22793,482.23301 657.8322,457.49578 622.80498,497.498 C 604.22742,552.35877 563.35449,572.24763 514.63078,574.84592 C 449.33724,569.84266 414.11164,552.59892 347.78505,553.68986 C 287.10705,543.44794 281.34167,538.16815 225.73598,508.24731 C 191.54783,499.5077 92.555491,459.01984 77.002111,496.66361"
       id="path3192"
       sodipodi:nodetypes="cccccccccc" />
    <text
       xml:space="preserve"
       style="font-size:40px;font-style:normal;font-weight:normal;fill:#000000;fill-opacity:1;stroke:none;stroke-width:1px;stroke-linecap:butt;stroke-linejoin:miter;stroke-opacity:1;font-family:Bitstream Vera Sans"
       x="214.32253"
       y="256.67374"
       id="text3202"><tspan
         sodipodi:role="line"
         id="tspan3204"
         x="214.32253"
         y="256.67374">Dynamics</tspan></text>
    <text
       xml:space="preserve"
       style="font-size:40px;font-style:normal;font-weight:normal;text-align:start;text-anchor:start;fill:#000000;fill-opacity:1;stroke:none;stroke-width:1px;stroke-linecap:butt;stroke-linejoin:miter;stroke-opacity:1;font-family:Bitstream Vera Sans"
       id="text3206"><textPath
         xlink:href="#path3192"
         id="textPath3210"><tspan
   id="tspan3208"
   style="text-align:start;text-anchor:start">Cell Edge</tspan></textPath></text>
    <text
       xml:space="preserve"
       style="font-size:40px;font-style:normal;font-weight:normal;fill:#000000;fill-opacity:1;stroke:none;stroke-width:1px;stroke-linecap:butt;stroke-linejoin:miter;stroke-opacity:1;font-family:Bitstream Vera Sans"
       x="68.018532"
       y="441.47876"
       id="text3213"><tspan
         sodipodi:role="line"
         id="tspan3215"
         x="68.018532"
         y="441.47876">Statics</tspan></text>
    <path
       style="fill:none;fill-rule:evenodd;stroke:#000000;stroke-width:4;stroke-linecap:butt;stroke-linejoin:miter;marker-end:url(#Arrow2Mend);stroke-miterlimit:4;stroke-dasharray:none;stroke-opacity:1"
       d="M 325.9756,427.36172 L 216.88928,432.49519"
       id="path3217"
       sodipodi:nodetypes="cc" />
    <path
       style="fill:none;fill-rule:evenodd;stroke:#000000;stroke-width:1.67654181;stroke-linecap:butt;stroke-linejoin:miter;stroke-miterlimit:4;stroke-dasharray:none;stroke-opacity:1"
       d="M 576.66908,286.00637 L 578.54983,309.59936"
       id="path4522" />
    <path
       style="fill:none;fill-rule:evenodd;stroke:#000000;stroke-width:1.67654181;stroke-linecap:butt;stroke-linejoin:miter;stroke-miterlimit:4;stroke-dasharray:none;stroke-opacity:1"
       d="M 631.00444,281.67494 L 632.88519,305.26792"
       id="path4524" />
    <path
       style="fill:none;fill-rule:evenodd;stroke:#000000;stroke-width:1.67654181;stroke-linecap:butt;stroke-linejoin:miter;stroke-miterlimit:4;stroke-dasharray:none;stroke-opacity:1"
       d="M 576.89451,297.85986 L 631.94481,293.47143"
       id="path4530" />
    <g
       id="g4587"
       transform="matrix(1.0814515,0,0,1,-49.986543,-0.4537393)">
      <path
         id="path4558"
         d="M 553.42327,320.30901 L 556.15167,343.62253"
         style="fill:none;fill-rule:evenodd;stroke:#000000;stroke-width:2.00731564;stroke-linecap:butt;stroke-linejoin:miter;stroke-miterlimit:4;stroke-dasharray:none;stroke-opacity:1" />
      <path
         id="path4560"
         d="M 632.24757,316.02889 L 634.97597,339.3424"
         style="fill:none;fill-rule:evenodd;stroke:#000000;stroke-width:2.00731564;stroke-linecap:butt;stroke-linejoin:miter;stroke-miterlimit:4;stroke-dasharray:none;stroke-opacity:1" />
      <path
         id="path4562"
         d="M 553.7503,332.02209 L 633.61176,327.68564"
         style="fill:none;fill-rule:evenodd;stroke:#000000;stroke-width:2.00731564;stroke-linecap:butt;stroke-linejoin:miter;stroke-miterlimit:4;stroke-dasharray:none;stroke-opacity:1" />
    </g>
    <text
       xml:space="preserve"
       style="font-size:40px;font-style:normal;font-weight:normal;fill:#000000;fill-opacity:1;stroke:none;stroke-width:1px;stroke-linecap:butt;stroke-linejoin:miter;stroke-opacity:1;font-family:Bitstream Vera Sans"
       x="697.95673"
       y="370.6489"
       id="text4570"><tspan
         sodipodi:role="line"
         id="tspan4572"
         x="697.95673"
         y="370.6489">Spatial</tspan></text>
    <path
       style="fill:none;fill-rule:evenodd;stroke:#000000;stroke-width:4;stroke-linecap:butt;stroke-linejoin:miter;stroke-miterlimit:4;stroke-dasharray:none;stroke-opacity:1"
       d="M 303.42703,338.47047 L 290.84433,297.31477 L 557.68807,224.97187 L 571.56229,276.14824"
       id="path4576"
       sodipodi:nodetypes="cccc" />
    <path
       style="fill:none;fill-rule:evenodd;stroke:#000000;stroke-width:2;stroke-linecap:butt;stroke-linejoin:miter;stroke-miterlimit:4;stroke-dasharray:none;stroke-opacity:1"
       d="M 502.3063,361.84945 L 500.62632,390.43025"
       id="path4592" />
    <path
       style="fill:none;fill-rule:evenodd;stroke:#000000;stroke-width:2;stroke-linecap:butt;stroke-linejoin:miter;stroke-miterlimit:4;stroke-dasharray:none;stroke-opacity:1"
       d="M 636.46188,361.93243 L 634.7819,390.51322"
       id="path4594" />
    <path
       style="fill:none;fill-rule:evenodd;stroke:#000000;stroke-width:2;stroke-linecap:butt;stroke-linejoin:miter;stroke-miterlimit:4;stroke-dasharray:none;stroke-opacity:1"
       d="M 499.94186,377.26571 L 635.51523,378.03748"
       id="path4598" />
    <g
       id="g4610"
       transform="matrix(5.8250752,0,0,1,-3048.2722,0.6806126)">
      <path
         id="path4612"
         d="M 591.37097,398.75073 L 591.24082,427.32625"
         style="fill:none;fill-rule:evenodd;stroke:#000000;stroke-width:0.82866544;stroke-linecap:butt;stroke-linejoin:miter;stroke-miterlimit:4;stroke-dasharray:none;stroke-opacity:1" />
      <path
         id="path4614"
         d="M 633.1034,404.51959 L 632.97324,433.09512"
         style="fill:none;fill-rule:evenodd;stroke:#000000;stroke-width:0.82866544;stroke-linecap:butt;stroke-linejoin:miter;stroke-miterlimit:4;stroke-dasharray:none;stroke-opacity:1" />
      <path
         id="path4616"
         d="M 590.84715,414.10234 L 633.03006,420.62168"
         style="fill:none;fill-rule:evenodd;stroke:#000000;stroke-width:0.82866544;stroke-linecap:butt;stroke-linejoin:miter;stroke-miterlimit:4;stroke-dasharray:none;stroke-opacity:1" />
    </g>
    <path
       style="fill:none;fill-rule:evenodd;stroke:#000000;stroke-width:4;stroke-linecap:butt;stroke-linejoin:miter;stroke-miterlimit:4;stroke-dasharray:none;stroke-opacity:1"
       d="M 655.80131,275.92423 L 686.60216,275.92423 L 686.60216,436.3453 L 657.08468,436.3453"
       id="path4629" />
  </g>
</svg>
