<?xml version="1.0" encoding="UTF-8" standalone="no"?>
<!-- Created with Inkscape (http://www.inkscape.org/) -->
<svg
   xmlns:dc="http://purl.org/dc/elements/1.1/"
   xmlns:cc="http://creativecommons.org/ns#"
   xmlns:rdf="http://www.w3.org/1999/02/22-rdf-syntax-ns#"
   xmlns:svg="http://www.w3.org/2000/svg"
   xmlns="http://www.w3.org/2000/svg"
   xmlns:xlink="http://www.w3.org/1999/xlink"
   xmlns:sodipodi="http://sodipodi.sourceforge.net/DTD/sodipodi-0.dtd"
   xmlns:inkscape="http://www.inkscape.org/namespaces/inkscape"
   width="700.45496"
   height="321.73999"
   id="svg3220"
   sodipodi:version="0.32"
   inkscape:version="0.46"
   version="1.0"
   sodipodi:docname="spacial_cartoon.svg"
   inkscape:output_extension="org.inkscape.output.svg.inkscape"
   inkscape:export-filename="/home/mbergins/Documents/Projects/focal_adhesions/doc/presentations/VCU_8-4-09/figures/analysis/spacial_cartoon.png"
   inkscape:export-xdpi="150"
   inkscape:export-ydpi="150">
  <defs
     id="defs3222">
    <inkscape:perspective
       sodipodi:type="inkscape:persp3d"
       inkscape:vp_x="0 : 526.18109 : 1"
       inkscape:vp_y="0 : 1000 : 0"
       inkscape:vp_z="744.09448 : 526.18109 : 1"
       inkscape:persp3d-origin="372.04724 : 350.78739 : 1"
       id="perspective3228" />
  </defs>
  <sodipodi:namedview
     id="base"
     pagecolor="#ffffff"
     bordercolor="#666666"
     borderopacity="1.0"
     gridtolerance="10000"
     guidetolerance="10"
     objecttolerance="10"
     inkscape:pageopacity="0.0"
     inkscape:pageshadow="2"
     inkscape:zoom="0.77919942"
     inkscape:cx="155.79965"
     inkscape:cy="115.50317"
     inkscape:document-units="px"
     inkscape:current-layer="layer2"
     showgrid="false"
     inkscape:window-width="1920"
     inkscape:window-height="1004"
     inkscape:window-x="0"
     inkscape:window-y="25" />
  <metadata
     id="metadata3225">
    <rdf:RDF>
      <cc:Work
         rdf:about="">
        <dc:format>image/svg+xml</dc:format>
        <dc:type
           rdf:resource="http://purl.org/dc/dcmitype/StillImage" />
      </cc:Work>
    </rdf:RDF>
  </metadata>
  <g
     inkscape:groupmode="layer"
     id="layer2"
     inkscape:label="Text Guides"
     style="display:none"
     transform="translate(-1.0948644,-282.90781)">
    <path
       style="fill:none;fill-rule:evenodd;stroke:#000000;stroke-width:1px;stroke-linecap:butt;stroke-linejoin:miter;stroke-opacity:1"
       d="M 253,345.86218 C 264.75775,345.40599 275.71987,339.17296 287.78659,340.11965 C 321.24461,337.75704 354.8088,334.6537 388.382,336.76414 C 411.30554,338.36598 434.49389,340.63444 456.46936,347.61834 C 465.7393,351.94924 476.22031,354.43468 484.20418,361.02656 C 492.87312,371.81417 503.57261,380.64896 512.76463,390.90987 C 518.17387,401.32505 532.75697,407.34604 534.43945,418.60739 C 533.60759,420.192 536.78891,422.69068 537.13041,420.27085"
       id="path3809" />
    <path
       style="fill:none;fill-rule:evenodd;stroke:#000000;stroke-width:1px;stroke-linecap:butt;stroke-linejoin:miter;stroke-opacity:1"
       d="M 215.4174,436.52652 C 225.14208,437.50783 233.78519,435.02175 243.72792,436.52652 C 262.98843,437.24968 282.18521,437.10635 301.4833,436.52652 C 321.99726,436.29439 342.56521,438.5925 363.00478,436.52652 C 383.57053,436.74963 404.24218,435.7338 424.74097,436.52652 C 433.04626,441.86956 443.59467,442.24788 448.17419,451.5835 C 454.22664,460.43145 457.18144,470.55309 460.88904,480.4617 C 465.44086,489.23427 469.13289,498.37426 471.12942,508.06839 C 474.139,517.10146 479.59455,525.59435 478.50633,535.51569 L 488.77518,563.66239 L 500.32521,594.38085"
       id="path2397"
       sodipodi:nodetypes="ccccccccccc" />
  </g>
  <g
     inkscape:label="Layer 1"
     inkscape:groupmode="layer"
     id="layer1"
     style="display:inline"
     transform="translate(-1.0948644,-282.90781)">
    <path
       style="fill:none;fill-rule:evenodd;stroke:#000000;stroke-width:4;stroke-linecap:butt;stroke-linejoin:miter;stroke-miterlimit:4;stroke-dasharray:none;stroke-opacity:1"
       d="M 25.66737,476.12972 C 39.888233,458.58266 43.700877,425.74661 48.768004,400.41098 C 56.030975,364.09612 71.692222,356.62562 101.38611,338.80929 C 139.66698,315.84077 189.44426,306.13294 232.2897,293.89139 C 263.47014,284.98269 296.46613,284.90781 328.54234,284.90781 C 359.1231,284.90781 389.54594,293.89139 420.94487,293.89139 C 457.03684,293.89139 509.38764,278.14657 540.29814,302.87497 C 562.80752,320.88247 585.28458,358.1969 598.04973,383.72719 C 613.71438,415.05649 625.80636,457.05855 632.70068,491.53014 C 639.48734,525.46345 647.53211,559.31473 659.65142,591.63289 C 660.93479,595.0552 662.21815,598.47752 663.50152,601.89983 C 672.70059,626.43069 677.62855,650.70771 684.03542,676.33521 C 690.16332,700.84682 698.15247,732.19363 698.15247,757.18742 C 698.15247,773.57668 701.29656,791.51836 698.15247,807.2388 C 697.91518,808.42527 696.44131,808.94995 695.58574,809.80553"
       id="path3230" />
    <path
       style="opacity:0.5;fill:#00ff00;fill-opacity:1;fill-rule:evenodd;stroke:#000200;stroke-width:2;stroke-linecap:round;stroke-linejoin:miter;stroke-miterlimit:4;stroke-dasharray:none;stroke-opacity:1"
       d="M 376.03125,311.25 C 359.19284,311.25 343.40682,312.53126 329.8125,312.53125 C 311.50158,312.53125 294.02503,313.81249 278.5,313.8125 C 266.69239,313.8125 253.69051,314.18067 240.21875,316.875 C 228.18017,319.28272 217.53126,322.66876 206.3125,327.15625 C 197.65873,330.61776 179.64049,334.83213 163.375,347.03125 C 154.82051,353.44713 146.35238,359.80602 137.71875,366.28125 C 125.70319,375.29292 118.89904,384.75721 113.21875,390.4375 C 99.27249,404.38374 97.645973,415.91995 95.5,418.78125 C 89.812784,426.36421 83.191919,434.80371 77.75,445.6875 C 76.352875,448.48175 67.361878,457.74001 63,475.1875 C 62.278487,478.07356 51.999995,490.66489 52,513.34375 C 52,513.77153 51.999998,514.19709 52,514.625 L 102,514.625 C 102,514.19727 102,513.77153 102,513.34375 C 102,514.24649 107.12434,504.94016 111.53125,487.3125 C 111.09801,489.04545 116.72155,479.55691 122.46875,468.0625 C 125.02972,462.94059 129.68648,456.53263 135.5,448.78125 C 146.28723,434.39826 146.77439,427.60061 148.59375,425.78125 C 157.60069,416.77431 163.15093,409.70712 167.71875,406.28125 C 176.35238,399.80603 184.82049,393.44713 193.375,387.03125 C 196.16784,384.93662 212.37694,378.57423 224.90625,373.5625 C 234.25197,369.82423 241.05441,367.67038 250.03125,365.875 C 258.02594,364.27608 267.94477,363.8125 278.5,363.8125 C 296.57163,363.81249 314.00958,362.53125 329.8125,362.53125 C 346.25528,362.53126 361.96094,361.25 376.03125,361.25 C 385.87039,361.25 395.69208,361.25 405.53125,361.25 C 418.45252,361.25 430.29535,363.37853 444.40625,366.90625 C 453.2123,369.10776 447.24804,365.81054 453.3125,371.875 C 468.79504,387.35754 484.61415,393.42154 493.21875,399.875 C 496.5432,402.36834 507.58663,423.06674 514.75,439.78125 C 521.86754,456.38881 525.85034,477.7821 535.0625,500.8125 C 540.92529,515.46952 547.1999,527.26833 549.40625,536.09375 C 554.25583,555.492 562.91143,573.07546 568.40625,586.8125 C 575.73894,605.14422 583.15343,622.94607 590.25,640.6875 C 595.62197,654.1174 599.52686,666.56738 601.625,679.15625 C 603.64395,691.26984 606.57033,701.3829 608.1875,709.46875 C 610.91107,723.08662 616.40819,734.31639 620.59375,742.6875 C 624.51889,750.53774 628.0803,758.38825 631.3125,766.46875 C 633.40635,771.70336 635.33559,774.73369 636,776.0625 C 638.19659,780.45568 641.50805,791.3528 642.84375,798.03125 C 643.77203,802.67258 646.30402,808.4249 648.15625,811.21875 C 650.00848,814.0126 649.27783,812.86816 648.84375,812 L 693.5625,789.65625 C 692.73306,787.99736 691.94703,786.73939 691.25,785.65625 C 689.2398,776.11716 686.27284,764.82691 680.71875,753.71875 C 678.81642,749.9141 677.75645,748.0005 677.71875,747.90625 C 673.94933,738.48271 669.84651,729.34923 665.34375,720.34375 C 661.81613,713.2885 658.20571,704.59105 657.21875,699.65625 C 655.03536,688.73936 652.34391,679.37587 650.9375,670.9375 C 648.0596,653.67007 642.86631,637.65011 636.65625,622.125 C 629.40692,604.00169 622.02545,586.17301 614.84375,568.21875 C 608.40453,552.12069 600.87935,535.86112 597.90625,523.96875 C 593.46942,506.22139 585.63488,492.66538 581.46875,482.25 C 574.76689,465.49534 570.7706,443.54804 560.71875,420.09375 C 554.55168,405.70394 547.78717,378.30131 523.21875,359.875 C 507.61981,348.1758 494.91452,342.75827 488.6875,336.53125 C 480.75508,328.59883 468.72331,321.45426 456.53125,318.40625 C 440.64181,314.43389 424.09859,311.25 405.53125,311.25 C 395.6921,311.25 385.87042,311.25 376.03125,311.25 z"
       id="path12" />
    <path
       style="opacity:0.5;fill:#ff0000;fill-opacity:1;fill-rule:evenodd;stroke:#000000;stroke-width:2;stroke-linecap:round;stroke-linejoin:miter;stroke-miterlimit:4;stroke-dasharray:none;stroke-opacity:1"
       d="M 388.875,351.15625 C 379.31511,351.16937 371.12027,351.6875 364.46875,351.6875 C 347.07118,351.6875 333.55648,352.96874 322.125,352.96875 C 298.37099,352.96875 283.02389,356.8125 275.9375,356.8125 C 254.74808,356.8125 236.16286,360.74835 220.15625,364.75 C 219.59835,364.88948 213.38477,365.99573 205.375,368.21875 C 197.36523,370.44177 186.1222,372.03405 171.28125,386.875 C 174.03791,384.11834 166.78457,387.52799 153.3125,401 C 145.81529,408.49721 140.12688,414.18563 132.78125,421.53125 C 129.02355,425.28894 117.56114,430.81524 105.4375,455.0625 C 106.88521,452.16709 97.83364,461.27017 87.46875,482 C 81.948753,493.03998 77.052257,505.46052 71.53125,516.90625 C 71.459377,517.05525 71.478635,517.00794 71.40625,517.15625 C 55.85212,529.50678 49.081642,549.8918 54.15625,569.09375 C 55.836452,575.81455 58.598048,588.29523 75.1875,599.625 C 91.776952,610.95477 116.53167,608.11883 126.53125,603.21875 C 146.53042,593.41858 145.86336,587.61176 148.875,583.25 C 154.89828,574.52649 157.95698,567.91447 161.59375,560.375 C 168.86729,545.29606 177.33214,525.86698 176.90625,526.71875 C 176.36267,527.80592 184.42361,520.684 194.875,499.78125 C 189.50417,510.5229 196.23779,499.48095 203.46875,492.25 C 210.81448,484.90428 216.50285,479.18465 224,471.6875 C 224.03577,471.65173 227.03024,471.08948 235.25,463.84375 C 237.3545,463.38577 239.35599,463.01256 244.40625,461.75 C 257.06126,458.58625 267.50506,456.8125 275.9375,456.8125 C 299.67702,456.8125 314.99021,452.96875 322.125,452.96875 C 339.49715,452.96874 352.99874,451.6875 364.46875,451.6875 C 383.309,451.6875 397.80563,451.10823 405.03125,452.3125 C 407.59768,452.74023 410.15189,453.16594 412.71875,453.59375 C 421.22001,455.01063 421.55672,455.66754 421.75,455.8125 C 430.39265,462.29449 431.44632,465.66266 429.71875,461.34375 C 437.7629,481.45415 446.12331,490.68412 445.53125,489.5 C 444.83686,488.11123 446.26719,496.13123 450.71875,513.9375 C 453.32212,524.35095 455.33449,538.74419 459.71875,556.28125 C 466.70635,584.23164 476.17594,596.54749 476.375,597.34375 C 481.6584,618.4772 489.48457,635.82079 495.15625,650 C 498.41599,658.14931 501.0518,675.00984 512.25,697.40625 C 518.859,710.62426 524.65537,724.99781 531.09375,741.09375 C 537.86594,758.0241 545.87481,771.06213 549.46875,778.25 C 552.77004,784.8526 556.61609,793.50124 561.09375,802.65625 C 561.10936,802.71897 561.07634,802.61786 561.09375,802.6875 C 565.09904,820.36952 578.36127,834.49854 595.75467,839.61378 C 613.14806,844.72902 631.94772,840.02911 644.88766,827.33053 C 657.82761,814.63196 662.88062,795.92412 658.09375,778.4375 C 657.1918,774.82969 655.24151,767.48312 651.75,760.5 C 648.39413,753.78826 644.25513,744.22906 638.90625,733.53125 C 632.55585,720.83046 626.35973,710.02428 623.9375,703.96875 C 617.5336,687.95899 610.76947,670.78895 601.71875,652.6875 C 599.09479,647.43959 596.32414,633.65402 588,612.84375 C 581.5806,596.79526 575.8769,582.9763 573.40625,573.09375 C 566.41589,545.13229 556.75023,532.15719 556.71875,532.03125 C 554.07009,521.43661 552.10706,507.08447 547.75,489.65625 C 546.3737,484.15102 546.36818,467.58008 534.96875,444.78125 C 526.89951,428.64275 520.83971,419.88053 522.5625,424.1875 C 511.69125,397.00939 492.69935,384.02452 481.75,375.8125 C 463.39608,362.04706 443.33944,357.30137 429.15625,354.9375 C 426.58965,354.50973 424.0358,354.08408 421.46875,353.65625 C 409.37212,351.64015 398.43489,351.14313 388.875,351.15625 z M 233.9375,464.125 C 231.70151,465.33704 231.15225,464.8238 232.09375,464.5625 C 232.33824,464.49465 233.58914,464.20527 233.9375,464.125 z M 68.75,522.28125 C 67.976775,523.6861 66.146337,527.08549 66.59375,526.4375 C 66.874106,526.03146 66.479041,524.73181 68.75,522.28125 z"
       id="path3749"
       sodipodi:nodetypes="csssssssssssccsssssssscssssssssssssssssccsscsssssssssssssccsccsc" />
    <text
       xml:space="preserve"
       style="font-size:40px;font-style:normal;font-weight:normal;fill:#000000;fill-opacity:1;stroke:none;stroke-width:1px;stroke-linecap:butt;stroke-linejoin:miter;stroke-opacity:1;font-family:Bitstream Vera Sans"
       id="text3755"><textPath
         xlink:href="#path3230"
         id="textPath3759"><tspan
   id="tspan3757">Cell Edge</tspan></textPath></text>
    <path
       style="opacity:0;fill:none;fill-rule:evenodd;stroke:#000000;stroke-width:1px;stroke-linecap:butt;stroke-linejoin:miter;stroke-opacity:1"
       d="M 232.2897,342.65939 C 301.26515,335.68169 370.92607,336.05803 440.06614,339.11347 C 492.23177,348.51028 518.84495,398.58796 542.86488,440.1954"
       id="path3786" />
    <text
       xml:space="preserve"
       style="font-size:40px;font-style:normal;font-weight:normal;fill:#000000;fill-opacity:1;stroke:none;stroke-width:1px;stroke-linecap:butt;stroke-linejoin:miter;stroke-opacity:1;display:inline;font-family:Bitstream Vera Sans"
       id="text3811"><textPath
         xlink:href="#path3809"
         id="textPath3815"><tspan
   id="tspan3813">Assembly Zone</tspan></textPath></text>
    <text
       xml:space="preserve"
       style="font-size:40px;font-style:normal;font-weight:normal;fill:#000000;fill-opacity:1;stroke:none;stroke-width:1px;stroke-linecap:butt;stroke-linejoin:miter;stroke-opacity:1;display:inline;font-family:Bitstream Vera Sans"
       id="text3774"><textPath
         xlink:href="#path2397"
         id="textPath2403"><tspan
   id="tspan3776"
   style="stroke:none;stroke-opacity:1">Disassembly Zone</tspan></textPath></text>
  </g>
</svg>
