<?xml version="1.0" standalone="no"?>
<!DOCTYPE svg PUBLIC "-//W3C//DTD SVG 20010904//EN"
 "http://www.w3.org/TR/2001/REC-SVG-20010904/DTD/svg10.dtd">
<svg version="1.0" xmlns="http://www.w3.org/2000/svg"
 width="263pt" height="648pt" viewBox="0 0 263 648"
 preserveAspectRatio="xMidYMid meet">
<metadata>
Created by potrace 1.8, written by Peter Selinger 2001-2007
</metadata>
<g transform="translate(0,648) scale(0.113684,-0.113684)"
fill="#000000" stroke="none">
<path d="M0 2850 l0 -2850 1155 0 1155 0 0 2850 0 2850 -1155 0 -1155 0 0
-2850z m584 2763 c4 -9 2 -21 -4 -27 -7 -7 -10 -7 -10 1 0 6 -3 18 -6 27 -3 9
-2 16 4 16 5 0 13 -8 16 -17z m264 -68 c24 -49 28 -95 12 -111 -7 -7 -8 -19
-1 -36 10 -27 6 -38 -14 -38 -15 0 -33 64 -30 110 1 19 -2 50 -6 69 -15 66 8
69 39 6z m-128 -60 c12 7 31 -28 22 -41 -4 -5 -17 -14 -29 -21 -24 -14 -25
-13 -38 54 -9 45 4 63 22 29 8 -15 18 -24 23 -21z m-129 -41 l-8 -29 -7 32
c-9 37 2 65 15 41 4 -8 5 -28 0 -44z m413 -189 c-4 -8 -7 -15 -9 -15 -2 0 -5
7 -9 15 -3 9 0 15 9 15 9 0 12 -6 9 -15z m-395 -33 c11 -39 6 -70 -20 -125 -7
-15 -17 -26 -23 -24 -28 9 -24 139 6 174 17 21 27 15 37 -25z m1171 -258 c0
-2 -7 -4 -15 -4 -8 0 -15 4 -15 10 0 5 7 7 15 4 8 -4 15 -8 15 -10z m-179 -20
c4 -12 3 -27 -1 -34 -7 -12 -13 -12 -34 -1 -24 13 -24 15 -8 37 20 27 32 26
43 -2z m-1011 -10 c0 -16 -16 -19 -25 -4 -8 13 4 32 16 25 5 -4 9 -13 9 -21z
m1190 -8 c0 -3 -4 -8 -10 -11 -5 -3 -10 -1 -10 4 0 6 5 11 10 11 6 0 10 -2 10
-4z m-222 -79 c3 -42 1 -47 -17 -47 -16 0 -21 6 -21 28 1 79 33 96 38 19z
m-1063 -31 c12 -35 -11 -53 -37 -29 -21 19 -24 49 -5 56 21 9 32 2 42 -27z
m281 -61 c-1 -38 -6 -51 -19 -53 -15 -3 -17 6 -17 66 0 38 3 72 7 76 14 13 31
-40 29 -89z m991 70 c-4 -8 -11 -15 -17 -15 -7 0 -7 6 0 21 13 23 26 19 17 -6z
m-817 -82 c0 -16 -26 -17 -35 -3 -4 6 -1 18 6 26 10 12 14 12 20 2 5 -7 9 -19
9 -25z m-320 2 c0 -8 -7 -15 -15 -15 -26 0 -18 20 13 29 1 1 2 -6 2 -14z m530
-51 c0 -8 -5 -12 -10 -9 -6 4 -8 11 -5 16 9 14 15 11 15 -7z m320 1 c0 -8 -4
-15 -9 -15 -13 0 -22 16 -14 24 11 11 23 6 23 -9z m68 -37 c14 -14 16 -58 2
-58 -8 0 -40 51 -40 65 0 10 26 5 38 -7z m262 -49 c0 -23 -28 -25 -36 -4 -4 8
-3 22 0 31 5 13 9 14 21 4 8 -7 15 -21 15 -31z m-672 3 c2 -7 -3 -12 -12 -12
-9 0 -16 7 -16 16 0 17 22 14 28 -4z m532 -89 c0 -13 -3 -13 -15 -3 -8 7 -15
19 -15 27 0 13 3 13 15 3 8 -7 15 -19 15 -27z m320 4 c-1 -21 -1 -21 -15 -3
-8 10 -12 23 -9 28 9 14 24 -2 24 -25z m-112 -9 c19 -19 15 -60 -4 -56 -23 4
-39 32 -31 52 8 19 19 20 35 4z m-240 -66 c2 -25 -1 -42 -7 -42 -6 0 -11 3
-12 8 -1 9 -6 30 -15 61 -6 19 -4 22 12 19 14 -2 20 -13 22 -46z m-913 -6 c9
-8 14 -33 13 -60 0 -38 -4 -46 -17 -43 -9 2 -15 9 -13 16 1 7 -5 11 -16 9 -32
-5 -31 27 1 36 l22 7 -22 16 c-13 8 -23 19 -23 24 0 14 40 10 55 -5z m1342
-12 c12 -19 12 -24 -2 -38 -22 -21 -55 -4 -55 28 0 42 31 48 57 10z m-241 1
c11 -27 -1 -39 -19 -21 -9 10 -17 22 -17 27 0 15 30 10 36 -6z m24 -100 c0 -8
-4 -15 -10 -15 -5 0 -10 7 -10 15 0 8 5 15 10 15 6 0 10 -7 10 -15z m230 -34
c14 -27 2 -53 -24 -49 -27 4 -33 38 -10 55 23 16 21 17 34 -6z m-1036 -23 c7
-12 6 -21 -3 -32 -21 -25 -31 -19 -31 20 0 37 14 42 34 12z m251 12 c3 -5 1
-10 -4 -10 -6 0 -11 5 -11 10 0 6 2 10 4 10 3 0 8 -4 11 -10z m620 -1 c12 -19
-5 -23 -22 -6 -16 16 -16 17 -1 17 9 0 20 -5 23 -11z m-5 -54 c7 -9 10 -18 7
-21 -10 -11 -37 5 -37 21 0 19 14 19 30 0z m-1030 -98 c0 -33 -25 -12 -28 24
-2 32 -1 33 13 15 8 -11 15 -28 15 -39z m-120 18 c0 -26 -14 -33 -25 -15 -9
14 1 40 15 40 5 0 10 -11 10 -25z m1358 -77 c15 -15 16 -38 0 -38 -14 0 -48
30 -48 42 0 12 34 10 48 -4z m-921 -50 c-3 -8 -6 -5 -6 6 -1 11 2 17 5 13 3
-3 4 -12 1 -19z m728 12 c3 -5 1 -10 -4 -10 -6 0 -11 5 -11 10 0 6 2 10 4 10
3 0 8 -4 11 -10z m-1555 -14 c0 -8 -4 -17 -9 -21 -12 -7 -24 12 -16 25 9 15
25 12 25 -4z m694 -11 c-4 -8 -10 -13 -15 -10 -4 3 -6 12 -3 20 4 8 10 13 15
10 4 -3 6 -12 3 -20z m411 -6 c11 -17 -1 -21 -15 -4 -8 9 -8 15 -2 15 6 0 14
-5 17 -11z m548 -16 c8 -14 -12 -53 -28 -53 -18 0 -20 31 -3 48 14 14 25 15
31 5z m-1783 -23 c0 -5 -2 -10 -4 -10 -3 0 -8 5 -11 10 -3 6 -1 10 4 10 6 0
11 -4 11 -10z m1423 -17 c-7 -3 -13 -13 -13 -24 0 -11 -7 -22 -15 -26 -23 -8
-30 4 -13 24 8 10 18 27 22 37 5 16 9 17 19 6 9 -10 9 -13 0 -17z m-1253 -43
c0 -5 -7 -10 -15 -10 -8 0 -15 5 -15 10 0 6 7 10 15 10 8 0 15 -4 15 -10z
m-170 -15 c0 -8 -6 -15 -14 -15 -17 0 -28 14 -19 24 12 12 33 6 33 -9z m1210
1 c0 -3 -4 -8 -10 -11 -5 -3 -10 -1 -10 4 0 6 5 11 10 11 6 0 10 -2 10 -4z
m-747 -52 c-3 -8 -9 -14 -13 -14 -14 0 -22 20 -16 37 5 12 9 13 21 3 7 -6 11
-18 8 -26z m217 22 c0 -7 -7 -19 -15 -26 -12 -10 -16 -9 -21 5 -4 10 -1 21 7
26 20 12 29 11 29 -5z m380 -36 c0 -5 -2 -10 -4 -10 -3 0 -8 5 -11 10 -3 6 -1
10 4 10 6 0 11 -4 11 -10z m742 -57 c-9 -14 -10 -14 -16 5 -9 29 3 51 16 28 5
-10 5 -23 0 -33z m-1832 27 c0 -5 -4 -10 -10 -10 -5 0 -10 5 -10 10 0 6 5 10
10 10 6 0 10 -4 10 -10z m1080 -19 c-22 -41 -90 -69 -90 -37 0 16 57 54 83 55
15 1 16 -2 7 -18z m369 -28 c-15 -18 -34 -1 -25 22 5 14 9 15 21 5 12 -10 13
-16 4 -27z m-1474 7 c3 -5 2 -10 -4 -10 -5 0 -13 5 -16 10 -3 6 -2 10 4 10 5
0 13 -4 16 -10z m1768 -53 c-7 -11 -23 12 -23 33 1 12 4 11 15 -4 8 -10 12
-23 8 -29z m151 21 c12 -59 12 -88 0 -88 -19 0 -27 17 -31 67 -3 33 0 43 12
43 8 0 17 -10 19 -22z m-1134 -52 c0 -8 -6 -19 -14 -25 -18 -15 -27 6 -14 32
10 19 28 14 28 -7z m800 -7 c0 -5 -4 -9 -10 -9 -5 0 -10 7 -10 16 0 8 5 12 10
9 6 -3 10 -10 10 -16z m-1635 1 c3 -5 1 -10 -4 -10 -6 0 -11 5 -11 10 0 6 2
10 4 10 3 0 8 -4 11 -10z m1823 -58 c13 -24 21 -46 17 -50 -9 -9 -75 64 -75
84 0 29 34 9 58 -34z m-135 18 c-3 -11 -9 -20 -14 -20 -11 0 -11 3 -3 24 9 23
23 20 17 -4z m-525 -12 c-5 -14 -60 -43 -104 -54 -28 -7 -28 -7 -13 17 23 35
127 68 117 37z m851 -25 c2 -2 -5 -3 -17 -3 -14 0 -22 6 -22 16 0 14 3 15 18
3 9 -7 19 -15 21 -16z m-203 -65 c25 -39 32 -74 13 -62 -16 10 -69 96 -69 112
0 21 26 -3 56 -50z m-1296 42 c0 -5 -4 -10 -10 -10 -5 0 -10 5 -10 10 0 6 5
10 10 10 6 0 10 -4 10 -10z m700 -56 c0 -17 -39 -54 -57 -54 -18 0 -16 33 3
78 l15 37 20 -24 c10 -13 19 -29 19 -37z m-1080 30 c0 -17 -55 -74 -72 -74
-23 0 -35 27 -21 49 12 19 93 41 93 25z m1745 -22 c15 -10 35 -59 28 -66 -14
-13 -33 -4 -46 22 -20 38 -9 64 18 44z m-1005 -32 c0 -11 -73 -60 -89 -60 -22
0 -22 23 0 46 23 24 89 35 89 14z m-150 -20 c0 -11 -4 -20 -10 -20 -5 0 -24
-13 -42 -28 -74 -64 -97 -47 -27 20 54 51 79 60 79 28z m366 -47 c-7 -51 -18
-69 -35 -59 -15 10 -14 27 4 70 22 53 39 47 31 -11z m170 12 c-19 -75 -37 -91
-61 -58 -15 21 -3 53 21 53 8 0 17 7 20 15 10 25 27 17 20 -10z m834 -20 c0
-5 -5 -3 -10 5 -5 8 -10 20 -10 25 0 6 5 3 10 -5 5 -8 10 -19 10 -25z m-552
-22 c-5 -26 -38 -29 -38 -4 0 15 6 21 21 21 14 0 19 -5 17 -17z m548 -20 c-10
-10 -19 5 -10 18 6 11 8 11 12 0 2 -7 1 -15 -2 -18z m-1978 -54 c11 -21 16
-39 12 -39 -18 0 -70 75 -70 101 0 20 37 -19 58 -62z m1242 49 c0 -16 -31 -48
-47 -48 -18 0 -16 20 4 42 18 20 43 24 43 6z m366 -20 c-12 -58 -77 -126 -105
-109 -17 11 -3 38 48 98 44 52 66 56 57 11z m-904 -38 c-1 -17 -7 -41 -13 -53
-11 -19 -12 -20 -24 -3 -13 17 -8 57 10 86 13 21 30 3 27 -30z m652 23 c6 -15
8 -14 20 2 7 10 16 14 19 9 8 -14 -81 -144 -99 -144 -8 0 -12 4 -9 10 3 5 1
18 -4 29 -8 15 -4 28 20 65 33 50 43 55 53 29z m430 -65 c-3 -5 0 -8 5 -8 6 0
11 -7 11 -15 0 -8 -4 -15 -8 -15 -14 0 -39 54 -34 74 4 18 5 18 17 -4 7 -14
11 -28 9 -32z m-901 -5 c-7 -3 -9 -11 -6 -19 3 -8 -1 -14 -9 -14 -8 0 -20 -12
-27 -26 -16 -37 -23 -25 -10 19 10 37 35 60 53 49 6 -3 6 -7 -1 -9z m-107 -16
c15 6 18 -16 8 -54 -4 -15 -14 -23 -28 -22 -11 0 -15 3 -8 6 6 2 12 11 12 19
0 8 -6 11 -15 8 -16 -7 -18 -1 -9 34 5 15 10 20 17 13 5 -5 16 -7 23 -4z
m1092 1 c-6 -18 -28 -21 -28 -4 0 9 7 16 16 16 9 0 14 -5 12 -12z m-926 -68
c2 -16 -2 -44 -9 -61 -20 -49 -15 -57 13 -21 14 18 30 29 35 26 13 -8 1 -64
-19 -86 -19 -22 -42 -23 -42 -3 0 10 -7 15 -17 13 -19 -3 -19 -2 -10 87 8 74
40 104 49 45z m873 20 c3 -5 1 -10 -4 -10 -6 0 -11 5 -11 10 0 6 2 10 4 10 3
0 8 -4 11 -10z m-433 -42 c11 -29 -41 -126 -61 -114 -12 8 -3 74 15 104 16 24
39 29 46 10z m406 -80 c-2 -12 -8 -23 -15 -25 -18 -6 -28 44 -12 63 11 14 13
14 21 -1 5 -8 8 -25 6 -37z m-167 35 c11 -79 5 -99 -21 -68 -7 8 -21 15 -31
15 -11 0 -19 6 -19 14 0 24 68 61 71 39z m-830 -13 c17 0 0 -54 -23 -72 -13
-10 -26 -18 -29 -18 -4 0 -5 -18 -4 -40 2 -45 -11 -54 -21 -14 -15 59 21 162
53 150 8 -4 19 -6 24 -6z m-296 -21 c10 -15 -1 -23 -20 -15 -9 3 -13 10 -10
16 8 13 22 13 30 -1z m925 -80 c-8 -45 -23 -65 -39 -55 -13 8 -4 51 17 83 21
33 31 20 22 -28z m-564 -44 c-9 -14 -21 -25 -26 -25 -19 0 -10 43 13 62 19 18
22 18 25 3 2 -9 -4 -27 -12 -40z m844 -19 l-1 -31 -18 22 c-22 27 -18 71 5 52
8 -6 14 -26 14 -43z m-1670 29 c0 -8 -7 -15 -15 -15 -8 0 -15 7 -15 15 0 8 7
15 15 15 8 0 15 -7 15 -15z m1005 -54 c-26 -42 -55 -54 -55 -24 0 24 74 99 78
79 2 -8 -8 -33 -23 -55z m500 8 c-31 -44 -45 -49 -45 -18 0 24 62 87 68 70 2
-7 -8 -30 -23 -52z m-1055 41 c0 -5 -4 -10 -10 -10 -5 0 -10 5 -10 10 0 6 5
10 10 10 6 0 10 -4 10 -10z m1296 -37 c-10 -10 -19 5 -10 18 6 11 8 11 12 0 2
-7 1 -15 -2 -18z m-1246 -19 c0 -15 -6 -24 -15 -24 -15 0 -21 40 -9 53 12 11
24 -3 24 -29z m943 1 c-3 -8 -12 -15 -19 -15 -12 0 -12 4 -4 20 12 23 32 18
23 -5z m-233 2 c0 -8 -9 -22 -20 -32 -11 -10 -20 -24 -20 -31 0 -7 -5 -16 -11
-19 -19 -12 -21 3 -4 29 10 14 14 26 11 26 -4 0 -2 9 4 20 12 23 40 27 40 7z
m95 -26 c-7 -23 -25 -29 -25 -8 0 14 21 39 28 33 2 -3 1 -14 -3 -25z m261 -27
c-3 -8 -10 -14 -15 -14 -18 0 -19 28 -3 51 l17 24 3 -23 c2 -13 1 -30 -2 -38z
m101 -33 c1 -13 -3 -18 -12 -15 -8 3 -11 12 -8 20 7 20 18 17 20 -5z m-1847 5
c0 -11 -19 -15 -25 -6 -3 5 1 10 9 10 9 0 16 -2 16 -4z m1516 -26 c8 0 14 -5
14 -10 0 -19 -60 -100 -74 -100 -2 0 -4 21 -4 46 0 33 5 51 21 67 13 13 22 17
25 9 2 -7 10 -12 18 -12z m388 -3 c3 3 6 1 6 -5 0 -18 -20 -25 -35 -12 -21 18
-19 33 4 21 10 -6 21 -7 25 -4z m-968 -54 c-10 -10 -19 5 -10 18 6 11 8 11 12
0 2 -7 1 -15 -2 -18z m417 -58 c-2 -54 -23 -99 -39 -83 -15 16 -15 86 0 117
25 48 41 34 39 -34z m-323 42 c0 -22 -29 -55 -55 -61 -15 -4 -25 -13 -25 -25
0 -20 -27 -48 -36 -38 -7 7 62 117 80 129 17 12 36 9 36 -5z m-373 -37 c-1
-11 -5 -20 -10 -20 -5 0 -7 -6 -4 -14 7 -17 -17 -53 -26 -39 -3 5 1 22 9 37 7
16 14 37 14 48 0 10 4 17 9 13 6 -3 9 -14 8 -25z m-121 -25 c6 -45 1 -65 -13
-51 -11 10 -13 96 -2 96 4 0 11 -20 15 -45z m1294 -1 c0 -8 -4 -12 -10 -9 -5
3 -10 10 -10 16 0 5 5 9 10 9 6 0 10 -7 10 -16z m-723 -11 c6 -16 -44 -66 -57
-58 -14 9 -12 49 2 63 15 15 50 12 55 -5z m574 -26 c-13 -13 -26 -3 -16 12 3
6 11 8 17 5 6 -4 6 -10 -1 -17z m-7 -32 c-4 -8 -8 -15 -10 -15 -2 0 -4 7 -4
15 0 8 4 15 10 15 5 0 7 -7 4 -15z m-954 -1 c0 -21 -25 -84 -33 -84 -9 0 -1
65 9 82 6 10 24 11 24 2z m320 -18 c0 -11 -19 -15 -25 -6 -3 5 1 10 9 10 9 0
16 -2 16 -4z m530 -3 c0 -23 -67 -153 -79 -153 -9 0 -12 8 -9 25 4 21 1 25
-19 25 -35 0 -25 18 38 67 54 42 69 50 69 36z m-320 -63 c0 -12 -28 -25 -36
-17 -9 9 6 27 22 27 8 0 14 -5 14 -10z m-500 -29 c0 -9 -6 -26 -14 -37 -14
-18 -15 -18 -21 9 -5 17 -2 33 5 42 15 18 30 11 30 -14z m374 20 c7 -10 -32
-47 -40 -38 -3 3 -3 15 1 26 6 21 29 28 39 12z m891 -42 c10 -15 -1 -23 -20
-15 -9 3 -13 10 -10 16 8 13 22 13 30 -1z m-1405 -40 c0 -16 -4 -29 -10 -29
-14 0 -32 39 -26 56 9 24 36 4 36 -27z m1300 -33 c0 -8 -6 -19 -14 -25 -20
-16 -30 3 -16 29 11 21 30 19 30 -4z m-1135 -6 c14 -23 -53 -85 -72 -66 -7 7
45 76 57 76 5 0 12 -4 15 -10z m496 -31 c19 -19 20 -23 6 -36 -9 -9 -34 -18
-56 -20 -46 -5 -53 9 -25 52 20 31 47 32 75 4z m679 5 c0 -9 8 -23 18 -30 20
-15 9 -31 -28 -36 -21 -2 -26 2 -28 25 -2 16 -1 35 2 43 7 19 36 18 36 -2z
m195 6 c3 -5 1 -10 -5 -10 -8 0 -7 -6 1 -21 9 -17 8 -20 -3 -16 -7 2 -12 10
-10 16 1 6 -9 16 -23 21 -14 5 -25 12 -25 15 0 9 59 5 65 -5z m-1955 -10 c-8
-5 -19 -10 -25 -10 -5 0 -3 5 5 10 8 5 20 10 25 10 6 0 3 -5 -5 -10z m1327
-27 c-7 -41 -20 -59 -36 -49 -16 10 -13 52 5 70 26 27 37 19 31 -21z m614 -56
c-9 -12 -11 -18 -11 -35 0 -12 -69 -32 -75 -22 -3 5 -1 11 5 15 5 3 10 14 10
24 0 27 40 51 63 39 13 -6 15 -13 8 -21z m-2041 13 c0 -5 -9 -10 -20 -10 -11
0 -20 5 -20 10 0 6 9 10 20 10 11 0 20 -4 20 -10z m660 -15 c0 -16 -27 -32
-37 -21 -7 7 16 36 28 36 5 0 9 -7 9 -15z m855 -5 c8 -13 -14 -42 -26 -34 -5
3 -9 14 -9 25 0 20 24 26 35 9z m259 -51 c-3 -5 -10 -7 -15 -3 -5 3 -7 10 -3
15 3 5 10 7 15 3 5 -3 7 -10 3 -15z m-1684 -9 c0 -5 -5 -10 -11 -10 -5 0 -7 5
-4 10 3 6 8 10 11 10 2 0 4 -4 4 -10z m215 -11 c0 -7 -8 -15 -17 -17 -18 -3
-25 18 -11 32 10 10 28 1 28 -15z m705 3 c0 -19 -36 -46 -50 -37 -24 15 0 55
32 55 11 0 18 -7 18 -18z m290 -23 c0 -23 -30 -79 -42 -79 -12 0 -10 15 8 60
17 43 34 53 34 19z m80 -4 c0 -8 -2 -15 -4 -15 -2 0 -6 7 -10 15 -3 8 -1 15 4
15 6 0 10 -7 10 -15z m-1290 -9 c0 -3 -4 -8 -10 -11 -5 -3 -10 -1 -10 4 0 6 5
11 10 11 6 0 10 -2 10 -4z m763 -32 c3 -4 2 -15 -4 -25 -7 -14 -6 -19 2 -19
15 0 3 -78 -15 -100 -7 -8 -16 -23 -19 -32 -4 -10 -12 -18 -18 -18 -15 0 -3
87 17 118 13 19 13 22 -1 22 -8 0 -15 8 -15 18 0 30 35 54 53 36z m535 -62
c-3 -28 -23 -40 -31 -19 -3 7 -3 25 0 40 4 23 8 25 20 16 8 -7 13 -24 11 -37z
m472 24 c0 -19 -27 -28 -33 -11 -7 15 1 25 20 25 7 0 13 -6 13 -14z m-640 -11
c0 -4 -7 -19 -15 -35 -16 -30 -49 -43 -39 -15 4 8 10 15 14 15 5 0 12 9 15 20
6 18 25 29 25 15z m-250 -80 c0 -9 -6 -12 -15 -9 -8 4 -15 10 -15 15 0 5 7 9
15 9 8 0 15 -7 15 -15z m1027 -7 c-3 -8 -6 -5 -6 6 -1 11 2 17 5 13 3 -3 4
-12 1 -19z m-1307 -33 c-7 -8 -16 -15 -21 -15 -15 0 -10 28 9 46 16 17 17 17
20 0 2 -9 -2 -23 -8 -31z m480 35 c0 -5 -4 -10 -10 -10 -5 0 -10 5 -10 10 0 6
5 10 10 10 6 0 10 -4 10 -10z m740 -40 c0 -5 -4 -10 -10 -10 -5 0 -10 5 -10
10 0 6 5 10 10 10 6 0 10 -4 10 -10z m-1470 -25 c0 -16 -27 -32 -37 -21 -7 7
16 36 28 36 5 0 9 -7 9 -15z m1470 -20 c-7 -8 -20 -15 -28 -15 -13 0 -12 3 4
15 25 19 40 19 24 0z m-1728 -80 c-2 -33 -6 -62 -8 -64 -10 -10 -26 20 -31 57
-7 51 2 75 24 70 15 -3 17 -13 15 -63z m1006 31 c6 -30 -15 -42 -37 -22 -28
25 -41 12 -41 -39 0 -24 -4 -46 -9 -49 -22 -14 -45 58 -26 82 33 44 48 53 78
50 22 -2 33 -9 35 -22z m-892 -54 c7 -4 23 -28 37 -54 18 -34 28 -43 36 -35
17 17 24 1 29 -63 5 -64 -9 -81 -26 -31 -11 31 -55 80 -87 96 -20 10 -31 54
-21 81 6 16 15 17 32 6z m1494 -32 c0 -5 -4 -10 -10 -10 -5 0 -10 5 -10 10 0
6 5 10 10 10 6 0 10 -4 10 -10z m-953 -17 c4 -11 -26 -27 -35 -19 -2 3 -2 12
2 21 6 18 27 16 33 -2z m1008 -13 c3 -5 1 -10 -4 -10 -6 0 -11 5 -11 10 0 6 2
10 4 10 3 0 8 -4 11 -10z m-527 -19 c3 -8 -1 -12 -9 -9 -7 2 -15 10 -17 17 -3
8 1 12 9 9 7 -2 15 -10 17 -17z m49 2 c2 -6 -3 -13 -12 -16 -10 -5 -15 0 -15
14 0 21 21 22 27 2z m403 -43 c0 -5 -4 -10 -10 -10 -5 0 -10 5 -10 10 0 6 5
10 10 10 6 0 10 -4 10 -10z m-470 -21 c0 -6 -4 -7 -10 -4 -5 3 -10 11 -10 16
0 6 5 7 10 4 6 -3 10 -11 10 -16z m-785 -126 c3 -20 9 -54 11 -76 3 -23 7 -44
10 -48 2 -4 0 -10 -5 -13 -13 -9 -31 18 -31 45 1 13 -2 48 -6 77 -8 60 10 74
21 15z m845 -60 c0 -24 -25 -9 -28 17 -3 21 -2 22 12 11 9 -7 16 -20 16 -28z
m346 24 c2 -7 1 -37 -3 -67 -6 -39 -13 -55 -23 -55 -17 0 -23 74 -9 113 9 24
27 29 35 9z m-266 -218 c0 -21 -4 -39 -10 -39 -11 0 -24 65 -15 80 12 20 25
-1 25 -41z m-90 -50 c0 -24 -23 -21 -28 4 -2 10 3 17 12 17 10 0 16 -9 16 -21z
m19 -149 c3 -25 3 -25 -18 -6 -26 23 -27 39 -3 34 9 -2 19 -14 21 -28z m-695
-11 c9 -45 7 -87 -3 -93 -13 -8 -34 21 -26 35 4 6 2 21 -5 34 -7 13 -10 31 -7
39 11 27 34 18 41 -15z m986 -111 c0 -5 9 -21 20 -35 24 -31 20 -40 -8 -22
-22 14 -42 50 -42 76 0 13 3 13 15 3 8 -7 15 -17 15 -22z m-630 -70 c22 -36
26 -68 10 -68 -11 0 -22 24 -34 73 -9 36 0 34 24 -5z m607 5 c-1 -14 -8 -28
-15 -31 -13 -4 -16 16 -6 42 10 25 23 18 21 -11z m-778 -10 c26 -67 41 -183
22 -183 -5 0 -12 11 -15 25 -4 15 -17 30 -31 35 -28 11 -35 50 -9 50 11 0 14
5 9 18 -14 34 -17 52 -11 67 8 23 22 18 35 -12z m341 -93 c0 -28 -13 -40 -24
-22 -7 12 5 52 15 52 5 0 9 -13 9 -30z m232 -46 c7 -38 -8 -111 -20 -99 -11
11 -17 59 -13 123 2 37 25 20 33 -24z m-52 -7 c0 -18 -7 -42 -15 -53 -13 -18
-14 -17 -15 18 0 20 3 43 6 52 10 27 24 18 24 -17z m-180 -7 c0 -11 -4 -20
-10 -20 -5 0 -10 9 -10 20 0 11 5 20 10 20 6 0 10 -9 10 -20z m72 -91 c-5 -41
-10 -51 -23 -44 -10 7 -12 68 -2 79 15 15 28 -3 25 -35z m337 -21 c1 -30 -13
-38 -23 -12 -8 21 -8 59 1 68 9 9 21 -21 22 -56z m-125 -58 c4 -38 11 -70 15
-70 11 0 14 -117 4 -123 -21 -13 -47 25 -54 81 -7 58 7 182 21 182 4 0 11 -31
14 -70z m-554 24 c13 -32 13 -94 1 -94 -19 0 -41 45 -41 82 0 45 25 53 40 12z
m598 -20 l-3 -29 -13 23 c-8 13 -11 31 -7 39 9 26 27 0 23 -33z m42 20 c0 -8
-4 -12 -10 -9 -5 3 -10 13 -10 21 0 8 5 12 10 9 6 -3 10 -13 10 -21z m-153
-89 c1 -19 -3 -35 -7 -35 -9 0 -20 51 -13 62 10 18 19 6 20 -27z m-369 -28
c17 -54 22 -96 13 -102 -20 -12 -53 31 -56 75 -6 72 24 91 43 27z m122 -89
c12 -46 8 -98 -9 -98 -15 0 -31 51 -31 104 0 86 15 84 40 -6z m228 -2 c-5 -46
-23 -37 -26 13 -3 40 -2 43 13 31 10 -8 15 -25 13 -44z m-145 -138 c35 -50 41
-74 22 -82 -21 -8 -55 49 -55 93 0 39 0 39 33 -11z m181 -10 c3 -13 7 -41 10
-63 3 -22 9 -50 12 -62 5 -17 2 -23 -9 -23 -19 0 -26 19 -20 53 3 15 -2 43
-11 62 -16 34 -15 55 4 55 5 0 12 -10 14 -22z"/>
</g>
</svg>
