<?xml version="1.0" standalone="no"?>
<!DOCTYPE svg PUBLIC "-//W3C//DTD SVG 20010904//EN"
 "http://www.w3.org/TR/2001/REC-SVG-20010904/DTD/svg10.dtd">
<svg version="1.0" xmlns="http://www.w3.org/2000/svg"
 width="468pt" height="468pt" viewBox="0 0 468 468"
 preserveAspectRatio="xMidYMid meet">
<metadata>
Created by potrace 1.7, written by Peter Selinger 2001-2005
</metadata>
<g transform="translate(0,468) scale(0.309934,-0.309934)"
fill="#000000" stroke="none">
<path d="M561 1493 c-1 -16 11 -31 37 -48 20 -14 52 -37 71 -50 19 -14 41 -25
50 -25 9 0 24 -7 35 -15 25 -19 49 -199 42 -319 -4 -79 -8 -92 -32 -117 -36
-37 -148 -104 -199 -118 -69 -19 -91 -15 -121 25 -21 27 -33 34 -53 32 -23 -3
-26 -7 -24 -38 2 -51 14 -92 35 -120 33 -45 50 -137 43 -228 -5 -69 -3 -88 10
-109 10 -14 15 -37 12 -52 -4 -23 -48 -173 -78 -269 -6 -19 -9 -35 -7 -38 3
-2 10 13 16 33 6 21 25 85 43 143 42 140 44 153 24 183 -13 21 -15 40 -10 109
7 91 -10 183 -43 228 -19 25 -28 55 -39 118 -5 29 -3 32 18 32 15 0 34 -13 52
-35 31 -38 53 -43 122 -24 54 15 163 81 204 122 30 32 32 39 37 123 3 53 0
133 -9 198 -16 118 -28 138 -88 150 -15 3 -42 18 -61 34 -18 16 -43 34 -55 41
-12 6 -24 21 -26 33 l-4 23 -2 -22z"/>
<path d="M697 1503 c-12 -12 -7 -20 19 -32 29 -13 54 -1 54 25 0 14 -60 20
-73 7z"/>
<path d="M650 1495 c0 -3 2 -5 5 -5 3 0 5 2 5 5 0 3 -2 5 -5 5 -3 0 -5 -2 -5
-5z"/>
<path d="M773 1468 c-21 -27 -24 -38 -11 -38 7 0 21 12 31 25 14 20 15 25 4
25 -8 0 -19 -6 -24 -12z"/>
<path d="M1060 1438 c0 -49 12 -63 38 -47 12 8 24 19 26 25 7 18 -23 54 -45
54 -15 0 -19 -7 -19 -32z"/>
<path d="M1118 1393 c-10 -2 -18 -13 -18 -24 0 -23 15 -17 30 12 6 10 9 18 8
18 -2 -1 -11 -3 -20 -6z"/>
<path d="M1120 1346 c0 -9 5 -16 10 -16 6 0 10 4 10 9 0 6 -4 13 -10 16 -5 3
-10 -1 -10 -9z"/>
<path d="M1140 1305 c-7 -14 -10 -28 -6 -32 9 -9 36 25 36 44 0 21 -16 15 -30
-12z"/>
<path d="M1170 1251 c-14 -27 -13 -41 3 -41 9 0 14 12 15 30 1 35 -3 37 -18
11z"/>
<path d="M1000 1245 c0 -20 22 -65 32 -65 13 0 9 43 -6 63 -16 21 -26 22 -26
2z"/>
<path d="M1220 1179 c0 -6 -7 -8 -15 -5 -19 7 -32 -21 -17 -36 15 -15 52 8 52
32 0 11 -4 20 -10 20 -5 0 -10 -5 -10 -11z"/>
<path d="M1051 1149 c-10 -27 4 -62 22 -56 18 6 20 52 3 66 -13 11 -17 10 -25
-10z"/>
<path d="M920 1065 c0 -3 2 -5 5 -5 3 0 5 2 5 5 0 3 -2 5 -5 5 -3 0 -5 -2 -5
-5z"/>
<path d="M1290 970 c0 -7 3 -10 7 -7 3 4 3 10 0 14 -4 3 -7 0 -7 -7z"/>
<path d="M1218 864 c-9 -8 7 -59 18 -59 15 0 16 41 1 53 -8 7 -16 9 -19 6z"/>
<path d="M1272 850 c0 -14 2 -19 5 -12 2 6 2 18 0 25 -3 6 -5 1 -5 -13z"/>
<path d="M1196 749 c-11 -38 -4 -70 12 -61 9 6 10 19 4 48 -9 38 -9 38 -16 13z"/>
<path d="M1160 710 c0 -7 3 -10 7 -7 3 4 3 10 0 14 -4 3 -7 0 -7 -7z"/>
<path d="M686 701 c-4 -5 3 -7 14 -4 23 6 26 13 6 13 -8 0 -17 -4 -20 -9z"/>
<path d="M579 686 c8 -10 9 -16 1 -21 -5 -3 -10 -11 -10 -17 0 -16 72 1 86 20
16 22 1 32 -50 32 -32 0 -36 -2 -27 -14z"/>
<path d="M1221 655 c-1 -17 -3 -18 -11 -5 -5 8 -10 11 -10 5 0 -16 18 -40 25
-33 4 3 5 17 2 30 -4 19 -5 20 -6 3z"/>
<path d="M866 635 c-19 -15 -19 -15 1 -15 28 0 53 10 53 21 0 14 -33 10 -54
-6z"/>
<path d="M533 623 c9 -2 25 -2 35 0 9 3 1 5 -18 5 -19 0 -27 -2 -17 -5z"/>
<path d="M600 625 c0 -3 2 -5 5 -5 3 0 5 2 5 5 0 3 -2 5 -5 5 -3 0 -5 -2 -5
-5z"/>
<path d="M686 595 c4 -8 8 -15 10 -15 2 0 4 7 4 15 0 8 -4 15 -10 15 -5 0 -7
-7 -4 -15z"/>
<path d="M503 593 c4 -3 10 -3 14 0 3 4 0 7 -7 7 -7 0 -10 -3 -7 -7z"/>
<path d="M925 590 c-3 -5 -1 -10 4 -10 6 0 11 5 11 10 0 6 -2 10 -4 10 -3 0
-8 -4 -11 -10z"/>
<path d="M522 565 c9 -10 21 -16 28 -13 7 2 -1 10 -16 17 -27 12 -28 11 -12
-4z"/>
<path d="M1107 573 c-19 -5 -19 -24 1 -31 7 -2 12 5 12 15 0 15 2 16 10 3 8
-13 10 -12 10 3 0 17 -2 18 -33 10z"/>
<path d="M1155 570 c3 -5 8 -10 11 -10 3 0 2 5 -1 10 -3 6 -8 10 -11 10 -3 0
-2 -4 1 -10z"/>
<path d="M1320 575 c0 -3 2 -5 5 -5 3 0 5 2 5 5 0 3 -2 5 -5 5 -3 0 -5 -2 -5
-5z"/>
<path d="M1150 535 c0 -8 2 -15 4 -15 2 0 6 7 10 15 3 8 1 15 -4 15 -6 0 -10
-7 -10 -15z"/>
<path d="M1070 535 c0 -3 2 -5 5 -5 3 0 5 2 5 5 0 3 -2 5 -5 5 -3 0 -5 -2 -5
-5z"/>
<path d="M1050 515 c0 -3 2 -5 5 -5 3 0 5 2 5 5 0 3 -2 5 -5 5 -3 0 -5 -2 -5
-5z"/>
<path d="M740 470 c-13 -8 -12 -10 3 -10 9 0 17 -7 17 -15 0 -14 3 -13 25 1
14 9 22 20 19 25 -7 12 -45 11 -64 -1z"/>
<path d="M906 465 c-11 -8 -15 -15 -9 -15 6 0 16 7 23 15 16 19 11 19 -14 0z"/>
<path d="M990 465 c0 -3 2 -5 5 -5 3 0 5 2 5 5 0 3 -2 5 -5 5 -3 0 -5 -2 -5
-5z"/>
<path d="M963 453 c4 -3 10 -3 14 0 3 4 0 7 -7 7 -7 0 -10 -3 -7 -7z"/>
<path d="M690 440 c19 -13 30 -13 30 0 0 6 -10 10 -22 10 -19 0 -20 -2 -8 -10z"/>
<path d="M940 445 c0 -3 2 -5 5 -5 3 0 5 2 5 5 0 3 -2 5 -5 5 -3 0 -5 -2 -5
-5z"/>
<path d="M593 420 c-24 -10 -43 -24 -43 -30 0 -5 3 -10 6 -10 15 0 104 44 104
51 0 14 -21 10 -67 -11z"/>
<path d="M730 425 c0 -3 2 -5 5 -5 3 0 5 2 5 5 0 3 -2 5 -5 5 -3 0 -5 -2 -5
-5z"/>
<path d="M845 400 c-3 -5 1 -10 9 -10 8 0 18 5 21 10 3 6 -1 10 -9 10 -8 0
-18 -4 -21 -10z"/>
<path d="M1326 394 c-11 -28 -6 -39 9 -20 8 11 15 23 15 28 0 14 -18 9 -24 -8z"/>
<path d="M1000 370 c-9 -6 -10 -10 -3 -10 6 0 15 5 18 10 8 12 4 12 -15 0z"/>
<path d="M745 340 c3 -5 11 -10 16 -10 6 0 7 5 4 10 -3 6 -11 10 -16 10 -6 0
-7 -4 -4 -10z"/>
<path d="M1310 345 c0 -3 2 -5 5 -5 3 0 5 2 5 5 0 3 -2 5 -5 5 -3 0 -5 -2 -5
-5z"/>
<path d="M1094 289 l-29 -30 27 10 c18 7 28 7 30 0 2 -6 15 -1 28 11 17 15 20
20 8 16 -12 -3 -18 0 -18 9 0 23 -13 18 -46 -16z"/>
<path d="M1343 308 c-16 -25 -33 -60 -33 -68 0 -5 9 -6 20 -3 11 3 20 9 20 14
0 5 9 9 19 9 21 0 31 18 22 40 -8 19 -37 24 -48 8z"/>
<path d="M1010 294 c-13 -16 -13 -17 1 -12 9 4 21 2 25 -2 5 -5 15 -5 24 0 12
8 11 10 -7 10 -12 0 -23 5 -25 11 -2 7 -10 4 -18 -7z"/>
<path d="M1023 253 c4 -3 10 -3 14 0 3 4 0 7 -7 7 -7 0 -10 -3 -7 -7z"/>
<path d="M1000 235 c0 -3 2 -5 5 -5 3 0 5 2 5 5 0 3 -2 5 -5 5 -3 0 -5 -2 -5
-5z"/>
<path d="M973 222 c-6 -4 -11 -16 -10 -26 1 -13 -6 -22 -23 -27 -24 -7 -24 -7
5 -8 19 -1 37 7 48 19 9 11 13 20 8 20 -5 0 -11 7 -13 15 -2 8 -8 11 -15 7z"/>
<path d="M1411 155 c-6 -16 -20 -46 -30 -66 -15 -28 -16 -36 -5 -36 7 0 11 4
8 9 -3 4 0 8 6 8 15 0 42 67 37 94 -3 19 -5 18 -16 -9z"/>
<path d="M1376 144 c-4 -9 -4 -19 -1 -22 2 -3 7 3 11 12 4 9 4 19 1 22 -2 3
-7 -3 -11 -12z"/>
<path d="M747 125 c-18 -24 -17 -25 3 -25 30 0 60 18 60 35 0 24 -43 17 -63
-10z"/>
<path d="M1055 140 c-3 -5 3 -10 14 -10 12 0 21 5 21 10 0 6 -6 10 -14 10 -8
0 -18 -4 -21 -10z"/>
<path d="M1340 142 c0 -7 -6 -12 -14 -12 -16 0 -29 -27 -20 -41 9 -15 24 -10
24 9 0 10 5 23 12 30 6 6 9 15 5 19 -4 3 -7 1 -7 -5z"/>
<path d="M1005 110 c-16 -7 -17 -9 -3 -9 9 -1 20 4 23 9 7 11 7 11 -20 0z"/>
<path d="M1326 60 c-9 -22 -16 -45 -16 -50 0 -16 77 -12 83 5 5 11 0 13 -25 8
-29 -6 -31 -5 -25 20 4 14 10 32 13 41 3 9 2 16 -4 16 -5 0 -17 -18 -26 -40z"/>
<path d="M1291 64 c0 -11 3 -14 6 -6 3 7 2 16 -1 19 -3 4 -6 -2 -5 -13z"/>
</g>
</svg>
