<?xml version="1.0" standalone="no"?>
<!DOCTYPE svg PUBLIC "-//W3C//DTD SVG 20010904//EN"
 "http://www.w3.org/TR/2001/REC-SVG-20010904/DTD/svg10.dtd">
<svg version="1.0" xmlns="http://www.w3.org/2000/svg"
 width="468pt" height="468pt" viewBox="0 0 468 468"
 preserveAspectRatio="xMidYMid meet">
<metadata>
Created by potrace 1.7, written by Peter Selinger 2001-2005
</metadata>
<g transform="translate(0,468) scale(0.309934,-0.309934)"
fill="#000000" stroke="none">
<path d="M562 1499 c-18 -7 -23 -15 -20 -36 3 -27 6 -28 60 -29 74 -1 102 -20
123 -83 9 -27 23 -55 31 -61 7 -7 14 -23 14 -36 0 -12 4 -34 10 -48 6 -16 6
-27 0 -31 -13 -8 -13 -62 0 -70 6 -3 10 -33 10 -65 0 -47 -6 -68 -27 -103 -27
-44 -70 -77 -99 -77 -8 0 -18 -9 -22 -21 l-8 -20 -27 21 c-37 29 -91 24 -95
-8 -2 -13 2 -29 8 -37 9 -11 3 -22 -29 -54 -46 -46 -49 -63 -25 -137 8 -27 17
-89 19 -138 2 -49 9 -102 16 -118 14 -34 6 -195 -11 -212 -5 -5 -10 -19 -10
-30 0 -10 -11 -39 -25 -63 -14 -23 -24 -43 -21 -43 10 0 56 87 56 106 0 11 5
25 10 30 17 17 25 178 11 212 -7 16 -14 69 -16 118 -2 49 -11 111 -19 138 -23
72 -20 88 25 136 29 30 37 46 30 53 -6 6 -11 21 -11 34 0 19 5 23 31 23 17 0
42 -9 56 -20 27 -21 43 -19 43 6 0 8 7 14 15 14 29 0 76 38 105 84 25 38 30
57 30 106 0 32 -4 62 -10 65 -13 8 -13 62 0 70 6 4 6 15 0 31 -6 14 -10 36
-10 48 0 13 -7 29 -14 36 -8 6 -22 34 -31 61 -23 69 -58 93 -130 90 -53 -2
-55 -2 -55 23 0 16 6 26 14 26 8 0 18 5 21 10 7 12 7 12 -23 -1z"/>
<path d="M720 1496 c0 -21 24 -36 49 -29 21 5 22 4 12 -16 -10 -18 -9 -21 6
-21 10 0 26 8 34 18 15 17 14 20 -8 40 -28 25 -93 31 -93 8z"/>
<path d="M1013 1503 c4 -3 10 -3 14 0 3 4 0 7 -7 7 -7 0 -10 -3 -7 -7z"/>
<path d="M1043 1433 c-13 -19 -14 -28 -5 -31 7 -2 10 -8 6 -13 -3 -5 4 -9 15
-9 12 0 21 -6 21 -14 0 -11 5 -12 25 -3 30 14 33 27 5 20 -23 -6 -24 -1 -11
45 9 30 8 32 -14 32 -16 0 -31 -10 -42 -27z"/>
<path d="M1132 1300 c-15 -25 -15 -30 2 -30 13 0 26 20 26 41 0 16 -15 10 -28
-11z"/>
<path d="M1155 1239 c-4 -11 -4 -23 0 -27 7 -7 25 17 25 36 0 20 -18 14 -25
-9z"/>
<path d="M986 1235 c-8 -21 11 -58 27 -52 19 6 15 61 -4 65 -9 2 -19 -4 -23
-13z"/>
<path d="M1210 1184 c-22 -12 -23 -14 -5 -15 19 0 18 -1 -2 -11 -28 -14 -30
-28 -3 -21 11 3 26 18 34 34 16 32 13 34 -24 13z"/>
<path d="M840 1150 c0 -7 3 -10 7 -7 3 4 3 10 0 14 -4 3 -7 0 -7 -7z"/>
<path d="M1030 1134 c-12 -22 -12 -27 0 -35 27 -17 45 -6 45 29 0 40 -25 44
-45 6z"/>
<path d="M930 1080 c0 -7 3 -10 7 -7 3 4 3 10 0 14 -4 3 -7 0 -7 -7z"/>
<path d="M1214 858 c3 -13 6 -26 6 -30 0 -8 30 -11 30 -3 0 2 -5 16 -12 30
-14 31 -33 33 -24 3z"/>
<path d="M1183 766 c-26 -27 -32 -72 -9 -63 7 3 18 1 24 -5 15 -15 26 34 15
66 l-8 25 -22 -23z"/>
<path d="M632 707 c-28 -6 -39 -12 -36 -21 3 -8 1 -17 -5 -21 -6 -3 -11 -10
-11 -16 0 -12 47 -12 55 1 3 6 14 10 23 10 10 0 23 9 30 20 7 11 19 20 26 20
8 0 17 4 20 8 6 10 -47 10 -102 -1z"/>
<path d="M1221 684 c0 -11 3 -14 6 -6 3 7 2 16 -1 19 -3 4 -6 -2 -5 -13z"/>
<path d="M892 668 c-16 -16 -15 -38 2 -38 18 0 39 27 31 40 -8 13 -18 13 -33
-2z"/>
<path d="M1201 658 c0 -15 -7 -33 -14 -40 -13 -13 -40 -78 -32 -78 2 0 14 20
26 44 14 28 27 42 35 39 10 -3 14 2 13 18 0 22 -1 23 -9 4 -7 -18 -8 -16 -12
10 -5 29 -5 29 -7 3z"/>
<path d="M573 623 c15 -2 37 -2 50 0 12 2 0 4 -28 4 -27 0 -38 -2 -22 -4z"/>
<path d="M710 615 c0 -3 2 -5 5 -5 3 0 5 2 5 5 0 3 -2 5 -5 5 -3 0 -5 -2 -5
-5z"/>
<path d="M937 613 c-4 -3 -7 -11 -7 -17 0 -6 5 -5 12 2 6 6 9 14 7 17 -3 3 -9
2 -12 -2z"/>
<path d="M1090 575 c-13 -14 -21 -27 -19 -30 5 -4 59 42 59 50 0 12 -19 3 -40
-20z"/>
<path d="M550 580 c0 -5 8 -10 18 -11 9 0 12 -3 5 -5 -7 -3 -21 0 -32 6 -28
14 -27 -1 2 -28 25 -23 47 -29 47 -11 0 5 5 7 10 4 19 -12 10 12 -13 33 -25
24 -37 28 -37 12z"/>
<path d="M713 583 c4 -3 10 -3 14 0 3 4 0 7 -7 7 -7 0 -10 -3 -7 -7z"/>
<path d="M1130 535 c0 -3 2 -5 5 -5 3 0 5 2 5 5 0 3 -2 5 -5 5 -3 0 -5 -2 -5
-5z"/>
<path d="M914 486 c-16 -13 -25 -28 -21 -32 4 -4 20 4 34 19 35 34 24 45 -13
13z"/>
<path d="M770 488 l-35 -10 25 -13 c28 -15 60 -4 60 20 0 17 -2 17 -50 3z"/>
<path d="M954 469 c-19 -22 -19 -22 4 -8 12 8 22 17 22 21 0 12 -6 9 -26 -13z"/>
<path d="M695 450 c-3 -5 -1 -10 4 -10 6 0 11 5 11 10 0 6 -2 10 -4 10 -3 0
-8 -4 -11 -10z"/>
<path d="M618 443 c-25 -3 -41 -12 -53 -29 -16 -24 -16 -25 12 -18 46 10 102
37 97 46 -3 4 -8 7 -12 6 -4 -1 -24 -3 -44 -5z"/>
<path d="M1323 396 c-7 -22 -11 -42 -8 -44 8 -8 26 40 23 61 -2 17 -6 13 -15
-17z"/>
<path d="M863 413 c4 -3 10 -3 14 0 3 4 0 7 -7 7 -7 0 -10 -3 -7 -7z"/>
<path d="M1027 413 c-4 -3 -7 -11 -7 -17 0 -6 5 -5 12 2 6 6 9 14 7 17 -3 3
-9 2 -12 -2z"/>
<path d="M760 355 c0 -3 2 -5 5 -5 3 0 5 2 5 5 0 3 -2 5 -5 5 -3 0 -5 -2 -5
-5z"/>
<path d="M1107 305 c-10 -14 -15 -25 -12 -25 11 0 55 33 55 41 0 18 -25 8 -43
-16z"/>
<path d="M1331 299 c-14 -42 -14 -49 4 -49 8 0 15 6 15 14 0 8 7 16 15 20 22
8 19 46 -4 46 -12 0 -23 -11 -30 -31z"/>
<path d="M1154 306 c-10 -8 -15 -18 -11 -22 4 -4 15 0 24 9 22 21 12 31 -13
13z"/>
<path d="M1006 294 c-5 -14 -4 -15 9 -4 17 14 19 20 6 20 -5 0 -12 -7 -15 -16z"/>
<path d="M1005 250 c-10 -11 -14 -20 -8 -20 5 0 18 9 28 20 10 11 14 20 8 20
-5 0 -18 -9 -28 -20z"/>
<path d="M1043 223 c4 -3 10 -3 14 0 3 4 0 7 -7 7 -7 0 -10 -3 -7 -7z"/>
<path d="M990 203 c-18 -8 -44 -33 -33 -33 4 0 22 9 38 20 29 19 27 25 -5 13z"/>
<path d="M1413 154 c-18 -59 -17 -87 3 -51 8 15 14 42 12 60 l-3 32 -12 -41z"/>
<path d="M1327 150 c-15 -18 -16 -26 -6 -55 11 -29 10 -37 -4 -53 -23 -25 -22
-39 2 -18 23 21 46 74 37 84 -4 3 -11 0 -16 -8 -8 -12 -10 -12 -10 -2 0 8 14
19 30 25 20 8 30 18 30 32 -1 19 -1 19 -11 2 -10 -17 -12 -17 -22 -2 -11 14
-14 13 -30 -5z"/>
<path d="M1103 153 c4 -3 10 -3 14 0 3 4 0 7 -7 7 -7 0 -10 -3 -7 -7z"/>
<path d="M774 136 c-10 -8 -16 -17 -12 -21 11 -11 48 5 48 21 0 18 -11 18 -36
0z"/>
<path d="M1080 145 c0 -3 2 -5 5 -5 3 0 5 2 5 5 0 3 -2 5 -5 5 -3 0 -5 -2 -5
-5z"/>
<path d="M1023 113 c4 -3 10 -3 14 0 3 4 0 7 -7 7 -7 0 -10 -3 -7 -7z"/>
<path d="M1370 89 c0 -5 5 -7 10 -4 6 3 10 8 10 11 0 2 -4 4 -10 4 -5 0 -10
-5 -10 -11z"/>
<path d="M1290 75 c0 -3 2 -5 5 -5 3 0 5 2 5 5 0 3 -2 5 -5 5 -3 0 -5 -2 -5
-5z"/>
<path d="M1347 30 c-22 -26 -21 -30 6 -30 12 0 28 9 35 21 9 14 10 19 2 14 -7
-4 -15 -3 -19 4 -5 7 -13 4 -24 -9z"/>
</g>
</svg>
