<?xml version="1.0" standalone="no"?>
<!DOCTYPE svg PUBLIC "-//W3C//DTD SVG 20010904//EN"
 "http://www.w3.org/TR/2001/REC-SVG-20010904/DTD/svg10.dtd">
<svg version="1.0" xmlns="http://www.w3.org/2000/svg"
 width="468pt" height="468pt" viewBox="0 0 468 468"
 preserveAspectRatio="xMidYMid meet">
<metadata>
Created by potrace 1.7, written by Peter Selinger 2001-2005
</metadata>
<g transform="translate(0,468) scale(0.309934,-0.309934)"
fill="#000000" stroke="none">
<path d="M536 1491 c-10 -11 -16 -30 -14 -43 3 -20 9 -23 43 -24 56 -1 90 -13
76 -27 -14 -14 -14 -54 0 -63 6 -4 36 -1 65 6 42 10 57 11 67 1 17 -17 27
-150 20 -286 -6 -117 -7 -121 -36 -147 -17 -17 -40 -28 -57 -28 -20 0 -47 -17
-96 -63 -38 -34 -113 -95 -167 -136 -85 -64 -98 -77 -95 -100 3 -24 7 -26 50
-26 29 0 53 -6 62 -15 8 -8 22 -54 30 -103 17 -96 31 -130 70 -166 31 -29 33
-58 6 -130 -22 -61 -60 -107 -105 -127 -20 -9 -24 -13 -12 -14 32 0 106 80
127 140 27 73 25 102 -6 131 -39 36 -53 70 -70 166 -19 112 -38 135 -100 126
-42 -5 -44 -4 -44 19 0 19 20 39 93 94 50 38 123 97 161 131 50 46 76 63 97
63 17 0 40 12 62 33 l34 32 6 120 c7 154 -3 269 -26 292 -15 15 -22 16 -62 5
-25 -7 -52 -12 -60 -12 -18 0 -20 41 -3 58 16 16 -47 41 -89 35 -29 -5 -33 -3
-33 18 0 12 7 31 17 41 9 10 14 18 11 18 -3 0 -13 -9 -22 -19z"/>
<path d="M671 1486 c-17 -30 -7 -50 18 -36 10 5 21 7 24 3 5 -5 27 38 27 53 0
2 -13 4 -28 4 -20 0 -33 -7 -41 -24z"/>
<path d="M639 1483 c-13 -16 -12 -17 4 -4 9 7 17 15 17 17 0 8 -8 3 -21 -13z"/>
<path d="M1070 1466 c0 -19 41 -94 62 -112 21 -19 21 -19 15 6 -3 14 -9 44
-13 67 -5 36 -10 42 -35 45 -16 3 -29 0 -29 -6z"/>
<path d="M757 1453 c-4 -3 -7 -11 -7 -17 0 -6 5 -5 12 2 6 6 9 14 7 17 -3 3
-9 2 -12 -2z"/>
<path d="M1151 1327 c-16 -20 -6 -56 10 -40 6 6 9 21 7 33 -3 21 -4 22 -17 7z"/>
<path d="M1180 1285 c0 -3 2 -5 5 -5 3 0 5 2 5 5 0 3 -2 5 -5 5 -3 0 -5 -2 -5
-5z"/>
<path d="M990 1270 c0 -5 5 -10 11 -10 5 0 7 5 4 10 -3 6 -8 10 -11 10 -2 0
-4 -4 -4 -10z"/>
<path d="M1176 1254 c-10 -27 -7 -52 8 -57 9 -4 13 -17 11 -40 -5 -55 42 -38
60 21 6 22 5 23 -15 12 -27 -14 -40 -1 -40 42 0 31 -15 45 -24 22z"/>
<path d="M1060 1145 c0 -24 24 -44 37 -31 9 8 -14 56 -27 56 -5 0 -10 -11 -10
-25z"/>
<path d="M1280 1165 c0 -3 2 -5 5 -5 3 0 5 2 5 5 0 3 -2 5 -5 5 -3 0 -5 -2 -5
-5z"/>
<path d="M920 1055 c0 -3 2 -5 5 -5 3 0 5 2 5 5 0 3 -2 5 -5 5 -3 0 -5 -2 -5
-5z"/>
<path d="M1300 1020 c0 -7 3 -10 7 -7 3 4 3 10 0 14 -4 3 -7 0 -7 -7z"/>
<path d="M943 1003 c4 -3 10 -3 14 0 3 4 0 7 -7 7 -7 0 -10 -3 -7 -7z"/>
<path d="M1370 1000 c0 -7 3 -10 7 -7 3 4 3 10 0 14 -4 3 -7 0 -7 -7z"/>
<path d="M1073 993 c4 -3 10 -3 14 0 3 4 0 7 -7 7 -7 0 -10 -3 -7 -7z"/>
<path d="M820 980 c0 -7 3 -10 7 -7 3 4 3 10 0 14 -4 3 -7 0 -7 -7z"/>
<path d="M1300 970 c0 -7 3 -10 7 -7 3 4 3 10 0 14 -4 3 -7 0 -7 -7z"/>
<path d="M1300 940 c0 -7 3 -10 7 -7 3 4 3 10 0 14 -4 3 -7 0 -7 -7z"/>
<path d="M1100 888 c0 -9 -5 -18 -12 -20 -6 -2 -8 -9 -4 -16 10 -17 33 -4 31
18 -2 24 -15 39 -15 18z"/>
<path d="M1270 841 c0 -11 5 -23 10 -26 6 -3 10 3 10 14 0 11 -4 23 -10 26 -5
3 -10 -3 -10 -14z"/>
<path d="M1224 825 c-8 -19 4 -35 20 -29 8 3 12 14 9 25 -6 22 -21 25 -29 4z"/>
<path d="M1189 752 c-9 -10 -15 -34 -15 -53 1 -28 5 -35 21 -37 19 -1 21 5 22
53 2 59 -4 65 -28 37z"/>
<path d="M800 745 c0 -3 2 -5 5 -5 3 0 5 2 5 5 0 3 -2 5 -5 5 -3 0 -5 -2 -5
-5z"/>
<path d="M1160 690 c0 -7 3 -10 7 -7 3 4 3 10 0 14 -4 3 -7 0 -7 -7z"/>
<path d="M586 677 c3 -8 -7 -19 -22 -26 -15 -6 -24 -14 -22 -17 7 -6 61 17 70
30 9 13 0 26 -17 26 -8 0 -12 -6 -9 -13z"/>
<path d="M1217 644 c-4 -4 -7 -14 -7 -23 0 -11 3 -12 11 -4 6 6 10 16 7 23 -2
6 -7 8 -11 4z"/>
<path d="M520 630 c0 -7 3 -10 7 -7 3 4 3 10 0 14 -4 3 -7 0 -7 -7z"/>
<path d="M850 620 c-11 -7 -7 -10 18 -10 17 0 32 5 32 10 0 13 -30 13 -50 0z"/>
<path d="M663 593 c4 -3 10 -3 14 0 3 4 0 7 -7 7 -7 0 -10 -3 -7 -7z"/>
<path d="M914 568 c-4 -7 -3 -8 4 -4 7 4 12 9 12 12 0 8 -9 4 -16 -8z"/>
<path d="M1106 558 c-25 -14 -56 -41 -56 -49 0 -8 32 -5 47 4 7 4 16 0 21 -10
9 -14 13 -15 26 -4 22 19 21 66 -2 68 -9 1 -26 -3 -36 -9z"/>
<path d="M909 463 c-13 -16 -12 -17 4 -4 16 13 21 21 13 21 -2 0 -10 -8 -17
-17z"/>
<path d="M729 461 c16 -11 6 -31 -16 -31 -12 0 -13 -3 -4 -13 17 -21 55 -14
59 11 2 13 11 22 20 22 15 0 15 2 2 10 -8 5 -28 10 -45 10 -21 0 -26 -3 -16
-9z"/>
<path d="M942 444 c-10 -11 -10 -14 0 -14 7 0 19 4 26 9 11 7 11 9 0 13 -7 3
-19 -1 -26 -8z"/>
<path d="M584 416 c-37 -16 -53 -36 -29 -36 20 0 75 31 75 42 0 11 -10 10 -46
-6z"/>
<path d="M1297 413 c-4 -3 -7 -11 -7 -17 0 -6 5 -5 12 2 6 6 9 14 7 17 -3 3
-9 2 -12 -2z"/>
<path d="M844 395 c-16 -12 -17 -14 -2 -15 25 0 49 11 42 21 -7 13 -17 11 -40
-6z"/>
<path d="M1325 370 c-22 -42 -19 -47 10 -16 26 28 32 46 15 46 -5 0 -16 -13
-25 -30z"/>
<path d="M985 360 c-3 -5 -1 -10 4 -10 6 0 11 5 11 10 0 6 -2 10 -4 10 -3 0
-8 -4 -11 -10z"/>
<path d="M720 351 c0 -13 28 -33 33 -23 3 4 -3 13 -14 20 -10 7 -19 8 -19 3z"/>
<path d="M880 335 c0 -3 2 -5 5 -5 3 0 5 2 5 5 0 3 -2 5 -5 5 -3 0 -5 -2 -5
-5z"/>
<path d="M1326 265 c-30 -50 -33 -63 -11 -45 8 7 15 9 15 4 0 -4 5 -3 12 4 7
7 20 12 29 12 23 0 31 14 24 42 -10 40 -41 32 -69 -17z"/>
<path d="M1001 286 c-8 -10 -8 -16 1 -23 19 -13 105 -15 128 -3 19 10 19 12 5
27 -13 13 -20 13 -46 3 -23 -10 -33 -10 -42 -1 -15 15 -32 14 -46 -3z"/>
<path d="M944 198 l-36 -32 26 -7 c33 -9 66 -1 66 17 0 7 8 18 18 23 15 9 13
10 -8 8 -16 -1 -24 3 -22 11 3 18 -4 15 -44 -20z"/>
<path d="M1010 176 c0 -9 5 -16 10 -16 6 0 10 4 10 9 0 6 -4 13 -10 16 -5 3
-10 -1 -10 -9z"/>
<path d="M763 173 c4 -3 10 -3 14 0 3 4 0 7 -7 7 -7 0 -10 -3 -7 -7z"/>
<path d="M1095 160 c-3 -5 -15 -10 -26 -10 -10 0 -28 -9 -38 -19 -11 -11 -27
-21 -38 -24 -10 -3 -5 -5 14 -6 17 0 38 6 46 14 8 8 16 13 18 11 2 -2 15 7 29
20 13 13 19 24 13 24 -7 0 -15 -4 -18 -10z"/>
<path d="M744 150 c-28 -11 -35 -22 -25 -39 10 -15 43 -7 66 15 27 28 3 42
-41 24z"/>
<path d="M1402 138 c-6 -6 -12 -18 -12 -25 0 -7 -5 -13 -11 -13 -6 0 -8 9 -4
23 7 24 -26 -23 -57 -83 -22 -41 -22 -40 -3 -40 8 0 15 8 15 18 0 10 6 27 14
38 14 18 15 18 12 -6 -1 -14 -6 -32 -10 -39 -6 -9 -2 -12 15 -9 18 2 24 10 26
30 1 15 9 43 18 62 19 39 17 64 -3 44z"/>
<path d="M1310 86 c0 -8 -7 -16 -15 -20 -8 -3 -15 -13 -15 -23 1 -14 6 -11 25
12 27 32 31 45 15 45 -5 0 -10 -6 -10 -14z"/>
</g>
</svg>
