<?xml version="1.0" standalone="no"?>
<!DOCTYPE svg PUBLIC "-//W3C//DTD SVG 20010904//EN"
 "http://www.w3.org/TR/2001/REC-SVG-20010904/DTD/svg10.dtd">
<svg version="1.0" xmlns="http://www.w3.org/2000/svg"
 width="468pt" height="468pt" viewBox="0 0 468 468"
 preserveAspectRatio="xMidYMid meet">
<metadata>
Created by potrace 1.7, written by Peter Selinger 2001-2005
</metadata>
<g transform="translate(0,468) scale(0.309934,-0.309934)"
fill="#000000" stroke="none">
<path d="M260 1500 c18 -12 78 -12 105 0 14 6 -2 9 -50 9 -49 1 -65 -2 -55 -9z"/>
<path d="M580 1498 c0 -6 -8 -21 -17 -32 -14 -16 -14 -18 -2 -8 9 6 18 9 21 6
10 -9 80 25 73 36 -9 14 -75 13 -75 -2z"/>
<path d="M1150 1495 c0 -3 2 -5 5 -5 3 0 5 2 5 5 0 3 -2 5 -5 5 -3 0 -5 -2 -5
-5z"/>
<path d="M180 1443 c-27 -23 -30 -27 -15 -35 18 -11 92 -1 101 13 3 5 0 9 -6
9 -6 0 -8 5 -5 10 3 6 -1 10 -9 10 -9 0 -16 5 -16 10 0 17 -17 11 -50 -17z"/>
<path d="M690 1425 c0 -3 2 -5 5 -5 3 0 5 2 5 5 0 3 -2 5 -5 5 -3 0 -5 -2 -5
-5z"/>
<path d="M300 1395 c-24 -13 -34 -18 -70 -33 -9 -4 1 -8 23 -10 31 -3 44 2 73
27 26 23 30 31 17 31 -10 0 -29 -7 -43 -15z"/>
<path d="M642 1349 c-7 -12 -16 -18 -19 -15 -12 11 -43 -16 -43 -37 0 -20 2
-19 20 8 11 17 20 26 20 22 0 -15 -32 -57 -41 -52 -9 6 -53 -58 -64 -92 -5
-18 -3 -22 9 -17 9 3 14 10 11 14 -3 4 3 14 12 21 13 11 17 11 20 2 6 -18 20
-16 41 5 9 9 30 22 46 27 17 6 30 18 32 30 2 18 1 18 -9 4 -7 -9 -18 -14 -24
-12 -15 5 -18 59 -4 65 11 4 24 48 14 48 -4 0 -14 -9 -21 -21z m-62 -124 c0
-3 -2 -5 -5 -5 -3 0 -5 2 -5 5 0 3 2 5 5 5 3 0 5 -2 5 -5z"/>
<path d="M548 1315 c-20 -26 -24 -50 -8 -40 14 9 42 65 33 65 -5 0 -16 -11
-25 -25z"/>
<path d="M1480 1320 c0 -7 3 -10 7 -7 3 4 3 10 0 14 -4 3 -7 0 -7 -7z"/>
<path d="M980 1315 c0 -3 2 -5 5 -5 3 0 5 2 5 5 0 3 -2 5 -5 5 -3 0 -5 -2 -5
-5z"/>
<path d="M14 1265 c8 -16 30 -45 50 -64 19 -19 38 -48 42 -65 7 -35 31 -66 51
-66 8 0 13 -12 13 -33 0 -32 24 -67 46 -67 5 0 19 -15 32 -34 20 -29 21 -37
11 -55 -11 -17 -10 -23 6 -41 14 -16 26 -19 51 -14 28 5 35 2 50 -22 12 -18
18 -43 16 -73 -1 -39 3 -53 29 -84 24 -29 38 -37 63 -37 39 0 90 -47 80 -74
-8 -21 22 -56 48 -56 10 0 18 -6 18 -13 0 -19 33 -47 55 -47 11 0 31 11 46 26
31 30 113 54 186 54 94 0 263 -72 283 -120 7 -16 21 -37 31 -46 24 -22 47 -11
68 30 11 24 17 27 44 22 17 -3 39 -13 48 -22 18 -17 49 -95 49 -124 0 -10 18
-37 41 -61 l41 -44 -36 44 c-20 25 -36 52 -36 61 0 33 -32 108 -55 130 -13 12
-38 23 -56 23 -26 2 -35 -4 -49 -28 -24 -42 -50 -39 -77 11 -24 43 -89 83
-196 118 -92 31 -234 11 -287 -39 -35 -33 -70 -30 -88 7 -7 16 -21 28 -31 28
-25 0 -45 26 -37 47 11 27 -51 83 -90 83 -48 0 -84 50 -82 113 3 64 -25 102
-75 102 -47 0 -66 18 -48 46 11 19 9 26 -12 56 -14 20 -36 40 -49 47 -16 8
-24 23 -28 49 -4 27 -12 41 -29 50 -15 7 -28 26 -34 47 -5 19 -28 55 -50 80
-23 26 -48 55 -55 66 -7 10 -6 6 2 -11z"/>
<path d="M780 1285 c0 -3 2 -5 5 -5 3 0 5 2 5 5 0 3 -2 5 -5 5 -3 0 -5 -2 -5
-5z"/>
<path d="M1420 1232 c0 -16 28 -34 34 -23 4 6 -3 15 -14 21 -11 6 -20 7 -20 2z"/>
<path d="M980 1210 c0 -7 3 -10 7 -7 3 4 3 10 0 14 -4 3 -7 0 -7 -7z"/>
<path d="M749 1123 c-3 -18 -2 -30 2 -28 4 3 9 -2 13 -10 3 -8 1 -17 -4 -20
-6 -4 -10 -15 -10 -25 0 -19 1 -19 20 -3 11 10 20 25 20 35 0 10 5 18 10 18 6
0 10 9 10 21 0 11 -4 18 -9 15 -5 -4 -12 0 -14 6 -4 10 -8 10 -15 -1 -8 -11
-11 -10 -14 5 -3 13 -6 9 -9 -13z"/>
<path d="M646 1054 c-4 -9 -4 -19 -1 -22 2 -3 7 3 11 12 4 9 4 19 1 22 -2 3
-7 -3 -11 -12z"/>
<path d="M312 1018 c-7 -7 -12 -18 -12 -25 0 -15 26 -18 35 -3 3 6 1 10 -5 10
-7 0 -10 7 -6 15 7 18 4 19 -12 3z"/>
<path d="M780 1003 c0 -17 5 -33 11 -35 9 -3 9 -10 0 -26 -9 -18 -9 -22 2 -22
8 0 17 -9 20 -21 7 -24 33 -20 31 5 -1 9 2 16 6 16 12 0 18 33 10 55 -7 19 -9
18 -20 -7 -13 -28 -30 -38 -30 -18 0 6 5 10 10 10 6 0 10 9 10 20 0 11 -5 20
-11 20 -7 0 -18 8 -25 18 -12 15 -13 14 -14 -15z"/>
<path d="M934 983 c-10 -25 -20 -41 -22 -35 -6 18 -22 4 -22 -19 0 -11 -4 -18
-9 -15 -5 3 -14 -8 -20 -26 -14 -40 -14 -43 3 -29 20 17 39 -19 30 -56 -5 -22
-4 -25 5 -17 15 14 22 82 10 90 -14 8 -10 34 4 28 21 -8 44 27 51 79 9 61 -7
62 -30 0z"/>
<path d="M578 977 c-13 -14 -31 -27 -39 -29 -20 -4 -35 -27 -44 -65 -4 -22 -3
-33 5 -33 20 0 50 20 50 34 0 8 7 19 15 26 8 7 15 19 15 28 0 8 7 24 17 34 9
10 13 21 10 24 -3 4 -17 -5 -29 -19z"/>
<path d="M982 930 c0 -14 2 -19 5 -12 2 6 2 18 0 25 -3 6 -5 1 -5 -13z"/>
<path d="M994 893 c-11 -55 -10 -113 3 -162 l8 -34 19 27 c10 16 16 39 13 52
-3 15 1 28 11 33 8 4 13 14 10 21 -3 10 -7 10 -19 -1 -34 -33 -42 -23 -34 46
8 76 2 86 -11 18z"/>
<path d="M360 920 c0 -5 5 -10 10 -10 6 0 10 5 10 10 0 6 -4 10 -10 10 -5 0
-10 -4 -10 -10z"/>
<path d="M1280 880 c-17 -24 -18 -30 -6 -30 16 0 46 26 46 40 0 22 -21 17 -40
-10z"/>
<path d="M1240 895 c0 -3 2 -5 5 -5 3 0 5 2 5 5 0 3 -2 5 -5 5 -3 0 -5 -2 -5
-5z"/>
<path d="M793 864 c-3 -8 0 -25 6 -37 l11 -22 -5 22 c-3 12 -1 24 5 28 5 3 10
10 10 16 0 15 -20 10 -27 -7z"/>
<path d="M1221 854 c-6 -15 -9 -29 -7 -32 3 -2 10 8 16 23 14 36 7 43 -9 9z"/>
<path d="M960 865 c0 -3 2 -5 5 -5 3 0 5 2 5 5 0 3 -2 5 -5 5 -3 0 -5 -2 -5
-5z"/>
<path d="M606 841 c-11 -12 -16 -24 -12 -28 9 -9 39 22 34 37 -2 7 -10 4 -22
-9z"/>
<path d="M1375 830 c-10 -11 -16 -22 -13 -25 3 -3 13 4 23 15 10 11 16 22 13
25 -3 3 -13 -4 -23 -15z"/>
<path d="M1010 835 c0 -3 2 -5 5 -5 3 0 5 2 5 5 0 3 -2 5 -5 5 -3 0 -5 -2 -5
-5z"/>
<path d="M1172 820 c0 -14 2 -19 5 -12 2 6 2 18 0 25 -3 6 -5 1 -5 -13z"/>
<path d="M1246 823 c-4 -13 -12 -23 -17 -23 -5 0 -9 -5 -9 -11 0 -6 7 -9 15
-5 8 3 15 0 15 -6 0 -7 5 -6 15 2 9 7 12 16 7 19 -5 3 -12 15 -14 26 -4 19 -5
19 -12 -2z"/>
<path d="M517 813 c-12 -11 -8 -23 7 -23 7 0 19 7 26 15 10 12 9 15 -7 15 -11
0 -23 -3 -26 -7z"/>
<path d="M1198 804 c-13 -12 -9 -46 4 -38 8 5 9 -2 5 -24 -6 -30 -5 -31 13
-20 23 15 26 34 6 41 -8 3 -16 15 -18 27 -2 12 -6 18 -10 14z"/>
<path d="M1500 805 c0 -3 2 -5 5 -5 3 0 5 2 5 5 0 3 -2 5 -5 5 -3 0 -5 -2 -5
-5z"/>
<path d="M490 795 c0 -3 2 -5 5 -5 3 0 5 2 5 5 0 3 -2 5 -5 5 -3 0 -5 -2 -5
-5z"/>
<path d="M1470 775 c-7 -9 -11 -18 -8 -20 3 -3 11 1 18 10 7 9 11 18 8 20 -3
3 -11 -1 -18 -10z"/>
<path d="M1290 775 c0 -3 2 -5 5 -5 3 0 5 2 5 5 0 3 -2 5 -5 5 -3 0 -5 -2 -5
-5z"/>
<path d="M1357 766 c-4 -10 -1 -13 9 -9 7 3 14 9 14 14 0 14 -17 10 -23 -5z"/>
<path d="M1496 755 c-5 -11 -16 -28 -24 -37 -8 -10 -10 -18 -4 -18 5 0 8 -9 5
-20 -3 -11 -9 -17 -14 -14 -5 3 -9 -1 -9 -10 0 -8 6 -16 12 -18 9 -3 8 -12 -5
-31 -14 -22 -14 -25 -2 -21 8 4 15 12 15 20 0 8 4 14 9 14 17 0 32 57 29 106
-3 38 -5 45 -12 29z"/>
<path d="M1078 723 c-23 -44 -23 -75 1 -104 24 -30 37 -19 45 36 3 22 3 34 0
28 -3 -7 -10 -13 -15 -13 -4 0 -6 6 -4 13 2 6 1 26 -3 43 l-7 32 -17 -35z"/>
<path d="M472 688 c-14 -14 -16 -28 -2 -28 5 0 14 9 20 20 12 22 1 27 -18 8z"/>
<path d="M1213 663 c-21 -21 -33 -45 -33 -61 0 -21 2 -24 10 -12 12 19 27 5
32 -30 3 -18 8 -7 17 35 7 33 17 68 22 77 21 41 -6 36 -48 -9z"/>
<path d="M1434 687 c-3 -9 -12 -13 -20 -10 -8 3 -14 1 -14 -4 0 -16 38 -12 44
4 4 9 4 18 1 21 -2 3 -7 -2 -11 -11z"/>
<path d="M1356 663 c-6 -14 -5 -15 5 -6 7 7 10 15 7 18 -3 3 -9 -2 -12 -12z"/>
<path d="M980 625 c0 -3 2 -5 5 -5 3 0 5 2 5 5 0 3 -2 5 -5 5 -3 0 -5 -2 -5
-5z"/>
<path d="M770 596 c0 -40 10 -58 26 -45 11 9 11 16 -2 40 -18 35 -24 37 -24 5z"/>
<path d="M1332 600 c-6 -11 -12 -26 -12 -33 0 -8 -18 -30 -40 -50 -22 -19 -40
-44 -40 -55 0 -11 -5 -22 -12 -24 -7 -3 -8 -10 -4 -17 11 -18 48 19 71 70 10
22 23 38 29 36 26 -10 42 11 38 52 -5 46 -11 50 -30 21z m28 -55 c0 -3 -2 -5
-5 -5 -3 0 -5 2 -5 5 0 3 2 5 5 5 3 0 5 -2 5 -5z"/>
<path d="M1420 605 c0 -3 2 -5 5 -5 3 0 5 2 5 5 0 3 -2 5 -5 5 -3 0 -5 -2 -5
-5z"/>
<path d="M1400 590 c0 -7 3 -10 7 -7 3 4 3 10 0 14 -4 3 -7 0 -7 -7z"/>
<path d="M1418 547 c-3 -19 -2 -25 4 -19 6 6 8 18 6 28 -3 14 -5 12 -10 -9z"/>
<path d="M1502 365 c0 -16 2 -22 5 -12 2 9 2 23 0 30 -3 6 -5 -1 -5 -18z"/>
<path d="M1479 13 c-13 -17 -13 -17 6 -3 11 8 22 16 24 17 2 2 0 3 -6 3 -6 0
-17 -8 -24 -17z"/>
</g>
</svg>
