<?xml version="1.0" standalone="no"?>
<!DOCTYPE svg PUBLIC "-//W3C//DTD SVG 20010904//EN"
 "http://www.w3.org/TR/2001/REC-SVG-20010904/DTD/svg10.dtd">
<svg version="1.0" xmlns="http://www.w3.org/2000/svg"
 width="468pt" height="468pt" viewBox="0 0 468 468"
 preserveAspectRatio="xMidYMid meet">
<metadata>
Created by potrace 1.7, written by Peter Selinger 2001-2005
</metadata>
<g transform="translate(0,468) scale(0.309934,-0.309934)"
fill="#000000" stroke="none">
<path d="M240 1485 c-19 -14 -31 -25 -26 -25 4 0 24 11 44 25 20 14 32 25 26
25 -5 0 -25 -11 -44 -25z"/>
<path d="M565 1499 c-4 -6 -4 -13 -1 -16 3 -4 6 -1 6 6 0 8 7 11 15 7 8 -3 15
-1 15 4 0 13 -27 13 -35 -1z"/>
<path d="M285 1470 c-3 -5 -2 -10 4 -10 5 0 13 5 16 10 3 6 2 10 -4 10 -5 0
-13 -4 -16 -10z"/>
<path d="M220 1440 c-13 -11 -17 -20 -11 -20 7 0 24 9 38 20 17 13 20 20 11
20 -8 0 -25 -9 -38 -20z"/>
<path d="M666 1415 c-14 -34 -24 -85 -16 -85 12 0 32 56 28 82 -3 22 -4 22
-12 3z"/>
<path d="M589 1408 c-8 -7 -21 -21 -28 -31 -12 -15 -11 -20 5 -32 18 -13 18
-15 2 -45 -20 -35 -23 -54 -8 -45 10 6 50 78 50 91 0 3 -7 4 -15 0 -18 -7 -18
-7 0 38 17 39 16 42 -6 24z"/>
<path d="M631 1411 c0 -8 -8 -23 -18 -33 -9 -10 -11 -18 -6 -18 17 0 35 28 30
47 -3 11 -5 12 -6 4z"/>
<path d="M19 1389 c-14 -14 -18 -24 -11 -31 14 -14 62 19 55 38 -7 19 -19 18
-44 -7z"/>
<path d="M333 1403 c-13 -2 -23 -8 -23 -13 0 -5 14 -4 30 1 27 10 42 21 23 18
-5 -1 -18 -4 -30 -6z"/>
<path d="M258 1363 c6 -2 18 -2 25 0 6 3 1 5 -13 5 -14 0 -19 -2 -12 -5z"/>
<path d="M620 1330 c0 -7 3 -10 7 -7 3 4 3 10 0 14 -4 3 -7 0 -7 -7z"/>
<path d="M540 1315 c0 -3 2 -5 5 -5 3 0 5 2 5 5 0 3 -2 5 -5 5 -3 0 -5 -2 -5
-5z"/>
<path d="M603 1293 c4 -3 10 -3 14 0 3 4 0 7 -7 7 -7 0 -10 -3 -7 -7z"/>
<path d="M635 1280 c-3 -5 -12 -7 -19 -4 -8 3 -21 -5 -30 -18 -18 -25 -21 -42
-6 -33 6 3 10 0 10 -7 0 -13 31 20 51 55 10 17 5 25 -6 7z"/>
<path d="M521 1214 c0 -11 3 -14 6 -6 3 7 2 16 -1 19 -3 4 -6 -2 -5 -13z"/>
<path d="M777 1209 c-21 -24 -37 -86 -18 -75 8 6 10 1 5 -18 -4 -16 -2 -26 5
-26 6 0 11 -15 11 -33 0 -18 4 -37 9 -42 5 -6 12 -23 14 -40 3 -16 5 8 4 55 0
47 3 99 6 115 6 23 5 25 -2 10 -9 -18 -10 -17 -11 10 -1 17 -2 38 -1 48 3 21
1 21 -22 -4z"/>
<path d="M667 1144 c-4 -4 -7 -17 -7 -28 1 -19 1 -20 11 -3 11 19 8 43 -4 31z"/>
<path d="M331 1096 c-23 -24 -39 -96 -21 -96 5 0 18 17 29 38 40 79 36 105 -8
58z"/>
<path d="M650 1085 c0 -3 2 -5 5 -5 3 0 5 2 5 5 0 3 -2 5 -5 5 -3 0 -5 -2 -5
-5z"/>
<path d="M617 1054 c-9 -27 -47 -63 -47 -44 0 10 -4 9 -16 -1 -15 -12 -16 -11
-10 9 6 18 4 22 -13 22 -12 0 -21 -3 -22 -7 -1 -5 -3 -36 -4 -70 -3 -55 -1
-63 14 -63 23 0 46 27 55 63 4 15 11 25 16 22 12 -7 42 51 38 73 -3 14 -5 13
-11 -4z"/>
<path d="M820 1050 c0 -7 3 -10 7 -7 3 4 3 10 0 14 -4 3 -7 0 -7 -7z"/>
<path d="M854 1024 c-3 -16 -13 -39 -20 -51 -10 -15 -11 -23 -3 -23 15 0 48
41 49 60 0 8 -4 22 -9 29 -8 12 -11 8 -17 -15z"/>
<path d="M200 965 c-17 -18 -21 -28 -13 -36 13 -13 53 22 53 46 0 22 -13 18
-40 -10z"/>
<path d="M897 963 c-11 -10 -8 -43 3 -43 6 0 10 -17 11 -37 l1 -38 13 49 c7
26 11 55 8 62 -5 15 -25 19 -36 7z"/>
<path d="M1010 925 c0 -3 2 -5 5 -5 3 0 5 2 5 5 0 3 -2 5 -5 5 -3 0 -5 -2 -5
-5z"/>
<path d="M1070 920 c0 -7 3 -10 7 -7 3 4 3 10 0 14 -4 3 -7 0 -7 -7z"/>
<path d="M640 894 c-13 -13 -29 -24 -35 -24 -11 -1 -55 -35 -55 -44 0 -15 30
-4 44 16 9 12 19 19 22 15 8 -7 54 39 54 54 0 12 -1 12 -30 -17z"/>
<path d="M936 894 c-4 -9 -4 -19 -1 -22 2 -3 7 3 11 12 4 9 4 19 1 22 -2 3 -7
-3 -11 -12z"/>
<path d="M1008 855 c-10 -24 -13 -44 -7 -49 12 -13 11 -63 -2 -87 -5 -11 -8
-28 -6 -37 5 -20 4 -20 36 82 14 43 18 72 12 80 -5 6 -11 20 -13 31 -3 16 -7
11 -20 -20z"/>
<path d="M519 843 c-13 -16 -12 -17 4 -4 9 7 17 15 17 17 0 8 -8 3 -21 -13z"/>
<path d="M57 794 c-7 -41 0 -64 18 -64 19 0 23 9 29 58 4 39 3 42 -18 42 -19
0 -24 -7 -29 -36z"/>
<path d="M480 825 c0 -3 2 -5 5 -5 3 0 5 2 5 5 0 3 -2 5 -5 5 -3 0 -5 -2 -5
-5z"/>
<path d="M1146 790 c-13 -54 -17 -108 -6 -90 5 8 6 18 3 23 -3 5 0 13 6 17 7
4 11 23 9 46 l-3 39 -9 -35z"/>
<path d="M1200 790 c0 -11 2 -20 4 -20 2 0 6 9 9 20 3 11 1 20 -4 20 -5 0 -9
-9 -9 -20z"/>
<path d="M147 788 c-39 -21 -6 -89 33 -68 11 6 20 15 20 20 0 4 2 15 5 22 8
20 -36 39 -58 26z"/>
<path d="M535 764 c-16 -8 -38 -23 -47 -31 -20 -17 -24 -43 -8 -43 6 0 10 5
10 10 0 6 6 10 13 10 6 0 25 16 40 35 15 19 27 35 25 35 -2 0 -16 -7 -33 -16z"/>
<path d="M1280 769 c0 -5 5 -7 10 -4 6 3 10 8 10 11 0 2 -4 4 -10 4 -5 0 -10
-5 -10 -11z"/>
<path d="M1087 763 c-11 -21 -15 -60 -7 -73 7 -11 10 -11 10 -2 0 7 3 11 8 9
4 -3 7 10 7 28 0 34 -9 53 -18 38z"/>
<path d="M1220 755 c0 -3 2 -5 5 -5 3 0 5 2 5 5 0 3 -2 5 -5 5 -3 0 -5 -2 -5
-5z"/>
<path d="M1494 740 c-6 -6 -21 -13 -34 -15 -13 -2 -35 -15 -49 -28 -14 -13
-34 -27 -43 -30 -10 -4 -18 -11 -18 -16 0 -6 8 -8 18 -4 31 11 -30 -48 -65
-63 -17 -8 -34 -22 -37 -31 -20 -74 -16 -115 6 -52 8 23 13 28 20 17 6 -9 11
-9 14 -2 3 6 11 20 19 30 14 18 14 18 15 1 0 -17 1 -17 16 -2 9 9 17 27 17 40
0 14 6 30 13 36 8 6 12 15 9 19 -2 4 7 18 20 30 14 13 25 21 25 17 0 -17 64
23 67 42 3 24 1 25 -13 11z m-41 -35 c-3 -9 -8 -14 -10 -11 -3 3 -2 9 2 15 9
16 15 13 8 -4z"/>
<path d="M418 712 c-2 -15 -1 -38 2 -52 5 -22 7 -23 13 -7 10 26 9 75 -2 81
-5 3 -11 -7 -13 -22z"/>
<path d="M1220 668 c-31 -43 -31 -43 -10 -60 11 -9 20 -24 20 -33 0 -26 17 -8
30 31 9 28 10 38 1 44 -8 5 -9 14 -2 33 16 40 -3 33 -39 -15z"/>
<path d="M1500 680 c0 -7 3 -10 7 -7 3 4 3 10 0 14 -4 3 -7 0 -7 -7z"/>
<path d="M474 658 c-4 -7 -3 -8 4 -4 12 7 16 16 8 16 -3 0 -8 -5 -12 -12z"/>
<path d="M784 635 c-8 -20 -12 -40 -9 -45 9 -14 51 -8 77 11 l23 18 -28 25
c-37 34 -45 33 -63 -9z"/>
<path d="M1114 656 c-3 -9 -10 -14 -14 -11 -5 3 -6 -5 -3 -16 6 -21 7 -21 20
6 8 15 12 29 9 32 -3 3 -8 -2 -12 -11z"/>
<path d="M980 655 c0 -3 2 -5 5 -5 3 0 5 2 5 5 0 3 -2 5 -5 5 -3 0 -5 -2 -5
-5z"/>
<path d="M1070 650 c0 -7 3 -10 7 -7 3 4 3 10 0 14 -4 3 -7 0 -7 -7z"/>
<path d="M556 624 c-9 -23 -7 -64 3 -64 12 0 34 57 26 69 -9 16 -22 13 -29 -5z"/>
<path d="M1490 615 c-7 -9 -11 -18 -8 -20 3 -3 11 1 18 10 7 9 11 18 8 20 -3
3 -11 -1 -18 -10z"/>
<path d="M354 606 c-8 -21 -1 -61 11 -61 5 0 16 12 25 28 13 24 13 29 0 37
-21 13 -30 12 -36 -4z"/>
<path d="M1100 580 c0 -7 3 -10 7 -7 3 4 3 10 0 14 -4 3 -7 0 -7 -7z"/>
<path d="M710 560 c0 -19 3 -21 12 -12 9 9 9 15 0 24 -9 9 -12 7 -12 -12z"/>
<path d="M1455 570 c-3 -5 -2 -10 4 -10 5 0 13 5 16 10 3 6 2 10 -4 10 -5 0
-13 -4 -16 -10z"/>
<path d="M19 539 l-24 -21 25 16 c45 29 74 21 137 -42 53 -53 65 -60 133 -77
41 -10 84 -24 95 -31 11 -8 33 -14 50 -14 45 0 75 -11 75 -26 0 -7 11 -25 24
-41 l24 -27 42 19 c23 11 61 18 84 18 38 -2 44 2 101 63 54 60 65 67 106 71
40 5 57 0 115 -31 47 -24 88 -38 130 -42 58 -6 63 -9 80 -42 27 -50 48 -61 73
-38 12 11 21 27 21 38 0 19 15 25 24 9 3 -4 19 -11 34 -14 34 -7 92 -53 92
-72 0 -8 12 -27 26 -42 l26 -28 -21 29 c-12 16 -21 34 -21 41 0 19 -66 74 -98
81 -15 4 -32 11 -39 16 -16 13 -33 1 -33 -21 0 -23 -25 -45 -43 -38 -8 3 -23
23 -34 44 -19 36 -23 38 -84 46 -43 5 -87 20 -133 43 -58 31 -75 36 -115 31
-41 -4 -52 -12 -107 -71 -57 -61 -64 -65 -101 -63 -22 0 -60 -7 -83 -18 l-42
-19 -19 23 c-11 13 -19 30 -19 37 0 18 -40 34 -83 34 -18 0 -41 6 -52 14 -11
7 -54 21 -95 31 -69 17 -80 23 -132 77 -64 65 -98 74 -139 37z"/>
<path d="M505 550 c3 -5 8 -10 11 -10 2 0 4 5 4 10 0 6 -5 10 -11 10 -5 0 -7
-4 -4 -10z"/>
<path d="M1483 415 c-20 -23 -16 -73 7 -85 19 -10 20 -8 20 45 0 56 -6 65 -27
40z"/>
<path d="M680 410 c0 -7 3 -10 7 -7 3 4 3 10 0 14 -4 3 -7 0 -7 -7z"/>
</g>
</svg>
